G04*
G04 #@! TF.GenerationSoftware,Altium Limited,Altium Designer,21.6.1 (37)*
G04*
G04 Layer_Color=16711935*
%FSTAX23Y23*%
%MOIN*%
G70*
G04*
G04 #@! TF.SameCoordinates,70A83F60-4201-493C-AFFE-40F3CF65797C*
G04*
G04*
G04 #@! TF.FilePolarity,Positive*
G04*
G01*
G75*
%ADD17C,0.010*%
D17*
X01Y0114D02*
X01Y0113D01*
X01001Y0112D01*
X01003Y0111D01*
X01006Y01101D01*
X01009Y01091D01*
X01013Y01082D01*
X01017Y01073D01*
X01022Y01064D01*
X01028Y01056D01*
X01034Y01048D01*
X01041Y01041D01*
X01048Y01034D01*
X01056Y01028D01*
X01064Y01022D01*
X01073Y01017D01*
X01082Y01013D01*
X01091Y01009D01*
X01101Y01006D01*
X0111Y01003D01*
X0112Y01001D01*
X0113Y01D01*
X0114Y01D01*
X0336Y0322D02*
X0336Y0323D01*
X03359Y0324D01*
X03357Y0325D01*
X03354Y03259D01*
X03351Y03269D01*
X03347Y03278D01*
X03343Y03287D01*
X03338Y03296D01*
X03332Y03304D01*
X03326Y03312D01*
X03319Y03319D01*
X03312Y03326D01*
X03304Y03332D01*
X03296Y03338D01*
X03287Y03343D01*
X03278Y03347D01*
X03269Y03351D01*
X03259Y03354D01*
X0325Y03357D01*
X0324Y03359D01*
X0323Y0336D01*
X0322Y0336D01*
Y01D02*
X0323Y01D01*
X0324Y01001D01*
X0325Y01003D01*
X03259Y01006D01*
X03269Y01009D01*
X03278Y01013D01*
X03287Y01017D01*
X03296Y01022D01*
X03304Y01028D01*
X03312Y01034D01*
X03319Y01041D01*
X03326Y01048D01*
X03332Y01056D01*
X03338Y01064D01*
X03343Y01073D01*
X03347Y01082D01*
X03351Y01091D01*
X03354Y01101D01*
X03357Y0111D01*
X03359Y0112D01*
X0336Y0113D01*
X0336Y0114D01*
X0114Y0336D02*
X0113Y0336D01*
X0112Y03359D01*
X0111Y03357D01*
X01101Y03354D01*
X01091Y03351D01*
X01082Y03347D01*
X01073Y03343D01*
X01064Y03338D01*
X01056Y03332D01*
X01048Y03326D01*
X01041Y03319D01*
X01034Y03312D01*
X01028Y03304D01*
X01022Y03296D01*
X01017Y03287D01*
X01013Y03278D01*
X01009Y03269D01*
X01006Y03259D01*
X01003Y0325D01*
X01001Y0324D01*
X01Y0323D01*
X01Y0322D01*
X0114Y0336D02*
X0322D01*
X0114Y01D02*
X0322D01*
X01Y0114D02*
Y0322D01*
X0336Y0114D02*
Y0322D01*
M02*
