G04*
G04 #@! TF.GenerationSoftware,Altium Limited,Altium Designer,21.6.1 (37)*
G04*
G04 Layer_Color=16711935*
%FSTAX23Y23*%
%MOIN*%
G70*
G04*
G04 #@! TF.SameCoordinates,70A83F60-4201-493C-AFFE-40F3CF65797C*
G04*
G04*
G04 #@! TF.FilePolarity,Negative*
G04*
G01*
G75*
%ADD36R,0.069X0.069*%
%ADD37C,0.069*%
%ADD38C,0.081*%
%ADD39R,0.069X0.069*%
%ADD40C,0.163*%
D36*
X01638Y02771D02*
D03*
X01125Y01825D02*
D03*
Y02825D02*
D03*
X0267Y0192D02*
D03*
X03225Y02825D02*
D03*
Y01675D02*
D03*
D37*
X01638Y02871D02*
D03*
X0252Y0322D02*
D03*
X0262D02*
D03*
X0272D02*
D03*
X0282D02*
D03*
X01125Y01625D02*
D03*
Y01725D02*
D03*
Y01525D02*
D03*
Y02525D02*
D03*
Y02725D02*
D03*
Y02625D02*
D03*
X0277Y0192D02*
D03*
Y0182D02*
D03*
Y0172D02*
D03*
X0267Y0182D02*
D03*
Y0172D02*
D03*
X0174Y0322D02*
D03*
X0184D02*
D03*
X0194D02*
D03*
X0214D02*
D03*
X0204D02*
D03*
X0164D02*
D03*
X0154D02*
D03*
X0214Y0114D02*
D03*
X0144D02*
D03*
X0154D02*
D03*
X0164D02*
D03*
X0174D02*
D03*
X0184D02*
D03*
X0194D02*
D03*
X0204D02*
D03*
X0224D02*
D03*
X0288D02*
D03*
X0268D02*
D03*
X0278D02*
D03*
X03225Y02625D02*
D03*
Y02725D02*
D03*
Y02525D02*
D03*
Y02425D02*
D03*
Y02325D02*
D03*
Y02225D02*
D03*
Y01975D02*
D03*
Y01775D02*
D03*
Y01875D02*
D03*
D38*
X01361Y02045D02*
D03*
X01173Y02316D02*
D03*
X01361D02*
D03*
X01173Y02045D02*
D03*
X0165Y01625D02*
D03*
X01838Y01354D02*
D03*
X0165D02*
D03*
X01838Y01625D02*
D03*
X0161Y019D02*
D03*
Y02092D02*
D03*
D39*
X0292Y0322D02*
D03*
X0224D02*
D03*
X0234Y0114D02*
D03*
X0258D02*
D03*
D40*
X012Y012D02*
D03*
X0315D02*
D03*
Y0315D02*
D03*
X012D02*
D03*
M02*
