G04*
G04 #@! TF.GenerationSoftware,Altium Limited,Altium Designer,21.6.1 (37)*
G04*
G04 Layer_Physical_Order=1*
G04 Layer_Color=255*
%FSTAX23Y23*%
%MOIN*%
G70*
G04*
G04 #@! TF.SameCoordinates,3554761A-FA29-429D-AE60-9F5F3CB02BB6*
G04*
G04*
G04 #@! TF.FilePolarity,Positive*
G04*
G01*
G75*
%ADD15C,0.025*%
%ADD17C,0.010*%
%ADD18C,0.008*%
%ADD20O,0.057X0.012*%
%ADD21O,0.012X0.057*%
%ADD22R,0.060X0.026*%
%ADD23R,0.130X0.094*%
%ADD24R,0.039X0.094*%
%ADD25R,0.037X0.039*%
%ADD26R,0.039X0.037*%
%ADD27R,0.037X0.039*%
%ADD41C,0.020*%
%ADD42C,0.075*%
%ADD43C,0.063*%
%ADD44R,0.063X0.063*%
%ADD45R,0.063X0.063*%
%ADD46C,0.157*%
%ADD47C,0.024*%
G36*
X0324Y03348D02*
X0326Y03344D01*
X03279Y03336D01*
X03296Y03325D01*
X03312Y03312D01*
X03325Y03296D01*
X03336Y03279D01*
X03344Y0326D01*
X03348Y0324D01*
X0335Y0322D01*
X0335Y0322D01*
Y0114D01*
X0335Y0114D01*
X03348Y0112D01*
X03344Y011D01*
X03336Y01081D01*
X03325Y01064D01*
X03312Y01048D01*
X03296Y01035D01*
X03279Y01024D01*
X0326Y01016D01*
X0324Y01012D01*
X0322Y0101D01*
X0322Y0101D01*
X01145D01*
X01145Y0101D01*
X0114Y0101D01*
X01135Y0101D01*
X0112Y01012D01*
X011Y01016D01*
X01081Y01024D01*
X01064Y01035D01*
X01048Y01048D01*
X01035Y01064D01*
X01024Y01081D01*
X01016Y011D01*
X01012Y0112D01*
X0101Y0114D01*
X0101Y0114D01*
Y0322D01*
X0101Y0322D01*
X01012Y0324D01*
X01016Y0326D01*
X01024Y03279D01*
X01035Y03296D01*
X01048Y03312D01*
X01064Y03325D01*
X01081Y03336D01*
X011Y03344D01*
X0112Y03348D01*
X0114Y0335D01*
X0114Y0335D01*
X0322D01*
X0322Y0335D01*
X0324Y03348D01*
D02*
G37*
%LPC*%
G36*
X02825Y03256D02*
X02822D01*
Y03223D01*
X02856D01*
Y03225D01*
X02854Y03234D01*
X02849Y03242D01*
X02842Y03249D01*
X02834Y03254D01*
X02825Y03256D01*
D02*
G37*
G36*
X02818D02*
X02815D01*
X02806Y03254D01*
X02798Y03249D01*
X02791Y03242D01*
X02786Y03234D01*
X02784Y03225D01*
Y03223D01*
X02818D01*
Y03256D01*
D02*
G37*
G36*
X02856Y03217D02*
X02822D01*
Y03184D01*
X02825D01*
X02834Y03186D01*
X02842Y03191D01*
X02849Y03198D01*
X02854Y03206D01*
X02856Y03215D01*
Y03217D01*
D02*
G37*
G36*
X02818D02*
X02784D01*
Y03215D01*
X02786Y03206D01*
X02791Y03198D01*
X02798Y03191D01*
X02806Y03186D01*
X02815Y03184D01*
X02818D01*
Y03217D01*
D02*
G37*
G36*
X02625Y03256D02*
X02615D01*
X02606Y03254D01*
X02598Y03249D01*
X02591Y03242D01*
X02586Y03234D01*
X02584Y03225D01*
Y03215D01*
X02586Y03206D01*
X02591Y03198D01*
X02598Y03191D01*
X02606Y03186D01*
X02615Y03184D01*
X02625D01*
X02634Y03186D01*
X02642Y03191D01*
X02649Y03198D01*
X02654Y03206D01*
X02656Y03215D01*
Y03225D01*
X02654Y03234D01*
X02649Y03242D01*
X02642Y03249D01*
X02634Y03254D01*
X02625Y03256D01*
D02*
G37*
G36*
X02471Y03287D02*
X02189D01*
X02182Y03285D01*
X02176Y03282D01*
X02176Y03282D01*
X02161Y03267D01*
X02161Y03267D01*
X02159Y03265D01*
X02157Y03263D01*
X02155Y03261D01*
X02153Y0326D01*
X02151Y03259D01*
X02149Y03258D01*
X02147Y03258D01*
X02145Y03257D01*
X02143Y03257D01*
X0214Y03257D01*
X02139Y03256D01*
X02135D01*
X02126Y03254D01*
X02118Y03249D01*
X02111Y03242D01*
X02106Y03234D01*
X02104Y03225D01*
Y03215D01*
X02106Y03206D01*
X02111Y03198D01*
X02118Y03191D01*
X02126Y03186D01*
X02135Y03184D01*
X02145D01*
X02154Y03186D01*
X02162Y03191D01*
X02169Y03198D01*
X02174Y03206D01*
X02176Y03215D01*
Y03219D01*
X02177Y0322D01*
X02177Y03223D01*
X02177Y03225D01*
X02178Y03227D01*
X02178Y03229D01*
X02179Y03231D01*
X0218Y03233D01*
X02181Y03235D01*
X02183Y03237D01*
X02185Y03239D01*
X02187Y03241D01*
X02187Y03241D01*
X02196Y03251D01*
X02204D01*
Y03223D01*
X0224D01*
X02276D01*
Y03251D01*
X02464D01*
X02473Y03241D01*
X02473Y03241D01*
X02475Y03239D01*
X02477Y03237D01*
X02479Y03235D01*
X0248Y03233D01*
X02481Y03231D01*
X02482Y03229D01*
X02482Y03227D01*
X02483Y03225D01*
X02483Y03223D01*
X02483Y0322D01*
X02484Y03219D01*
Y03215D01*
X02486Y03206D01*
X02491Y03198D01*
X02498Y03191D01*
X02506Y03186D01*
X02515Y03184D01*
X02525D01*
X02534Y03186D01*
X02542Y03191D01*
X02549Y03198D01*
X02554Y03206D01*
X02556Y03215D01*
Y03225D01*
X02554Y03234D01*
X02549Y03242D01*
X02542Y03249D01*
X02534Y03254D01*
X02525Y03256D01*
X02521D01*
X0252Y03257D01*
X02517Y03257D01*
X02515Y03257D01*
X02513Y03258D01*
X02511Y03258D01*
X02509Y03259D01*
X02507Y0326D01*
X02505Y03261D01*
X02503Y03263D01*
X02501Y03265D01*
X02499Y03267D01*
X02499Y03267D01*
X02484Y03282D01*
X02478Y03285D01*
X02471Y03287D01*
D02*
G37*
G36*
X02276Y03217D02*
X02243D01*
Y03184D01*
X02276D01*
Y03217D01*
D02*
G37*
G36*
X02237D02*
X02204D01*
Y03184D01*
X02237D01*
Y03217D01*
D02*
G37*
G36*
X03158Y03234D02*
X03152D01*
Y03152D01*
X03234D01*
Y03158D01*
X03231Y03174D01*
X03224Y0319D01*
X03215Y03203D01*
X03203Y03215D01*
X0319Y03224D01*
X03174Y03231D01*
X03158Y03234D01*
D02*
G37*
G36*
X03148D02*
X03142D01*
X03126Y03231D01*
X0311Y03224D01*
X03097Y03215D01*
X03085Y03203D01*
X03076Y0319D01*
X03069Y03174D01*
X03066Y03158D01*
Y03152D01*
X03148D01*
Y03234D01*
D02*
G37*
G36*
X01208D02*
X01202D01*
Y03152D01*
X01284D01*
Y03158D01*
X01281Y03174D01*
X01274Y0319D01*
X01265Y03203D01*
X01253Y03215D01*
X0124Y03224D01*
X01224Y03231D01*
X01208Y03234D01*
D02*
G37*
G36*
X01197D02*
X01192D01*
X01176Y03231D01*
X0116Y03224D01*
X01147Y03215D01*
X01135Y03203D01*
X01126Y0319D01*
X01119Y03174D01*
X01116Y03158D01*
Y03152D01*
X01197D01*
Y03234D01*
D02*
G37*
G36*
X03234Y03148D02*
X03152D01*
Y03066D01*
X03158D01*
X03174Y03069D01*
X0319Y03076D01*
X03203Y03085D01*
X03215Y03097D01*
X03224Y0311D01*
X03231Y03126D01*
X03234Y03142D01*
Y03148D01*
D02*
G37*
G36*
X03148D02*
X03066D01*
Y03142D01*
X03069Y03126D01*
X03076Y0311D01*
X03085Y03097D01*
X03097Y03085D01*
X0311Y03076D01*
X03126Y03069D01*
X03142Y03066D01*
X03148D01*
Y03148D01*
D02*
G37*
G36*
X01284D02*
X01202D01*
Y03066D01*
X01208D01*
X01224Y03069D01*
X0124Y03076D01*
X01253Y03085D01*
X01265Y03097D01*
X01274Y0311D01*
X01281Y03126D01*
X01284Y03142D01*
Y03148D01*
D02*
G37*
G36*
X01197D02*
X01116D01*
Y03142D01*
X01119Y03126D01*
X01126Y0311D01*
X01135Y03097D01*
X01147Y03085D01*
X0116Y03076D01*
X01176Y03069D01*
X01192Y03066D01*
X01197D01*
Y03148D01*
D02*
G37*
G36*
X02956Y03256D02*
X02884D01*
Y03184D01*
X02903D01*
X02903Y03183D01*
X02903Y03183D01*
X02904Y03183D01*
X02904Y03182D01*
X02904Y0318D01*
X02904Y03178D01*
X02904Y03178D01*
Y02964D01*
X02836Y02895D01*
X02832Y02892D01*
X02829Y02895D01*
X0273Y02994D01*
Y03169D01*
X0273Y0317D01*
X02731Y03171D01*
X02731Y03173D01*
X02732Y03175D01*
X02733Y03177D01*
X02734Y03179D01*
X02736Y03182D01*
X02738Y03185D01*
X02743Y03191D01*
X02746Y03194D01*
X02746Y03195D01*
X02749Y03198D01*
X02754Y03206D01*
X02756Y03215D01*
Y03225D01*
X02754Y03234D01*
X02749Y03242D01*
X02742Y03249D01*
X02734Y03254D01*
X02725Y03256D01*
X02715D01*
X02706Y03254D01*
X02698Y03249D01*
X02691Y03242D01*
X02686Y03234D01*
X02684Y03225D01*
Y03215D01*
X02686Y03206D01*
X02691Y03198D01*
X02694Y03195D01*
X02694Y03194D01*
X02697Y03191D01*
X02702Y03185D01*
X02704Y03182D01*
X02706Y03179D01*
X02707Y03177D01*
X02708Y03175D01*
X02709Y03173D01*
X02709Y03171D01*
X0271Y0317D01*
X0271Y03169D01*
Y02997D01*
X02705Y02995D01*
X02612Y03087D01*
X02609Y03089D01*
X02605Y0309D01*
X02184D01*
X02083Y03191D01*
X02083Y03192D01*
X02082Y03193D01*
X02081Y03195D01*
X0208Y03196D01*
X02079Y03199D01*
X02078Y03201D01*
X02078Y03204D01*
X02077Y03207D01*
X02077Y03215D01*
X02077Y0322D01*
X02076Y03221D01*
Y03225D01*
X02074Y03234D01*
X02069Y03242D01*
X02062Y03249D01*
X02054Y03254D01*
X02045Y03256D01*
X02035D01*
X02026Y03254D01*
X02018Y03249D01*
X02011Y03242D01*
X02006Y03234D01*
X02004Y03225D01*
Y03215D01*
X02006Y03206D01*
X02011Y03198D01*
X02018Y03191D01*
X02026Y03186D01*
X02035Y03184D01*
X02039D01*
X0204Y03183D01*
X02045Y03183D01*
X02053Y03183D01*
X02056Y03182D01*
X02059Y03182D01*
X02061Y03181D01*
X02064Y0318D01*
X02065Y03179D01*
X02067Y03178D01*
X02068Y03177D01*
X02069Y03177D01*
X02166Y0308D01*
X02164Y03075D01*
X02099D01*
X01983Y03191D01*
X01983Y03192D01*
X01982Y03193D01*
X01981Y03195D01*
X0198Y03196D01*
X01979Y03199D01*
X01978Y03201D01*
X01978Y03204D01*
X01977Y03207D01*
X01977Y03215D01*
X01977Y0322D01*
X01976Y03221D01*
Y03225D01*
X01974Y03234D01*
X01969Y03242D01*
X01962Y03249D01*
X01954Y03254D01*
X01945Y03256D01*
X01935D01*
X01926Y03254D01*
X01918Y03249D01*
X01911Y03242D01*
X01906Y03234D01*
X01904Y03225D01*
Y03215D01*
X01906Y03206D01*
X01911Y03198D01*
X01918Y03191D01*
X01926Y03186D01*
X01935Y03184D01*
X01939D01*
X0194Y03183D01*
X01945Y03183D01*
X01953Y03183D01*
X01956Y03182D01*
X01959Y03182D01*
X01961Y03181D01*
X01964Y0318D01*
X01965Y03179D01*
X01967Y03178D01*
X01968Y03177D01*
X01969Y03177D01*
X02081Y03065D01*
X02079Y0306D01*
X02014D01*
X01883Y03191D01*
X01883Y03192D01*
X01882Y03193D01*
X01881Y03195D01*
X0188Y03196D01*
X01879Y03199D01*
X01878Y03201D01*
X01878Y03204D01*
X01877Y03207D01*
X01877Y03215D01*
X01877Y0322D01*
X01876Y03221D01*
Y03225D01*
X01874Y03234D01*
X01869Y03242D01*
X01862Y03249D01*
X01854Y03254D01*
X01845Y03256D01*
X01835D01*
X01826Y03254D01*
X01818Y03249D01*
X01811Y03242D01*
X01806Y03234D01*
X01804Y03225D01*
Y03215D01*
X01806Y03206D01*
X01811Y03198D01*
X01818Y03191D01*
X01826Y03186D01*
X01835Y03184D01*
X01839D01*
X0184Y03183D01*
X01845Y03183D01*
X01853Y03183D01*
X01856Y03182D01*
X01859Y03182D01*
X01861Y03181D01*
X01864Y0318D01*
X01865Y03179D01*
X01867Y03178D01*
X01868Y03177D01*
X01869Y03177D01*
X01996Y0305D01*
X01994Y03045D01*
X01929D01*
X01783Y03191D01*
X01783Y03192D01*
X01782Y03193D01*
X01781Y03195D01*
X0178Y03196D01*
X01779Y03199D01*
X01778Y03201D01*
X01778Y03204D01*
X01777Y03207D01*
X01777Y03215D01*
X01777Y0322D01*
X01776Y03221D01*
Y03225D01*
X01774Y03234D01*
X01769Y03242D01*
X01762Y03249D01*
X01754Y03254D01*
X01745Y03256D01*
X01735D01*
X01726Y03254D01*
X01718Y03249D01*
X01711Y03242D01*
X01706Y03234D01*
X01704Y03225D01*
Y03215D01*
X01706Y03206D01*
X01711Y03198D01*
X01718Y03191D01*
X01726Y03186D01*
X01735Y03184D01*
X01739D01*
X0174Y03183D01*
X01745Y03183D01*
X01753Y03183D01*
X01756Y03182D01*
X01759Y03182D01*
X01761Y03181D01*
X01764Y0318D01*
X01765Y03179D01*
X01767Y03178D01*
X01768Y03177D01*
X01769Y03177D01*
X01911Y03035D01*
X01909Y0303D01*
X01844D01*
X01683Y03191D01*
X01683Y03192D01*
X01682Y03193D01*
X01681Y03195D01*
X0168Y03196D01*
X01679Y03199D01*
X01678Y03201D01*
X01678Y03204D01*
X01677Y03207D01*
X01677Y03215D01*
X01677Y0322D01*
X01676Y03221D01*
Y03225D01*
X01674Y03234D01*
X01669Y03242D01*
X01662Y03249D01*
X01654Y03254D01*
X01645Y03256D01*
X01635D01*
X01626Y03254D01*
X01618Y03249D01*
X01611Y03242D01*
X01606Y03234D01*
X01604Y03225D01*
Y03215D01*
X01606Y03206D01*
X01611Y03198D01*
X01618Y03191D01*
X01626Y03186D01*
X01635Y03184D01*
X01639D01*
X0164Y03183D01*
X01645Y03183D01*
X01653Y03183D01*
X01656Y03182D01*
X01659Y03182D01*
X01661Y03181D01*
X01664Y0318D01*
X01665Y03179D01*
X01667Y03178D01*
X01668Y03177D01*
X01669Y03177D01*
X01826Y0302D01*
X01824Y03015D01*
X01759D01*
X01583Y03191D01*
X01583Y03192D01*
X01582Y03193D01*
X01581Y03195D01*
X0158Y03196D01*
X01579Y03199D01*
X01578Y03201D01*
X01578Y03204D01*
X01577Y03207D01*
X01577Y03215D01*
X01577Y0322D01*
X01576Y03221D01*
Y03225D01*
X01574Y03234D01*
X01569Y03242D01*
X01562Y03249D01*
X01554Y03254D01*
X01545Y03256D01*
X01535D01*
X01526Y03254D01*
X01518Y03249D01*
X01511Y03242D01*
X01506Y03234D01*
X01504Y03225D01*
Y03215D01*
X01506Y03206D01*
X01511Y03198D01*
X01518Y03191D01*
X01526Y03186D01*
X01535Y03184D01*
X01539D01*
X0154Y03183D01*
X01545Y03183D01*
X01553Y03183D01*
X01556Y03182D01*
X01559Y03182D01*
X01561Y03181D01*
X01564Y0318D01*
X01565Y03179D01*
X01567Y03178D01*
X01568Y03177D01*
X01569Y03177D01*
X01748Y02998D01*
X01751Y02996D01*
X01755Y02995D01*
X0257D01*
X02725Y0284D01*
Y025D01*
X0264Y02414D01*
X02399D01*
X02395Y02414D01*
X02392Y02411D01*
X02198Y02217D01*
X02193Y02219D01*
Y02243D01*
X02202Y02253D01*
X02204Y02256D01*
X02205Y0226D01*
Y02265D01*
X02205Y02266D01*
X02205Y02268D01*
X02206Y02269D01*
X02206Y0227D01*
X02206Y02271D01*
X02206Y02271D01*
X02219D01*
Y0232D01*
X02173D01*
Y0233D01*
X02219D01*
Y0234D01*
X02219Y0234D01*
X02219Y0234D01*
X02219Y0234D01*
X02219Y02341D01*
X02219Y02341D01*
X02219Y02341D01*
X02224Y02342D01*
X02224Y02342D01*
X02225Y02341D01*
X02232Y02338D01*
X02238D01*
X02245Y02341D01*
X02249Y02345D01*
X02252Y02352D01*
Y02358D01*
X02249Y02365D01*
X02245Y02369D01*
X02238Y02372D01*
X02232D01*
X02225Y02369D01*
X02224Y02368D01*
X02224Y02368D01*
X02219Y02369D01*
X02219Y02369D01*
X02219Y02369D01*
X02219Y0237D01*
X02219Y0237D01*
X02219Y0237D01*
X02219Y0237D01*
Y02379D01*
X02188D01*
X02186Y02384D01*
X0229Y02487D01*
X02577D01*
X02581Y02488D01*
X02585Y0249D01*
X02707Y02613D01*
X02709Y02616D01*
X0271Y0262D01*
Y02755D01*
X02709Y02759D01*
X02707Y02762D01*
X02696Y02773D01*
X02693Y02775D01*
X02689Y02776D01*
X02639D01*
X02635Y02775D01*
X02632Y02773D01*
X02632Y02773D01*
X02602D01*
X02601Y02773D01*
X026Y02773D01*
X02598Y02773D01*
X02597Y02773D01*
X02596Y02774D01*
X02596Y02774D01*
Y0278D01*
X02526D01*
Y02745D01*
X02596D01*
Y02752D01*
X02596Y02752D01*
X02597Y02752D01*
X02598Y02752D01*
X026Y02752D01*
X02601Y02752D01*
X02602Y02752D01*
X02636D01*
X0264Y02753D01*
X02643Y02755D01*
X02644Y02756D01*
X02685D01*
X0269Y02751D01*
Y02624D01*
X02573Y02508D01*
X02384D01*
X02382Y02512D01*
X02468Y02597D01*
X02521D01*
X02521Y02597D01*
X02525Y02597D01*
X02526Y02597D01*
X02526Y02597D01*
Y02595D01*
X02531D01*
X02531Y02594D01*
X02532Y02595D01*
X02532Y02595D01*
X02533Y02595D01*
X02596D01*
Y0263D01*
X02526D01*
Y02618D01*
X02526Y02618D01*
X02525Y02618D01*
X02524Y02618D01*
X02523Y02618D01*
X02521Y02618D01*
X02521Y02618D01*
X02463D01*
X02459Y02617D01*
X02456Y02615D01*
X02364Y02523D01*
X02279D01*
X02275Y02522D01*
X02272Y0252D01*
X02136Y02384D01*
X02134Y02381D01*
X02134Y02377D01*
Y02341D01*
X02129Y0234D01*
X02126Y02342D01*
X02125Y02344D01*
X02124Y02345D01*
X02124Y02346D01*
Y02349D01*
X02124Y02349D01*
X02124Y0235D01*
Y0235D01*
X02124Y0235D01*
X02124Y0235D01*
Y02352D01*
X021D01*
Y02355D01*
X02098D01*
Y02379D01*
X02076D01*
X02075Y02384D01*
Y02436D01*
X02075Y02436D01*
X02075Y0244D01*
X02075Y02443D01*
X02076Y02446D01*
X02076Y02448D01*
X02077Y02449D01*
X02077Y0245D01*
X02078Y02451D01*
X02078Y02451D01*
X02079Y02451D01*
X0208Y02451D01*
X0208Y02451D01*
X02084D01*
Y02456D01*
X02085Y02456D01*
X02084Y02457D01*
X02084Y02457D01*
X02084Y02457D01*
Y02493D01*
X02084Y02493D01*
X02084Y02493D01*
X02085Y02494D01*
X02084Y02494D01*
Y02499D01*
X0208D01*
X0208Y02499D01*
X02079Y02499D01*
X02078Y02499D01*
X02078Y02499D01*
X02077Y025D01*
X02077Y02501D01*
X02076Y02502D01*
X02076Y02504D01*
X02075Y02507D01*
X02075Y02509D01*
X02075Y0251D01*
X02076Y02513D01*
X02076Y02515D01*
X02077Y02516D01*
X02077Y02517D01*
X02078Y02518D01*
X02078Y02518D01*
X02079Y02518D01*
X0208Y02518D01*
X02081Y02519D01*
X021D01*
Y0255D01*
X021Y0255D01*
X021Y02552D01*
X021Y02552D01*
X02101Y02552D01*
X02101Y02553D01*
X02102Y02553D01*
X02104Y02554D01*
X02106Y02555D01*
X02108Y02555D01*
X02111Y02555D01*
X02115Y02555D01*
X02115Y02556D01*
X02191D01*
X02197Y02553D01*
X02203D01*
X0221Y02556D01*
X02214Y0256D01*
X02217Y02567D01*
Y02573D01*
X02214Y0258D01*
X0221Y02584D01*
X02203Y02587D01*
X02197D01*
X02195Y02586D01*
X02115D01*
X02115Y02586D01*
X02111Y02586D01*
X02108Y02587D01*
X02106Y02587D01*
X02104Y02588D01*
X02102Y02588D01*
X02101Y02589D01*
X02101Y02589D01*
X021Y0259D01*
X021Y0259D01*
X021Y02591D01*
X021Y02592D01*
Y02623D01*
X02051D01*
X02051Y02623D01*
X02049Y02623D01*
X02049Y02624D01*
X02048Y02624D01*
X02048Y02624D01*
X02047Y02625D01*
X02047Y02627D01*
X02046Y02629D01*
X02046Y02631D01*
X02046Y02634D01*
X02045Y02638D01*
X02045Y02638D01*
Y02732D01*
X02045Y02732D01*
X02046Y02736D01*
X02046Y02739D01*
X02046Y02741D01*
X02047Y02743D01*
X02047Y02745D01*
X02048Y02746D01*
X02048Y02746D01*
X02049Y02746D01*
X02049Y02747D01*
X0205Y02747D01*
X02051Y02747D01*
X02055D01*
Y02751D01*
X02055Y02752D01*
X02055Y02752D01*
X02055Y02753D01*
X02055Y02753D01*
Y02834D01*
X02059Y02836D01*
X02066Y0283D01*
Y02745D01*
X02067Y02738D01*
X02071Y02732D01*
X02233Y0257D01*
X02239Y02566D01*
X02246Y02564D01*
X02385D01*
X02392Y02566D01*
X02398Y0257D01*
X02408Y0258D01*
X02408Y0258D01*
X02412Y02586D01*
X02413Y02593D01*
Y02633D01*
X02412Y02639D01*
X02408Y02645D01*
X02408Y02645D01*
X02396Y02657D01*
X02395Y02658D01*
X02383Y0267D01*
Y0268D01*
X02365D01*
X02365Y0268D01*
X02348D01*
X02348Y0268D01*
X02313D01*
Y02645D01*
X02348D01*
X02348Y02645D01*
X02358D01*
X02367Y02635D01*
X02365Y0263D01*
X02348D01*
X02348Y0263D01*
X02318D01*
X02318Y02631D01*
X02318Y02631D01*
X02318Y02631D01*
X02293Y0263D01*
X02293Y0263D01*
X02287D01*
X02162Y02756D01*
X02162Y02756D01*
X02153Y02765D01*
X02149Y0277D01*
X02147Y02773D01*
X02145Y02776D01*
Y02787D01*
X02146Y02787D01*
X02145Y02788D01*
X02145Y02788D01*
X02145Y02789D01*
Y02797D01*
X02121D01*
Y02799D01*
X02118D01*
Y02851D01*
X02096D01*
X02096Y02851D01*
Y02851D01*
X02092Y02854D01*
X02023Y02923D01*
X02022Y02924D01*
X02021Y0293D01*
X02022Y02931D01*
X02086D01*
X02212Y02805D01*
Y0277D01*
X02214Y02763D01*
X02217Y02757D01*
X02275Y027D01*
X02275Y027D01*
X02281Y02696D01*
X02287Y02695D01*
X02287Y02695D01*
X02293D01*
X02293Y02695D01*
X02317Y02695D01*
X02317Y02695D01*
X02317Y02695D01*
X02317Y02695D01*
X02317Y02695D01*
X02318Y02695D01*
X02318Y02694D01*
X02318Y02695D01*
X02348D01*
X02348Y02695D01*
X02383D01*
Y0273D01*
X02348D01*
X02348Y0273D01*
X02318D01*
X02318Y02731D01*
X02318Y02731D01*
X02318Y02731D01*
X02295Y0273D01*
X02248Y02777D01*
Y02813D01*
X02246Y0282D01*
X02243Y02825D01*
X02106Y02962D01*
X02101Y02965D01*
X02094Y02967D01*
X01502D01*
X01495Y02965D01*
X0149Y02962D01*
X0149Y02962D01*
X01475Y02947D01*
X01471Y02941D01*
X0147Y02934D01*
Y02929D01*
X01462D01*
X01462Y02929D01*
X01461Y02929D01*
X01461Y02929D01*
X0146Y02929D01*
X01456D01*
Y02925D01*
X01455Y02925D01*
X01453Y02924D01*
X01451Y02924D01*
X0144Y02923D01*
X01436Y02923D01*
X01436Y02923D01*
X01305D01*
X01298Y02921D01*
X01292Y02918D01*
X01292Y02918D01*
X01166Y02792D01*
X01161Y02794D01*
Y02822D01*
X01128D01*
Y02789D01*
X01156D01*
X01158Y02784D01*
X01146Y02772D01*
X01146Y02772D01*
X01144Y0277D01*
X01142Y02768D01*
X0114Y02766D01*
X01138Y02765D01*
X01136Y02764D01*
X01134Y02763D01*
X01132Y02763D01*
X0113Y02762D01*
X01128Y02762D01*
X01125Y02762D01*
X01124Y02761D01*
X0112D01*
X01111Y02759D01*
X01103Y02754D01*
X01096Y02747D01*
X01091Y02739D01*
X01089Y0273D01*
Y0272D01*
X01091Y02711D01*
X01096Y02703D01*
X01103Y02696D01*
X01111Y02691D01*
X0112Y02689D01*
X0113D01*
X01139Y02691D01*
X01147Y02696D01*
X01154Y02703D01*
X01159Y02711D01*
X01161Y0272D01*
Y02724D01*
X01162Y02725D01*
X01162Y02728D01*
X01162Y0273D01*
X01163Y02732D01*
X01163Y02734D01*
X01164Y02736D01*
X01165Y02738D01*
X01166Y0274D01*
X01168Y02742D01*
X0117Y02744D01*
X01172Y02746D01*
X01172Y02746D01*
X01312Y02887D01*
X01436D01*
X01436Y02887D01*
X0144Y02887D01*
X01448Y02887D01*
X01451Y02886D01*
X01453Y02886D01*
X01455Y02885D01*
X01456Y02885D01*
Y02881D01*
X0146D01*
X01461Y02881D01*
X01461Y02881D01*
X01462Y02881D01*
X01462Y02881D01*
X01505D01*
Y02909D01*
X01506Y02911D01*
X01506Y02911D01*
Y02927D01*
X0151Y02931D01*
X01511D01*
X01515Y02929D01*
Y02881D01*
X01558D01*
X01559Y02881D01*
X0156Y02881D01*
X01564D01*
Y02883D01*
X01564Y02883D01*
X01566Y02884D01*
X0158Y02885D01*
X01584Y02885D01*
X01584Y02885D01*
X01591D01*
X01591Y02885D01*
X01591Y02885D01*
X01591Y02885D01*
X01594Y02884D01*
X01597Y02884D01*
X01599Y02884D01*
X01601Y02883D01*
X01603Y02882D01*
X01605Y02882D01*
X01607Y0288D01*
X01609Y02879D01*
X0161Y02878D01*
X01612Y02876D01*
X01613Y02876D01*
X01618Y02871D01*
X01626Y02866D01*
X01635Y02864D01*
X01645D01*
X01654Y02866D01*
X01662Y02871D01*
X01669Y02878D01*
X01674Y02886D01*
X01676Y02895D01*
Y02905D01*
X01674Y02914D01*
X01669Y02922D01*
X01665Y02926D01*
X01668Y02931D01*
X01739D01*
X0174Y0293D01*
X01739Y02924D01*
X01737Y02923D01*
X01668Y02853D01*
X01668Y02853D01*
X01658Y02844D01*
X01654Y02841D01*
X0165Y02838D01*
X01647Y02836D01*
X01636D01*
X01636Y02837D01*
X01636Y02836D01*
X01635Y02837D01*
X01635Y02836D01*
X01604D01*
Y02826D01*
X01603Y02826D01*
X01603Y02824D01*
X01603Y02823D01*
X01602Y02822D01*
X01601Y02821D01*
X016Y0282D01*
X01598Y0282D01*
X01595Y02819D01*
X01592Y02818D01*
X01588Y02818D01*
X01583Y02818D01*
X01583Y02818D01*
X013D01*
X013Y02818D01*
X01293Y02816D01*
X01287Y02813D01*
X01287Y02813D01*
X01146Y02672D01*
X01146Y02672D01*
X01144Y0267D01*
X01142Y02668D01*
X0114Y02666D01*
X01138Y02665D01*
X01136Y02664D01*
X01134Y02663D01*
X01132Y02663D01*
X0113Y02662D01*
X01128Y02662D01*
X01125Y02662D01*
X01124Y02661D01*
X0112D01*
X01111Y02659D01*
X01103Y02654D01*
X01096Y02647D01*
X01091Y02639D01*
X01089Y0263D01*
Y02626D01*
X01088Y02625D01*
X01088Y02622D01*
X01088Y0262D01*
X01087Y02618D01*
X01087Y02616D01*
X01086Y02614D01*
X01085Y02612D01*
X01084Y0261D01*
X01082Y02608D01*
X0108Y02606D01*
X01078Y02604D01*
X01078Y02604D01*
X01029Y02554D01*
X01025Y02548D01*
X01023Y02541D01*
Y01709D01*
X01025Y01702D01*
X01029Y01696D01*
X01078Y01646D01*
X01078Y01646D01*
X0108Y01644D01*
X01082Y01642D01*
X01084Y0164D01*
X01085Y01638D01*
X01086Y01636D01*
X01087Y01634D01*
X01087Y01632D01*
X01088Y0163D01*
X01088Y01628D01*
X01088Y01625D01*
X01089Y01624D01*
Y0162D01*
X01091Y01611D01*
X01096Y01603D01*
X01103Y01596D01*
X01111Y01591D01*
X0112Y01589D01*
X0113D01*
X01139Y01591D01*
X01147Y01596D01*
X01151Y016D01*
X01156Y01597D01*
Y01581D01*
X01146Y01572D01*
X01146Y01572D01*
X01144Y0157D01*
X01142Y01568D01*
X0114Y01566D01*
X01138Y01565D01*
X01136Y01564D01*
X01134Y01563D01*
X01132Y01563D01*
X0113Y01562D01*
X01128Y01562D01*
X01125Y01562D01*
X01124Y01561D01*
X0112D01*
X01111Y01559D01*
X01103Y01554D01*
X01096Y01547D01*
X01091Y01539D01*
X01089Y0153D01*
Y0152D01*
X01091Y01511D01*
X01096Y01503D01*
X01103Y01496D01*
X01111Y01491D01*
X0112Y01489D01*
X0113D01*
X01139Y01491D01*
X01147Y01496D01*
X01154Y01503D01*
X01159Y01511D01*
X01161Y0152D01*
Y01524D01*
X01162Y01525D01*
X01162Y01528D01*
X01162Y0153D01*
X01163Y01532D01*
X01163Y01534D01*
X01164Y01536D01*
X01165Y01538D01*
X01166Y0154D01*
X01168Y01542D01*
X0117Y01544D01*
X01172Y01546D01*
X01172Y01546D01*
X01187Y01561D01*
X01187Y01561D01*
X0119Y01567D01*
X01192Y01574D01*
Y01966D01*
X0119Y01973D01*
X01187Y01978D01*
X01187Y01978D01*
X01168Y01997D01*
X0117Y02002D01*
X01171D01*
Y02045D01*
Y02087D01*
X01167D01*
X01157Y02084D01*
X01147Y02079D01*
X01141Y02072D01*
X01136Y02075D01*
Y02285D01*
X01141Y02288D01*
X01147Y02281D01*
X01157Y02276D01*
X01167Y02273D01*
X01171D01*
Y02316D01*
Y02358D01*
X01167D01*
X01157Y02355D01*
X01147Y0235D01*
X01141Y02343D01*
X01136Y02346D01*
Y02475D01*
X01136Y02475D01*
X01136Y02478D01*
X01136Y0248D01*
X01137Y02483D01*
X01137Y02485D01*
X01138Y02487D01*
X01139Y02488D01*
X0114Y0249D01*
X01141Y02491D01*
X01143Y02492D01*
X01145Y02494D01*
X01145Y02494D01*
X01147Y02496D01*
X0115Y02499D01*
X01151Y02499D01*
X01153Y02501D01*
X01155Y02502D01*
X01156Y02503D01*
X01158Y02504D01*
X0116Y02505D01*
X01163Y02506D01*
X01165Y02506D01*
X01167Y02507D01*
X0117Y02507D01*
X01173Y02507D01*
X01173Y02507D01*
X01322D01*
X01328Y02509D01*
X01334Y02512D01*
X01515Y02693D01*
X01682D01*
X01686Y02689D01*
X01686Y02681D01*
Y02666D01*
X01687Y02664D01*
Y02636D01*
X01729D01*
X0173Y02636D01*
X0173Y02636D01*
X01731Y02636D01*
X01732Y02636D01*
X01736D01*
Y0264D01*
X01737Y0264D01*
X01738Y02641D01*
X01741Y02641D01*
X01751Y02642D01*
X01756Y02642D01*
X01756Y02642D01*
X01828D01*
X01835Y02644D01*
X0184Y02647D01*
X01923Y0273D01*
X01924Y0273D01*
X01933Y02739D01*
X01937Y02743D01*
X01941Y02745D01*
X01944Y02747D01*
X01955D01*
X01955Y02747D01*
X01956Y02747D01*
X01956Y02747D01*
X01956Y02747D01*
X01964D01*
Y02845D01*
X01964Y02845D01*
X01964Y02846D01*
X01964Y02846D01*
X01964Y02847D01*
Y02851D01*
X0196D01*
X0196Y02851D01*
X0196Y02852D01*
X01959Y02854D01*
X01959Y02856D01*
X01958Y02867D01*
X01958Y02871D01*
X01958Y02872D01*
Y0288D01*
X01956Y02887D01*
X01956Y02888D01*
X01958Y02892D01*
X02003D01*
X0204Y02856D01*
X02038Y02851D01*
X02005D01*
Y02753D01*
X02005Y02753D01*
X02005Y02752D01*
X02005Y02752D01*
X02005Y02751D01*
Y02747D01*
X02009D01*
X0201Y02747D01*
X02011Y02747D01*
X02011Y02746D01*
X02012Y02746D01*
X02012Y02746D01*
X02013Y02745D01*
X02013Y02743D01*
X02014Y02741D01*
X02014Y02739D01*
X02014Y02736D01*
X02015Y02732D01*
X02015Y02732D01*
Y02638D01*
X02015Y02638D01*
X02014Y02634D01*
X02014Y02631D01*
X02014Y02629D01*
X02013Y02627D01*
X02013Y02625D01*
X02012Y02624D01*
X02012Y02624D01*
X02011Y02624D01*
X02011Y02623D01*
X02009Y02623D01*
X02009Y02623D01*
X01967D01*
X01966Y02623D01*
X01966Y02623D01*
X01965Y02623D01*
X01964Y02623D01*
X0196D01*
Y0262D01*
X01959Y0262D01*
X01957Y02619D01*
X01949Y02619D01*
X01945Y02619D01*
X01945Y02618D01*
X01529D01*
X01523Y02617D01*
X01518Y02614D01*
X0151Y02606D01*
X0151Y02606D01*
X01502Y02599D01*
X01499Y02596D01*
X01496Y02594D01*
X01494Y02593D01*
X01486D01*
X01485Y02593D01*
X01485Y02593D01*
X01485D01*
X01484Y02593D01*
X01484Y02593D01*
X01472D01*
Y02551D01*
X01472Y0255D01*
X01472Y0255D01*
X01472Y0255D01*
X01472Y02549D01*
Y02545D01*
X01476D01*
X01477Y02544D01*
X01477Y02544D01*
X01477Y02544D01*
X01478Y02544D01*
X01478Y02544D01*
X01478Y02543D01*
X01479Y02541D01*
X01479Y02539D01*
X0148Y02533D01*
X0148Y0253D01*
X0148Y02529D01*
Y02518D01*
X0148Y02518D01*
X0148Y02515D01*
X0148Y02511D01*
X01479Y02509D01*
X01479Y02507D01*
X01478Y02505D01*
X01478Y02504D01*
X01478Y02504D01*
X01477Y02504D01*
X01477Y02504D01*
X01477Y02503D01*
X01476Y02503D01*
X01472D01*
Y02499D01*
X01472Y02498D01*
X01472Y02498D01*
X01472Y02497D01*
X01472Y02497D01*
Y02461D01*
X01472Y0246D01*
X01472Y0246D01*
X01472Y0246D01*
X01472Y02459D01*
Y02455D01*
X01476D01*
X01477Y02454D01*
X01477Y02454D01*
X01477Y02454D01*
X01478Y02454D01*
X01478Y02454D01*
X01478Y02453D01*
X01479Y02451D01*
X01479Y02449D01*
X0148Y02443D01*
X0148Y0244D01*
X0148Y02439D01*
Y02428D01*
X0148Y02428D01*
X0148Y02425D01*
X0148Y02421D01*
X01479Y02419D01*
X01479Y02417D01*
X01478Y02415D01*
X01478Y02414D01*
X01478Y02414D01*
X01477Y02414D01*
X01477Y02414D01*
X01477Y02413D01*
X01476Y02413D01*
X01472D01*
Y02409D01*
X01472Y02408D01*
X01472Y02408D01*
X01472Y02407D01*
X01472Y02407D01*
Y02371D01*
X01472Y0237D01*
X01472Y0237D01*
X01472Y0237D01*
X01472Y02369D01*
Y02365D01*
X01476D01*
X01477Y02364D01*
X01477Y02364D01*
X01477Y02364D01*
X01478Y02364D01*
X01478Y02364D01*
X01478Y02363D01*
X01479Y02361D01*
X01479Y02359D01*
X0148Y02353D01*
X0148Y0235D01*
X0148Y02349D01*
Y02338D01*
X0148Y02338D01*
X0148Y02335D01*
X0148Y02331D01*
X01479Y02329D01*
X01479Y02327D01*
X01478Y02325D01*
X01478Y02324D01*
X01478Y02324D01*
X01477Y02324D01*
X01477Y02324D01*
X01477Y02323D01*
X01476Y02323D01*
X01472D01*
Y02319D01*
X01472Y02318D01*
X01472Y02318D01*
X01472Y02317D01*
X01472Y02317D01*
Y02275D01*
X01519D01*
Y02317D01*
X01519Y02317D01*
X01519Y02318D01*
X01519Y02318D01*
X01519Y02319D01*
Y02323D01*
X01515D01*
X01514Y02323D01*
X01514Y02324D01*
X01514Y02324D01*
X01513Y02324D01*
X01513Y02324D01*
X01512Y02325D01*
X01512Y02327D01*
X01512Y02329D01*
X01511Y02335D01*
X01511Y02338D01*
X01511Y02338D01*
Y02349D01*
X01511Y0235D01*
X01511Y02353D01*
X01511Y02356D01*
X01512Y02359D01*
X01512Y02361D01*
X01512Y02363D01*
X01513Y02364D01*
X01513Y02364D01*
X01514Y02364D01*
X01514Y02364D01*
X01514Y02364D01*
X01515Y02365D01*
X01519D01*
Y02369D01*
X01519Y0237D01*
X01519Y0237D01*
X01519Y0237D01*
X01519Y02371D01*
Y02407D01*
X01519Y02407D01*
X01519Y02408D01*
X01519Y02408D01*
X01519Y02409D01*
Y02413D01*
X01515D01*
X01514Y02413D01*
X01514Y02414D01*
X01514Y02414D01*
X01513Y02414D01*
X01513Y02414D01*
X01512Y02415D01*
X01512Y02417D01*
X01512Y02419D01*
X01511Y02425D01*
X01511Y02428D01*
X01511Y02428D01*
Y02439D01*
X01511Y0244D01*
X01511Y02443D01*
X01511Y02446D01*
X01512Y02449D01*
X01512Y02451D01*
X01512Y02453D01*
X01513Y02454D01*
X01513Y02454D01*
X01514Y02454D01*
X01514Y02454D01*
X01514Y02454D01*
X01515Y02455D01*
X01519D01*
Y02459D01*
X01519Y0246D01*
X01519Y0246D01*
X01519Y0246D01*
X01519Y02461D01*
Y02497D01*
X01519Y02497D01*
X01519Y02498D01*
X01519Y02498D01*
X01519Y02499D01*
Y02503D01*
X01515D01*
X01514Y02503D01*
X01514Y02504D01*
X01514Y02504D01*
X01513Y02504D01*
X01513Y02504D01*
X01512Y02505D01*
X01512Y02507D01*
X01512Y02509D01*
X01511Y02515D01*
X01511Y02518D01*
X01511Y02518D01*
Y02529D01*
X01511Y0253D01*
X01511Y02533D01*
X01511Y02536D01*
X01512Y02539D01*
X01512Y02541D01*
X01512Y02543D01*
X01513Y02544D01*
X01513Y02544D01*
X01514Y02544D01*
X01514Y02544D01*
X01514Y02544D01*
X01515Y02545D01*
X01519D01*
Y02549D01*
X01519Y0255D01*
X01519Y0255D01*
X01519Y0255D01*
X01519Y02551D01*
Y02559D01*
X01519Y02559D01*
X01519Y02559D01*
Y02559D01*
X01519Y0256D01*
X01519Y0256D01*
Y02569D01*
X0152Y0257D01*
X01522Y02573D01*
X01528Y0258D01*
X01528Y0258D01*
X01533Y02578D01*
Y02545D01*
X01573D01*
X01573Y02544D01*
X01574Y02545D01*
X01574Y02544D01*
X01575Y02545D01*
X01579D01*
Y02548D01*
X0158Y02549D01*
X0158Y02549D01*
X01582Y0255D01*
X01584Y0255D01*
X01587Y0255D01*
X01595Y02551D01*
X01599Y02551D01*
X01599Y02551D01*
X01607D01*
X01608Y02551D01*
X01612Y02551D01*
X0162Y02551D01*
X01623Y0255D01*
X01625Y0255D01*
X01627Y02549D01*
X01628Y02549D01*
Y02545D01*
X01632D01*
X01633Y02545D01*
X01633Y02545D01*
X01634Y02545D01*
X01634Y02545D01*
X01677D01*
Y02588D01*
X01687D01*
Y02572D01*
X01711D01*
X01736D01*
Y02588D01*
X01945D01*
X01945Y02588D01*
X01949Y02588D01*
X01952Y02587D01*
X01954Y02587D01*
X01956Y02586D01*
X01958Y02586D01*
X01959Y02585D01*
X01959Y02585D01*
X0196Y02584D01*
X0196Y02584D01*
X0196Y02583D01*
X0196Y02582D01*
Y02519D01*
X02038D01*
X02039Y02518D01*
X0204Y02518D01*
X02041Y02518D01*
X02041Y02518D01*
X02042Y02517D01*
X02042Y02516D01*
X02043Y02515D01*
X02043Y02513D01*
X02044Y0251D01*
X02044Y02509D01*
X02044Y02507D01*
X02043Y02504D01*
X02043Y02502D01*
X02042Y02501D01*
X02042Y025D01*
X02041Y02499D01*
X02041Y02499D01*
X02041Y02499D01*
X02039Y02499D01*
X02039Y02499D01*
X02035D01*
Y02494D01*
X02035Y02494D01*
X02035Y02493D01*
X02035Y02493D01*
X02035Y02493D01*
Y02457D01*
X02035Y02457D01*
X02035Y02457D01*
X02035Y02456D01*
X02035Y02456D01*
Y02451D01*
X02039D01*
X02039Y02451D01*
X02041Y02451D01*
X02041Y02451D01*
X02041Y02451D01*
X02042Y0245D01*
X02042Y02449D01*
X02043Y02448D01*
X02043Y02446D01*
X02044Y02443D01*
X02044Y0244D01*
X02044Y02436D01*
X02044Y02436D01*
Y02335D01*
X02045Y0233D01*
X02049Y02325D01*
X02065Y02308D01*
X02069Y02305D01*
X02076Y02299D01*
Y02271D01*
X02093D01*
X02093Y02271D01*
X02093Y0227D01*
X02093Y02269D01*
X02093Y02268D01*
X02093Y02266D01*
X02094Y02265D01*
Y02198D01*
X02093Y02198D01*
X02093Y02192D01*
X02093Y02189D01*
X02093Y02189D01*
X02093Y02188D01*
X02093Y02188D01*
X02093Y02187D01*
X02093Y02187D01*
X02093Y02185D01*
Y0214D01*
X02093Y02138D01*
X02093Y02137D01*
X02093Y02137D01*
X02093Y02137D01*
X02093Y02127D01*
X02094Y02126D01*
Y02114D01*
X02082D01*
X02081Y02115D01*
X02075Y02115D01*
X02072Y02115D01*
X02072Y02115D01*
X02072Y02115D01*
X02071Y02115D01*
X02071Y02115D01*
X0207Y02115D01*
X02068Y02115D01*
X02023D01*
X02019Y02115D01*
X02015Y02112D01*
X02013Y02109D01*
X02012Y02104D01*
X02013Y02101D01*
X0201Y02099D01*
X02008Y02098D01*
X01954Y02152D01*
Y02211D01*
X01953Y02215D01*
X01951Y02218D01*
X01721Y02448D01*
Y02451D01*
X01722Y02451D01*
X01722Y02453D01*
X01722Y02454D01*
X01722Y02455D01*
X01722Y02456D01*
X01722Y02456D01*
X01736D01*
Y02504D01*
X01687D01*
Y02456D01*
X017D01*
X017Y02456D01*
X01701Y02455D01*
X01701Y02454D01*
X01701Y02453D01*
X01701Y02451D01*
X01701Y02451D01*
Y02444D01*
X01702Y0244D01*
X01704Y02436D01*
X01721Y02419D01*
X01719Y02415D01*
X01687D01*
Y02367D01*
X01719D01*
X01719Y02367D01*
X0172Y02367D01*
X0172D01*
X0172Y02367D01*
X0172Y02367D01*
X01723D01*
X01724Y02366D01*
X01728Y02363D01*
X0173Y02361D01*
X0173Y02361D01*
X01776Y02315D01*
X01774Y0231D01*
X01741D01*
X01741Y0231D01*
X01739Y0231D01*
X01738Y02311D01*
X01737Y02311D01*
X01736Y02311D01*
X01736Y02311D01*
Y02324D01*
X01687D01*
Y02276D01*
X01736D01*
Y02289D01*
X01736Y02289D01*
X01737Y02289D01*
X01738Y02289D01*
X01739Y0229D01*
X01741Y0229D01*
X01741Y0229D01*
X01777D01*
X0189Y02176D01*
X01888Y02172D01*
X01859D01*
Y0215D01*
X01859Y02149D01*
X01859Y02149D01*
Y02137D01*
X01859Y02136D01*
X01855Y02131D01*
X0185Y02133D01*
Y02145D01*
X01825D01*
X018D01*
Y02128D01*
X01795Y02124D01*
X01781Y0211D01*
X01668D01*
X01668Y0211D01*
X01665Y0211D01*
X01662Y02111D01*
X01659Y02111D01*
X01656Y02112D01*
X01653Y02113D01*
X01651Y02115D01*
X01648Y02116D01*
X01646Y02118D01*
X01643Y0212D01*
X01641Y02123D01*
X0164Y02123D01*
X01636Y02126D01*
X01626Y02132D01*
X01616Y02135D01*
X01604D01*
X01594Y02132D01*
X01584Y02126D01*
X01576Y02119D01*
X0157Y02109D01*
X01567Y02098D01*
Y02087D01*
X0157Y02076D01*
X01576Y02066D01*
X01584Y02058D01*
X01594Y02053D01*
X01604Y0205D01*
X01616D01*
X01626Y02053D01*
X01636Y02058D01*
X0164Y02062D01*
X01641Y02062D01*
X01643Y02065D01*
X01646Y02067D01*
X01648Y02069D01*
X01651Y0207D01*
X01653Y02072D01*
X01656Y02073D01*
X01659Y02073D01*
X01662Y02074D01*
X01665Y02074D01*
X01668Y02075D01*
X01668Y02075D01*
X01788D01*
X01795Y02076D01*
X01796Y02076D01*
X018Y02074D01*
Y02069D01*
X01825D01*
Y02063D01*
X018D01*
Y02042D01*
X018D01*
X01799Y02038D01*
X01798D01*
X01798Y02038D01*
X01791Y02037D01*
X01785Y02033D01*
X01678Y01925D01*
X01664D01*
X01664Y01925D01*
X01661Y01925D01*
X01658Y01925D01*
X01655Y01926D01*
X01652Y01927D01*
X01649Y01928D01*
X01646Y01929D01*
X01643Y0193D01*
X01637Y01933D01*
X01634Y01935D01*
X01633Y01935D01*
X01626Y01939D01*
X01616Y01942D01*
X01604D01*
X01594Y01939D01*
X01584Y01934D01*
X01576Y01926D01*
X0157Y01916D01*
X01567Y01905D01*
Y01894D01*
X0157Y01883D01*
X01576Y01873D01*
X01584Y01866D01*
X01594Y0186D01*
X01604Y01857D01*
X01616D01*
X01626Y0186D01*
X01636Y01866D01*
X01644Y01873D01*
X01645Y01876D01*
X01646Y01876D01*
X01648Y01879D01*
X0165Y01881D01*
X01652Y01883D01*
X01654Y01885D01*
X01656Y01886D01*
X01658Y01887D01*
X01661Y01888D01*
X01664Y01889D01*
X01667Y01889D01*
X0167Y01889D01*
X0167Y01889D01*
X01685D01*
X01692Y01891D01*
X01698Y01895D01*
X01796Y01993D01*
X018Y01991D01*
Y01987D01*
X01825D01*
Y01982D01*
X018D01*
Y0196D01*
X0181D01*
X01812Y01955D01*
X01811Y01955D01*
X01724Y01868D01*
X01722Y01864D01*
X01721Y01861D01*
Y01771D01*
X01699Y01749D01*
X01521D01*
X01518Y01752D01*
X01518Y01752D01*
X01371Y01899D01*
Y01984D01*
X01371Y01984D01*
X01372Y01986D01*
X01372Y01988D01*
X01373Y01991D01*
X01374Y01993D01*
X01376Y01996D01*
X01378Y01999D01*
X01381Y02003D01*
X01387Y0201D01*
X01391Y02014D01*
X01391Y02015D01*
X01395Y02018D01*
X01401Y02028D01*
X01403Y02039D01*
Y0205D01*
X01401Y02061D01*
X01395Y02071D01*
X01392Y02074D01*
X01391Y02075D01*
X01389Y02078D01*
X01387Y0208D01*
X01385Y02083D01*
X01383Y02085D01*
X01382Y02088D01*
X01381Y02091D01*
X0138Y02093D01*
X01379Y02096D01*
X01379Y02099D01*
X01379Y02103D01*
X01379Y02103D01*
Y02257D01*
X01379Y02257D01*
X01379Y02261D01*
X01379Y02264D01*
X0138Y02267D01*
X01381Y02269D01*
X01382Y02272D01*
X01383Y02275D01*
X01385Y02277D01*
X01387Y0228D01*
X01389Y02282D01*
X01391Y02285D01*
X01392Y02286D01*
X01395Y02289D01*
X01401Y02299D01*
X01403Y0231D01*
Y02321D01*
X01401Y02332D01*
X01395Y02342D01*
X01387Y0235D01*
X01377Y02355D01*
X01367Y02358D01*
X01355D01*
X01345Y02355D01*
X01335Y0235D01*
X01327Y02342D01*
X01321Y02332D01*
X01319Y02321D01*
Y0231D01*
X01321Y02299D01*
X01327Y02289D01*
X0133Y02286D01*
X01331Y02285D01*
X01333Y02282D01*
X01335Y0228D01*
X01337Y02277D01*
X01339Y02275D01*
X0134Y02272D01*
X01341Y02269D01*
X01342Y02267D01*
X01343Y02264D01*
X01343Y02261D01*
X01343Y02257D01*
X01343Y02257D01*
Y02103D01*
X01343Y02103D01*
X01343Y02099D01*
X01343Y02096D01*
X01342Y02093D01*
X01341Y02091D01*
X0134Y02088D01*
X01339Y02085D01*
X01337Y02083D01*
X01335Y0208D01*
X01333Y02078D01*
X01331Y02075D01*
X0133Y02074D01*
X01327Y02071D01*
X01321Y02061D01*
X01319Y0205D01*
Y02039D01*
X01321Y02028D01*
X01327Y02018D01*
X01331Y02015D01*
X01331Y02014D01*
X01335Y0201D01*
X01341Y02003D01*
X01344Y01999D01*
X01346Y01996D01*
X01348Y01993D01*
X01349Y01991D01*
X0135Y01988D01*
X0135Y01986D01*
X01351Y01984D01*
X01351Y01984D01*
Y01895D01*
X01352Y01891D01*
X01354Y01888D01*
X01504Y01738D01*
X01504Y01738D01*
X0151Y01732D01*
X01513Y0173D01*
X01517Y01729D01*
X01703D01*
X01707Y0173D01*
X0171Y01732D01*
X01738Y0176D01*
X0174Y01763D01*
X01741Y01767D01*
Y01856D01*
X01796Y01911D01*
X018Y01909D01*
Y01905D01*
X01825D01*
Y01902D01*
D01*
Y01905D01*
X0185D01*
Y01905D01*
X0185Y01906D01*
X0185Y01906D01*
Y01906D01*
X0185Y01906D01*
X0185Y01907D01*
Y0191D01*
X0185Y0191D01*
X01851Y01912D01*
X01854Y01915D01*
X01854Y01916D01*
X01859Y01914D01*
Y01878D01*
X01909D01*
Y01905D01*
X01909Y01906D01*
X01909Y01906D01*
Y01906D01*
X01909Y01906D01*
X01909Y01907D01*
Y0191D01*
X01909Y0191D01*
X0191Y01912D01*
X01913Y01915D01*
X01915Y01917D01*
X01915Y01917D01*
X01934Y01937D01*
X0198D01*
X01982Y01932D01*
X019Y0185D01*
X019Y0185D01*
X01896Y01846D01*
X01895Y01845D01*
X01893Y01844D01*
X01893Y01844D01*
X0189D01*
X01889Y01844D01*
X01889Y01844D01*
X01889D01*
X01889Y01844D01*
X01888Y01844D01*
X01859D01*
Y01796D01*
X01873D01*
X01873Y01796D01*
X01873Y01795D01*
X01873Y01794D01*
X01874Y01793D01*
X01874Y01791D01*
X01874Y01791D01*
Y01675D01*
X01874Y01675D01*
X01873Y01675D01*
X01872Y01674D01*
X0187Y01672D01*
X01868Y01671D01*
X01865Y01671D01*
X01862Y0167D01*
X01858Y01669D01*
X01854Y01669D01*
X01844Y01668D01*
X01838Y01668D01*
X01838Y01668D01*
X01838Y01668D01*
X01838Y01668D01*
X01837Y01668D01*
X01832D01*
X01822Y01665D01*
X01812Y01659D01*
X01804Y01651D01*
X01798Y01641D01*
X01796Y01631D01*
Y01619D01*
X01798Y01609D01*
X01804Y01599D01*
X01807Y01595D01*
X01808Y01594D01*
X0181Y01592D01*
X01812Y01589D01*
X01814Y01587D01*
X01816Y01584D01*
X01817Y01582D01*
X01818Y01579D01*
X01819Y01576D01*
X0182Y01573D01*
X0182Y0157D01*
X0182Y01567D01*
X0182Y01567D01*
Y01412D01*
X0182Y01412D01*
X0182Y01409D01*
X0182Y01406D01*
X01819Y01403D01*
X01818Y014D01*
X01817Y01397D01*
X01816Y01395D01*
X01814Y01392D01*
X01812Y0139D01*
X0181Y01387D01*
X01808Y01385D01*
X01808Y01384D01*
X01807Y01384D01*
X01803Y0138D01*
X01796Y01374D01*
X01793Y01371D01*
X0179Y01369D01*
X01787Y01367D01*
X01784Y01366D01*
X01782Y01365D01*
X0178Y01365D01*
X01778Y01364D01*
X01777Y01364D01*
X01769D01*
X01765Y01363D01*
X01762Y01361D01*
X01672Y01271D01*
X01561D01*
X01557Y0127D01*
X01554Y01268D01*
X01469Y01183D01*
X01468Y01183D01*
X01467Y01182D01*
X01465Y01181D01*
X01464Y0118D01*
X01461Y01179D01*
X01459Y01178D01*
X01456Y01178D01*
X01453Y01177D01*
X01445Y01177D01*
X0144Y01177D01*
X01439Y01176D01*
X01435D01*
X01426Y01174D01*
X01418Y01169D01*
X01411Y01162D01*
X01406Y01154D01*
X01404Y01145D01*
Y01135D01*
X01406Y01126D01*
X01411Y01118D01*
X01418Y01111D01*
X01426Y01106D01*
X01435Y01104D01*
X01445D01*
X01454Y01106D01*
X01462Y01111D01*
X01469Y01118D01*
X01474Y01126D01*
X01476Y01135D01*
Y01139D01*
X01477Y0114D01*
X01477Y01145D01*
X01477Y01153D01*
X01478Y01156D01*
X01478Y01159D01*
X01479Y01161D01*
X0148Y01164D01*
X01481Y01165D01*
X01482Y01167D01*
X01483Y01168D01*
X01483Y01169D01*
X01565Y01251D01*
X0163D01*
X01632Y01246D01*
X01569Y01183D01*
X01568Y01183D01*
X01567Y01182D01*
X01565Y01181D01*
X01564Y0118D01*
X01561Y01179D01*
X01559Y01178D01*
X01556Y01178D01*
X01553Y01177D01*
X01545Y01177D01*
X0154Y01177D01*
X01539Y01176D01*
X01535D01*
X01526Y01174D01*
X01518Y01169D01*
X01511Y01162D01*
X01506Y01154D01*
X01504Y01145D01*
Y01135D01*
X01506Y01126D01*
X01511Y01118D01*
X01518Y01111D01*
X01526Y01106D01*
X01535Y01104D01*
X01545D01*
X01554Y01106D01*
X01562Y01111D01*
X01569Y01118D01*
X01574Y01126D01*
X01576Y01135D01*
Y01139D01*
X01577Y0114D01*
X01577Y01145D01*
X01577Y01153D01*
X01578Y01156D01*
X01578Y01159D01*
X01579Y01161D01*
X0158Y01164D01*
X01581Y01165D01*
X01582Y01167D01*
X01583Y01168D01*
X01583Y01169D01*
X0165Y01236D01*
X01714D01*
X01716Y01231D01*
X01669Y01183D01*
X01668Y01183D01*
X01667Y01182D01*
X01665Y01181D01*
X01664Y0118D01*
X01661Y01179D01*
X01659Y01178D01*
X01656Y01178D01*
X01653Y01177D01*
X01645Y01177D01*
X0164Y01177D01*
X01639Y01176D01*
X01635D01*
X01626Y01174D01*
X01618Y01169D01*
X01611Y01162D01*
X01606Y01154D01*
X01604Y01145D01*
Y01135D01*
X01606Y01126D01*
X01611Y01118D01*
X01618Y01111D01*
X01626Y01106D01*
X01635Y01104D01*
X01645D01*
X01654Y01106D01*
X01662Y01111D01*
X01669Y01118D01*
X01674Y01126D01*
X01676Y01135D01*
Y01139D01*
X01677Y0114D01*
X01677Y01145D01*
X01677Y01153D01*
X01678Y01156D01*
X01678Y01159D01*
X01679Y01161D01*
X0168Y01164D01*
X01681Y01165D01*
X01682Y01167D01*
X01683Y01168D01*
X01683Y01169D01*
X01729Y01215D01*
X01798D01*
X01798Y0121D01*
X01796Y01209D01*
X01793Y01207D01*
X01769Y01183D01*
X01768Y01183D01*
X01767Y01182D01*
X01765Y01181D01*
X01764Y0118D01*
X01761Y01179D01*
X01759Y01178D01*
X01756Y01178D01*
X01753Y01177D01*
X01745Y01177D01*
X0174Y01177D01*
X01739Y01176D01*
X01735D01*
X01726Y01174D01*
X01718Y01169D01*
X01711Y01162D01*
X01706Y01154D01*
X01704Y01145D01*
Y01135D01*
X01706Y01126D01*
X01711Y01118D01*
X01718Y01111D01*
X01726Y01106D01*
X01735Y01104D01*
X01745D01*
X01754Y01106D01*
X01762Y01111D01*
X01769Y01118D01*
X01774Y01126D01*
X01776Y01135D01*
Y01139D01*
X01777Y0114D01*
X01777Y01145D01*
X01777Y01153D01*
X01778Y01156D01*
X01778Y01159D01*
X01779Y01161D01*
X0178Y01164D01*
X01781Y01165D01*
X01782Y01167D01*
X01783Y01168D01*
X01783Y01169D01*
X01804Y0119D01*
X01865D01*
X01869Y01185D01*
X01868Y01183D01*
X01867Y01182D01*
X01865Y01181D01*
X01864Y0118D01*
X01861Y01179D01*
X01859Y01178D01*
X01856Y01178D01*
X01853Y01177D01*
X01845Y01177D01*
X0184Y01177D01*
X01839Y01176D01*
X01835D01*
X01826Y01174D01*
X01818Y01169D01*
X01811Y01162D01*
X01806Y01154D01*
X01804Y01145D01*
Y01135D01*
X01806Y01126D01*
X01811Y01118D01*
X01818Y01111D01*
X01826Y01106D01*
X01835Y01104D01*
X01845D01*
X01854Y01106D01*
X01862Y01111D01*
X01869Y01118D01*
X01874Y01126D01*
X01876Y01135D01*
Y01139D01*
X01877Y0114D01*
X01877Y01145D01*
X01877Y01153D01*
X01878Y01156D01*
X01878Y01159D01*
X01879Y01161D01*
X0188Y01164D01*
X01881Y01165D01*
X01882Y01167D01*
X01883Y01168D01*
X01883Y01169D01*
X01889Y01175D01*
X01917D01*
X01919Y0117D01*
X01918Y01169D01*
X01911Y01162D01*
X01906Y01154D01*
X01904Y01145D01*
Y01135D01*
X01906Y01126D01*
X01911Y01118D01*
X01918Y01111D01*
X01926Y01106D01*
X01935Y01104D01*
X01945D01*
X01954Y01106D01*
X01962Y01111D01*
X01969Y01118D01*
X01974Y01126D01*
X01976Y01135D01*
Y01139D01*
X01977Y0114D01*
X01977Y01145D01*
X01977Y01153D01*
X01978Y01156D01*
X01978Y01159D01*
X01979Y01161D01*
X0198Y01164D01*
X01981Y01165D01*
X01982Y01167D01*
X01983Y01168D01*
X01983Y01169D01*
X02137Y01323D01*
X02142Y01321D01*
Y01307D01*
X02033Y01197D01*
X02031Y01194D01*
X0203Y01191D01*
X0203Y0119D01*
X02029Y01188D01*
X02029Y01187D01*
X02028Y01185D01*
X02028Y01183D01*
X02026Y0118D01*
X02025Y01178D01*
X02023Y01175D01*
X02018Y0117D01*
X02015Y01167D01*
X02015Y01167D01*
X02015Y01167D01*
X02014Y01166D01*
X02011Y01162D01*
X02006Y01154D01*
X02004Y01145D01*
Y01135D01*
X02006Y01126D01*
X02011Y01118D01*
X02018Y01111D01*
X02026Y01106D01*
X02035Y01104D01*
X02045D01*
X02054Y01106D01*
X02062Y01111D01*
X02069Y01118D01*
X02074Y01126D01*
X02076Y01135D01*
Y01145D01*
X02074Y01154D01*
X02069Y01162D01*
X02066Y01166D01*
X02065Y01167D01*
X0206Y01173D01*
X02057Y01175D01*
X02055Y01178D01*
X02054Y0118D01*
X02052Y01183D01*
X02052Y01185D01*
X02051Y01187D01*
X02125Y01261D01*
X0213Y01259D01*
Y01191D01*
X0213Y0119D01*
X02129Y01189D01*
X02129Y01187D01*
X02128Y01185D01*
X02127Y01183D01*
X02126Y01181D01*
X02124Y01178D01*
X02122Y01175D01*
X02117Y01169D01*
X02114Y01166D01*
X02114Y01165D01*
X02111Y01162D01*
X02106Y01154D01*
X02104Y01145D01*
Y01135D01*
X02106Y01126D01*
X02111Y01118D01*
X02118Y01111D01*
X02126Y01106D01*
X02135Y01104D01*
X02145D01*
X02154Y01106D01*
X02162Y01111D01*
X02169Y01118D01*
X02174Y01126D01*
X02176Y01135D01*
Y01145D01*
X02174Y01154D01*
X02169Y01162D01*
X02166Y01165D01*
X02166Y01166D01*
X02163Y01169D01*
X02158Y01175D01*
X02156Y01178D01*
X02154Y01181D01*
X02153Y01183D01*
X02152Y01185D01*
X02151Y01187D01*
X02151Y01189D01*
X0215Y0119D01*
X0215Y01191D01*
Y01265D01*
X02167Y01282D01*
X02172Y0128D01*
Y01198D01*
X02173Y01194D01*
X02175Y0119D01*
X02197Y01169D01*
X02197Y01168D01*
X02198Y01167D01*
X02199Y01165D01*
X022Y01164D01*
X02201Y01161D01*
X02202Y01159D01*
X02202Y01156D01*
X02203Y01153D01*
X02203Y01145D01*
X02203Y0114D01*
X02204Y01139D01*
Y01135D01*
X02206Y01126D01*
X02211Y01118D01*
X02218Y01111D01*
X02226Y01106D01*
X02235Y01104D01*
X02245D01*
X02254Y01106D01*
X02262Y01111D01*
X02269Y01118D01*
X02274Y01126D01*
X02276Y01135D01*
Y01145D01*
X02274Y01154D01*
X02269Y01162D01*
X02262Y01169D01*
X02254Y01174D01*
X02245Y01176D01*
X02241D01*
X0224Y01177D01*
X02235Y01177D01*
X02227Y01177D01*
X02224Y01178D01*
X02221Y01178D01*
X02219Y01179D01*
X02216Y0118D01*
X02215Y01181D01*
X02213Y01182D01*
X02212Y01183D01*
X02211Y01183D01*
X02192Y01202D01*
Y01267D01*
X02197Y01268D01*
X02297Y01168D01*
X02298Y01168D01*
X02301Y01164D01*
X02302Y01162D01*
X02303Y01161D01*
X02304Y01161D01*
Y01158D01*
X02303Y01157D01*
X02304Y01157D01*
Y01157D01*
X02303Y01156D01*
X02304Y01156D01*
Y01104D01*
X02376D01*
Y01176D01*
X02324D01*
X02324Y01177D01*
X02323Y01176D01*
X02323D01*
X02323Y01177D01*
X02322Y01176D01*
X02319D01*
X02319Y01177D01*
X02318Y01178D01*
X02314Y0118D01*
X02312Y01182D01*
X02312Y01183D01*
X02207Y01287D01*
Y01553D01*
X02209Y01554D01*
X02212Y01555D01*
X02216Y01551D01*
X02223Y01548D01*
X02229D01*
X02236Y01551D01*
X0224Y01555D01*
X02243Y01562D01*
Y01568D01*
X0224Y01575D01*
X02239Y01576D01*
X02238Y01577D01*
X02238Y01578D01*
X02238Y01578D01*
X02237Y01578D01*
X02237Y01579D01*
X02237Y01579D01*
X02237Y0158D01*
X02237Y0158D01*
X02237Y01581D01*
X02239Y01586D01*
X0225D01*
X02251Y01581D01*
Y01529D01*
X02252Y01525D01*
X02254Y01522D01*
X0257Y01206D01*
Y01182D01*
X0257Y01182D01*
X0257Y0118D01*
X02569Y01178D01*
X02569Y01177D01*
X02569Y01177D01*
X02569Y01176D01*
X02544D01*
Y01104D01*
X02616D01*
Y01176D01*
X02591D01*
X02591Y01177D01*
X02591Y01177D01*
X02591Y01178D01*
X0259Y0118D01*
X0259Y01182D01*
X0259Y01182D01*
Y01208D01*
X02595Y01211D01*
X02595Y01211D01*
X02637Y01169D01*
X02637Y01168D01*
X02638Y01167D01*
X02639Y01165D01*
X0264Y01164D01*
X02641Y01161D01*
X02642Y01159D01*
X02642Y01156D01*
X02643Y01153D01*
X02643Y01145D01*
X02643Y0114D01*
X02644Y01139D01*
Y01135D01*
X02646Y01126D01*
X02651Y01118D01*
X02658Y01111D01*
X02666Y01106D01*
X02675Y01104D01*
X02685D01*
X02694Y01106D01*
X02702Y01111D01*
X02709Y01118D01*
X02714Y01126D01*
X02716Y01135D01*
Y01145D01*
X02714Y01154D01*
X02709Y01162D01*
X02702Y01169D01*
X02694Y01174D01*
X02685Y01176D01*
X02681D01*
X0268Y01177D01*
X02675Y01177D01*
X02667Y01177D01*
X02664Y01178D01*
X02661Y01178D01*
X02659Y01179D01*
X02656Y0118D01*
X02655Y01181D01*
X02653Y01182D01*
X02652Y01183D01*
X02651Y01183D01*
X02286Y01548D01*
Y01624D01*
X02291Y01625D01*
X02294Y01623D01*
X02295Y01621D01*
X02296Y0162D01*
X02296Y01619D01*
Y01616D01*
X02296Y01616D01*
X02296Y01615D01*
Y01615D01*
X02296Y01615D01*
X02296Y01615D01*
Y01613D01*
X02318D01*
Y01635D01*
X02317D01*
X02316Y01635D01*
X02316Y01635D01*
X02316D01*
X02316Y01635D01*
X02315Y01635D01*
X02312D01*
X02312Y01635D01*
X0231Y01636D01*
X02307Y01639D01*
X02306Y0164D01*
X02308Y01645D01*
X02308Y01645D01*
X02344D01*
Y01694D01*
X02331D01*
X02331Y01694D01*
X02331Y01695D01*
X02331Y01696D01*
X02331Y01697D01*
X02331Y01699D01*
X0233Y017D01*
Y01794D01*
X02331Y01794D01*
X02331Y018D01*
X02331Y01803D01*
X02331Y01803D01*
X02331Y01804D01*
X02331Y01804D01*
X02331Y01805D01*
X02331Y01805D01*
X02331Y01807D01*
Y01852D01*
X02331Y01854D01*
X02331Y01855D01*
X02331Y01855D01*
X02331Y01855D01*
X02331Y01865D01*
X0233Y01866D01*
Y01891D01*
X0233Y01895D01*
X02327Y01898D01*
X02227Y01998D01*
X02322Y02094D01*
X02342D01*
X02343Y02094D01*
X02343Y02094D01*
X02345Y02089D01*
X02345Y02087D01*
X02378D01*
Y02082D01*
X02345D01*
X02345Y0208D01*
X02347Y02078D01*
X02347Y02075D01*
X02347Y02071D01*
X02345Y02069D01*
X02345Y02065D01*
X02345Y02061D01*
X02347Y02058D01*
X02347Y02055D01*
X02347Y02052D01*
X02345Y02049D01*
X02345Y02045D01*
X02345Y02041D01*
X02347Y02039D01*
X02347Y02035D01*
X02347Y02032D01*
X02345Y0203D01*
X02345Y02026D01*
X02345Y02021D01*
X02347Y02019D01*
X02347Y02016D01*
X02347Y02012D01*
X02345Y0201D01*
X02345Y02006D01*
X02345Y02002D01*
X02347Y01999D01*
X02347Y01996D01*
X02347Y01993D01*
X02345Y0199D01*
X02345Y01986D01*
X02345Y01982D01*
X02347Y0198D01*
X02347Y01976D01*
X02347Y01973D01*
X02345Y01971D01*
X02345Y01966D01*
X02345Y01962D01*
X02347Y0196D01*
X02347Y01957D01*
X02347Y01953D01*
X02345Y01951D01*
X02345Y01947D01*
X02345Y01943D01*
X02347Y0194D01*
X02347Y01937D01*
X02347Y01934D01*
X02345Y01931D01*
X02345Y01927D01*
X02345Y01923D01*
X02347Y01921D01*
X02347Y01917D01*
X02347Y01914D01*
X02345Y01912D01*
X02345Y01907D01*
X02345Y01903D01*
X02347Y01901D01*
X02347Y01898D01*
X02347Y01894D01*
X02345Y01892D01*
X02345Y01888D01*
X02345Y01883D01*
X02348Y0188D01*
X02351Y01877D01*
X02356Y01877D01*
X02401D01*
X02403Y01877D01*
X02403Y01877D01*
X02403Y01877D01*
X02403Y01877D01*
X02414Y01877D01*
X02415Y01878D01*
X02439D01*
X02543Y01774D01*
Y01613D01*
X02544Y01609D01*
X02546Y01606D01*
X02552Y016D01*
X02555Y01598D01*
X02559Y01597D01*
X03157D01*
X03161Y01598D01*
X03164Y016D01*
X03197Y01632D01*
X03197Y01633D01*
X03201Y01636D01*
X03203Y01637D01*
X03204Y01638D01*
X03204Y01639D01*
X03207D01*
X03208Y01638D01*
X03208Y01638D01*
X03209Y01638D01*
X03209Y01639D01*
X03261D01*
Y01711D01*
X03189D01*
Y01659D01*
X03188Y01659D01*
X03188Y01658D01*
X03188Y01658D01*
X03189Y01657D01*
Y01654D01*
X03188Y01654D01*
X03187Y01653D01*
X03185Y01649D01*
X03183Y01647D01*
X03182Y01647D01*
X03153Y01617D01*
X03089D01*
X03087Y01622D01*
X03196Y01732D01*
X03197Y01732D01*
X03198Y01733D01*
X032Y01734D01*
X03201Y01735D01*
X03204Y01736D01*
X03206Y01737D01*
X03209Y01737D01*
X03212Y01738D01*
X0322Y01738D01*
X03225Y01738D01*
X03226Y01739D01*
X0323D01*
X03239Y01741D01*
X03247Y01746D01*
X03254Y01753D01*
X03259Y01761D01*
X03261Y0177D01*
Y0178D01*
X03259Y01789D01*
X03254Y01797D01*
X03247Y01804D01*
X03239Y01809D01*
X0323Y01811D01*
X0322D01*
X03211Y01809D01*
X03203Y01804D01*
X03196Y01797D01*
X03191Y01789D01*
X03189Y0178D01*
Y01776D01*
X03188Y01775D01*
X03188Y0177D01*
X03188Y01762D01*
X03187Y01759D01*
X03187Y01756D01*
X03186Y01754D01*
X03185Y01751D01*
X03184Y0175D01*
X03183Y01748D01*
X03182Y01747D01*
X03182Y01746D01*
X03074Y01638D01*
X02584D01*
Y01778D01*
X02583Y01782D01*
X02581Y01785D01*
X02455Y01912D01*
X02457Y01917D01*
X02588D01*
X02592Y01918D01*
X02595Y0192D01*
X02629Y01954D01*
X02634Y01951D01*
Y01884D01*
X02706D01*
Y01899D01*
X02707Y01899D01*
X02707Y01901D01*
X02707Y01901D01*
X02707Y01902D01*
X02708Y01902D01*
X02709Y01903D01*
X0271Y01903D01*
X02712Y01904D01*
X02715Y01904D01*
X02718Y01904D01*
X02721Y01905D01*
X02724Y01904D01*
X02726Y01904D01*
X02728Y01904D01*
X02731Y01903D01*
X02733Y01902D01*
X02735Y01901D01*
X02737Y019D01*
X02739Y01898D01*
X02742Y01896D01*
X02744Y01894D01*
X02745Y01894D01*
X02748Y01891D01*
X02756Y01886D01*
X02765Y01884D01*
X02775D01*
X02784Y01886D01*
X02792Y01891D01*
X02795Y01894D01*
X02796Y01894D01*
X02798Y01896D01*
X02801Y01898D01*
X02803Y019D01*
X02805Y01901D01*
X02807Y01902D01*
X02809Y01903D01*
X02812Y01904D01*
X02814Y01904D01*
X02816Y01904D01*
X02819Y01905D01*
X02819Y01905D01*
X03174D01*
X03179Y01899D01*
X03179Y01899D01*
X03181Y01897D01*
X03183Y01895D01*
X03184Y01893D01*
X03185Y01891D01*
X03186Y01889D01*
X03187Y01886D01*
X03187Y01884D01*
X03188Y01881D01*
X03188Y01878D01*
X03188Y01875D01*
X03189Y01874D01*
Y0187D01*
X03191Y01861D01*
X03196Y01853D01*
X03203Y01846D01*
X03211Y01841D01*
X0322Y01839D01*
X0323D01*
X03239Y01841D01*
X03247Y01846D01*
X03254Y01853D01*
X03259Y01861D01*
X03261Y0187D01*
Y0188D01*
X03259Y01889D01*
X03254Y01897D01*
X03247Y01904D01*
X03239Y01909D01*
X0323Y01911D01*
X03226D01*
X03225Y01912D01*
X03222Y01912D01*
X03219Y01912D01*
X03216Y01913D01*
X03214Y01913D01*
X03211Y01914D01*
X03209Y01915D01*
X03207Y01916D01*
X03205Y01917D01*
X03203Y01919D01*
X03201Y01921D01*
X03201Y01921D01*
X03191Y01931D01*
X03186Y01934D01*
X0318Y01935D01*
X02819D01*
X02819Y01935D01*
X02816Y01936D01*
X02814Y01936D01*
X02812Y01936D01*
X02809Y01937D01*
X02807Y01938D01*
X02805Y01939D01*
X02803Y0194D01*
X02801Y01942D01*
X02798Y01944D01*
X02796Y01946D01*
X02795Y01946D01*
X02792Y01949D01*
X02784Y01954D01*
X02775Y01956D01*
X02765D01*
X02756Y01954D01*
X02748Y01949D01*
X02745Y01946D01*
X02744Y01946D01*
X02742Y01944D01*
X02739Y01942D01*
X02737Y0194D01*
X02735Y01939D01*
X02733Y01938D01*
X02731Y01937D01*
X02728Y01936D01*
X02726Y01936D01*
X02724Y01936D01*
X02721Y01935D01*
X02718Y01936D01*
X02715Y01936D01*
X02712Y01936D01*
X0271Y01937D01*
X02709Y01937D01*
X02708Y01938D01*
X02707Y01938D01*
X02707Y01939D01*
X02707Y01939D01*
X02707Y01941D01*
X02706Y01941D01*
Y01956D01*
X02639D01*
X02636Y01961D01*
X0289Y02215D01*
X03174D01*
X03175Y02215D01*
X03176Y02214D01*
X03178Y02214D01*
X0318Y02213D01*
X03182Y02212D01*
X03184Y02211D01*
X03187Y02209D01*
X0319Y02207D01*
X03196Y02202D01*
X03199Y02199D01*
X032Y02199D01*
X03203Y02196D01*
X03211Y02191D01*
X0322Y02189D01*
X0323D01*
X03239Y02191D01*
X03247Y02196D01*
X03254Y02203D01*
X03259Y02211D01*
X03261Y0222D01*
Y0223D01*
X03259Y02239D01*
X03254Y02247D01*
X03247Y02254D01*
X03239Y02259D01*
X0323Y02261D01*
X0322D01*
X03211Y02259D01*
X03203Y02254D01*
X032Y02251D01*
X03199Y02251D01*
X03196Y02248D01*
X0319Y02243D01*
X03187Y02241D01*
X03184Y02239D01*
X03182Y02238D01*
X0318Y02237D01*
X03178Y02236D01*
X03176Y02236D01*
X03175Y02235D01*
X03174Y02235D01*
X02895D01*
X02894Y0224D01*
X02969Y02315D01*
X03174D01*
X03175Y02315D01*
X03176Y02314D01*
X03178Y02314D01*
X0318Y02313D01*
X03182Y02312D01*
X03184Y02311D01*
X03187Y02309D01*
X0319Y02307D01*
X03196Y02302D01*
X03199Y02299D01*
X032Y02299D01*
X03203Y02296D01*
X03211Y02291D01*
X0322Y02289D01*
X0323D01*
X03239Y02291D01*
X03247Y02296D01*
X03254Y02303D01*
X03259Y02311D01*
X03261Y0232D01*
Y0233D01*
X03259Y02339D01*
X03254Y02347D01*
X03247Y02354D01*
X03239Y02359D01*
X0323Y02361D01*
X0322D01*
X03211Y02359D01*
X03203Y02354D01*
X032Y02351D01*
X03199Y02351D01*
X03196Y02348D01*
X0319Y02343D01*
X03187Y02341D01*
X03184Y02339D01*
X03182Y02338D01*
X0318Y02337D01*
X03178Y02336D01*
X03176Y02336D01*
X03175Y02335D01*
X03174Y02335D01*
X02974D01*
X02972Y0234D01*
X03047Y02415D01*
X03174D01*
X03175Y02415D01*
X03176Y02414D01*
X03178Y02414D01*
X0318Y02413D01*
X03182Y02412D01*
X03184Y02411D01*
X03187Y02409D01*
X0319Y02407D01*
X03196Y02402D01*
X03199Y02399D01*
X032Y02399D01*
X03203Y02396D01*
X03211Y02391D01*
X0322Y02389D01*
X0323D01*
X03239Y02391D01*
X03247Y02396D01*
X03254Y02403D01*
X03259Y02411D01*
X03261Y0242D01*
Y0243D01*
X03259Y02439D01*
X03254Y02447D01*
X03247Y02454D01*
X03239Y02459D01*
X0323Y02461D01*
X0322D01*
X03211Y02459D01*
X03203Y02454D01*
X032Y02451D01*
X03199Y02451D01*
X03196Y02448D01*
X0319Y02443D01*
X03187Y02441D01*
X03184Y02439D01*
X03182Y02438D01*
X0318Y02437D01*
X03178Y02436D01*
X03176Y02436D01*
X03175Y02435D01*
X03174Y02435D01*
X03053D01*
X03051Y0244D01*
X03126Y02515D01*
X03174D01*
X03175Y02515D01*
X03176Y02514D01*
X03178Y02514D01*
X0318Y02513D01*
X03182Y02512D01*
X03184Y02511D01*
X03187Y02509D01*
X0319Y02507D01*
X03196Y02502D01*
X03199Y02499D01*
X032Y02499D01*
X03203Y02496D01*
X03211Y02491D01*
X0322Y02489D01*
X0323D01*
X03239Y02491D01*
X03247Y02496D01*
X03254Y02503D01*
X03259Y02511D01*
X03261Y0252D01*
Y0253D01*
X03259Y02539D01*
X03254Y02547D01*
X03247Y02554D01*
X03239Y02559D01*
X0323Y02561D01*
X0322D01*
X03211Y02559D01*
X03203Y02554D01*
X032Y02551D01*
X03199Y02551D01*
X03196Y02548D01*
X0319Y02543D01*
X03187Y02541D01*
X03184Y02539D01*
X03182Y02538D01*
X0318Y02537D01*
X03178Y02536D01*
X03176Y02536D01*
X03175Y02535D01*
X03174Y02535D01*
X03131D01*
X03129Y0254D01*
X03132Y02543D01*
X03134Y02546D01*
X03135Y0255D01*
Y02585D01*
X03165Y02615D01*
X03174D01*
X03175Y02615D01*
X03176Y02614D01*
X03178Y02614D01*
X0318Y02613D01*
X03182Y02612D01*
X03184Y02611D01*
X03187Y02609D01*
X0319Y02607D01*
X03196Y02602D01*
X03199Y02599D01*
X032Y02599D01*
X03203Y02596D01*
X03211Y02591D01*
X0322Y02589D01*
X0323D01*
X03239Y02591D01*
X03247Y02596D01*
X03254Y02603D01*
X03259Y02611D01*
X03261Y0262D01*
Y0263D01*
X03259Y02639D01*
X03254Y02647D01*
X03247Y02654D01*
X03239Y02659D01*
X0323Y02661D01*
X0322D01*
X03211Y02659D01*
X03203Y02654D01*
X032Y02651D01*
X03199Y02651D01*
X03196Y02648D01*
X0319Y02643D01*
X03187Y02641D01*
X03184Y02639D01*
X03182Y02638D01*
X0318Y02637D01*
X03178Y02636D01*
X03176Y02636D01*
X03175Y02635D01*
X03174Y02635D01*
X03161D01*
X03157Y02634D01*
X03154Y02632D01*
X0312Y02599D01*
X03115Y02601D01*
Y02681D01*
X03144Y02709D01*
X03176D01*
X03176Y02709D01*
X03178Y02709D01*
X03179Y02709D01*
X03181Y02708D01*
X03183Y02707D01*
X03186Y02706D01*
X032Y02698D01*
X03203Y02695D01*
X03204Y02695D01*
X03211Y02691D01*
X0322Y02689D01*
X0323D01*
X03239Y02691D01*
X03247Y02696D01*
X03254Y02703D01*
X03259Y02711D01*
X03261Y0272D01*
Y0273D01*
X03259Y02739D01*
X03254Y02747D01*
X03247Y02754D01*
X03239Y02759D01*
X0323Y02761D01*
X0322D01*
X03211Y02759D01*
X03203Y02754D01*
X03196Y02747D01*
X03195Y02746D01*
X03195Y02746D01*
X03192Y02743D01*
X0319Y0274D01*
X03188Y02737D01*
X03186Y02735D01*
X03183Y02734D01*
X03181Y02732D01*
X0318Y02731D01*
X03178Y02731D01*
X03176Y0273D01*
X03174Y0273D01*
X03174Y0273D01*
X03174Y0273D01*
X03173Y0273D01*
X0314D01*
X03136Y02729D01*
X03132Y02727D01*
X031Y02695D01*
X03095Y02697D01*
Y02761D01*
X03124Y0279D01*
X03183D01*
X03184Y0279D01*
X03187Y0279D01*
X03189Y02789D01*
Y02789D01*
X03193D01*
X03194Y02788D01*
X03194Y02789D01*
X03261D01*
Y02861D01*
X03189D01*
Y02811D01*
X03188Y02811D01*
X03188Y02811D01*
X03187Y02811D01*
X03185Y0281D01*
X03183Y0281D01*
X03183Y0281D01*
X0312D01*
X03116Y02809D01*
X03113Y02807D01*
X03078Y02772D01*
X03076Y02769D01*
X03075Y02765D01*
Y02561D01*
X02855Y02341D01*
X0285Y02343D01*
Y02881D01*
X02922Y02952D01*
X02924Y02955D01*
X02925Y02959D01*
Y03178D01*
X02925Y03178D01*
X02925Y0318D01*
X02925Y03182D01*
X02925Y03183D01*
X02925Y03183D01*
X02925Y03183D01*
X02925Y03184D01*
X02956D01*
Y03256D01*
D02*
G37*
G36*
X01161Y02861D02*
X01128D01*
Y02828D01*
X01161D01*
Y02861D01*
D02*
G37*
G36*
X01122D02*
X01089D01*
Y02828D01*
X01122D01*
Y02861D01*
D02*
G37*
G36*
X02145Y02851D02*
X02123D01*
Y02802D01*
X02145D01*
Y02851D01*
D02*
G37*
G36*
X01122Y02822D02*
X01089D01*
Y02789D01*
X01122D01*
Y02822D01*
D02*
G37*
G36*
X02383Y0278D02*
X02313D01*
Y02745D01*
X02383D01*
Y0278D01*
D02*
G37*
G36*
X02641Y02735D02*
X02641Y02734D01*
X02636D01*
Y0273D01*
X02636Y0273D01*
X02636Y02729D01*
X02636Y02728D01*
X02636Y02728D01*
X02635Y02727D01*
X02634Y02727D01*
X02633Y02726D01*
X02631Y02726D01*
X02628Y02725D01*
X02625Y02725D01*
X02621Y02725D01*
X02621Y02725D01*
X02612D01*
X02611Y02725D01*
X02604Y02725D01*
X02602Y02725D01*
X02599Y02726D01*
X02598Y02726D01*
X02597Y02727D01*
X02596Y02727D01*
Y0273D01*
X02592D01*
X02591Y02731D01*
X02591Y0273D01*
X0259Y02731D01*
X0259Y0273D01*
X02562D01*
X02561Y0273D01*
X02532D01*
X02531Y02731D01*
X02531Y02731D01*
X02531Y02731D01*
X02506Y0273D01*
X02506Y0273D01*
X02467D01*
X02461Y02729D01*
X02455Y02725D01*
X02451Y02719D01*
X0245Y02713D01*
X02451Y02706D01*
X02455Y027D01*
X02461Y02696D01*
X02467Y02695D01*
X02506D01*
X02506Y02695D01*
X0253Y02695D01*
X02531Y02695D01*
X02531Y02695D01*
X02531Y02695D01*
X02531Y02695D01*
X02531Y02695D01*
X02531Y02694D01*
X02532Y02695D01*
X02561D01*
X02562Y02695D01*
X02579D01*
X02582Y02694D01*
X02604D01*
X02611Y02694D01*
X02611Y02694D01*
X02611Y02694D01*
X02611Y02694D01*
X02621D01*
X02621Y02694D01*
X02625Y02694D01*
X02628Y02694D01*
X02631Y02693D01*
X02633Y02693D01*
X02634Y02692D01*
X02635Y02692D01*
X02636Y02691D01*
X02636Y02691D01*
X02636Y02691D01*
X02636Y02689D01*
X02636Y02689D01*
Y02685D01*
X02636Y02685D01*
X02635Y0268D01*
X02617D01*
X02616Y0268D01*
X02616Y0268D01*
X02616Y0268D01*
X02592Y02681D01*
X02592Y02681D01*
X02592Y02681D01*
X02592Y02681D01*
X02592Y02681D01*
X02591Y02681D01*
X02591Y02681D01*
X02591Y0268D01*
X02561D01*
X02561Y0268D01*
X02526D01*
Y02665D01*
X02561D01*
Y0266D01*
X02526D01*
Y02645D01*
X02561D01*
X02561Y02645D01*
X02591D01*
X02591Y02644D01*
X02591Y02644D01*
X02591Y02644D01*
X02616Y02645D01*
X02616Y02645D01*
X02616Y02645D01*
X02621Y02645D01*
X02625Y02644D01*
X02628Y02644D01*
X02631Y02643D01*
X02633Y02642D01*
X02634Y02641D01*
X02635Y0264D01*
X02636Y0264D01*
X02636Y02639D01*
X02636Y02637D01*
X02636Y02637D01*
Y02626D01*
X02658D01*
Y0265D01*
X0266D01*
Y02653D01*
X02684D01*
Y02675D01*
X02662D01*
X02662Y02675D01*
X02656Y02679D01*
X02652Y0268D01*
X02652Y02685D01*
X02684D01*
Y02734D01*
X02642D01*
X02642Y02734D01*
X02642Y02734D01*
X02641Y02735D01*
D02*
G37*
G36*
X01677Y02684D02*
X01655D01*
Y02662D01*
X01677D01*
Y02684D01*
D02*
G37*
G36*
X0165D02*
X01628D01*
Y02662D01*
X0165D01*
Y02684D01*
D02*
G37*
G36*
X01677Y02658D02*
X01655D01*
Y02636D01*
X01677D01*
Y02658D01*
D02*
G37*
G36*
X0165D02*
X01628D01*
Y02636D01*
X0165D01*
Y02658D01*
D02*
G37*
G36*
X02684Y02648D02*
X02662D01*
Y02626D01*
X02684D01*
Y02648D01*
D02*
G37*
G36*
X01736Y02566D02*
X01714D01*
Y02545D01*
X01736D01*
Y02566D01*
D02*
G37*
G36*
X01709D02*
X01687D01*
Y02545D01*
X01709D01*
Y02566D01*
D02*
G37*
G36*
X01633Y02504D02*
X01632Y02504D01*
X01628D01*
Y025D01*
X01627Y025D01*
X01627Y02499D01*
X01625Y02499D01*
X01623Y02498D01*
X01612Y02497D01*
X01608Y02497D01*
X01607Y02497D01*
X01599D01*
X01599Y02497D01*
X01595Y02497D01*
X01587Y02498D01*
X01584Y02498D01*
X01582Y02499D01*
X0158Y02499D01*
X01579Y025D01*
Y02503D01*
X01575D01*
X01574Y02503D01*
X01574Y02503D01*
X01573Y02503D01*
X01573Y02503D01*
X01533D01*
Y02455D01*
X01573D01*
X01573Y02454D01*
X01574Y02455D01*
X01574Y02454D01*
X01575Y02455D01*
X01579D01*
Y02458D01*
X0158Y02459D01*
X0158Y02459D01*
X0158Y02459D01*
X01582Y0246D01*
X01584Y0246D01*
X01587Y02461D01*
X01595Y02461D01*
X01599Y02462D01*
X01599Y02462D01*
X01607D01*
X01608Y02462D01*
X01612Y02461D01*
X0162Y02461D01*
X01623Y02461D01*
X01625Y0246D01*
X01627Y0246D01*
X01628Y0246D01*
Y02456D01*
X01632D01*
X01633Y02456D01*
X01633Y02456D01*
X01634Y02456D01*
X01634Y02456D01*
X01677D01*
Y02504D01*
X01634D01*
X01634Y02504D01*
X01633Y02504D01*
X01633Y02504D01*
D02*
G37*
G36*
X02025Y02499D02*
X02003D01*
Y02477D01*
X02025D01*
Y02499D01*
D02*
G37*
G36*
X01998D02*
X01976D01*
Y02477D01*
X01998D01*
Y02499D01*
D02*
G37*
G36*
X02025Y02473D02*
X02003D01*
Y02451D01*
X02025D01*
Y02473D01*
D02*
G37*
G36*
X01998D02*
X01976D01*
Y02451D01*
X01998D01*
Y02473D01*
D02*
G37*
G36*
X01633Y02415D02*
X01632Y02415D01*
X01628D01*
Y02411D01*
X01627Y02411D01*
X01627Y0241D01*
X01626Y0241D01*
X01625Y02409D01*
X01623Y02409D01*
X0162Y02408D01*
X01612Y02408D01*
X01608Y02408D01*
X01607Y02408D01*
X01599D01*
X01599Y02408D01*
X01595Y02408D01*
X01587Y02408D01*
X01584Y02409D01*
X01582Y02409D01*
X0158Y0241D01*
X01579Y0241D01*
Y02413D01*
X01575D01*
X01574Y02413D01*
X01574Y02413D01*
X01573Y02413D01*
X01573Y02413D01*
X01533D01*
Y02365D01*
X01573D01*
X01573Y02364D01*
X01574Y02364D01*
X01574Y02364D01*
X01575Y02365D01*
X01579D01*
Y02368D01*
X0158Y02369D01*
X0158Y02369D01*
X0158Y02369D01*
X01581Y0237D01*
X01582Y0237D01*
X01584Y02371D01*
X01587Y02371D01*
X01595Y02372D01*
X01599Y02372D01*
X01599Y02372D01*
X01607D01*
X01608Y02372D01*
X01612Y02372D01*
X0162Y02372D01*
X01623Y02371D01*
X01625Y02371D01*
X01627Y0237D01*
X01628Y0237D01*
Y02367D01*
X01632D01*
X01633Y02367D01*
X01633Y02367D01*
X01634Y02367D01*
X01634Y02367D01*
X01677D01*
Y02415D01*
X01634D01*
X01634Y02415D01*
X01633Y02415D01*
X01633Y02415D01*
D02*
G37*
G36*
X02102Y02379D02*
Y02357D01*
X02124D01*
Y02379D01*
X02102D01*
D02*
G37*
G36*
X01179Y02358D02*
X01176D01*
Y02318D01*
X01215D01*
Y02321D01*
X01213Y02332D01*
X01207Y02342D01*
X01199Y0235D01*
X01189Y02355D01*
X01179Y02358D01*
D02*
G37*
G36*
X01633Y02324D02*
X01632Y02324D01*
X01628D01*
Y0232D01*
X01627Y0232D01*
X01627Y02319D01*
X01625Y02319D01*
X01623Y02318D01*
X01612Y02317D01*
X01608Y02317D01*
X01607Y02317D01*
X01599D01*
X01599Y02317D01*
X01595Y02317D01*
X01587Y02318D01*
X01584Y02318D01*
X01582Y02319D01*
X0158Y02319D01*
X01579Y0232D01*
Y02323D01*
X01575D01*
X01574Y02323D01*
X01574Y02323D01*
X01573Y02323D01*
X01573Y02323D01*
X01533D01*
Y02275D01*
X01573D01*
X01573Y02274D01*
X01574Y02275D01*
X01574Y02274D01*
X01575Y02275D01*
X01579D01*
Y02278D01*
X0158Y02279D01*
X0158Y02279D01*
X0158Y02279D01*
X01582Y0228D01*
X01584Y0228D01*
X01587Y02281D01*
X01595Y02281D01*
X01599Y02282D01*
X01599Y02282D01*
X01607D01*
X01608Y02282D01*
X01612Y02281D01*
X0162Y02281D01*
X01623Y02281D01*
X01625Y0228D01*
X01627Y0228D01*
X01628Y0228D01*
Y02276D01*
X01632D01*
X01633Y02276D01*
X01633Y02276D01*
X01634Y02276D01*
X01634Y02276D01*
X01677D01*
Y02324D01*
X01634D01*
X01634Y02324D01*
X01633Y02324D01*
X01633Y02324D01*
D02*
G37*
G36*
X01215Y02313D02*
X01176D01*
Y02273D01*
X01179D01*
X01189Y02276D01*
X01199Y02281D01*
X01207Y02289D01*
X01213Y02299D01*
X01215Y0231D01*
Y02313D01*
D02*
G37*
G36*
X0185Y02172D02*
X01827D01*
Y02151D01*
X0185D01*
Y02172D01*
D02*
G37*
G36*
X01822D02*
X018D01*
Y02151D01*
X01822D01*
Y02172D01*
D02*
G37*
G36*
X01179Y02087D02*
X01176D01*
Y02047D01*
X01215D01*
Y0205D01*
X01213Y02061D01*
X01207Y02071D01*
X01199Y02079D01*
X01189Y02084D01*
X01179Y02087D01*
D02*
G37*
G36*
X01215Y02042D02*
X01176D01*
Y02002D01*
X01179D01*
X01189Y02005D01*
X01199Y0201D01*
X01207Y02018D01*
X01213Y02028D01*
X01215Y02039D01*
Y02042D01*
D02*
G37*
G36*
X0323Y02011D02*
X03227D01*
Y01977D01*
X03261D01*
Y0198D01*
X03259Y01989D01*
X03254Y01997D01*
X03247Y02004D01*
X03239Y02009D01*
X0323Y02011D01*
D02*
G37*
G36*
X03223D02*
X0322D01*
X03211Y02009D01*
X03203Y02004D01*
X03196Y01997D01*
X03191Y01989D01*
X03189Y0198D01*
Y01977D01*
X03223D01*
Y02011D01*
D02*
G37*
G36*
X03261Y01972D02*
X03227D01*
Y01939D01*
X0323D01*
X03239Y01941D01*
X03247Y01946D01*
X03254Y01953D01*
X03259Y01961D01*
X03261Y0197D01*
Y01972D01*
D02*
G37*
G36*
X03223D02*
X03189D01*
Y0197D01*
X03191Y01961D01*
X03196Y01953D01*
X03203Y01946D01*
X03211Y01941D01*
X0322Y01939D01*
X03223D01*
Y01972D01*
D02*
G37*
G36*
X0185Y019D02*
X01827D01*
Y01878D01*
X0185D01*
Y019D01*
D02*
G37*
G36*
X01822D02*
X018D01*
Y01878D01*
X01822D01*
Y019D01*
D02*
G37*
G36*
X0185Y01844D02*
X01827D01*
Y01822D01*
X0185D01*
Y01844D01*
D02*
G37*
G36*
X01822D02*
X018D01*
Y01822D01*
X01822D01*
Y01844D01*
D02*
G37*
G36*
X0185Y01817D02*
X01827D01*
Y01796D01*
X0185D01*
Y01817D01*
D02*
G37*
G36*
X01822D02*
X018D01*
Y01796D01*
X01822D01*
Y01817D01*
D02*
G37*
G36*
X02775Y01856D02*
X02765D01*
X02756Y01854D01*
X02748Y01849D01*
X02741Y01842D01*
X02736Y01834D01*
X02734Y01825D01*
Y01815D01*
X02736Y01806D01*
X02741Y01798D01*
X02748Y01791D01*
X02756Y01786D01*
X02765Y01784D01*
X02775D01*
X02784Y01786D01*
X02792Y01791D01*
X02799Y01798D01*
X02804Y01806D01*
X02806Y01815D01*
Y01825D01*
X02804Y01834D01*
X02799Y01842D01*
X02792Y01849D01*
X02784Y01854D01*
X02775Y01856D01*
D02*
G37*
G36*
X02675D02*
X02665D01*
X02656Y01854D01*
X02648Y01849D01*
X02641Y01842D01*
X02636Y01834D01*
X02634Y01825D01*
Y01815D01*
X02636Y01806D01*
X02641Y01798D01*
X02648Y01791D01*
X02656Y01786D01*
X02665Y01784D01*
X02675D01*
X02684Y01786D01*
X02692Y01791D01*
X02699Y01798D01*
X02704Y01806D01*
X02706Y01815D01*
Y01825D01*
X02704Y01834D01*
X02699Y01842D01*
X02692Y01849D01*
X02684Y01854D01*
X02675Y01856D01*
D02*
G37*
G36*
X02775Y01756D02*
X02773D01*
Y01722D01*
X02806D01*
Y01725D01*
X02804Y01734D01*
X02799Y01742D01*
X02792Y01749D01*
X02784Y01754D01*
X02775Y01756D01*
D02*
G37*
G36*
X02675D02*
X02672D01*
Y01722D01*
X02706D01*
Y01725D01*
X02704Y01734D01*
X02699Y01742D01*
X02692Y01749D01*
X02684Y01754D01*
X02675Y01756D01*
D02*
G37*
G36*
X02767D02*
X02765D01*
X02756Y01754D01*
X02748Y01749D01*
X02741Y01742D01*
X02736Y01734D01*
X02734Y01725D01*
Y01722D01*
X02767D01*
Y01756D01*
D02*
G37*
G36*
X02668D02*
X02665D01*
X02656Y01754D01*
X02648Y01749D01*
X02641Y01742D01*
X02636Y01734D01*
X02634Y01725D01*
Y01722D01*
X02668D01*
Y01756D01*
D02*
G37*
G36*
X0267Y0172D02*
D01*
D01*
D01*
D02*
G37*
G36*
X02806Y01717D02*
X02773D01*
Y01684D01*
X02775D01*
X02784Y01686D01*
X02792Y01691D01*
X02799Y01698D01*
X02804Y01706D01*
X02806Y01715D01*
Y01717D01*
D02*
G37*
G36*
X02767D02*
X02734D01*
Y01715D01*
X02736Y01706D01*
X02741Y01698D01*
X02748Y01691D01*
X02756Y01686D01*
X02765Y01684D01*
X02767D01*
Y01717D01*
D02*
G37*
G36*
X02706D02*
X02672D01*
Y01684D01*
X02675D01*
X02684Y01686D01*
X02692Y01691D01*
X02699Y01698D01*
X02704Y01706D01*
X02706Y01715D01*
Y01717D01*
D02*
G37*
G36*
X02668D02*
X02634D01*
Y01715D01*
X02636Y01706D01*
X02641Y01698D01*
X02648Y01691D01*
X02656Y01686D01*
X02665Y01684D01*
X02668D01*
Y01717D01*
D02*
G37*
G36*
X01656Y01668D02*
X01653D01*
Y01628D01*
X01692D01*
Y01631D01*
X0169Y01641D01*
X01684Y01651D01*
X01676Y01659D01*
X01666Y01665D01*
X01656Y01668D01*
D02*
G37*
G36*
X01648D02*
X01644D01*
X01634Y01665D01*
X01624Y01659D01*
X01616Y01651D01*
X0161Y01641D01*
X01607Y01631D01*
Y01628D01*
X01648D01*
Y01668D01*
D02*
G37*
G36*
X02344Y01635D02*
X02322D01*
Y01613D01*
X02344D01*
Y01635D01*
D02*
G37*
G36*
Y01608D02*
X02322D01*
Y01586D01*
X02344D01*
Y01608D01*
D02*
G37*
G36*
X02318D02*
X02296D01*
Y01586D01*
X02318D01*
Y01608D01*
D02*
G37*
G36*
X01692Y01622D02*
X01653D01*
Y01582D01*
X01656D01*
X01666Y01585D01*
X01676Y01591D01*
X01684Y01599D01*
X0169Y01609D01*
X01692Y01619D01*
Y01622D01*
D02*
G37*
G36*
X01648D02*
X01607D01*
Y01619D01*
X0161Y01609D01*
X01616Y01599D01*
X01624Y01591D01*
X01634Y01585D01*
X01644Y01582D01*
X01648D01*
Y01622D01*
D02*
G37*
G36*
X01656Y01396D02*
X01653D01*
Y01357D01*
X01692D01*
Y0136D01*
X0169Y0137D01*
X01684Y0138D01*
X01676Y01388D01*
X01666Y01394D01*
X01656Y01396D01*
D02*
G37*
G36*
X01648D02*
X01644D01*
X01634Y01394D01*
X01624Y01388D01*
X01616Y0138D01*
X0161Y0137D01*
X01607Y0136D01*
Y01357D01*
X01648D01*
Y01396D01*
D02*
G37*
G36*
X01692Y01352D02*
X01653D01*
Y01311D01*
X01656D01*
X01666Y01314D01*
X01676Y0132D01*
X01684Y01328D01*
X0169Y01338D01*
X01692Y01348D01*
Y01352D01*
D02*
G37*
G36*
X01648D02*
X01607D01*
Y01348D01*
X0161Y01338D01*
X01616Y01328D01*
X01624Y0132D01*
X01634Y01314D01*
X01644Y01311D01*
X01648D01*
Y01352D01*
D02*
G37*
G36*
X03158Y01284D02*
X03152D01*
Y01202D01*
X03234D01*
Y01208D01*
X03231Y01224D01*
X03224Y0124D01*
X03215Y01253D01*
X03203Y01265D01*
X0319Y01274D01*
X03174Y01281D01*
X03158Y01284D01*
D02*
G37*
G36*
X03148D02*
X03142D01*
X03126Y01281D01*
X0311Y01274D01*
X03097Y01265D01*
X03085Y01253D01*
X03076Y0124D01*
X03069Y01224D01*
X03066Y01208D01*
Y01202D01*
X03148D01*
Y01284D01*
D02*
G37*
G36*
X01208D02*
X01202D01*
Y01202D01*
X01284D01*
Y01208D01*
X01281Y01224D01*
X01274Y0124D01*
X01265Y01253D01*
X01253Y01265D01*
X0124Y01274D01*
X01224Y01281D01*
X01208Y01284D01*
D02*
G37*
G36*
X01197D02*
X01192D01*
X01176Y01281D01*
X0116Y01274D01*
X01147Y01265D01*
X01135Y01253D01*
X01126Y0124D01*
X01119Y01224D01*
X01116Y01208D01*
Y01202D01*
X01197D01*
Y01284D01*
D02*
G37*
G36*
X02885Y01176D02*
X02882D01*
Y01143D01*
X02916D01*
Y01145D01*
X02914Y01154D01*
X02909Y01162D01*
X02902Y01169D01*
X02894Y01174D01*
X02885Y01176D01*
D02*
G37*
G36*
X02878D02*
X02875D01*
X02866Y01174D01*
X02858Y01169D01*
X02851Y01162D01*
X02846Y01154D01*
X02844Y01145D01*
Y01143D01*
X02878D01*
Y01176D01*
D02*
G37*
G36*
X03234Y01197D02*
X03152D01*
Y01116D01*
X03158D01*
X03174Y01119D01*
X0319Y01126D01*
X03203Y01135D01*
X03215Y01147D01*
X03224Y0116D01*
X03231Y01176D01*
X03234Y01192D01*
Y01197D01*
D02*
G37*
G36*
X03148D02*
X03066D01*
Y01192D01*
X03069Y01176D01*
X03076Y0116D01*
X03085Y01147D01*
X03097Y01135D01*
X0311Y01126D01*
X03126Y01119D01*
X03142Y01116D01*
X03148D01*
Y01197D01*
D02*
G37*
G36*
X01284D02*
X01202D01*
Y01116D01*
X01208D01*
X01224Y01119D01*
X0124Y01126D01*
X01253Y01135D01*
X01265Y01147D01*
X01274Y0116D01*
X01281Y01176D01*
X01284Y01192D01*
Y01197D01*
D02*
G37*
G36*
X01197D02*
X01116D01*
Y01192D01*
X01119Y01176D01*
X01126Y0116D01*
X01135Y01147D01*
X01147Y01135D01*
X0116Y01126D01*
X01176Y01119D01*
X01192Y01116D01*
X01197D01*
Y01197D01*
D02*
G37*
G36*
X02916Y01138D02*
X02882D01*
Y01104D01*
X02885D01*
X02894Y01106D01*
X02902Y01111D01*
X02909Y01118D01*
X02914Y01126D01*
X02916Y01135D01*
Y01138D01*
D02*
G37*
G36*
X02878D02*
X02844D01*
Y01135D01*
X02846Y01126D01*
X02851Y01118D01*
X02858Y01111D01*
X02866Y01106D01*
X02875Y01104D01*
X02878D01*
Y01138D01*
D02*
G37*
G36*
X02785Y01176D02*
X02775D01*
X02766Y01174D01*
X02758Y01169D01*
X02751Y01162D01*
X02746Y01154D01*
X02744Y01145D01*
Y01135D01*
X02746Y01126D01*
X02751Y01118D01*
X02758Y01111D01*
X02766Y01106D01*
X02775Y01104D01*
X02785D01*
X02794Y01106D01*
X02802Y01111D01*
X02809Y01118D01*
X02814Y01126D01*
X02816Y01135D01*
Y01145D01*
X02814Y01154D01*
X02809Y01162D01*
X02802Y01169D01*
X02794Y01174D01*
X02785Y01176D01*
D02*
G37*
%LPD*%
G36*
X02497Y03261D02*
X025Y03259D01*
X02502Y03257D01*
X02504Y03255D01*
X02507Y03254D01*
X02509Y03253D01*
X02512Y03252D01*
X02514Y03252D01*
X02517Y03252D01*
X0252Y03251D01*
X02489Y0322D01*
X02488Y03223D01*
X02488Y03226D01*
X02488Y03228D01*
X02487Y03231D01*
X02486Y03233D01*
X02485Y03236D01*
X02483Y03238D01*
X02481Y0324D01*
X02479Y03243D01*
X02477Y03245D01*
X02495Y03263D01*
X02497Y03261D01*
D02*
G37*
G36*
X02183Y03245D02*
X02181Y03243D01*
X02179Y0324D01*
X02177Y03238D01*
X02175Y03236D01*
X02174Y03233D01*
X02173Y03231D01*
X02172Y03228D01*
X02172Y03226D01*
X02172Y03223D01*
X02171Y0322D01*
X0214Y03251D01*
X02143Y03252D01*
X02146Y03252D01*
X02148Y03252D01*
X02151Y03253D01*
X02153Y03254D01*
X02156Y03255D01*
X02158Y03257D01*
X0216Y03259D01*
X02163Y03261D01*
X02165Y03263D01*
X02183Y03245D01*
D02*
G37*
G36*
X02072Y03215D02*
X02072Y03207D01*
X02073Y03203D01*
X02073Y032D01*
X02074Y03197D01*
X02075Y03194D01*
X02076Y03192D01*
X02077Y0319D01*
X02079Y03188D01*
X02072Y03181D01*
X0207Y03183D01*
X02068Y03184D01*
X02066Y03185D01*
X02063Y03186D01*
X0206Y03187D01*
X02057Y03187D01*
X02053Y03188D01*
X02045Y03188D01*
X0204Y03189D01*
X02071Y0322D01*
X02072Y03215D01*
D02*
G37*
G36*
X01972Y03215D02*
X01972Y03207D01*
X01973Y03203D01*
X01973Y032D01*
X01974Y03197D01*
X01975Y03194D01*
X01976Y03192D01*
X01977Y0319D01*
X01979Y03188D01*
X01972Y03181D01*
X0197Y03183D01*
X01968Y03184D01*
X01966Y03185D01*
X01963Y03186D01*
X0196Y03187D01*
X01957Y03187D01*
X01953Y03188D01*
X01945Y03188D01*
X0194Y03189D01*
X01971Y0322D01*
X01972Y03215D01*
D02*
G37*
G36*
X01872D02*
X01872Y03207D01*
X01873Y03203D01*
X01873Y032D01*
X01874Y03197D01*
X01875Y03194D01*
X01876Y03192D01*
X01877Y0319D01*
X01879Y03188D01*
X01872Y03181D01*
X0187Y03183D01*
X01868Y03184D01*
X01866Y03185D01*
X01863Y03186D01*
X0186Y03187D01*
X01857Y03187D01*
X01853Y03188D01*
X01845Y03188D01*
X0184Y03189D01*
X01871Y0322D01*
X01872Y03215D01*
D02*
G37*
G36*
X01772D02*
X01772Y03207D01*
X01773Y03203D01*
X01773Y032D01*
X01774Y03197D01*
X01775Y03194D01*
X01776Y03192D01*
X01777Y0319D01*
X01779Y03188D01*
X01772Y03181D01*
X0177Y03183D01*
X01768Y03184D01*
X01766Y03185D01*
X01763Y03186D01*
X0176Y03187D01*
X01757Y03187D01*
X01753Y03188D01*
X01745Y03188D01*
X0174Y03189D01*
X01771Y0322D01*
X01772Y03215D01*
D02*
G37*
G36*
X01672D02*
X01672Y03207D01*
X01673Y03203D01*
X01673Y032D01*
X01674Y03197D01*
X01675Y03194D01*
X01676Y03192D01*
X01677Y0319D01*
X01679Y03188D01*
X01672Y03181D01*
X0167Y03183D01*
X01668Y03184D01*
X01666Y03185D01*
X01663Y03186D01*
X0166Y03187D01*
X01657Y03187D01*
X01653Y03188D01*
X01645Y03188D01*
X0164Y03189D01*
X01671Y0322D01*
X01672Y03215D01*
D02*
G37*
G36*
X01572D02*
X01572Y03207D01*
X01573Y03203D01*
X01573Y032D01*
X01574Y03197D01*
X01575Y03194D01*
X01576Y03192D01*
X01577Y0319D01*
X01579Y03188D01*
X01572Y03181D01*
X0157Y03183D01*
X01568Y03184D01*
X01566Y03185D01*
X01563Y03186D01*
X0156Y03187D01*
X01557Y03187D01*
X01553Y03188D01*
X01545Y03188D01*
X0154Y03189D01*
X01571Y0322D01*
X01572Y03215D01*
D02*
G37*
G36*
X02923Y03189D02*
X02923Y03188D01*
X02922Y03188D01*
X02921Y03187D01*
X02921Y03186D01*
X0292Y03185D01*
X0292Y03184D01*
X0292Y03182D01*
X02919Y03181D01*
X02919Y03179D01*
X02909D01*
X02909Y03181D01*
X02909Y03182D01*
X02909Y03184D01*
X02909Y03185D01*
X02908Y03186D01*
X02908Y03187D01*
X02907Y03188D01*
X02906Y03188D01*
X02905Y03189D01*
X02904Y03189D01*
X02924D01*
X02923Y03189D01*
D02*
G37*
G36*
X02739Y03194D02*
X02733Y03188D01*
X02731Y03185D01*
X02729Y03182D01*
X02728Y0318D01*
X02727Y03177D01*
X02726Y03175D01*
X02725Y03172D01*
X02725Y0317D01*
X02715D01*
X02715Y03172D01*
X02714Y03175D01*
X02713Y03177D01*
X02712Y0318D01*
X02711Y03182D01*
X02709Y03185D01*
X02707Y03188D01*
X02701Y03194D01*
X02698Y03198D01*
X02742D01*
X02739Y03194D01*
D02*
G37*
G36*
X01559Y02922D02*
X0156Y0292D01*
X01561Y02919D01*
X01563Y02918D01*
X01565Y02917D01*
X01568Y02916D01*
X01571Y02916D01*
X01575Y02915D01*
X01579Y02915D01*
X01584Y02915D01*
Y0289D01*
X01579Y0289D01*
X01565Y02889D01*
X01563Y02889D01*
X01561Y02888D01*
X0156Y02888D01*
X01559Y02887D01*
X01559Y02886D01*
Y02924D01*
X01559Y02922D01*
D02*
G37*
G36*
X01461Y02886D02*
X01461Y02888D01*
X0146Y02889D01*
X01459Y0289D01*
X01457Y0289D01*
X01455Y02891D01*
X01452Y02892D01*
X01449Y02892D01*
X01441Y02892D01*
X01436Y02892D01*
Y02918D01*
X01441Y02918D01*
X01452Y02918D01*
X01455Y02919D01*
X01457Y0292D01*
X01459Y0292D01*
X0146Y02921D01*
X01461Y02922D01*
X01461Y02924D01*
Y02886D01*
D02*
G37*
G36*
X01616Y0288D02*
X01614Y02882D01*
X01612Y02883D01*
X0161Y02885D01*
X01608Y02886D01*
X01605Y02887D01*
X01603Y02888D01*
X016Y02889D01*
X01597Y0289D01*
X01594Y0289D01*
X01591Y0289D01*
X01593Y02915D01*
X01597Y02915D01*
X016Y02915D01*
X01602Y02916D01*
X01605Y02916D01*
X01608Y02917D01*
X0161Y02918D01*
X01613Y02919D01*
X01615Y02921D01*
X01617Y02922D01*
X01619Y02924D01*
X01616Y0288D01*
D02*
G37*
G36*
X01953Y02867D02*
X01954Y02855D01*
X01954Y02853D01*
X01955Y0285D01*
X01956Y02849D01*
X01957Y02847D01*
X01958Y02847D01*
X01959Y02846D01*
X0192D01*
X01921Y02847D01*
X01923Y02847D01*
X01924Y02849D01*
X01925Y0285D01*
X01926Y02853D01*
X01926Y02855D01*
X01927Y02859D01*
X01927Y02862D01*
X01928Y02871D01*
X01952D01*
X01953Y02867D01*
D02*
G37*
G36*
X01689Y02831D02*
X01684Y02826D01*
X01676Y02817D01*
X01673Y02813D01*
X01671Y02809D01*
X0167Y02806D01*
X01669Y02803D01*
X01669Y028D01*
X0167Y02798D01*
X01671Y02796D01*
X01636Y02831D01*
X01638Y0283D01*
X0164Y02829D01*
X01643Y02829D01*
X01646Y0283D01*
X01649Y02831D01*
X01653Y02833D01*
X01657Y02836D01*
X01661Y0284D01*
X01671Y02849D01*
X01689Y02831D01*
D02*
G37*
G36*
X03194Y02794D02*
X03194Y02794D01*
X03193Y02794D01*
X03193Y02794D01*
X03192Y02795D01*
X03191Y02795D01*
X0319Y02795D01*
X03187Y02795D01*
X03184Y02795D01*
Y02805D01*
X03186Y02805D01*
X03187Y02805D01*
X03189Y02805D01*
X0319Y02806D01*
X03191Y02806D01*
X03192Y02807D01*
X03193Y02807D01*
X03193Y02808D01*
X03194Y02809D01*
X03194Y0281D01*
X03194Y02794D01*
D02*
G37*
G36*
X01609Y02775D02*
X01608Y02777D01*
X01608Y0278D01*
X01606Y02781D01*
X01605Y02783D01*
X01602Y02784D01*
X016Y02786D01*
X01596Y02786D01*
X01593Y02787D01*
X01588Y02787D01*
X01584Y02787D01*
Y02812D01*
X01588Y02813D01*
X01593Y02813D01*
X01596Y02814D01*
X016Y02815D01*
X01602Y02816D01*
X01605Y02817D01*
X01606Y02819D01*
X01608Y0282D01*
X01608Y02823D01*
X01609Y02825D01*
Y02775D01*
D02*
G37*
G36*
X01924Y02888D02*
X01924Y02887D01*
X01922Y0288D01*
Y02872D01*
X01922Y02871D01*
X01922Y02863D01*
X01921Y02859D01*
X01921Y02856D01*
X0192Y02854D01*
X0192Y02853D01*
X01919Y02852D01*
X01919Y02852D01*
X01919Y02852D01*
X01919Y02851D01*
X01915D01*
Y02847D01*
X01914Y02846D01*
X01915Y02846D01*
X01915Y02845D01*
X01915Y02845D01*
Y02789D01*
X01915Y02788D01*
X01915Y02788D01*
X01914Y02787D01*
X01915Y02787D01*
Y02776D01*
X01913Y02773D01*
X01911Y0277D01*
X01903Y02761D01*
X01898Y02756D01*
X01898Y02756D01*
X0182Y02678D01*
X01756D01*
X01756Y02678D01*
X01751Y02678D01*
X01744Y02678D01*
X01741Y02679D01*
X01738Y02679D01*
X01737Y0268D01*
X01736Y0268D01*
Y02684D01*
X01732D01*
X01731Y02684D01*
X0173Y02684D01*
X0173Y02684D01*
X01729Y02684D01*
X01723D01*
X01723Y02685D01*
X01723Y02686D01*
X01722Y02688D01*
X01722Y02693D01*
X01722Y02696D01*
X01722Y02697D01*
X01721Y02703D01*
X01717Y02709D01*
X01717Y02709D01*
X01702Y02724D01*
X01696Y02727D01*
X01689Y02729D01*
X01508D01*
X01501Y02727D01*
X01495Y02724D01*
X01495Y02724D01*
X01314Y02543D01*
X01173D01*
X01173Y02543D01*
X0117Y02543D01*
X01167Y02543D01*
X01165Y02544D01*
X01163Y02544D01*
X0116Y02545D01*
X01158Y02546D01*
X01156Y02547D01*
X01155Y02548D01*
X01153Y02549D01*
X01151Y02551D01*
X0115Y02551D01*
X01147Y02554D01*
X01139Y02559D01*
X0113Y02561D01*
X0112D01*
X01111Y02559D01*
X01103Y02554D01*
X01096Y02547D01*
X01091Y02539D01*
X01089Y0253D01*
Y0252D01*
X01091Y02511D01*
X01094Y02506D01*
X01094Y02505D01*
X01095Y02503D01*
X01096Y02501D01*
X01097Y02499D01*
X01098Y02497D01*
X01099Y02494D01*
X01099Y02492D01*
X011Y0249D01*
X011Y02484D01*
X011Y02481D01*
X011Y02481D01*
Y02022D01*
X01102Y02015D01*
X01105Y02009D01*
X01156Y01958D01*
Y01861D01*
X01128D01*
Y01825D01*
Y01789D01*
X01156D01*
Y01753D01*
X01151Y0175D01*
X01147Y01754D01*
X01139Y01759D01*
X0113Y01761D01*
X0112D01*
X01111Y01759D01*
X01103Y01754D01*
X01096Y01747D01*
X01091Y01739D01*
X01089Y0173D01*
Y0172D01*
X01091Y01711D01*
X01096Y01703D01*
X01103Y01696D01*
X01111Y01691D01*
X0112Y01689D01*
X0113D01*
X01139Y01691D01*
X01147Y01696D01*
X01151Y017D01*
X01156Y01697D01*
Y01653D01*
X01151Y0165D01*
X01147Y01654D01*
X01139Y01659D01*
X0113Y01661D01*
X01126D01*
X01125Y01662D01*
X01122Y01662D01*
X0112Y01662D01*
X01118Y01663D01*
X01116Y01663D01*
X01114Y01664D01*
X01112Y01665D01*
X0111Y01666D01*
X01108Y01668D01*
X01106Y0167D01*
X01104Y01672D01*
X01104Y01672D01*
X01059Y01716D01*
Y02534D01*
X01104Y02578D01*
X01104Y02578D01*
X01106Y0258D01*
X01108Y02582D01*
X0111Y02584D01*
X01112Y02585D01*
X01114Y02586D01*
X01116Y02587D01*
X01118Y02587D01*
X0112Y02588D01*
X01122Y02588D01*
X01125Y02588D01*
X01126Y02589D01*
X0113D01*
X01139Y02591D01*
X01147Y02596D01*
X01154Y02603D01*
X01159Y02611D01*
X01161Y0262D01*
Y02624D01*
X01162Y02625D01*
X01162Y02628D01*
X01162Y0263D01*
X01163Y02632D01*
X01163Y02634D01*
X01164Y02636D01*
X01165Y02638D01*
X01166Y0264D01*
X01168Y02642D01*
X0117Y02644D01*
X01172Y02646D01*
X01172Y02646D01*
X01307Y02782D01*
X01583D01*
X01583Y02782D01*
X01588Y02782D01*
X01592Y02782D01*
X01595Y02781D01*
X01598Y0278D01*
X016Y0278D01*
X01601Y02779D01*
X01602Y02778D01*
X01603Y02777D01*
X01603Y02776D01*
X01603Y02774D01*
X01604Y02774D01*
Y02764D01*
X01676D01*
Y02795D01*
X01677Y02795D01*
X01676Y02796D01*
X01677Y02796D01*
X01676Y02796D01*
Y02807D01*
X01678Y0281D01*
X01681Y02814D01*
X01688Y02823D01*
X01693Y02828D01*
X01693Y02828D01*
X01757Y02892D01*
X01922D01*
X01924Y02888D01*
D02*
G37*
G36*
X02591Y02772D02*
X02591Y02771D01*
X02592Y0277D01*
X02593Y02769D01*
X02594Y02769D01*
X02595Y02768D01*
X02596Y02768D01*
X02598Y02768D01*
X02599Y02768D01*
X02601Y02768D01*
Y02758D01*
X02599Y02758D01*
X02598Y02757D01*
X02596Y02757D01*
X02595Y02757D01*
X02594Y02756D01*
X02593Y02756D01*
X02592Y02755D01*
X02591Y02754D01*
X02591Y02754D01*
X02591Y02753D01*
Y02773D01*
X02591Y02772D01*
D02*
G37*
G36*
X01955Y02752D02*
X01953Y02753D01*
X01951Y02754D01*
X01948D01*
X01945Y02753D01*
X01942Y02752D01*
X01938Y0275D01*
X01934Y02747D01*
X0193Y02744D01*
X0192Y02734D01*
X01902Y02752D01*
X01907Y02757D01*
X01915Y02766D01*
X01918Y0277D01*
X0192Y02774D01*
X01921Y02778D01*
X01922Y02781D01*
Y02783D01*
X01921Y02785D01*
X0192Y02787D01*
X01955Y02752D01*
D02*
G37*
G36*
X02139Y02785D02*
X02138Y02783D01*
Y02781D01*
X02139Y02778D01*
X0214Y02774D01*
X02142Y0277D01*
X02145Y02766D01*
X02149Y02762D01*
X02158Y02752D01*
X0214Y02734D01*
X02135Y02739D01*
X02126Y02747D01*
X02122Y0275D01*
X02118Y02752D01*
X02115Y02753D01*
X02112Y02754D01*
X02109D01*
X02107Y02753D01*
X02105Y02752D01*
X0214Y02787D01*
X02139Y02785D01*
D02*
G37*
G36*
X02048Y02752D02*
X02046Y02751D01*
X02045Y0275D01*
X02043Y02749D01*
X02042Y02747D01*
X02042Y02745D01*
X02041Y02742D01*
X0204Y02739D01*
X0204Y02736D01*
X0204Y02732D01*
X0202D01*
X0202Y02736D01*
X0202Y02739D01*
X02019Y02742D01*
X02018Y02745D01*
X02018Y02747D01*
X02017Y02749D01*
X02015Y0275D01*
X02014Y02751D01*
X02012Y02752D01*
X0201Y02752D01*
X0205D01*
X02048Y02752D01*
D02*
G37*
G36*
X01168Y0275D02*
X01166Y02748D01*
X01164Y02745D01*
X01162Y02743D01*
X0116Y02741D01*
X01159Y02738D01*
X01158Y02736D01*
X01157Y02733D01*
X01157Y02731D01*
X01157Y02728D01*
X01156Y02725D01*
X01125Y02756D01*
X01128Y02757D01*
X01131Y02757D01*
X01133Y02757D01*
X01136Y02758D01*
X01138Y02759D01*
X01141Y0276D01*
X01143Y02762D01*
X01145Y02764D01*
X01148Y02766D01*
X0115Y02768D01*
X01168Y0275D01*
D02*
G37*
G36*
X02318Y027D02*
X02318Y027D01*
X02317Y027D01*
X02293Y027D01*
Y02725D01*
X02318Y02725D01*
Y027D01*
D02*
G37*
G36*
X03207Y02699D02*
X03203Y02702D01*
X03188Y02711D01*
X03186Y02712D01*
X03183Y02713D01*
X0318Y02714D01*
X03178Y02714D01*
X03176Y02715D01*
X03175Y02725D01*
X03177Y02725D01*
X03179Y02725D01*
X03182Y02726D01*
X03184Y02728D01*
X03187Y02729D01*
X03189Y02731D01*
X03192Y02734D01*
X03194Y02736D01*
X03197Y02739D01*
X03199Y02743D01*
X03207Y02699D01*
D02*
G37*
G36*
X01717Y02693D02*
X01717Y02687D01*
X01717Y02685D01*
X01718Y02683D01*
X01718Y02681D01*
X01719Y0268D01*
X0172Y02679D01*
X01721Y02679D01*
X01722Y02678D01*
X01692Y02679D01*
X01692Y02679D01*
X01692Y02679D01*
X01692Y02696D01*
X01717D01*
X01717Y02693D01*
D02*
G37*
G36*
X01731Y02677D02*
X01732Y02676D01*
X01733Y02675D01*
X01735Y02675D01*
X01737Y02674D01*
X0174Y02673D01*
X01743Y02673D01*
X01751Y02673D01*
X01756Y02672D01*
Y02648D01*
X01751Y02647D01*
X0174Y02647D01*
X01737Y02646D01*
X01735Y02645D01*
X01733Y02645D01*
X01732Y02644D01*
X01731Y02643D01*
X01731Y02641D01*
Y02679D01*
X01731Y02677D01*
D02*
G37*
G36*
X01168Y0265D02*
X01166Y02648D01*
X01164Y02645D01*
X01162Y02643D01*
X0116Y02641D01*
X01159Y02638D01*
X01158Y02636D01*
X01157Y02633D01*
X01157Y02631D01*
X01157Y02628D01*
X01156Y02625D01*
X01125Y02656D01*
X01128Y02657D01*
X01131Y02657D01*
X01133Y02657D01*
X01136Y02658D01*
X01138Y02659D01*
X01141Y0266D01*
X01143Y02662D01*
X01145Y02664D01*
X01148Y02666D01*
X0115Y02668D01*
X01168Y0265D01*
D02*
G37*
G36*
X0204Y02634D02*
X0204Y02631D01*
X02041Y02628D01*
X02042Y02625D01*
X02043Y02623D01*
X02044Y02621D01*
X02045Y0262D01*
X02046Y02619D01*
X02048Y02618D01*
X0205Y02618D01*
X0201D01*
X02012Y02618D01*
X02014Y02619D01*
X02015Y0262D01*
X02016Y02621D01*
X02018Y02623D01*
X02018Y02625D01*
X02019Y02628D01*
X0202Y02631D01*
X0202Y02634D01*
X0202Y02638D01*
X0204D01*
X0204Y02634D01*
D02*
G37*
G36*
X03203Y02603D02*
X03199Y02606D01*
X03193Y02612D01*
X0319Y02614D01*
X03187Y02616D01*
X03185Y02617D01*
X03182Y02618D01*
X0318Y02619D01*
X03177Y0262D01*
X03175Y0262D01*
Y0263D01*
X03177Y0263D01*
X0318Y02631D01*
X03182Y02632D01*
X03185Y02633D01*
X03187Y02634D01*
X0319Y02636D01*
X03193Y02638D01*
X03199Y02644D01*
X03203Y02647D01*
Y02603D01*
D02*
G37*
G36*
X02531Y026D02*
X02531Y026D01*
X02531Y02601D01*
X0253Y02601D01*
X0253Y02602D01*
X02529Y02602D01*
X02528Y02602D01*
X02526Y02602D01*
X02525Y02602D01*
X02521Y02602D01*
Y02612D01*
X02523Y02613D01*
X02525Y02613D01*
X02527Y02613D01*
X02528Y02613D01*
X02529Y02614D01*
X0253Y02614D01*
X02531Y02615D01*
X02531Y02616D01*
X02531Y02617D01*
X02532Y02618D01*
X02531Y026D01*
D02*
G37*
G36*
X02318D02*
X02318Y026D01*
X02317Y026D01*
X02293Y026D01*
Y02625D01*
X02318Y02625D01*
Y026D01*
D02*
G37*
G36*
X01528Y02588D02*
X01524Y02584D01*
X01518Y02577D01*
X01515Y02573D01*
X01514Y0257D01*
X01512Y02568D01*
X01512Y02565D01*
X01512Y02563D01*
X01512Y02561D01*
X01514Y0256D01*
X01485Y02588D01*
X01487Y02587D01*
X01489Y02586D01*
X01491Y02586D01*
X01493Y02587D01*
X01496Y02588D01*
X01499Y0259D01*
X01502Y02592D01*
X01506Y02595D01*
X01514Y02602D01*
X01528Y02588D01*
D02*
G37*
G36*
X01965Y02583D02*
X01965Y02585D01*
X01964Y02587D01*
X01963Y02588D01*
X01962Y0259D01*
X0196Y02591D01*
X01958Y02592D01*
X01955Y02592D01*
X01952Y02593D01*
X01949Y02593D01*
X01945Y02593D01*
Y02613D01*
X01949Y02613D01*
X01958Y02614D01*
X0196Y02614D01*
X01962Y02615D01*
X01963Y02616D01*
X01964Y02616D01*
X01965Y02617D01*
X01965Y02618D01*
X01965Y02583D01*
D02*
G37*
G36*
X01125Y02594D02*
X01122Y02593D01*
X01119Y02593D01*
X01117Y02593D01*
X01114Y02592D01*
X01112Y02591D01*
X01109Y0259D01*
X01107Y02588D01*
X01105Y02586D01*
X01102Y02584D01*
X011Y02582D01*
X01082Y026D01*
X01084Y02602D01*
X01086Y02605D01*
X01088Y02607D01*
X0109Y02609D01*
X01091Y02612D01*
X01092Y02614D01*
X01093Y02617D01*
X01093Y02619D01*
X01093Y02622D01*
X01094Y02625D01*
X01125Y02594D01*
D02*
G37*
G36*
X02095Y02589D02*
X02096Y02587D01*
X02097Y02586D01*
X02098Y02584D01*
X021Y02583D01*
X02102Y02582D01*
X02105Y02582D01*
X02108Y02581D01*
X02111Y02581D01*
X02115Y02581D01*
Y02561D01*
X02111Y02561D01*
X02108Y0256D01*
X02105Y0256D01*
X02102Y02559D01*
X021Y02558D01*
X02098Y02557D01*
X02097Y02556D01*
X02096Y02554D01*
X02095Y02553D01*
X02095Y02551D01*
Y02591D01*
X02095Y02589D01*
D02*
G37*
G36*
X01633Y0255D02*
X01632Y02552D01*
X01632Y02553D01*
X0163Y02553D01*
X01629Y02554D01*
X01626Y02555D01*
X01624Y02555D01*
X0162Y02556D01*
X01612Y02556D01*
X01608Y02556D01*
Y02581D01*
X01612Y02582D01*
X01624Y02582D01*
X01626Y02583D01*
X01629Y02584D01*
X0163Y02584D01*
X01632Y02585D01*
X01632Y02586D01*
X01633Y02588D01*
Y0255D01*
D02*
G37*
G36*
X01575Y02587D02*
X01575Y02586D01*
X01577Y02585D01*
X01578Y02584D01*
X01581Y02583D01*
X01583Y02583D01*
X01587Y02582D01*
X0159Y02582D01*
X01599Y02581D01*
Y02556D01*
X01595Y02556D01*
X01587Y02556D01*
X01583Y02555D01*
X01581Y02555D01*
X01578Y02554D01*
X01577Y02553D01*
X01575Y02552D01*
X01575Y02551D01*
X01574Y0255D01*
Y02588D01*
X01575Y02587D01*
D02*
G37*
G36*
X01512Y0255D02*
X01511Y02549D01*
X01509Y02548D01*
X01508Y02547D01*
X01507Y02545D01*
X01507Y02543D01*
X01506Y0254D01*
X01506Y02537D01*
X01506Y02534D01*
X01505Y0253D01*
X01485D01*
X01485Y02534D01*
X01485Y0254D01*
X01484Y02543D01*
X01483Y02545D01*
X01482Y02547D01*
X01481Y02548D01*
X0148Y02549D01*
X01479Y0255D01*
X01477Y0255D01*
X01514D01*
X01512Y0255D01*
D02*
G37*
G36*
X03203Y02503D02*
X03199Y02506D01*
X03193Y02512D01*
X0319Y02514D01*
X03187Y02516D01*
X03185Y02517D01*
X03182Y02518D01*
X0318Y02519D01*
X03177Y0252D01*
X03175Y0252D01*
Y0253D01*
X03177Y0253D01*
X0318Y02531D01*
X03182Y02532D01*
X03185Y02533D01*
X03187Y02534D01*
X0319Y02536D01*
X03193Y02538D01*
X03199Y02544D01*
X03203Y02547D01*
Y02503D01*
D02*
G37*
G36*
X01149Y02545D02*
X01151Y02544D01*
X01154Y02542D01*
X01156Y02541D01*
X01158Y0254D01*
X01161Y02539D01*
X01164Y02538D01*
X01167Y02538D01*
X0117Y02538D01*
X01173Y02537D01*
Y02513D01*
X0117Y02512D01*
X01167Y02512D01*
X01164Y02512D01*
X01161Y02511D01*
X01158Y0251D01*
X01156Y02509D01*
X01154Y02508D01*
X01151Y02506D01*
X01149Y02505D01*
X01147Y02503D01*
Y02547D01*
X01149Y02545D01*
D02*
G37*
G36*
X01506Y02514D02*
X01506Y02508D01*
X01507Y02505D01*
X01507Y02503D01*
X01508Y02501D01*
X01509Y025D01*
X01511Y02499D01*
X01512Y02498D01*
X01514Y02498D01*
X01477D01*
X01479Y02498D01*
X0148Y02499D01*
X01481Y025D01*
X01482Y02501D01*
X01483Y02503D01*
X01484Y02505D01*
X01485Y02508D01*
X01485Y02511D01*
X01485Y02514D01*
X01485Y02518D01*
X01505D01*
X01506Y02514D01*
D02*
G37*
G36*
X02078Y02524D02*
X02076Y02523D01*
X02074Y02522D01*
X02073Y02521D01*
X02072Y02519D01*
X02071Y02517D01*
X0207Y02514D01*
X0207Y02511D01*
X0207Y02509D01*
X0207Y02506D01*
X0207Y02503D01*
X02071Y02501D01*
X02072Y02499D01*
X02073Y02497D01*
X02074Y02495D01*
X02076Y02494D01*
X02077Y02494D01*
X02079Y02494D01*
X0204D01*
X02042Y02494D01*
X02043Y02494D01*
X02045Y02495D01*
X02046Y02497D01*
X02047Y02499D01*
X02048Y02501D01*
X02049Y02503D01*
X02049Y02506D01*
X02049Y02509D01*
X02049Y02511D01*
X02049Y02514D01*
X02048Y02517D01*
X02047Y02519D01*
X02046Y02521D01*
X02045Y02522D01*
X02043Y02523D01*
X02041Y02524D01*
X0204Y02524D01*
X0208D01*
X02078Y02524D01*
D02*
G37*
G36*
X01141Y02498D02*
X01139Y02497D01*
X01138Y02495D01*
X01136Y02493D01*
X01134Y02491D01*
X01133Y02489D01*
X01132Y02487D01*
X01131Y02484D01*
X01131Y02481D01*
X01131Y02478D01*
X0113Y02475D01*
X01105Y02481D01*
X01105Y02484D01*
X01105Y0249D01*
X01104Y02493D01*
X01104Y02496D01*
X01103Y02498D01*
X01102Y02501D01*
X01101Y02503D01*
X011Y02506D01*
X01099Y02508D01*
X01141Y02498D01*
D02*
G37*
G36*
X0172Y02461D02*
X01719Y02461D01*
X01719Y02461D01*
X01718Y0246D01*
X01718Y02459D01*
X01717Y02458D01*
X01717Y02457D01*
X01716Y02455D01*
X01716Y02453D01*
X01716Y02451D01*
X01706D01*
X01706Y02453D01*
X01706Y02455D01*
X01706Y02457D01*
X01705Y02458D01*
X01705Y02459D01*
X01704Y0246D01*
X01704Y02461D01*
X01703Y02461D01*
X01702Y02461D01*
X01701Y02462D01*
X01721D01*
X0172Y02461D01*
D02*
G37*
G36*
X01512Y0246D02*
X01511Y02459D01*
X01509Y02458D01*
X01508Y02457D01*
X01507Y02455D01*
X01507Y02453D01*
X01506Y0245D01*
X01506Y02447D01*
X01506Y02444D01*
X01505Y0244D01*
X01485D01*
X01485Y02444D01*
X01485Y0245D01*
X01484Y02453D01*
X01483Y02455D01*
X01482Y02457D01*
X01481Y02458D01*
X0148Y02459D01*
X01479Y0246D01*
X01477Y0246D01*
X01514D01*
X01512Y0246D01*
D02*
G37*
G36*
X02077Y02456D02*
X02076Y02456D01*
X02074Y02455D01*
X02073Y02453D01*
X02072Y02451D01*
X02071Y02449D01*
X0207Y02447D01*
X0207Y02444D01*
X0207Y0244D01*
X0207Y02436D01*
X0205D01*
X02049Y0244D01*
X02049Y02444D01*
X02049Y02447D01*
X02048Y02449D01*
X02047Y02451D01*
X02046Y02453D01*
X02045Y02455D01*
X02043Y02456D01*
X02042Y02456D01*
X0204Y02456D01*
X02079D01*
X02077Y02456D01*
D02*
G37*
G36*
X01506Y02424D02*
X01506Y02418D01*
X01507Y02415D01*
X01507Y02413D01*
X01508Y02411D01*
X01509Y0241D01*
X01511Y02409D01*
X01512Y02408D01*
X01514Y02408D01*
X01477D01*
X01479Y02408D01*
X0148Y02409D01*
X01481Y0241D01*
X01482Y02411D01*
X01483Y02413D01*
X01484Y02415D01*
X01485Y02418D01*
X01485Y02421D01*
X01485Y02424D01*
X01485Y02428D01*
X01505D01*
X01506Y02424D01*
D02*
G37*
G36*
X03203Y02403D02*
X03199Y02406D01*
X03193Y02412D01*
X0319Y02414D01*
X03187Y02416D01*
X03185Y02417D01*
X03182Y02418D01*
X0318Y02419D01*
X03177Y0242D01*
X03175Y0242D01*
Y0243D01*
X03177Y0243D01*
X0318Y02431D01*
X03182Y02432D01*
X03185Y02433D01*
X03187Y02434D01*
X0319Y02436D01*
X03193Y02438D01*
X03199Y02444D01*
X03203Y02447D01*
Y02403D01*
D02*
G37*
G36*
X0173Y02388D02*
X0173Y02387D01*
X0173Y02386D01*
X01731Y02384D01*
X01732Y02383D01*
X01733Y02381D01*
X01735Y02379D01*
X01739Y02374D01*
X01741Y02371D01*
X01733Y02365D01*
X01731Y02367D01*
X01727Y02371D01*
X01726Y02372D01*
X01724Y02373D01*
X01723Y02373D01*
X01722Y02374D01*
X01721Y02374D01*
X0172Y02373D01*
X01719Y02373D01*
X01731Y02389D01*
X0173Y02388D01*
D02*
G37*
G36*
X01512Y0237D02*
X01511Y02369D01*
X01509Y02368D01*
X01508Y02367D01*
X01507Y02365D01*
X01507Y02363D01*
X01506Y0236D01*
X01506Y02357D01*
X01506Y02354D01*
X01505Y0235D01*
X01485D01*
X01485Y02354D01*
X01485Y0236D01*
X01484Y02363D01*
X01483Y02365D01*
X01482Y02367D01*
X01481Y02368D01*
X0148Y02369D01*
X01479Y0237D01*
X01477Y0237D01*
X01514D01*
X01512Y0237D01*
D02*
G37*
G36*
X02214Y02364D02*
X02214Y02363D01*
X02214Y02362D01*
X02215Y02362D01*
X02216Y02361D01*
X02217Y02361D01*
X02218Y0236D01*
X0222Y0236D01*
X0222Y0236D01*
X02221Y0236D01*
X02222Y02361D01*
X02223Y02361D01*
X02224Y02361D01*
X02224Y02362D01*
X02225Y02362D01*
X02226Y02363D01*
X02227Y02363D01*
Y02347D01*
X02226Y02347D01*
X02225Y02348D01*
X02224Y02348D01*
X02224Y02349D01*
X02223Y02349D01*
X02222Y02349D01*
X02221Y0235D01*
X0222Y0235D01*
X0222Y0235D01*
X02218Y0235D01*
X02217Y02349D01*
X02216Y02349D01*
X02215Y02348D01*
X02214Y02348D01*
X02214Y02347D01*
X02214Y02346D01*
X02213Y02345D01*
Y02365D01*
X02214Y02364D01*
D02*
G37*
G36*
X02118Y02348D02*
X02118Y02347D01*
X02118Y02346D01*
X02118Y02345D01*
X02119Y02344D01*
X02119Y02342D01*
X02121Y02341D01*
X02122Y02339D01*
X02126Y02335D01*
X02119Y02328D01*
X02117Y0233D01*
X02113Y02333D01*
X02111Y02334D01*
X0211Y02335D01*
X02108Y02336D01*
X02107Y02336D01*
X02106Y02336D01*
X02105Y02336D01*
X02104Y02335D01*
X02118Y02349D01*
X02118Y02348D01*
D02*
G37*
G36*
X01506Y02334D02*
X01506Y02328D01*
X01507Y02325D01*
X01507Y02323D01*
X01508Y02321D01*
X01509Y0232D01*
X01511Y02319D01*
X01512Y02318D01*
X01514Y02318D01*
X01477D01*
X01479Y02318D01*
X0148Y02319D01*
X01481Y0232D01*
X01482Y02321D01*
X01483Y02323D01*
X01484Y02325D01*
X01485Y02328D01*
X01485Y02331D01*
X01485Y02334D01*
X01485Y02338D01*
X01505D01*
X01506Y02334D01*
D02*
G37*
G36*
X03203Y02303D02*
X03199Y02306D01*
X03193Y02312D01*
X0319Y02314D01*
X03187Y02316D01*
X03185Y02317D01*
X03182Y02318D01*
X0318Y02319D01*
X03177Y0232D01*
X03175Y0232D01*
Y0233D01*
X03177Y0233D01*
X0318Y02331D01*
X03182Y02332D01*
X03185Y02333D01*
X03187Y02334D01*
X0319Y02336D01*
X03193Y02338D01*
X03199Y02344D01*
X03203Y02347D01*
Y02303D01*
D02*
G37*
G36*
X01731Y02309D02*
X01731Y02308D01*
X01732Y02307D01*
X01732Y02307D01*
X01733Y02306D01*
X01734Y02306D01*
X01736Y02305D01*
X01737Y02305D01*
X01739Y02305D01*
X01741Y02305D01*
Y02295D01*
X01739Y02295D01*
X01737Y02295D01*
X01736Y02295D01*
X01734Y02294D01*
X01733Y02294D01*
X01732Y02293D01*
X01732Y02293D01*
X01731Y02292D01*
X01731Y02291D01*
X01731Y0229D01*
Y0231D01*
X01731Y02309D01*
D02*
G37*
G36*
X02204Y02276D02*
X02203Y02276D01*
X02202Y02275D01*
X02202Y02274D01*
X02201Y02273D01*
X02201Y02272D01*
X022Y02271D01*
X022Y0227D01*
X022Y02268D01*
X022Y02266D01*
X0219D01*
X0219Y02268D01*
X0219Y0227D01*
X0219Y02271D01*
X02189Y02272D01*
X02189Y02273D01*
X02188Y02274D01*
X02188Y02275D01*
X02187Y02276D01*
X02186Y02276D01*
X02185Y02276D01*
X02205D01*
X02204Y02276D01*
D02*
G37*
G36*
X02113Y02276D02*
X02112Y02276D01*
X02111Y02275D01*
X02111Y02274D01*
X0211Y02273D01*
X0211Y02272D01*
X02109Y02271D01*
X02109Y0227D01*
X02109Y02268D01*
X02109Y02266D01*
X02099D01*
X02099Y02268D01*
X02099Y0227D01*
X02098Y02271D01*
X02098Y02272D01*
X02097Y02273D01*
X02097Y02274D01*
X02096Y02275D01*
X02096Y02276D01*
X02095Y02276D01*
X02094Y02276D01*
X02114D01*
X02113Y02276D01*
D02*
G37*
G36*
X01385Y02286D02*
X01382Y02283D01*
X0138Y0228D01*
X01378Y02277D01*
X01377Y02274D01*
X01376Y02271D01*
X01375Y02268D01*
X01374Y02265D01*
X01374Y02261D01*
X01373Y02258D01*
X01349D01*
X01348Y02261D01*
X01348Y02265D01*
X01347Y02268D01*
X01346Y02271D01*
X01345Y02274D01*
X01344Y02277D01*
X01342Y0228D01*
X0134Y02283D01*
X01337Y02286D01*
X01335Y02289D01*
X01387D01*
X01385Y02286D01*
D02*
G37*
G36*
X03203Y02203D02*
X03199Y02206D01*
X03193Y02212D01*
X0319Y02214D01*
X03187Y02216D01*
X03185Y02217D01*
X03182Y02218D01*
X0318Y02219D01*
X03177Y0222D01*
X03175Y0222D01*
Y0223D01*
X03177Y0223D01*
X0318Y02231D01*
X03182Y02232D01*
X03185Y02233D01*
X03187Y02234D01*
X0319Y02236D01*
X03193Y02238D01*
X03199Y02244D01*
X03203Y02247D01*
Y02203D01*
D02*
G37*
G36*
X01934Y02207D02*
Y02193D01*
X01929Y02191D01*
X01746Y02374D01*
X01746Y02375D01*
X01745Y02375D01*
X01745Y02375D01*
X01743Y02378D01*
X01739Y02382D01*
X01738Y02384D01*
X01737Y02385D01*
X01736Y02387D01*
X01736Y02387D01*
Y0239D01*
X01736Y0239D01*
X01736Y0239D01*
Y02398D01*
X01741Y024D01*
X01934Y02207D01*
D02*
G37*
G36*
X02286Y02187D02*
X02275D01*
X02276Y02187D01*
X02276Y02188D01*
X02276Y02188D01*
X02276Y02191D01*
X02276Y02198D01*
X02286D01*
X02286Y02187D01*
D02*
G37*
G36*
X02267D02*
X02256D01*
X02256Y02187D01*
X02256Y02188D01*
X02256Y02188D01*
X02256Y02191D01*
X02256Y02198D01*
X02266D01*
X02267Y02187D01*
D02*
G37*
G36*
X02247D02*
X02236D01*
X02236Y02187D01*
X02236Y02188D01*
X02236Y02188D01*
X02236Y02191D01*
X02237Y02198D01*
X02247D01*
X02247Y02187D01*
D02*
G37*
G36*
X02227D02*
X02216D01*
X02216Y02187D01*
X02217Y02188D01*
X02217Y02188D01*
X02217Y02191D01*
X02217Y02198D01*
X02227D01*
X02227Y02187D01*
D02*
G37*
G36*
X02208D02*
X02197D01*
X02197Y02187D01*
X02197Y02188D01*
X02197Y02188D01*
X02197Y02191D01*
X02197Y02198D01*
X02207D01*
X02208Y02187D01*
D02*
G37*
G36*
X02188D02*
X02177D01*
X02177Y02187D01*
X02177Y02188D01*
X02177Y02188D01*
X02177Y02191D01*
X02177Y02198D01*
X02187D01*
X02188Y02187D01*
D02*
G37*
G36*
X02168D02*
X02157D01*
X02157Y02187D01*
X02158Y02188D01*
X02158Y02188D01*
X02158Y02191D01*
X02158Y02198D01*
X02168D01*
X02168Y02187D01*
D02*
G37*
G36*
X02149D02*
X02138D01*
X02138Y02187D01*
X02138Y02188D01*
X02138Y02188D01*
X02138Y02191D01*
X02138Y02198D01*
X02148D01*
X02149Y02187D01*
D02*
G37*
G36*
X02129D02*
X02118D01*
X02118Y02187D01*
X02118Y02188D01*
X02118Y02188D01*
X02118Y02191D01*
X02118Y02198D01*
X02128D01*
X02129Y02187D01*
D02*
G37*
G36*
X02109D02*
X02098D01*
X02098Y02187D01*
X02098Y02188D01*
X02099Y02188D01*
X02099Y02191D01*
X02099Y02198D01*
X02109D01*
X02109Y02187D01*
D02*
G37*
G36*
X02332Y02195D02*
X0233Y02193D01*
X02327Y0219D01*
X02326Y02188D01*
X02326Y02187D01*
X02325Y02186D01*
X02325Y02184D01*
X02325Y02183D01*
X02325Y02183D01*
X02326Y02182D01*
X02316Y02189D01*
X02314Y02188D01*
X02313Y02187D01*
X02312Y02187D01*
X02312Y02187D01*
X02312Y02188D01*
X02313Y0219D01*
X02315Y02192D01*
X02324Y02201D01*
X02332Y02195D01*
D02*
G37*
G36*
X0283Y02442D02*
Y02337D01*
X02589Y02096D01*
X02584Y02098D01*
Y02102D01*
X0256D01*
X02535D01*
Y02102D01*
X02535Y02101D01*
X02535Y02101D01*
Y02101D01*
X02535Y02101D01*
X02535Y021D01*
Y02097D01*
X02535Y02097D01*
X02534Y02095D01*
X02531Y02092D01*
X0253Y02091D01*
X02525Y02093D01*
X02525Y02093D01*
Y02129D01*
X02476D01*
Y02115D01*
X02476Y02115D01*
X02475Y02115D01*
X02474Y02115D01*
X02473Y02115D01*
X02471Y02115D01*
X0247Y02114D01*
X02414D01*
X02414Y02115D01*
X02408Y02115D01*
X02405Y02115D01*
X02405Y02115D01*
X02404Y02115D01*
X02404Y02115D01*
X02403Y02115D01*
X02403Y02115D01*
X02401Y02115D01*
X02356D01*
X02354Y02115D01*
X02353Y02115D01*
X02353Y02115D01*
X02353Y02115D01*
X02343Y02115D01*
X02342Y02114D01*
X02318D01*
X02314Y02114D01*
X02311Y02111D01*
X0221Y0201D01*
X02114Y02106D01*
Y02126D01*
X02114Y02127D01*
X02114Y02127D01*
X02119Y02129D01*
X02121Y02129D01*
Y02162D01*
X02126D01*
Y02129D01*
X02128Y02129D01*
X0213Y02131D01*
X02133Y02131D01*
X02137Y02131D01*
X02139Y02129D01*
X02143Y02129D01*
X02147Y02129D01*
X02151Y02132D01*
X02155D01*
X02159Y02129D01*
X02163Y02129D01*
X02167Y02129D01*
X02169Y02131D01*
X02173Y02131D01*
X02176Y02131D01*
X02178Y02129D01*
X02182Y02129D01*
X02187Y02129D01*
X0219Y02132D01*
X02194D01*
X02198Y02129D01*
X02202Y02129D01*
X02206Y02129D01*
X02209Y02131D01*
X02212Y02131D01*
X02215Y02131D01*
X02218Y02129D01*
X02222Y02129D01*
X02226Y02129D01*
X0223Y02132D01*
X02234D01*
X02237Y02129D01*
X02242Y02129D01*
X02246Y02129D01*
X02248Y02131D01*
X02251Y02131D01*
X02255Y02131D01*
X02257Y02129D01*
X02261Y02129D01*
X02265Y02129D01*
X02269Y02132D01*
X02273D01*
X02277Y02129D01*
X02281Y02129D01*
X02285Y02129D01*
X02287Y02131D01*
X02291Y02131D01*
X02294Y02131D01*
X02296Y02129D01*
X02301Y02129D01*
X02305Y02129D01*
X02308Y02132D01*
X02312D01*
X02316Y02129D01*
X0232Y02129D01*
X02325Y02129D01*
X02328Y02132D01*
X02331Y02135D01*
X02331Y0214D01*
Y02182D01*
X02331Y02182D01*
X02331Y02182D01*
Y02185D01*
X02331Y02186D01*
X02332Y02186D01*
X02334Y0219D01*
X02336Y02191D01*
X02336Y02192D01*
X02336Y02192D01*
X02337Y02192D01*
X02448Y02304D01*
X02681D01*
X02685Y02305D01*
X02688Y02307D01*
X02825Y02444D01*
X0283Y02442D01*
D02*
G37*
G36*
X02109Y02137D02*
X02109Y02137D01*
X02109Y02136D01*
X02109Y02133D01*
X02109Y02127D01*
X02099D01*
X02098Y02137D01*
X02109D01*
X02109Y02137D01*
D02*
G37*
G36*
X01904Y02129D02*
X01904Y02129D01*
X01904Y02129D01*
X01904Y02126D01*
X01904Y02121D01*
X01894D01*
X01894Y02122D01*
X01894Y02124D01*
X01894Y02124D01*
X01892Y02123D01*
X01884Y02116D01*
X0187Y02103D01*
X01852Y02121D01*
X01857Y02125D01*
X01863Y02133D01*
X01866Y02137D01*
X01867Y0214D01*
X01868Y02143D01*
X01868Y02145D01*
X01868Y02147D01*
X01867Y02149D01*
X01865Y0215D01*
X01904Y02129D01*
D02*
G37*
G36*
X02403Y0211D02*
X02404Y0211D01*
X02404Y02109D01*
X02407Y02109D01*
X02414Y02109D01*
Y02099D01*
X02403Y02099D01*
Y0211D01*
X02403Y0211D01*
D02*
G37*
G36*
X02353Y02099D02*
X02353Y02099D01*
X02353Y02099D01*
X02352Y02099D01*
X02349Y02099D01*
X02343Y02099D01*
Y02109D01*
X02353Y0211D01*
Y02099D01*
D02*
G37*
G36*
X02071Y0211D02*
X02071Y0211D01*
X02072Y02109D01*
X02075Y02109D01*
X02081Y02109D01*
Y02099D01*
X02071Y02099D01*
Y0211D01*
X02071Y0211D01*
D02*
G37*
G36*
X02481Y02094D02*
X02481Y02095D01*
X02481Y02096D01*
X0248Y02097D01*
X02479Y02097D01*
X02478Y02098D01*
X02477Y02098D01*
X02476Y02099D01*
X02475Y02099D01*
X02473Y02099D01*
X02471Y02099D01*
Y02109D01*
X02473Y02109D01*
X02475Y02109D01*
X02476Y0211D01*
X02477Y0211D01*
X02478Y02111D01*
X02479Y02111D01*
X0248Y02112D01*
X02481Y02112D01*
X02481Y02113D01*
X02481Y02114D01*
Y02094D01*
D02*
G37*
G36*
X02554Y02087D02*
X02553Y02087D01*
X02552Y02087D01*
X02551Y02087D01*
X0255Y02087D01*
X02549Y02086D01*
X02547Y02086D01*
X02546Y02084D01*
X02544Y02083D01*
X0254Y02079D01*
X02533Y02086D01*
X02535Y02088D01*
X02538Y02092D01*
X02539Y02094D01*
X0254Y02095D01*
X02541Y02097D01*
X02541Y02098D01*
X02541Y02099D01*
X02541Y021D01*
X0254Y02101D01*
X02554Y02087D01*
D02*
G37*
G36*
X02403Y0209D02*
X02404Y0209D01*
X02404Y0209D01*
X02407Y0209D01*
X02414Y0209D01*
Y0208D01*
X02403Y02079D01*
Y0209D01*
X02403Y0209D01*
D02*
G37*
G36*
X02021Y02079D02*
X0202Y02079D01*
X0202Y02079D01*
X02019Y0208D01*
X02018Y0208D01*
X02015Y0208D01*
X0201Y0208D01*
X02011Y0209D01*
X02021Y0209D01*
Y02079D01*
D02*
G37*
G36*
X01374Y02099D02*
X01374Y02095D01*
X01375Y02092D01*
X01376Y02089D01*
X01377Y02086D01*
X01378Y02083D01*
X0138Y0208D01*
X01382Y02077D01*
X01385Y02074D01*
X01387Y02071D01*
X01335D01*
X01337Y02074D01*
X0134Y02077D01*
X01342Y0208D01*
X01344Y02083D01*
X01345Y02086D01*
X01346Y02089D01*
X01347Y02092D01*
X01348Y02095D01*
X01348Y02099D01*
X01349Y02102D01*
X01373D01*
X01374Y02099D01*
D02*
G37*
G36*
X0164Y02116D02*
X01642Y02114D01*
X01645Y02112D01*
X01648Y0211D01*
X01651Y02108D01*
X01654Y02107D01*
X01658Y02106D01*
X01661Y02106D01*
X01664Y02105D01*
X01668Y02105D01*
Y0208D01*
X01664Y0208D01*
X01661Y02079D01*
X01658Y02079D01*
X01654Y02078D01*
X01651Y02077D01*
X01648Y02075D01*
X01645Y02073D01*
X01642Y02071D01*
X0164Y02069D01*
X01637Y02066D01*
Y02119D01*
X0164Y02116D01*
D02*
G37*
G36*
X02403Y0207D02*
X02404Y0207D01*
X02404Y0207D01*
X02407Y0207D01*
X02414Y0207D01*
Y0206D01*
X02403Y02059D01*
Y0207D01*
X02403Y0207D01*
D02*
G37*
G36*
X02021Y02059D02*
X02021Y0206D01*
X0202Y0206D01*
X0202Y0206D01*
X02017Y0206D01*
X0201Y0206D01*
Y0207D01*
X02021Y0207D01*
Y02059D01*
D02*
G37*
G36*
X01894Y02074D02*
X01896Y02073D01*
X01897Y02072D01*
X019Y02072D01*
X01902Y02071D01*
X01904Y02071D01*
Y02074D01*
X01904Y02073D01*
X01904Y02073D01*
X01904Y02072D01*
X01905Y02071D01*
X01906Y02071D01*
X01906Y02071D01*
X01912Y0207D01*
X01921Y0207D01*
Y02062D01*
X01916Y02062D01*
X01906Y02061D01*
X01906Y02061D01*
X01905Y02061D01*
X01904Y0206D01*
X01904Y02059D01*
X01904Y02059D01*
X01904Y02058D01*
Y02061D01*
X01902Y02061D01*
X019Y0206D01*
X01897Y0206D01*
X01896Y02059D01*
X01894Y02058D01*
X01893Y02057D01*
Y02075D01*
X01894Y02074D01*
D02*
G37*
G36*
X02403Y02051D02*
X02404Y0205D01*
X02404Y0205D01*
X02407Y0205D01*
X02414Y0205D01*
Y0204D01*
X02403Y0204D01*
Y02051D01*
X02403Y02051D01*
D02*
G37*
G36*
X02021Y0204D02*
X0202Y0204D01*
X0202Y0204D01*
X02019Y0204D01*
X02018Y0204D01*
X02015Y0204D01*
X0201Y02041D01*
X02011Y02051D01*
X02021Y02051D01*
Y0204D01*
D02*
G37*
G36*
X01897Y02047D02*
X01897Y02047D01*
X01897Y02035D01*
X01872D01*
X01871Y02048D01*
X01897D01*
X01897Y02047D01*
D02*
G37*
G36*
X02403Y02031D02*
X02404Y02031D01*
X02404Y02031D01*
X02407Y02031D01*
X02414Y02031D01*
Y02021D01*
X02403Y0202D01*
Y02031D01*
X02403Y02031D01*
D02*
G37*
G36*
X02021Y0202D02*
X0202Y0202D01*
X0202Y0202D01*
X02019Y0202D01*
X02018Y02021D01*
X02015Y02021D01*
X0201Y02021D01*
X02011Y02031D01*
X02021Y02031D01*
Y0202D01*
D02*
G37*
G36*
X02403Y02011D02*
X02404Y02011D01*
X02404Y02011D01*
X02407Y02011D01*
X02414Y02011D01*
Y02001D01*
X02403Y02D01*
Y02011D01*
X02403Y02011D01*
D02*
G37*
G36*
X02021Y02D02*
X0202Y02001D01*
X0202Y02001D01*
X02019Y02001D01*
X02018Y02001D01*
X02017Y02001D01*
X02015Y02002D01*
X02012Y02002D01*
X02011Y02002D01*
Y0201D01*
X02012Y0201D01*
X02017Y0201D01*
X02018Y0201D01*
X02019Y02011D01*
X0202Y02011D01*
X0202Y02011D01*
X02021Y02011D01*
Y02D01*
D02*
G37*
G36*
X01982Y02001D02*
X0198Y01996D01*
X01914D01*
X01914Y01997D01*
X01912Y01997D01*
X01911Y01997D01*
X0191Y01997D01*
X01909Y01997D01*
X01909Y01997D01*
Y02008D01*
X01889D01*
X01887Y02012D01*
X01897Y02022D01*
X01897Y02022D01*
X01901Y02028D01*
X01902Y02034D01*
X01902Y02035D01*
X01902Y02042D01*
X01909D01*
Y02056D01*
X01917Y02057D01*
X01921Y02057D01*
X01922Y02057D01*
X01927D01*
X01982Y02001D01*
D02*
G37*
G36*
X02212Y01993D02*
X02216Y0199D01*
X02198Y01986D01*
X022Y01987D01*
X02201Y01989D01*
X02201Y0199D01*
X02202Y01992D01*
X02202Y01993D01*
X02202Y01995D01*
X02201Y01996D01*
X02201Y01997D01*
X022Y01999D01*
X02198Y02D01*
X02212Y01993D01*
D02*
G37*
G36*
X01369Y02035D02*
X01368Y02033D01*
X01368Y02032D01*
X01367Y02029D01*
X01367Y02027D01*
X01366Y02021D01*
X01366Y02018D01*
X01387D01*
X01383Y02014D01*
X01376Y02006D01*
X01374Y02002D01*
X01371Y01999D01*
X01369Y01996D01*
X01368Y01993D01*
X01367Y0199D01*
X01366Y01987D01*
X01366Y01985D01*
X01356D01*
X01356Y01987D01*
X01355Y0199D01*
X01354Y01993D01*
X01353Y01996D01*
X01351Y01999D01*
X01348Y02002D01*
X01346Y02006D01*
X01339Y02014D01*
X01335Y02018D01*
X01356D01*
X01355Y02027D01*
X01355Y02029D01*
X01354Y02032D01*
X01354Y02033D01*
X01353Y02035D01*
X01352Y02036D01*
X0137D01*
X01369Y02035D01*
D02*
G37*
G36*
X02403Y01992D02*
X02404Y01991D01*
X02404Y01991D01*
X02407Y01991D01*
X02414Y01991D01*
Y01981D01*
X02403Y01981D01*
Y01992D01*
X02403Y01992D01*
D02*
G37*
G36*
X02021Y01981D02*
X02021Y01981D01*
X0202Y01981D01*
X0202Y01981D01*
X02017Y01981D01*
X0201Y01981D01*
Y01991D01*
X02021Y01992D01*
Y01981D01*
D02*
G37*
G36*
X01904Y01995D02*
X01904Y01994D01*
X01904Y01994D01*
X01905Y01993D01*
X01906Y01992D01*
X01907Y01992D01*
X01908Y01992D01*
X0191Y01991D01*
X01912Y01991D01*
X01914Y01991D01*
Y01981D01*
X01912Y01981D01*
X0191Y01981D01*
X01908Y01981D01*
X01907Y0198D01*
X01906Y0198D01*
X01905Y01979D01*
X01904Y01979D01*
X01904Y01978D01*
X01904Y01977D01*
X01904Y01976D01*
Y01996D01*
X01904Y01995D01*
D02*
G37*
G36*
X01879Y01965D02*
X01878Y01966D01*
X01877Y01966D01*
X01876D01*
X01875Y01966D01*
X01873Y01965D01*
X01872Y01965D01*
X0187Y01963D01*
X01868Y01962D01*
X01864Y01958D01*
X01857Y01965D01*
X01859Y01967D01*
X01863Y01971D01*
X01864Y01973D01*
X01864Y01974D01*
X01865Y01976D01*
X01865Y01977D01*
Y01978D01*
X01865Y01979D01*
X01864Y0198D01*
X01879Y01965D01*
D02*
G37*
G36*
X02403Y01972D02*
X02404Y01972D01*
X02404Y01972D01*
X02407Y01972D01*
X02414Y01971D01*
Y01961D01*
X02403Y01961D01*
Y01972D01*
X02403Y01972D01*
D02*
G37*
G36*
X02021Y01961D02*
X02021Y01961D01*
X0202Y01961D01*
X0202Y01961D01*
X02017Y01961D01*
X0201Y01961D01*
Y01971D01*
X02021Y01972D01*
Y01961D01*
D02*
G37*
G36*
X02194Y01997D02*
X02194Y01997D01*
X02195Y01995D01*
X02196Y01995D01*
X02196Y01994D01*
X02196Y01993D01*
X02196Y01993D01*
X02196Y01993D01*
X02196Y01992D01*
X02196Y01992D01*
X02195Y01991D01*
X02194Y0199D01*
X02194Y01989D01*
X02194Y01989D01*
X02194Y01989D01*
X02162Y01957D01*
X02082D01*
X02081Y01957D01*
X02081Y01957D01*
X02079Y01962D01*
X02079Y01964D01*
X02046D01*
Y01969D01*
X02079D01*
X02079Y01971D01*
X02077Y01973D01*
X02077Y01976D01*
X02077Y0198D01*
X02079Y01982D01*
X02079Y01986D01*
X02079Y0199D01*
X02077Y01993D01*
X02077Y01996D01*
X02077Y01999D01*
X02079Y02002D01*
X02079Y02006D01*
X02079Y0201D01*
X02077Y02012D01*
X02077Y02016D01*
X02077Y02019D01*
X02079Y02021D01*
X02079Y02026D01*
X02079Y0203D01*
X02077Y02032D01*
X02077Y02035D01*
X02077Y02039D01*
X02079Y02041D01*
X02079Y02045D01*
X02079Y02049D01*
X02077Y02052D01*
X02077Y02055D01*
X02077Y02058D01*
X02079Y02061D01*
X02079Y02065D01*
X02079Y02069D01*
X02077Y02071D01*
X02077Y02075D01*
X02077Y02078D01*
X02079Y0208D01*
X02079Y02085D01*
X02079Y02089D01*
X02079Y02089D01*
X02081Y02094D01*
X02081Y02094D01*
X02082Y02094D01*
X02097D01*
X02194Y01997D01*
D02*
G37*
G36*
X02403Y01952D02*
X02404Y01952D01*
X02404Y01952D01*
X02407Y01952D01*
X02414Y01952D01*
Y01942D01*
X02403Y01941D01*
Y01952D01*
X02403Y01952D01*
D02*
G37*
G36*
X02071D02*
X02071Y01952D01*
X02072Y01952D01*
X02075Y01952D01*
X02081Y01952D01*
Y01942D01*
X02071Y01941D01*
Y01952D01*
X02071Y01952D01*
D02*
G37*
G36*
X02021Y01941D02*
X02021Y01941D01*
X0202Y01941D01*
X0202Y01942D01*
X02017Y01942D01*
X0201Y01942D01*
Y01952D01*
X02021Y01952D01*
Y01941D01*
D02*
G37*
G36*
X02748Y01898D02*
X02745Y019D01*
X02743Y01902D01*
X0274Y01904D01*
X02738Y01906D01*
X02735Y01907D01*
X02732Y01908D01*
X0273Y01909D01*
X02727Y0191D01*
X02724Y0191D01*
X02721Y0191D01*
X02718Y0191D01*
X02714Y0191D01*
X02711Y01909D01*
X02708Y01908D01*
X02706Y01908D01*
X02704Y01906D01*
X02703Y01905D01*
X02702Y01904D01*
X02701Y01902D01*
X02701Y019D01*
Y0194D01*
X02701Y01938D01*
X02702Y01936D01*
X02703Y01935D01*
X02704Y01934D01*
X02706Y01933D01*
X02708Y01932D01*
X02711Y01931D01*
X02714Y0193D01*
X02718Y0193D01*
X02721Y0193D01*
X02724Y0193D01*
X02727Y0193D01*
X0273Y01931D01*
X02732Y01932D01*
X02735Y01933D01*
X02738Y01934D01*
X0274Y01936D01*
X02743Y01938D01*
X02745Y0194D01*
X02748Y01942D01*
Y01898D01*
D02*
G37*
G36*
X02403Y01932D02*
X02404Y01932D01*
X02404Y01932D01*
X02407Y01932D01*
X02414Y01932D01*
Y01922D01*
X02403Y01922D01*
Y01933D01*
X02403Y01932D01*
D02*
G37*
G36*
X02021Y01922D02*
X02021Y01922D01*
X0202Y01922D01*
X0202Y01922D01*
X02017Y01922D01*
X0201Y01922D01*
Y01932D01*
X02021Y01933D01*
Y01922D01*
D02*
G37*
G36*
X01911Y01921D02*
X01909Y01919D01*
X01906Y01915D01*
X01904Y01913D01*
X01904Y01912D01*
X01903Y0191D01*
X01903Y01909D01*
X01903Y01908D01*
X01903Y01907D01*
X01903Y01906D01*
X01889Y0192D01*
X0189Y0192D01*
X01891Y0192D01*
X01892Y0192D01*
X01893Y0192D01*
X01895Y01921D01*
X01896Y01921D01*
X01898Y01923D01*
X019Y01924D01*
X01904Y01928D01*
X01911Y01921D01*
D02*
G37*
G36*
X01852D02*
X0185Y01919D01*
X01847Y01915D01*
X01845Y01913D01*
X01845Y01912D01*
X01844Y0191D01*
X01844Y01909D01*
X01844Y01908D01*
X01844Y01907D01*
X01844Y01906D01*
X0183Y0192D01*
X01831Y0192D01*
X01832Y0192D01*
X01833Y0192D01*
X01834Y0192D01*
X01836Y01921D01*
X01837Y01921D01*
X01839Y01923D01*
X01841Y01924D01*
X01845Y01928D01*
X01852Y01921D01*
D02*
G37*
G36*
X02403Y01913D02*
X02404Y01913D01*
X02404Y01913D01*
X02407Y01912D01*
X02414Y01912D01*
Y01902D01*
X02403Y01902D01*
Y01913D01*
X02403Y01913D01*
D02*
G37*
G36*
X02021Y01902D02*
X02021Y01902D01*
X0202Y01902D01*
X02011Y01902D01*
X0201Y01912D01*
X02011Y01912D01*
X0202Y01913D01*
X0202Y01913D01*
X02021Y01913D01*
Y01902D01*
D02*
G37*
G36*
X02795Y0194D02*
X02797Y01938D01*
X028Y01936D01*
X02802Y01934D01*
X02805Y01933D01*
X02808Y01932D01*
X0281Y01931D01*
X02813Y0193D01*
X02816Y0193D01*
X02819Y0193D01*
Y0191D01*
X02816Y0191D01*
X02813Y0191D01*
X0281Y01909D01*
X02808Y01908D01*
X02805Y01907D01*
X02802Y01906D01*
X028Y01904D01*
X02797Y01902D01*
X02795Y019D01*
X02792Y01898D01*
Y01942D01*
X02795Y0194D01*
D02*
G37*
G36*
X02403Y01893D02*
X02404Y01893D01*
X02404Y01893D01*
X02407Y01893D01*
X02414Y01893D01*
Y01883D01*
X02403Y01882D01*
Y01893D01*
X02403Y01893D01*
D02*
G37*
G36*
X02021Y01882D02*
X02021Y01882D01*
X0202Y01882D01*
X0202Y01883D01*
X02017Y01883D01*
X0201Y01883D01*
Y01893D01*
X02021Y01893D01*
Y01882D01*
D02*
G37*
G36*
X01634Y01929D02*
X01641Y01925D01*
X01644Y01924D01*
X01647Y01922D01*
X01651Y01921D01*
X01654Y01921D01*
X01657Y0192D01*
X01661Y0192D01*
X01664Y0192D01*
X0167Y01895D01*
X01666Y01894D01*
X01663Y01894D01*
X01659Y01893D01*
X01656Y01892D01*
X01654Y01891D01*
X01651Y01889D01*
X01648Y01887D01*
X01646Y01885D01*
X01644Y01882D01*
X01642Y01879D01*
X01631Y01931D01*
X01634Y01929D01*
D02*
G37*
G36*
X0231Y01886D02*
Y01866D01*
X0231Y01865D01*
X0231Y01865D01*
X02305Y01863D01*
X02303Y01863D01*
Y0183D01*
X02298D01*
Y01863D01*
X02296Y01863D01*
X02294Y01861D01*
X02291Y01861D01*
X02287Y01861D01*
X02285Y01863D01*
X02281Y01863D01*
X02277Y01863D01*
X02273Y0186D01*
X02269D01*
X02265Y01863D01*
X02261Y01863D01*
X02257Y01863D01*
X02255Y01861D01*
X02251Y01861D01*
X02248Y01861D01*
X02246Y01863D01*
X02242Y01863D01*
X02237Y01863D01*
X02234Y0186D01*
X0223D01*
X02226Y01863D01*
X02222Y01863D01*
X02218Y01863D01*
X02215Y01861D01*
X02212Y01861D01*
X02209Y01861D01*
X02206Y01863D01*
X02202Y01863D01*
X02198Y01863D01*
X02194Y0186D01*
X0219D01*
X02187Y01863D01*
X02182Y01863D01*
X02178Y01863D01*
X02176Y01861D01*
X02173Y01861D01*
X02169Y01861D01*
X02167Y01863D01*
X02163Y01863D01*
X02159Y01863D01*
X02155Y0186D01*
X02151D01*
X02147Y01863D01*
X02143Y01863D01*
X02139Y01863D01*
X02137Y01861D01*
X02133Y01861D01*
X0213Y01861D01*
X02128Y01863D01*
X02123Y01863D01*
X02119Y01863D01*
X02116Y0186D01*
X02112D01*
X02108Y01863D01*
X02104Y01863D01*
X02099Y01863D01*
X02096Y0186D01*
X02093Y01857D01*
X02093Y01852D01*
Y01807D01*
X02093Y01805D01*
X02093Y01805D01*
X02093Y01805D01*
X02093Y01805D01*
X02093Y01794D01*
X02094Y01793D01*
Y0174D01*
X02089Y01738D01*
X0199Y01836D01*
Y01856D01*
X02012Y01877D01*
X02016Y01877D01*
X02019Y01877D01*
X02019Y01877D01*
X0202Y01877D01*
X0202Y01877D01*
X02021Y01877D01*
X02021Y01877D01*
X02023Y01877D01*
X02068D01*
X02073Y01877D01*
X02076Y0188D01*
X02079Y01883D01*
X02079Y01888D01*
X02079Y01892D01*
X02077Y01894D01*
X02077Y01898D01*
X02077Y01901D01*
X02079Y01903D01*
X02079Y01907D01*
X02079Y01912D01*
X02077Y01914D01*
X02077Y01917D01*
X02077Y01921D01*
X02079Y01923D01*
X02079Y01927D01*
X02079Y01931D01*
X02079Y01931D01*
X02081Y01936D01*
X02081Y01936D01*
X02082Y01937D01*
X02166D01*
X0217Y01937D01*
X02173Y0194D01*
X02215Y01981D01*
X0231Y01886D01*
D02*
G37*
G36*
X032Y01915D02*
X03202Y01913D01*
X03204Y01911D01*
X03207Y0191D01*
X03209Y01909D01*
X03212Y01908D01*
X03215Y01907D01*
X03218Y01907D01*
X03221Y01907D01*
X03225Y01906D01*
X03194Y01875D01*
X03193Y01879D01*
X03193Y01882D01*
X03193Y01885D01*
X03192Y01888D01*
X03191Y01891D01*
X0319Y01893D01*
X03189Y01896D01*
X03187Y01898D01*
X03185Y019D01*
X03183Y01902D01*
X03198Y01917D01*
X032Y01915D01*
D02*
G37*
G36*
X02326Y01855D02*
X02315D01*
X02315Y01855D01*
X02315Y01855D01*
X02315Y01856D01*
X02315Y01859D01*
X02315Y01865D01*
X02325D01*
X02326Y01855D01*
D02*
G37*
G36*
X01911Y01839D02*
X01909Y01837D01*
X01906Y01833D01*
X01904Y01831D01*
X01904Y0183D01*
X01903Y01828D01*
X01903Y01827D01*
X01903Y01826D01*
X01903Y01825D01*
X01904Y01824D01*
X01889Y01838D01*
X0189Y01838D01*
X01891Y01838D01*
X01892Y01838D01*
X01893Y01838D01*
X01895Y01839D01*
X01896Y01839D01*
X01898Y01841D01*
X019Y01842D01*
X01904Y01846D01*
X01911Y01839D01*
D02*
G37*
G36*
X02326Y01805D02*
X02326Y01804D01*
X02325Y01804D01*
X02325Y01801D01*
X02325Y01794D01*
X02315D01*
X02315Y01805D01*
X02326D01*
X02326Y01805D01*
D02*
G37*
G36*
X02306D02*
X02306Y01804D01*
X02306Y01804D01*
X02306Y01801D01*
X02306Y01794D01*
X02296D01*
X02295Y01805D01*
X02306D01*
X02306Y01805D01*
D02*
G37*
G36*
X02286D02*
X02286Y01804D01*
X02286Y01804D01*
X02286Y01801D01*
X02286Y01794D01*
X02276D01*
X02275Y01805D01*
X02286D01*
X02286Y01805D01*
D02*
G37*
G36*
X02267D02*
X02266Y01804D01*
X02266Y01804D01*
X02266Y01801D01*
X02266Y01794D01*
X02256D01*
X02256Y01805D01*
X02267D01*
X02267Y01805D01*
D02*
G37*
G36*
X02247D02*
X02247Y01804D01*
X02247Y01804D01*
X02247Y01801D01*
X02247Y01794D01*
X02237D01*
X02236Y01805D01*
X02247D01*
X02247Y01805D01*
D02*
G37*
G36*
X02227D02*
X02227Y01804D01*
X02227Y01804D01*
X02227Y01801D01*
X02227Y01794D01*
X02217D01*
X02216Y01805D01*
X02227D01*
X02227Y01805D01*
D02*
G37*
G36*
X02208D02*
X02207Y01804D01*
X02207Y01804D01*
X02207Y01801D01*
X02207Y01794D01*
X02197D01*
X02197Y01805D01*
X02208D01*
X02208Y01805D01*
D02*
G37*
G36*
X02188D02*
X02188Y01804D01*
X02188Y01804D01*
X02188Y01801D01*
X02187Y01794D01*
X02177D01*
X02177Y01805D01*
X02188D01*
X02188Y01805D01*
D02*
G37*
G36*
X02168D02*
X02168Y01804D01*
X02168Y01804D01*
X02168Y01801D01*
X02168Y01794D01*
X02158D01*
X02157Y01805D01*
X02168D01*
X02168Y01805D01*
D02*
G37*
G36*
X02148D02*
X02148Y01804D01*
X02148Y01804D01*
X02148Y01801D01*
X02148Y01794D01*
X02138D01*
X02138Y01805D01*
X02149D01*
X02148Y01805D01*
D02*
G37*
G36*
X02129D02*
X02129Y01804D01*
X02129Y01804D01*
X02128Y01801D01*
X02128Y01794D01*
X02118D01*
X02118Y01805D01*
X02129D01*
X02129Y01805D01*
D02*
G37*
G36*
X02109D02*
X02109Y01804D01*
X02109Y01804D01*
X02109Y01801D01*
X02109Y01794D01*
X02099D01*
X02098Y01805D01*
X02109D01*
X02109Y01805D01*
D02*
G37*
G36*
X01893Y01801D02*
X01892Y01801D01*
X01892Y01801D01*
X01891Y018D01*
X0189Y01799D01*
X0189Y01798D01*
X0189Y01797D01*
X01889Y01795D01*
X01889Y01793D01*
X01889Y01791D01*
X01879D01*
X01879Y01793D01*
X01879Y01795D01*
X01879Y01797D01*
X01878Y01798D01*
X01878Y01799D01*
X01877Y018D01*
X01877Y01801D01*
X01876Y01801D01*
X01875Y01801D01*
X01874Y01802D01*
X01894D01*
X01893Y01801D01*
D02*
G37*
G36*
X03225Y01744D02*
X0322Y01743D01*
X03212Y01743D01*
X03208Y01742D01*
X03205Y01742D01*
X03202Y01741D01*
X03199Y0174D01*
X03197Y01739D01*
X03195Y01738D01*
X03193Y01736D01*
X03186Y01743D01*
X03188Y01745D01*
X03189Y01747D01*
X0319Y01749D01*
X03191Y01752D01*
X03192Y01755D01*
X03192Y01758D01*
X03193Y01762D01*
X03193Y0177D01*
X03194Y01775D01*
X03225Y01744D01*
D02*
G37*
G36*
X02231Y01697D02*
X02231Y01695D01*
X02231Y01694D01*
X02232Y01693D01*
X02232Y01692D01*
X02233Y01691D01*
X02233Y0169D01*
X02234Y01689D01*
X02235Y01689D01*
X02236Y01689D01*
X02216D01*
X02217Y01689D01*
X02218Y01689D01*
X02219Y0169D01*
X02219Y01691D01*
X0222Y01692D01*
X0222Y01693D01*
X02221Y01694D01*
X02221Y01695D01*
X02221Y01697D01*
X02221Y01699D01*
X02231D01*
X02231Y01697D01*
D02*
G37*
G36*
X02325Y01697D02*
X02325Y01695D01*
X02326Y01694D01*
X02326Y01693D01*
X02327Y01692D01*
X02327Y01691D01*
X02328Y0169D01*
X02328Y01689D01*
X02329Y01689D01*
X0233Y01689D01*
X0231D01*
X02311Y01689D01*
X02312Y01689D01*
X02313Y0169D01*
X02313Y01691D01*
X02314Y01692D01*
X02314Y01693D01*
X02315Y01694D01*
X02315Y01695D01*
X02315Y01697D01*
X02315Y01699D01*
X02325D01*
X02325Y01697D01*
D02*
G37*
G36*
X03208Y01644D02*
X03207Y01644D01*
X03206Y01644D01*
X03205D01*
X03204Y01644D01*
X03202Y01644D01*
X03201Y01643D01*
X03199Y01642D01*
X03198Y0164D01*
X03194Y01637D01*
X03187Y01644D01*
X03189Y01646D01*
X03192Y01649D01*
X03193Y01651D01*
X03194Y01652D01*
X03194Y01654D01*
X03194Y01655D01*
Y01656D01*
X03194Y01657D01*
X03194Y01658D01*
X03208Y01644D01*
D02*
G37*
G36*
X01884Y01664D02*
X01882Y01662D01*
X01881Y01659D01*
X01879Y01657D01*
X01878Y01653D01*
X01877Y0165D01*
X01877Y01646D01*
X01876Y01641D01*
X01876Y01631D01*
X01875Y01625D01*
X01861Y0164D01*
X01855Y01633D01*
X01853Y01631D01*
X01852Y01629D01*
X01851Y01628D01*
X01851Y01626D01*
X0185Y01625D01*
X01838Y01638D01*
X01839Y01638D01*
X01841Y01638D01*
X01842Y01639D01*
X01844Y0164D01*
X01846Y01642D01*
X01851Y01646D01*
X01853Y01648D01*
X01838Y01662D01*
X01844Y01663D01*
X01854Y01663D01*
X01859Y01664D01*
X01863Y01664D01*
X01866Y01665D01*
X0187Y01666D01*
X01872Y01668D01*
X01875Y01669D01*
X01877Y01671D01*
X01884Y01664D01*
D02*
G37*
G36*
X01102Y01666D02*
X01105Y01664D01*
X01107Y01662D01*
X01109Y0166D01*
X01112Y01659D01*
X01114Y01658D01*
X01117Y01657D01*
X01119Y01657D01*
X01122Y01657D01*
X01125Y01656D01*
X01094Y01625D01*
X01093Y01628D01*
X01093Y01631D01*
X01093Y01633D01*
X01092Y01636D01*
X01091Y01638D01*
X0109Y01641D01*
X01088Y01643D01*
X01086Y01645D01*
X01084Y01648D01*
X01082Y0165D01*
X011Y01668D01*
X01102Y01666D01*
D02*
G37*
G36*
X02303Y01635D02*
X02307Y01632D01*
X02309Y01631D01*
X0231Y0163D01*
X02312Y01629D01*
X02313Y01629D01*
X02314Y01629D01*
X02315Y01629D01*
X02316Y0163D01*
X02302Y01616D01*
X02302Y01617D01*
X02302Y01618D01*
X02302Y01619D01*
X02302Y0162D01*
X02301Y01621D01*
X02301Y01623D01*
X02299Y01624D01*
X02298Y01626D01*
X02294Y0163D01*
X02301Y01637D01*
X02303Y01635D01*
D02*
G37*
G36*
X02235Y01591D02*
X02234Y01591D01*
X02233Y0159D01*
X02233Y01589D01*
X02232Y01588D01*
X02232Y01587D01*
X02231Y01586D01*
X02231Y01585D01*
X02231Y01583D01*
X02231Y01582D01*
X02231Y01582D01*
X02231Y0158D01*
X02231Y01579D01*
X02232Y01578D01*
X02232Y01577D01*
X02232Y01576D01*
X02233Y01576D01*
X02233Y01575D01*
X02234Y01574D01*
X02234Y01573D01*
X02218D01*
X02218Y01574D01*
X02219Y01575D01*
X02219Y01576D01*
X0222Y01576D01*
X0222Y01577D01*
X0222Y01578D01*
X02221Y01579D01*
X02221Y0158D01*
X02221Y01582D01*
X02221Y01582D01*
X02221Y01583D01*
X02221Y01585D01*
X02221Y01586D01*
X0222Y01587D01*
X0222Y01588D01*
X02219Y01589D01*
X02219Y0159D01*
X02218Y01591D01*
X02217Y01591D01*
X02216Y01591D01*
X02236D01*
X02235Y01591D01*
D02*
G37*
G36*
X01862Y01595D02*
X01859Y01593D01*
X01857Y0159D01*
X01855Y01587D01*
X01854Y01584D01*
X01853Y01581D01*
X01852Y01577D01*
X01851Y01574D01*
X01851Y01571D01*
X0185Y01567D01*
X01826D01*
X01825Y01571D01*
X01825Y01574D01*
X01824Y01577D01*
X01823Y01581D01*
X01822Y01584D01*
X01821Y01587D01*
X01819Y0159D01*
X01817Y01593D01*
X01814Y01595D01*
X01812Y01598D01*
X01864D01*
X01862Y01595D01*
D02*
G37*
G36*
X01168Y0155D02*
X01166Y01548D01*
X01164Y01545D01*
X01162Y01543D01*
X0116Y01541D01*
X01159Y01538D01*
X01158Y01536D01*
X01157Y01533D01*
X01157Y01531D01*
X01157Y01528D01*
X01156Y01525D01*
X01125Y01556D01*
X01128Y01557D01*
X01131Y01557D01*
X01133Y01557D01*
X01136Y01558D01*
X01138Y01559D01*
X01141Y0156D01*
X01143Y01562D01*
X01145Y01564D01*
X01148Y01566D01*
X0115Y01568D01*
X01168Y0155D01*
D02*
G37*
G36*
X01851Y01408D02*
X01851Y01405D01*
X01852Y01402D01*
X01853Y01398D01*
X01854Y01395D01*
X01855Y01392D01*
X01857Y01389D01*
X01859Y01386D01*
X01862Y01384D01*
X01864Y01381D01*
X01812D01*
X01814Y01384D01*
X01817Y01386D01*
X01819Y01389D01*
X01821Y01392D01*
X01822Y01395D01*
X01823Y01398D01*
X01824Y01402D01*
X01825Y01405D01*
X01825Y01408D01*
X01826Y01412D01*
X0185D01*
X01851Y01408D01*
D02*
G37*
G36*
X01811Y01359D02*
X0182Y0136D01*
X01823Y0136D01*
X01825Y01361D01*
X01827Y01361D01*
X01828Y01362D01*
X01829Y01363D01*
Y01345D01*
X01828Y01346D01*
X01827Y01347D01*
X01825Y01347D01*
X01823Y01348D01*
X0182Y01348D01*
X01814Y01349D01*
X01811Y01349D01*
Y01328D01*
X01807Y01332D01*
X018Y01339D01*
X01796Y01341D01*
X01793Y01344D01*
X01789Y01346D01*
X01786Y01347D01*
X01784Y01348D01*
X01781Y01349D01*
X01778Y01349D01*
Y01359D01*
X01781Y01359D01*
X01784Y0136D01*
X01786Y01361D01*
X01789Y01362D01*
X01793Y01364D01*
X01796Y01367D01*
X018Y01369D01*
X01807Y01376D01*
X01811Y0138D01*
Y01359D01*
D02*
G37*
G36*
X01955Y01869D02*
X01955Y01866D01*
Y01826D01*
X01956Y01822D01*
X01958Y01819D01*
X02058Y01719D01*
Y01377D01*
X01937Y01256D01*
X01692D01*
X0169Y01261D01*
X01773Y01344D01*
X01777D01*
X01778Y01344D01*
X0178Y01343D01*
X01782Y01343D01*
X01784Y01342D01*
X01787Y01341D01*
X0179Y01339D01*
X01793Y01337D01*
X01796Y01334D01*
X01803Y01328D01*
X01807Y01324D01*
X01808Y01324D01*
X01812Y0132D01*
X01822Y01314D01*
X01832Y01311D01*
X01844D01*
X01854Y01314D01*
X01864Y0132D01*
X01872Y01328D01*
X01878Y01338D01*
X0188Y01348D01*
Y0136D01*
X01878Y0137D01*
X01872Y0138D01*
X01869Y01384D01*
X01868Y01385D01*
X01866Y01387D01*
X01864Y0139D01*
X01862Y01392D01*
X0186Y01395D01*
X01859Y01397D01*
X01858Y014D01*
X01857Y01403D01*
X01856Y01406D01*
X01856Y01409D01*
X01856Y01412D01*
X01856Y01412D01*
Y01567D01*
X01856Y01567D01*
X01856Y0157D01*
X01856Y01573D01*
X01857Y01576D01*
X01858Y01579D01*
X01859Y01582D01*
X0186Y01584D01*
X01862Y01587D01*
X01864Y01589D01*
X01866Y01592D01*
X01868Y01594D01*
X01869Y01595D01*
X01872Y01599D01*
X01878Y01609D01*
X0188Y01619D01*
Y01624D01*
X01881Y01625D01*
X01881Y01625D01*
X01881Y01625D01*
X01881Y01625D01*
X01881Y01631D01*
X01882Y01641D01*
X01882Y01645D01*
X01883Y01649D01*
X01884Y01652D01*
X01884Y01655D01*
X01885Y01657D01*
X01887Y01659D01*
X01888Y0166D01*
X01888Y01661D01*
X01891Y01664D01*
X01893Y01667D01*
X01894Y01671D01*
Y01791D01*
X01894Y01791D01*
X01895Y01793D01*
X01895Y01794D01*
X01895Y01795D01*
X01895Y01796D01*
X01895Y01796D01*
X01909D01*
Y01823D01*
X01909Y01824D01*
X01909Y01824D01*
Y01824D01*
X01909Y01824D01*
X01909Y01825D01*
Y01828D01*
X01909Y01828D01*
X0191Y0183D01*
X01913Y01833D01*
X01915Y01835D01*
X01915Y01835D01*
X01951Y01871D01*
X01955Y01869D01*
D02*
G37*
G36*
X02585Y01179D02*
X02585Y01178D01*
X02585Y01176D01*
X02586Y01175D01*
X02586Y01174D01*
X02587Y01173D01*
X02587Y01172D01*
X02588Y01172D01*
X02589Y01171D01*
X0259Y01171D01*
X0257D01*
X02571Y01171D01*
X02572Y01172D01*
X02573Y01172D01*
X02573Y01173D01*
X02574Y01174D01*
X02574Y01175D01*
X02575Y01176D01*
X02575Y01178D01*
X02575Y01179D01*
X02575Y01181D01*
X02585D01*
X02585Y01179D01*
D02*
G37*
G36*
X02045Y01188D02*
X02046Y01185D01*
X02046Y01183D01*
X02048Y0118D01*
X02049Y01178D01*
X02051Y01175D01*
X02053Y01172D01*
X02056Y01169D01*
X02062Y01163D01*
X02018D01*
X02022Y01166D01*
X02027Y01172D01*
X02029Y01175D01*
X02031Y01178D01*
X02032Y0118D01*
X02034Y01183D01*
X02034Y01185D01*
X02035Y01188D01*
X02035Y0119D01*
X02045D01*
X02045Y01188D01*
D02*
G37*
G36*
X02145Y01188D02*
X02146Y01185D01*
X02147Y01183D01*
X02148Y0118D01*
X02149Y01178D01*
X02151Y01175D01*
X02153Y01172D01*
X02159Y01166D01*
X02162Y01162D01*
X02118D01*
X02121Y01166D01*
X02127Y01172D01*
X02129Y01175D01*
X02131Y01178D01*
X02132Y0118D01*
X02133Y01183D01*
X02134Y01185D01*
X02135Y01188D01*
X02135Y0119D01*
X02145D01*
X02145Y01188D01*
D02*
G37*
G36*
X02311Y01176D02*
X02314Y01173D01*
X02316Y01172D01*
X02317Y01171D01*
X02319Y01171D01*
X0232Y0117D01*
X02321Y0117D01*
X02322Y01171D01*
X02323Y01171D01*
X02309Y01157D01*
X02309Y01158D01*
X0231Y01159D01*
X0231Y0116D01*
X02309Y01161D01*
X02309Y01163D01*
X02308Y01164D01*
X02307Y01166D01*
X02305Y01167D01*
X02302Y01171D01*
X02309Y01178D01*
X02311Y01176D01*
D02*
G37*
G36*
X0265Y01177D02*
X02652Y01176D01*
X02654Y01175D01*
X02657Y01174D01*
X0266Y01173D01*
X02663Y01173D01*
X02667Y01172D01*
X02675Y01172D01*
X0268Y01171D01*
X02649Y0114D01*
X02648Y01145D01*
X02648Y01153D01*
X02647Y01157D01*
X02647Y0116D01*
X02646Y01163D01*
X02645Y01166D01*
X02644Y01168D01*
X02643Y0117D01*
X02641Y01172D01*
X02648Y01179D01*
X0265Y01177D01*
D02*
G37*
G36*
X0221D02*
X02212Y01176D01*
X02214Y01175D01*
X02217Y01174D01*
X0222Y01173D01*
X02223Y01173D01*
X02227Y01172D01*
X02235Y01172D01*
X0224Y01171D01*
X02209Y0114D01*
X02208Y01145D01*
X02208Y01153D01*
X02207Y01157D01*
X02207Y0116D01*
X02206Y01163D01*
X02205Y01166D01*
X02204Y01168D01*
X02203Y0117D01*
X02201Y01172D01*
X02208Y01179D01*
X0221Y01177D01*
D02*
G37*
G36*
X01979Y01172D02*
X01977Y0117D01*
X01976Y01168D01*
X01975Y01166D01*
X01974Y01163D01*
X01973Y0116D01*
X01973Y01157D01*
X01972Y01153D01*
X01972Y01145D01*
X01971Y0114D01*
X0194Y01171D01*
X01945Y01172D01*
X01953Y01172D01*
X01957Y01173D01*
X0196Y01173D01*
X01963Y01174D01*
X01966Y01175D01*
X01968Y01176D01*
X0197Y01177D01*
X01972Y01179D01*
X01979Y01172D01*
D02*
G37*
G36*
X01879D02*
X01877Y0117D01*
X01876Y01168D01*
X01875Y01166D01*
X01874Y01163D01*
X01873Y0116D01*
X01873Y01157D01*
X01872Y01153D01*
X01872Y01145D01*
X01871Y0114D01*
X0184Y01171D01*
X01845Y01172D01*
X01853Y01172D01*
X01857Y01173D01*
X0186Y01173D01*
X01863Y01174D01*
X01866Y01175D01*
X01868Y01176D01*
X0187Y01177D01*
X01872Y01179D01*
X01879Y01172D01*
D02*
G37*
G36*
X01779D02*
X01777Y0117D01*
X01776Y01168D01*
X01775Y01166D01*
X01774Y01163D01*
X01773Y0116D01*
X01773Y01157D01*
X01772Y01153D01*
X01772Y01145D01*
X01771Y0114D01*
X0174Y01171D01*
X01745Y01172D01*
X01753Y01172D01*
X01757Y01173D01*
X0176Y01173D01*
X01763Y01174D01*
X01766Y01175D01*
X01768Y01176D01*
X0177Y01177D01*
X01772Y01179D01*
X01779Y01172D01*
D02*
G37*
G36*
X01679D02*
X01677Y0117D01*
X01676Y01168D01*
X01675Y01166D01*
X01674Y01163D01*
X01673Y0116D01*
X01673Y01157D01*
X01672Y01153D01*
X01672Y01145D01*
X01671Y0114D01*
X0164Y01171D01*
X01645Y01172D01*
X01653Y01172D01*
X01657Y01173D01*
X0166Y01173D01*
X01663Y01174D01*
X01666Y01175D01*
X01668Y01176D01*
X0167Y01177D01*
X01672Y01179D01*
X01679Y01172D01*
D02*
G37*
G36*
X01579D02*
X01577Y0117D01*
X01576Y01168D01*
X01575Y01166D01*
X01574Y01163D01*
X01573Y0116D01*
X01573Y01157D01*
X01572Y01153D01*
X01572Y01145D01*
X01571Y0114D01*
X0154Y01171D01*
X01545Y01172D01*
X01553Y01172D01*
X01557Y01173D01*
X0156Y01173D01*
X01563Y01174D01*
X01566Y01175D01*
X01568Y01176D01*
X0157Y01177D01*
X01572Y01179D01*
X01579Y01172D01*
D02*
G37*
G36*
X01479D02*
X01477Y0117D01*
X01476Y01168D01*
X01475Y01166D01*
X01474Y01163D01*
X01473Y0116D01*
X01473Y01157D01*
X01472Y01153D01*
X01472Y01145D01*
X01471Y0114D01*
X0144Y01171D01*
X01445Y01172D01*
X01453Y01172D01*
X01457Y01173D01*
X0146Y01173D01*
X01463Y01174D01*
X01466Y01175D01*
X01468Y01176D01*
X0147Y01177D01*
X01472Y01179D01*
X01479Y01172D01*
D02*
G37*
%LPC*%
G36*
X01122Y01861D02*
X01089D01*
Y01827D01*
X01122D01*
Y01861D01*
D02*
G37*
G36*
Y01822D02*
X01089D01*
Y01789D01*
X01122D01*
Y01822D01*
D02*
G37*
G36*
X0256Y0216D02*
X02556Y02159D01*
X02553Y02157D01*
X02551Y02154D01*
X0255Y0215D01*
Y02146D01*
X02548Y02146D01*
X02548Y02145D01*
X02548Y02145D01*
X02547Y02144D01*
X02546Y02142D01*
X02546Y02142D01*
X02546Y02142D01*
X02547Y02141D01*
X02547Y02141D01*
X02547Y02141D01*
X02547Y0214D01*
X02548Y02138D01*
X02548Y02137D01*
X02548Y02137D01*
X02549Y02137D01*
X02549Y02136D01*
X02549Y02136D01*
X02549Y02135D01*
X02549Y02135D01*
X02549Y02134D01*
X0255Y02133D01*
X02549Y02132D01*
X02548Y02129D01*
X02535D01*
Y02108D01*
X0256D01*
X02584D01*
Y02129D01*
X02572D01*
X02571Y02132D01*
X0257Y02133D01*
X02571Y02134D01*
X02571Y02135D01*
X02571Y02135D01*
X02571Y02136D01*
X02571Y02136D01*
X02571Y02137D01*
X02572Y02137D01*
X02572Y02137D01*
X02572Y02138D01*
X02573Y0214D01*
X02574Y02142D01*
X02574Y02142D01*
X02574Y02142D01*
X02573Y02144D01*
X02572Y02145D01*
X02572Y02145D01*
X02572Y02146D01*
X02571Y02146D01*
X0257Y02146D01*
Y0215D01*
X02569Y02154D01*
X02567Y02157D01*
X02564Y02159D01*
X0256Y0216D01*
D02*
G37*
%LPD*%
G36*
X02568Y02141D02*
X02567Y0214D01*
X02567Y02139D01*
X02566Y02139D01*
X02566Y02138D01*
X02566Y02137D01*
X02565Y02136D01*
X02565Y02135D01*
X02565Y02133D01*
X02565Y02133D01*
X02565Y02132D01*
X02565Y0213D01*
X02565Y02128D01*
X02566Y02127D01*
X02566Y02126D01*
X02567Y02125D01*
X02567Y02124D01*
X02568Y02124D01*
X02569Y02124D01*
X0257Y02123D01*
X0255D01*
X02551Y02124D01*
X02552Y02124D01*
X02553Y02124D01*
X02553Y02125D01*
X02554Y02126D01*
X02554Y02127D01*
X02555Y02128D01*
X02555Y0213D01*
X02555Y02132D01*
X02555Y02133D01*
X02555Y02133D01*
X02555Y02135D01*
X02555Y02136D01*
X02554Y02137D01*
X02554Y02138D01*
X02554Y02139D01*
X02553Y02139D01*
X02553Y0214D01*
X02552Y02141D01*
X02552Y02142D01*
X02568D01*
X02568Y02141D01*
D02*
G37*
G36*
X02531Y027D02*
X02531Y027D01*
X0253Y027D01*
X02506Y027D01*
Y02725D01*
X02531Y02725D01*
Y027D01*
D02*
G37*
G36*
X02591Y02724D02*
X02592Y02723D01*
X02593Y02722D01*
X02594Y02722D01*
X02596Y02721D01*
X02598Y0272D01*
X02601Y0272D01*
X02604Y0272D01*
X02611Y0272D01*
Y027D01*
X02591Y027D01*
Y02725D01*
X02591Y02724D01*
D02*
G37*
G36*
X02641Y0269D02*
X02641Y02692D01*
X02641Y02693D01*
X0264Y02695D01*
X02638Y02696D01*
X02636Y02697D01*
X02634Y02698D01*
X02632Y02699D01*
X02629Y02699D01*
X02625Y02699D01*
X02621Y027D01*
Y0272D01*
X02625Y0272D01*
X02629Y0272D01*
X02632Y0272D01*
X02634Y02721D01*
X02636Y02722D01*
X02638Y02723D01*
X0264Y02724D01*
X02641Y02726D01*
X02641Y02727D01*
X02641Y02729D01*
Y0269D01*
D02*
G37*
G36*
X02591Y02675D02*
X02592Y02675D01*
X02616Y02675D01*
Y0265D01*
X02591Y0265D01*
Y02675D01*
X02591Y02675D01*
D02*
G37*
G36*
X02641Y0267D02*
X02642Y02638D01*
X02641Y0264D01*
X02641Y02642D01*
X02639Y02644D01*
X02637Y02646D01*
X02635Y02647D01*
X02632Y02648D01*
X02629Y02649D01*
X02625Y0265D01*
X02621Y0265D01*
X02616Y0265D01*
Y02675D01*
X02641Y0267D01*
D02*
G37*
G36*
X01633Y02461D02*
X01632Y02462D01*
X01632Y02463D01*
X0163Y02464D01*
X01629Y02465D01*
X01626Y02466D01*
X01624Y02466D01*
X0162Y02466D01*
X01612Y02467D01*
X01608Y02467D01*
Y02492D01*
X01612Y02492D01*
X01624Y02493D01*
X01626Y02494D01*
X01629Y02494D01*
X0163Y02495D01*
X01632Y02496D01*
X01632Y02497D01*
X01633Y02499D01*
Y02461D01*
D02*
G37*
G36*
X01575Y02497D02*
X01575Y02496D01*
X01577Y02495D01*
X01578Y02494D01*
X01581Y02493D01*
X01583Y02493D01*
X01587Y02493D01*
X01595Y02492D01*
X01599Y02492D01*
Y02467D01*
X01595Y02467D01*
X01587Y02466D01*
X01583Y02466D01*
X01581Y02465D01*
X01578Y02464D01*
X01577Y02463D01*
X01575Y02462D01*
X01575Y02461D01*
X01574Y0246D01*
Y02498D01*
X01575Y02497D01*
D02*
G37*
G36*
X01633Y02372D02*
X01632Y02373D01*
X01632Y02374D01*
X0163Y02375D01*
X01629Y02376D01*
X01626Y02376D01*
X01624Y02377D01*
X0162Y02377D01*
X01612Y02377D01*
X01608Y02377D01*
Y02402D01*
X01612Y02403D01*
X0162Y02403D01*
X01624Y02404D01*
X01626Y02404D01*
X01629Y02405D01*
X0163Y02406D01*
X01632Y02407D01*
X01632Y02408D01*
X01633Y0241D01*
Y02372D01*
D02*
G37*
G36*
X01575Y02407D02*
X01575Y02406D01*
X01577Y02405D01*
X01578Y02404D01*
X01581Y02404D01*
X01583Y02403D01*
X01587Y02403D01*
X01595Y02403D01*
X01599Y02402D01*
Y02377D01*
X01595Y02377D01*
X01587Y02377D01*
X01583Y02376D01*
X01581Y02376D01*
X01578Y02375D01*
X01577Y02374D01*
X01575Y02373D01*
X01575Y02371D01*
X01574Y0237D01*
Y02408D01*
X01575Y02407D01*
D02*
G37*
G36*
X01633Y02281D02*
X01632Y02282D01*
X01632Y02283D01*
X0163Y02284D01*
X01629Y02285D01*
X01626Y02286D01*
X01624Y02286D01*
X0162Y02286D01*
X01612Y02287D01*
X01608Y02287D01*
Y02312D01*
X01612Y02312D01*
X01624Y02313D01*
X01626Y02314D01*
X01629Y02314D01*
X0163Y02315D01*
X01632Y02316D01*
X01632Y02317D01*
X01633Y02319D01*
Y02281D01*
D02*
G37*
G36*
X01575Y02317D02*
X01575Y02316D01*
X01577Y02315D01*
X01578Y02314D01*
X01581Y02313D01*
X01583Y02313D01*
X01587Y02312D01*
X01595Y02312D01*
X01599Y02312D01*
Y02287D01*
X01595Y02287D01*
X01587Y02286D01*
X01583Y02286D01*
X01581Y02285D01*
X01578Y02284D01*
X01577Y02283D01*
X01575Y02282D01*
X01575Y02281D01*
X01574Y0228D01*
Y02318D01*
X01575Y02317D01*
D02*
G37*
D15*
X02467Y02713D02*
X02561D01*
X01174Y01574D02*
Y01966D01*
X01118Y02022D02*
Y02518D01*
X01125Y01525D02*
X01174Y01574D01*
X01118Y02022D02*
X01174Y01966D01*
X01118Y02518D02*
X01125Y02525D01*
X01361Y02045D02*
Y02316D01*
X01041Y02541D02*
X01125Y02625D01*
X01041Y01709D02*
X01125Y01625D01*
X01041Y01709D02*
Y02541D01*
X01838Y01354D02*
Y01625D01*
X01885Y02135D02*
Y02147D01*
X01861Y02112D02*
X01885Y02135D01*
X01884Y02148D02*
X01885Y02147D01*
X01869Y0202D02*
X01884Y02035D01*
Y02066D01*
X01798Y0202D02*
X01869D01*
X01685Y01907D02*
X01798Y0202D01*
X0161Y019D02*
X01618Y01907D01*
X01685D01*
X01788Y02092D02*
X01808Y02112D01*
X01861D01*
X0161Y02092D02*
X01788D01*
X01689Y02711D02*
X01704Y02696D01*
X0171Y0266D02*
X01828D01*
X01322Y02525D02*
X01508Y02711D01*
X01704Y02666D02*
Y02696D01*
X01508Y02711D02*
X01689D01*
X01488Y02911D02*
Y02934D01*
X01502Y02949D02*
X02094D01*
X01481Y02905D02*
X01488Y02911D01*
Y02934D02*
X01502Y02949D01*
X01305Y02905D02*
X01481D01*
X0223Y0277D02*
X02287Y02713D01*
X02348D01*
X0223Y0277D02*
Y02813D01*
X02094Y02949D02*
X0223Y02813D01*
X01704Y02666D02*
X0171Y0266D01*
X01125Y02525D02*
X01322D01*
X01125Y02725D02*
X01305Y02905D01*
X01125Y02625D02*
X013Y028D01*
X0164D01*
X02011Y0291D02*
X02083Y02837D01*
Y02745D02*
Y02837D01*
Y02745D02*
X02246Y02582D01*
X0175Y0291D02*
X02011D01*
X02385Y02582D02*
X02395Y02593D01*
X02246Y02582D02*
X02385D01*
X02395Y02593D02*
Y02633D01*
X02383Y02645D02*
X02383D01*
X02395Y02633D01*
X02365Y02663D02*
X02383Y02645D01*
X0164Y028D02*
X0175Y0291D01*
X02348Y02663D02*
X02365D01*
X0194Y028D02*
Y0288D01*
X02121Y02772D02*
X0228Y02613D01*
X02348D01*
X02121Y02772D02*
Y02799D01*
X01556Y02299D02*
X01557Y02299D01*
X01652D02*
X01652Y023D01*
X01557Y02299D02*
X01652D01*
X01932Y02764D02*
X01936Y02768D01*
X01828Y0266D02*
X01932Y02764D01*
X01936Y02768D02*
Y02768D01*
X01932Y02764D02*
X01932D01*
X01939Y02772D02*
Y02799D01*
X01936Y02768D02*
X01939Y02772D01*
X01542Y02902D02*
X01638D01*
X0164Y029D01*
X0154Y02905D02*
X01542Y02902D01*
X01939Y02799D02*
X0194Y028D01*
X02189Y03269D02*
X02471D01*
X0252Y0322D01*
X0214D02*
X02189Y03269D01*
X0266Y0265D02*
Y02651D01*
X02649Y02663D02*
X0266Y02651D01*
X02561Y02663D02*
X02649D01*
X01557Y0239D02*
X01651D01*
X01556Y02389D02*
X01557Y0239D01*
X01651D02*
X01652Y02391D01*
X01557Y02479D02*
X01652D01*
X01556Y02479D02*
X01557Y02479D01*
X01652D02*
X01652Y0248D01*
X01556Y02569D02*
X01652D01*
X01556Y02569D02*
X01556Y02569D01*
X01652D02*
X01652Y02569D01*
D17*
X02663Y02359D02*
X0278Y02477D01*
X02795Y0247D02*
Y02869D01*
X02418Y02359D02*
X02663D01*
X02399Y02404D02*
X02644D01*
X02412Y02374D02*
X02656D01*
X02765Y02483D01*
X02424Y02344D02*
X02669D01*
X02765Y02483D02*
Y02856D01*
X02669Y02344D02*
X02795Y0247D01*
X02735Y02495D02*
Y02844D01*
X0265Y02389D02*
X0275Y02489D01*
X02405Y02389D02*
X0265D01*
X02675Y02329D02*
X0281Y02464D01*
X0278Y02477D02*
Y02863D01*
X02644Y02404D02*
X02735Y02495D01*
X02444Y02314D02*
X02681D01*
X02825Y02458D02*
Y02885D01*
X02681Y02314D02*
X02825Y02458D01*
X0281Y02464D02*
Y02875D01*
X0275Y02489D02*
Y0285D01*
X02434Y02329D02*
X02675D01*
X0258Y0114D02*
Y0121D01*
X02261Y01529D02*
Y0183D01*
Y01529D02*
X0258Y0121D01*
X02276Y01544D02*
X0268Y0114D01*
X02276Y01544D02*
Y01721D01*
X01725Y01225D02*
X01944D01*
X0164Y0114D02*
X01725Y01225D01*
X01561Y01261D02*
X01676D01*
X0144Y0114D02*
X01561Y01261D01*
X01676D02*
X01769Y01354D01*
X0154Y0114D02*
X01646Y01246D01*
X01941D01*
X01884Y01671D02*
Y0182D01*
X01885D01*
X01838Y01625D02*
X01884Y01671D01*
X01361Y01895D02*
X01511Y01745D01*
X01361Y01895D02*
Y02045D01*
X01517Y01739D02*
X01703D01*
X01511Y01745D02*
Y01745D01*
Y01745D02*
X01517Y01739D01*
X02574Y01634D02*
X0258Y01628D01*
X02574Y01634D02*
Y01778D01*
X03078Y01628D02*
X03225Y01775D01*
X0258Y01628D02*
X03078D01*
X02445Y01907D02*
X02574Y01778D01*
X02378Y01907D02*
X02445D01*
X02378Y01888D02*
X02443D01*
X02553Y01778D01*
Y01613D02*
Y01778D01*
X03157Y01607D02*
X03225Y01675D01*
X02553Y01613D02*
X02559Y01607D01*
X03157D01*
X025Y02104D02*
X025Y02105D01*
X02378Y02104D02*
X025D01*
X0232Y0183D02*
Y01891D01*
X02215Y01996D02*
X0232Y01891D01*
Y0167D02*
Y0183D01*
X02104Y02102D02*
X02212Y01993D01*
X02215Y01996D02*
Y02001D01*
X02212Y01993D02*
X02215Y01996D01*
X02166Y01947D02*
X02212Y01993D01*
X02046Y01947D02*
X02166D01*
X02101Y02104D02*
X02104Y02102D01*
X02046Y02104D02*
X02101D01*
X02104Y02102D02*
Y02162D01*
X02215Y02001D02*
X02318Y02104D01*
X02378D01*
X01847Y01948D02*
X01885Y01986D01*
X01731Y01767D02*
Y01861D01*
X01818Y01948D01*
X01847D01*
X01703Y01739D02*
X01731Y01767D01*
X02222Y02206D02*
X02405Y02389D01*
X02222Y02162D02*
Y02206D01*
X02202Y02207D02*
X02399Y02404D01*
X02202Y02162D02*
Y02207D01*
X01884Y02148D02*
X01885D01*
X01944Y02148D02*
X02007Y02085D01*
X01944Y02148D02*
Y02211D01*
X01929Y02138D02*
X02002Y02065D01*
X01929Y02138D02*
Y02177D01*
X02002Y02065D02*
X02002D01*
X02002Y02065D01*
X02046D01*
X02045Y02085D02*
X02046Y02085D01*
X02007Y02085D02*
X02045D01*
X01995Y02046D02*
X02045D01*
X01994Y02026D02*
X02045D01*
X01899Y02121D02*
X01994Y02026D01*
X01914Y02127D02*
Y02171D01*
X01899Y02121D02*
Y02134D01*
X01914Y02127D02*
X01995Y02046D01*
X01885Y02148D02*
X01899Y02134D01*
X02045Y02026D02*
X02046Y02026D01*
X02104Y02162D02*
Y02292D01*
X02045Y02046D02*
X02046Y02045D01*
X01769Y01354D02*
X01838D01*
X0256Y02105D02*
Y0215D01*
X0256Y02105D02*
X0256Y02105D01*
X02068Y01373D02*
Y01723D01*
X01941Y01246D02*
X02068Y01373D01*
X02226Y01707D02*
X02242Y01722D01*
X02226Y0167D02*
Y01707D01*
X02138Y01725D02*
X02143Y0173D01*
X02163Y01728D02*
Y0183D01*
X02153Y01713D02*
Y01719D01*
X02163Y01728D01*
X02143Y0173D02*
Y0183D01*
X02138Y01722D02*
Y01725D01*
X02182Y01727D02*
Y0183D01*
X02168Y01707D02*
Y01713D01*
X02167Y01296D02*
Y01706D01*
X02168Y01713D02*
X02182Y01727D01*
X02167Y01706D02*
X02168Y01707D01*
X02152Y01712D02*
X02153Y01713D01*
X02152Y01302D02*
Y01712D01*
X02137Y01337D02*
Y01721D01*
X02138Y01722D01*
X02122Y01347D02*
Y01727D01*
X02123Y01728D02*
Y0183D01*
X02122Y01727D02*
X02123Y01728D01*
X02197Y01283D02*
Y01693D01*
Y01283D02*
X0234Y0114D01*
X02182Y01198D02*
Y017D01*
Y01198D02*
X0224Y0114D01*
X0214Y01269D02*
X02167Y01296D01*
X0204Y0119D02*
X02152Y01302D01*
X0194Y0114D02*
X02137Y01337D01*
X0196Y01185D02*
X02122Y01347D01*
X02182Y017D02*
X02183Y01701D01*
X02197Y01693D02*
X02198Y01694D01*
Y017D01*
X02183Y01701D02*
Y01707D01*
X02198Y017D02*
X02222Y01724D01*
X02183Y01707D02*
X02202Y01725D01*
X02104Y01354D02*
Y0183D01*
X0195Y012D02*
X02104Y01354D01*
X01944Y01225D02*
X02084Y01365D01*
Y01728D01*
X01965Y01826D02*
X02068Y01723D01*
X0198Y01832D02*
X02084Y01728D01*
X01965Y01826D02*
Y01866D01*
X0198Y01832D02*
Y0186D01*
X01965Y01866D02*
X02006Y01907D01*
X0198Y0186D02*
X02008Y01888D01*
X02046D01*
X018Y012D02*
X0195D01*
X0184Y0114D02*
X01885Y01185D01*
X0196D01*
X0174Y0114D02*
X018Y012D01*
X0204Y0114D02*
Y0119D01*
X0214Y0114D02*
Y01269D01*
X02226Y01565D02*
Y0161D01*
X03105Y02685D02*
X0314Y0272D01*
X0322D01*
X03105Y02556D02*
Y02685D01*
X02568Y02061D02*
X0284Y02333D01*
X02464Y02061D02*
X02568D01*
X02573Y02045D02*
X03085Y02557D01*
X02378Y02045D02*
X02573D01*
X02575Y02026D02*
X0304Y0249D01*
X02378Y02026D02*
X02575D01*
X02581Y02006D02*
X03125Y0255D01*
X02378Y02006D02*
X02581D01*
X03125Y0255D02*
Y02589D01*
X0284Y02333D02*
Y02885D01*
X0304Y0249D02*
X03105Y02556D01*
X03085Y02557D02*
Y02765D01*
X0304Y0249D02*
Y0249D01*
X02378Y01966D02*
X02585D01*
X02378Y01927D02*
X02588D01*
X02378Y01947D02*
X02586D01*
X02588Y01991D02*
X02588D01*
X02886Y02225D02*
X03225D01*
X02588Y01991D02*
X03122Y02525D01*
X02585Y01966D02*
X03043Y02425D01*
X03225D01*
X02964Y02325D02*
X03225D01*
X03122Y02525D02*
X03225D01*
X02588Y01927D02*
X02886Y02225D01*
X02586Y01947D02*
X02964Y02325D01*
X0312Y028D02*
X032D01*
X03085Y02765D02*
X0312Y028D01*
X0322Y0272D02*
X03225Y02725D01*
X03125Y02589D02*
X03161Y02625D01*
X03225D01*
X032Y028D02*
X03225Y02825D01*
X02462Y02085D02*
X0247Y02076D01*
X0253D01*
X02559Y02105D02*
X0256D01*
X0253Y02076D02*
X02559Y02105D01*
X02914Y03214D02*
X0292Y0322D01*
X0284Y02885D02*
X02914Y02959D01*
X02583Y01986D02*
X02588Y01991D01*
X02914Y02959D02*
Y03214D01*
X02378Y01986D02*
X02583D01*
X02599Y03065D02*
X02795Y02869D01*
X02605Y0308D02*
X0281Y02875D01*
X0272Y0299D02*
X02825Y02885D01*
X02593Y0305D02*
X0278Y02863D01*
X02574Y03005D02*
X02735Y02844D01*
X02586Y03035D02*
X02765Y02856D01*
X0258Y0302D02*
X0275Y0285D01*
X02577Y02497D02*
X027Y0262D01*
X02689Y02766D02*
X027Y02755D01*
Y0262D02*
Y02755D01*
X02639Y02766D02*
X02689D01*
X0272Y0299D02*
Y0322D01*
X0184Y0302D02*
X0258D01*
X02095Y03065D02*
X02599D01*
X0218Y0308D02*
X02605D01*
X01755Y03005D02*
X02574D01*
X01925Y03035D02*
X02586D01*
X0201Y0305D02*
X02593D01*
X0154Y0322D02*
X01755Y03005D01*
X0174Y0322D02*
X0174D01*
X01925Y03035D01*
X0194Y0322D02*
X02095Y03065D01*
X0184Y0322D02*
X0201Y0305D01*
X0204Y0322D02*
X0218Y0308D01*
X0164Y0322D02*
X0184Y0302D01*
X01825Y01902D02*
X01826D01*
X01865Y01941D01*
X01894D02*
X01919Y01966D01*
X01865Y01941D02*
X01894D01*
X01919Y01966D02*
X02046D01*
X0193Y01947D02*
X02046D01*
X01885Y01902D02*
X0193Y01947D01*
X01885Y01986D02*
X02046D01*
X01885Y0182D02*
X01992Y01927D01*
X02046D01*
X02006Y01907D02*
X02045D01*
X02046Y01907D01*
X01884Y01902D02*
X01885D01*
X02123Y02162D02*
Y02266D01*
X02129Y02272D02*
Y02325D01*
X02123Y02266D02*
X02129Y02272D01*
X021Y02354D02*
X02129Y02325D01*
X021Y02354D02*
Y02355D01*
X02144Y02377D02*
X02279Y02512D01*
X02143Y02265D02*
X02144Y02265D01*
X02143Y02162D02*
Y02265D01*
X02144Y02265D02*
Y02377D01*
X02463Y02608D02*
X02556D01*
X02561Y02613D01*
X02368Y02512D02*
X02463Y02608D01*
X02279Y02512D02*
X02368D01*
X02636Y02763D02*
X02639Y02766D01*
X02561Y02763D02*
X02636D01*
X0232Y0161D02*
Y01611D01*
X02291Y0164D02*
Y01714D01*
Y0164D02*
X0232Y01611D01*
X02291Y01714D02*
X02301Y01724D01*
Y0183D01*
X02276Y01721D02*
X02281Y01725D01*
Y0183D01*
X02195Y02355D02*
X02195Y02355D01*
X02235D01*
X02285Y02497D02*
X02577D01*
X02163Y02375D02*
X02285Y02497D01*
X02163Y02162D02*
Y02375D01*
X02182Y02162D02*
Y02247D01*
X02195Y0226D01*
Y02295D01*
X0232Y02162D02*
X02321Y02163D01*
Y02191D01*
X02444Y02314D01*
X02301Y02196D02*
X02434Y02329D01*
X02301Y02162D02*
Y02196D01*
X02261Y02162D02*
Y02202D01*
X02281Y02162D02*
Y02201D01*
X02261Y02202D02*
X02418Y02359D01*
X02281Y02201D02*
X02424Y02344D01*
X02242Y02204D02*
X02412Y02374D01*
X02242Y02162D02*
Y02204D01*
X01725Y02377D02*
X01728D01*
X01929Y02177D01*
X01711Y02391D02*
X01725Y02377D01*
X01908Y02177D02*
X01914Y02171D01*
X01904Y02177D02*
X01908D01*
X01711Y023D02*
X01781D01*
X01904Y02177D01*
X021Y02295D02*
X02104Y02292D01*
X02378Y02065D02*
X0246D01*
X02378Y02085D02*
X02462D01*
X0246Y02065D02*
X02464Y02061D01*
X01711Y02444D02*
X01944Y02211D01*
X01711Y02444D02*
Y0248D01*
X02202Y01725D02*
Y0183D01*
X02222Y01724D02*
Y0183D01*
X02242Y01722D02*
Y0183D01*
X0232Y0167D02*
X0232Y0167D01*
D18*
X01931Y02066D02*
X01991Y02006D01*
X01884Y02066D02*
X01931D01*
X01991Y02006D02*
X02046D01*
D20*
Y02104D02*
D03*
Y02085D02*
D03*
Y02065D02*
D03*
Y02045D02*
D03*
X02378Y02104D02*
D03*
Y02085D02*
D03*
Y02065D02*
D03*
Y02045D02*
D03*
Y02026D02*
D03*
Y02006D02*
D03*
Y01986D02*
D03*
Y01966D02*
D03*
Y01947D02*
D03*
Y01927D02*
D03*
Y01907D02*
D03*
Y01888D02*
D03*
X02046D02*
D03*
Y01907D02*
D03*
Y01927D02*
D03*
Y01947D02*
D03*
Y01966D02*
D03*
Y01986D02*
D03*
Y02006D02*
D03*
Y02026D02*
D03*
D21*
X02104Y02162D02*
D03*
X02123D02*
D03*
X02143D02*
D03*
X02163D02*
D03*
X02182D02*
D03*
X02202D02*
D03*
X02222D02*
D03*
X02242D02*
D03*
X02261D02*
D03*
X02281D02*
D03*
X02301D02*
D03*
X0232D02*
D03*
Y0183D02*
D03*
X02301D02*
D03*
X02281D02*
D03*
X02261D02*
D03*
X02242D02*
D03*
X02222D02*
D03*
X02202D02*
D03*
X02182D02*
D03*
X02163D02*
D03*
X02143D02*
D03*
X02123D02*
D03*
X02104D02*
D03*
D22*
X02561Y02613D02*
D03*
Y02663D02*
D03*
Y02713D02*
D03*
Y02763D02*
D03*
X02348D02*
D03*
Y02713D02*
D03*
Y02663D02*
D03*
Y02613D02*
D03*
D23*
X0203Y02571D02*
D03*
D24*
X01939Y02799D02*
D03*
X0203D02*
D03*
X02121D02*
D03*
D25*
X0266Y0265D02*
D03*
Y0271D02*
D03*
X02226Y0161D02*
D03*
Y0167D02*
D03*
X02195Y02355D02*
D03*
Y02295D02*
D03*
X021Y02295D02*
D03*
Y02355D02*
D03*
X0232Y0167D02*
D03*
Y0161D02*
D03*
D26*
X01711Y023D02*
D03*
X01652D02*
D03*
X01711Y02391D02*
D03*
X01652D02*
D03*
X01711Y0248D02*
D03*
X01652D02*
D03*
X01711Y02569D02*
D03*
X01652D02*
D03*
X0206Y02475D02*
D03*
X02D02*
D03*
X01711Y0266D02*
D03*
X01652D02*
D03*
X01884Y0182D02*
D03*
X01825D02*
D03*
X01825Y01984D02*
D03*
X01884D02*
D03*
X01825Y02066D02*
D03*
X01884D02*
D03*
X01825Y02148D02*
D03*
X01884D02*
D03*
X0148Y02905D02*
D03*
X0154D02*
D03*
X025Y02105D02*
D03*
X0256D02*
D03*
X01884Y01902D02*
D03*
X01825D02*
D03*
D27*
X01556Y02569D02*
D03*
Y02479D02*
D03*
Y02389D02*
D03*
X01495Y02569D02*
D03*
Y02479D02*
D03*
Y02389D02*
D03*
X01556Y02299D02*
D03*
X01495D02*
D03*
D41*
Y02569D02*
Y0257D01*
X0203Y02571D02*
Y02799D01*
X0277Y0192D02*
X0318D01*
X03225Y01875D01*
X0267Y0192D02*
X0277D01*
X02199Y02571D02*
X022Y0257D01*
X0203Y02571D02*
X02199D01*
X02561Y02713D02*
X02579D01*
X02582Y0271D02*
X0266D01*
X02579Y02713D02*
X02582Y0271D01*
X01495Y0257D02*
X01529Y02603D01*
X01998D01*
X0203Y02571D02*
X0206Y02541D01*
Y02475D02*
Y02541D01*
X01998Y02603D02*
X0203Y02571D01*
X01495Y02389D02*
Y0257D01*
Y02299D02*
Y02389D01*
X02077Y02319D02*
X021Y02296D01*
X02076Y02319D02*
X02077D01*
X021Y02295D02*
Y02296D01*
X0206Y02335D02*
X02076Y02319D01*
X0206Y02335D02*
Y02475D01*
D42*
X01361Y02045D02*
D03*
X01173Y02316D02*
D03*
X01361D02*
D03*
X01173Y02045D02*
D03*
X0165Y01625D02*
D03*
X01838Y01354D02*
D03*
X0165D02*
D03*
X01838Y01625D02*
D03*
X0161Y019D02*
D03*
Y02092D02*
D03*
D43*
X0252Y0322D02*
D03*
X0262D02*
D03*
X0272D02*
D03*
X0282D02*
D03*
X01125Y01625D02*
D03*
Y01725D02*
D03*
Y01525D02*
D03*
Y02525D02*
D03*
Y02725D02*
D03*
Y02625D02*
D03*
X0277Y0192D02*
D03*
Y0182D02*
D03*
Y0172D02*
D03*
X0267Y0182D02*
D03*
Y0172D02*
D03*
X0164Y029D02*
D03*
X0174Y0322D02*
D03*
X0184D02*
D03*
X0194D02*
D03*
X0214D02*
D03*
X0204D02*
D03*
X0164D02*
D03*
X0154D02*
D03*
X0214Y0114D02*
D03*
X0144D02*
D03*
X0154D02*
D03*
X0164D02*
D03*
X0174D02*
D03*
X0184D02*
D03*
X0194D02*
D03*
X0204D02*
D03*
X0224D02*
D03*
X0288D02*
D03*
X0268D02*
D03*
X0278D02*
D03*
X03225Y02625D02*
D03*
Y02725D02*
D03*
Y02525D02*
D03*
Y02425D02*
D03*
Y02325D02*
D03*
Y02225D02*
D03*
Y01975D02*
D03*
Y01775D02*
D03*
Y01875D02*
D03*
D44*
X0292Y0322D02*
D03*
X0224D02*
D03*
X0234Y0114D02*
D03*
X0258D02*
D03*
D45*
X01125Y01825D02*
D03*
Y02825D02*
D03*
X0267Y0192D02*
D03*
X0164Y028D02*
D03*
X03225Y02825D02*
D03*
Y01675D02*
D03*
D46*
X012Y012D02*
D03*
X0315D02*
D03*
Y0315D02*
D03*
X012D02*
D03*
D47*
X02467Y02713D02*
D03*
X0256Y0215D02*
D03*
X0194Y0288D02*
D03*
X02226Y01565D02*
D03*
X022Y0257D02*
D03*
X02235Y02355D02*
D03*
M02*
