G04*
G04 #@! TF.GenerationSoftware,Altium Limited,Altium Designer,21.6.1 (37)*
G04*
G04 Layer_Color=2752767*
%FSTAX24Y24*%
%MOIN*%
G70*
G04*
G04 #@! TF.SameCoordinates,EF07AD57-FAF1-4C8D-99CD-AC66FC3846F0*
G04*
G04*
G04 #@! TF.FilePolarity,Positive*
G04*
G01*
G75*
%ADD21C,0.0039*%
%ADD22C,0.0020*%
%ADD23C,0.0080*%
%ADD56C,0.0020*%
%ADD57C,0.0027*%
D21*
X02145Y023047D02*
G03*
X02145Y023047I-000197J0D01*
G01*
X020899Y020645D02*
Y023401D01*
X023655D02*
X023655Y020645D01*
X020899Y023401D02*
X023655D01*
X020899Y020645D02*
X023655D01*
X024985Y027843D02*
Y028157D01*
X025615Y027843D02*
Y028157D01*
X024985D02*
X025615D01*
X024985Y027843D02*
X025615D01*
X024985Y028757D02*
X025615D01*
X024985Y028443D02*
X025615D01*
X024985D02*
Y028757D01*
X025615Y028443D02*
Y028757D01*
X020259Y027585D02*
Y028215D01*
X019941Y027585D02*
X020259D01*
X019941D02*
Y028215D01*
X020259D01*
X021509Y028865D02*
X023045D01*
Y026935D02*
Y028865D01*
X021509Y026935D02*
X023045D01*
X021509D02*
Y028865D01*
Y028365D02*
X022009Y028865D01*
X018328Y028184D02*
X018446Y028066D01*
X018367Y028263D02*
X018485Y028144D01*
X018689Y027985D02*
Y0283D01*
X018532Y028064D02*
X018846D01*
X018689D02*
X018846Y028221D01*
X018532D02*
X018689Y028064D01*
X018532Y028221D02*
X018846D01*
X017428Y028184D02*
X017546Y028066D01*
X017467Y028263D02*
X017585Y028144D01*
X017789Y027985D02*
Y0283D01*
X017631Y028064D02*
X017946D01*
X017789D02*
X017946Y028221D01*
X017631D02*
X017789Y028064D01*
X017631Y028221D02*
X017946D01*
X016731Y028221D02*
X017046D01*
X016731D02*
X016889Y028064D01*
X017046Y028221D01*
X016731Y028064D02*
X017046D01*
X016889Y027985D02*
Y0283D01*
X016567Y028263D02*
X016685Y028144D01*
X016528Y028184D02*
X016646Y028066D01*
X015832Y028221D02*
X016146D01*
X015832D02*
X015989Y028064D01*
X016146Y028221D01*
X015832Y028064D02*
X016146D01*
X015989Y027985D02*
Y0283D01*
X015667Y028263D02*
X015785Y028144D01*
X015628Y028184D02*
X015746Y028066D01*
X017046Y026268D02*
Y026897D01*
X016731Y026268D02*
Y026897D01*
X017046D01*
X016731Y026268D02*
X017046D01*
X016157Y02629D02*
Y02692D01*
X015843Y02629D02*
Y02692D01*
X016157D01*
X015843Y02629D02*
X016157D01*
X018372Y014074D02*
Y016712D01*
X019828Y014074D02*
Y016712D01*
X018372D02*
X019828D01*
X018372Y014074D02*
X019828D01*
X017946Y026268D02*
Y026897D01*
X017631Y026268D02*
Y026897D01*
X017946D01*
X017631Y026268D02*
X017946D01*
X018846D02*
Y026897D01*
X018532Y026268D02*
Y026897D01*
X018846D01*
X018532Y026268D02*
X018846D01*
X022757Y018785D02*
Y019415D01*
X022443Y018785D02*
Y019415D01*
X022757D01*
X022443Y018785D02*
X022757D01*
X021843Y024585D02*
X022157D01*
X021843Y025215D02*
X022157D01*
X021843Y024585D02*
Y025215D01*
X022157Y024585D02*
Y025215D01*
X024785Y022943D02*
Y023257D01*
X025415Y022943D02*
Y023257D01*
X024785D02*
X025415D01*
X024785Y022943D02*
X025415D01*
X019655Y021383D02*
Y021697D01*
X019025Y021383D02*
Y021697D01*
Y021383D02*
X019655D01*
X019025Y021697D02*
X019655D01*
X021457Y024585D02*
Y025215D01*
X021143Y024585D02*
Y025215D01*
X021457D01*
X021143Y024585D02*
X021457D01*
X023215Y019425D02*
X02353D01*
X023215Y018795D02*
X02353D01*
Y019425D01*
X023215Y018795D02*
Y019425D01*
X019655Y022783D02*
Y023097D01*
X019025Y022783D02*
Y023097D01*
Y022783D02*
X019655D01*
X019025Y023097D02*
X019655D01*
X019655Y020683D02*
Y020997D01*
X019025Y020683D02*
Y020997D01*
Y020683D02*
X019655D01*
X019025Y020997D02*
X019655D01*
X019655Y022083D02*
Y022397D01*
X019025Y022083D02*
Y022397D01*
Y022083D02*
X019655D01*
X019025Y022397D02*
X019655D01*
X016085Y015243D02*
X016715D01*
X016085Y015557D02*
X016715D01*
Y015243D02*
Y015557D01*
X016085Y015243D02*
Y015557D01*
X025615Y027243D02*
Y027557D01*
X024985Y027243D02*
Y027557D01*
Y027243D02*
X025615D01*
X024985Y027557D02*
X025615D01*
X01608Y014343D02*
X01671D01*
X01608Y014657D02*
X01671D01*
Y014343D02*
Y014657D01*
X01608Y014343D02*
Y014657D01*
X02208Y022023D02*
X022474D01*
X022277Y021826D02*
Y02222D01*
X017387Y013976D02*
Y016811D01*
X020813Y013976D02*
Y016811D01*
X017387D02*
X020813D01*
X017387Y013976D02*
X020813D01*
X018903Y015393D02*
X019297D01*
X0191Y015196D02*
Y01559D01*
D22*
X02023Y019976D02*
Y02407D01*
X024324Y019976D02*
Y02407D01*
X02023D02*
X024324D01*
X02023Y019976D02*
X024324D01*
X020356Y027412D02*
Y028388D01*
X019844Y027412D02*
X020356D01*
X019844D02*
Y028388D01*
X020356D01*
X02081Y028983D02*
X023743D01*
Y026817D02*
Y028983D01*
X02081Y026817D02*
X023743D01*
X02081D02*
Y028983D01*
D23*
X018492Y027276D02*
X018886D01*
X018492Y029048D02*
X018886D01*
X018689Y028851D02*
Y029245D01*
X017592Y027276D02*
X017986D01*
X017592Y029048D02*
X017986D01*
X017789Y028851D02*
Y029245D01*
X016889Y028851D02*
Y029245D01*
X016692Y029048D02*
X017086D01*
X016692Y027276D02*
X017086D01*
X015989Y028851D02*
Y029245D01*
X015792Y029048D02*
X016186D01*
X015792Y027276D02*
X016186D01*
D56*
X02713Y01437D02*
Y01453D01*
X02729D01*
Y01437D01*
X02713D01*
X02442Y01625D02*
Y01641D01*
X02458D01*
Y01625D01*
X02442D01*
Y01437D02*
Y01453D01*
X02458D01*
Y01437D01*
X02442D01*
X02713Y01625D02*
Y01641D01*
X02729D01*
Y01625D01*
X02713D01*
X0243Y02612D02*
X02422Y02628D01*
X02438D01*
X0243Y02612D01*
X0253D02*
X02522Y02628D01*
X02538D01*
X0253Y02612D01*
X032Y01182D02*
X03204Y01186D01*
X03208D01*
X03204Y0119D01*
X03208Y01194D01*
X03204D01*
X032Y01198D01*
X03196Y01194D01*
X03192D01*
X03196Y0119D01*
X03192Y01186D01*
X03196D01*
X032Y01182D01*
X032448Y02302D02*
X032368Y02318D01*
X032528D01*
X032448Y02302D01*
Y02202D02*
X032368Y02218D01*
X032528D01*
X032448Y02202D01*
Y02002D02*
X032368Y02018D01*
X032528D01*
X032448Y02002D01*
Y01902D02*
X032368Y01918D01*
X032528D01*
X032448Y01902D01*
Y01802D02*
X032368Y01818D01*
X032528D01*
X032448Y01802D01*
Y01702D02*
X032368Y01718D01*
X032528D01*
X032448Y01702D01*
Y01602D02*
X032368Y01618D01*
X032528D01*
X032448Y01602D01*
Y01502D02*
X032368Y01518D01*
X032528D01*
X032448Y01502D01*
Y01402D02*
X032368Y01418D01*
X032528D01*
X032448Y01402D01*
Y02102D02*
X032368Y02118D01*
X032528D01*
X032448Y02102D01*
X0239Y03232D02*
X02382Y03248D01*
X02398D01*
X0239Y03232D01*
X0249D02*
X02482Y03248D01*
X02498D01*
X0249Y03232D01*
X0259D02*
X02582Y03248D01*
X02598D01*
X0259Y03232D01*
X0269D02*
X02682Y03248D01*
X02698D01*
X0269Y03232D01*
X0297Y02222D02*
X02962Y02238D01*
X02978D01*
X0297Y02222D01*
Y02122D02*
X02962Y02138D01*
X02978D01*
X0297Y02122D01*
Y02022D02*
X02962Y02038D01*
X02978D01*
X0297Y02022D01*
X0287Y02222D02*
X02862Y02238D01*
X02878D01*
X0287Y02222D01*
Y02122D02*
X02862Y02138D01*
X02878D01*
X0287Y02122D01*
Y02022D02*
X02862Y02038D01*
X02878D01*
X0287Y02022D01*
X0263Y01102D02*
X02622Y01118D01*
X02638D01*
X0263Y01102D01*
X0253D02*
X02522Y01118D01*
X02538D01*
X0253Y01102D01*
X0233D02*
X02322Y01118D01*
X02338D01*
X0233Y01102D01*
X0223D02*
X02222Y01118D01*
X02238D01*
X0223Y01102D01*
X0213D02*
X02122Y01118D01*
X02138D01*
X0213Y01102D01*
X0203D02*
X02022Y01118D01*
X02038D01*
X0203Y01102D01*
X0193D02*
X01922Y01118D01*
X01938D01*
X0193Y01102D01*
X0183D02*
X01822Y01118D01*
X01838D01*
X0183Y01102D01*
X0173D02*
X01722Y01118D01*
X01738D01*
X0173Y01102D01*
X0243D02*
X02422Y01118D01*
X02438D01*
X0243Y01102D01*
X012Y01182D02*
X01204Y01186D01*
X01208D01*
X01204Y0119D01*
X01208Y01194D01*
X01204D01*
X012Y01198D01*
X01196Y01194D01*
X01192D01*
X01196Y0119D01*
X01192Y01186D01*
X01196D01*
X012Y01182D01*
X032Y03192D02*
X03204Y03196D01*
X03208D01*
X03204Y032D01*
X03208Y03204D01*
X03204D01*
X032Y03208D01*
X03196Y03204D01*
X03192D01*
X03196Y032D01*
X03192Y03196D01*
X03196D01*
X032Y03192D01*
X012D02*
X01204Y03196D01*
X01208D01*
X01204Y032D01*
X01208Y03204D01*
X01204D01*
X012Y03208D01*
X01196Y03204D01*
X01192D01*
X01196Y032D01*
X01192Y03196D01*
X01196D01*
X012Y03192D01*
X02272Y02857D02*
X02276Y02865D01*
X02272Y02873D01*
X0228Y02869D01*
X02288Y02873D01*
X02284Y02865D01*
X02288Y02857D01*
X0228Y02861D01*
X02272Y02857D01*
X02337Y02224D02*
X02341Y02232D01*
X02337Y0224D01*
X02345Y02236D01*
X02353Y0224D01*
X02349Y02232D01*
X02353Y02224D01*
X02345Y02228D01*
X02337Y02224D01*
X02302Y02417D02*
X02306Y02425D01*
X02302Y02433D01*
X0231Y02429D01*
X02318Y02433D01*
X02314Y02425D01*
X02318Y02417D01*
X0231Y02421D01*
X02302Y02417D01*
X022492Y023122D02*
X022532Y023202D01*
X022492Y023282D01*
X022572Y023242D01*
X022652Y023282D01*
X022612Y023202D01*
X022652Y023122D01*
X022572Y023162D01*
X022492Y023122D01*
X02025Y019536D02*
X02029Y019616D01*
X02025Y019696D01*
X02033Y019656D01*
X02041Y019696D01*
X02037Y019616D01*
X02041Y019536D01*
X02033Y019576D01*
X02025Y019536D01*
X02105Y0212D02*
X02109Y02128D01*
X02105Y02136D01*
X02113Y02132D01*
X02121Y02136D01*
X02117Y02128D01*
X02121Y0212D01*
X02113Y02124D01*
X02105Y0212D01*
X02171Y02272D02*
X02175Y0228D01*
X02171Y02288D01*
X02179Y02284D01*
X02187Y02288D01*
X02183Y0228D01*
X02187Y02272D01*
X02179Y02276D01*
X02171Y02272D01*
X02122Y0255D02*
X02126Y02558D01*
X02122Y02566D01*
X0213Y02562D01*
X02138Y02566D01*
X02134Y02558D01*
X02138Y0255D01*
X0213Y02554D01*
X02122Y0255D01*
X02591Y02792D02*
X02595Y028D01*
X02591Y02808D01*
X02599Y02804D01*
X02607Y02808D01*
X02603Y028D01*
X02607Y02792D01*
X02599Y02796D01*
X02591Y02792D01*
X02396Y02052D02*
X024Y0206D01*
X02396Y02068D01*
X02404Y02064D01*
X02412Y02068D01*
X02408Y0206D01*
X02412Y02052D01*
X02404Y02056D01*
X02396Y02052D01*
X023Y020933D02*
X02304Y021013D01*
X023Y021093D01*
X02308Y021053D01*
X02316Y021093D01*
X02312Y021013D01*
X02316Y020933D01*
X02308Y020973D01*
X023Y020933D01*
X019555Y02029D02*
X019595Y02037D01*
X019555Y02045D01*
X019635Y02041D01*
X019715Y02045D01*
X019675Y02037D01*
X019715Y02029D01*
X019635Y02033D01*
X019555Y02029D01*
X02291Y02218D02*
X02295Y02226D01*
X02291Y02234D01*
X02299Y0223D01*
X02307Y02234D01*
X02303Y02226D01*
X02307Y02218D01*
X02299Y02222D01*
X02291Y02218D01*
X02453Y02776D02*
X02457Y02784D01*
X02453Y02792D01*
X02461Y02788D01*
X02469Y02792D01*
X02465Y02784D01*
X02469Y02776D01*
X02461Y0278D01*
X02453Y02776D01*
X02015Y02058D02*
X02019Y02066D01*
X02015Y02074D01*
X02023Y0207D01*
X02031Y02074D01*
X02027Y02066D01*
X02031Y02058D01*
X02023Y02062D01*
X02015Y02058D01*
X02042Y0202D02*
X02046Y02028D01*
X02042Y02036D01*
X0205Y02032D01*
X02058Y02036D01*
X02054Y02028D01*
X02058Y0202D01*
X0205Y02024D01*
X02042Y0202D01*
X02376Y02823D02*
X0238Y02831D01*
X02376Y02839D01*
X02384Y02835D01*
X02392Y02839D01*
X02388Y02831D01*
X02392Y02823D01*
X02384Y02827D01*
X02376Y02823D01*
X026819Y02247D02*
X026859Y02255D01*
X026819Y02263D01*
X026899Y02259D01*
X026979Y02263D01*
X026939Y02255D01*
X026979Y02247D01*
X026899Y02251D01*
X026819Y02247D01*
X02451Y0222D02*
X02455Y02228D01*
X02451Y02236D01*
X02459Y02232D01*
X02467Y02236D01*
X02463Y02228D01*
X02467Y0222D01*
X02459Y02224D01*
X02451Y0222D01*
X02337Y021451D02*
X02341Y021531D01*
X02337Y021611D01*
X02345Y021571D01*
X02353Y021611D01*
X02349Y021531D01*
X02353Y021451D01*
X02345Y021491D01*
X02337Y021451D01*
X02113Y02613D02*
X02117Y02621D01*
X02113Y02629D01*
X02121Y02625D01*
X02129Y02629D01*
X02125Y02621D01*
X02129Y02613D01*
X02121Y02617D01*
X02113Y02613D01*
X0217Y02312D02*
X02174Y0232D01*
X0217Y02328D01*
X02178Y02324D01*
X02186Y02328D01*
X02182Y0232D01*
X02186Y02312D01*
X02178Y02316D01*
X0217Y02312D01*
X02289Y019786D02*
X02293Y019866D01*
X02289Y019946D01*
X02297Y019906D01*
X02305Y019946D01*
X02301Y019866D01*
X02305Y019786D01*
X02297Y019826D01*
X02289Y019786D01*
X02237Y02117D02*
X02241Y02125D01*
X02237Y02133D01*
X02245Y02129D01*
X02253Y02133D01*
X02249Y02125D01*
X02253Y02117D01*
X02245Y02121D01*
X02237Y02117D01*
X02229Y02077D02*
X02233Y02085D01*
X02229Y02093D01*
X02237Y02089D01*
X02245Y02093D01*
X02241Y02085D01*
X02245Y02077D01*
X02237Y02081D01*
X02229Y02077D01*
X021902Y011702D02*
X021941Y011782D01*
X021902Y011861D01*
X021981Y011822D01*
X022062Y011861D01*
X022022Y011782D01*
X022062Y011702D01*
X021981Y011741D01*
X021902Y011702D01*
X022886Y02301D02*
X022926Y02309D01*
X022886Y02317D01*
X022966Y02313D01*
X023046Y02317D01*
X023006Y02309D01*
X023046Y02301D01*
X022966Y02305D01*
X022886Y02301D01*
X0223Y02409D02*
X02234Y02417D01*
X0223Y02425D01*
X02238Y02421D01*
X02246Y02425D01*
X02242Y02417D01*
X02246Y02409D01*
X02238Y02413D01*
X0223Y02409D01*
X021837Y022182D02*
X021877Y022262D01*
X021837Y022342D01*
X021917Y022302D01*
X021997Y022342D01*
X021957Y022262D01*
X021997Y022182D01*
X021917Y022222D01*
X021837Y022182D01*
X015945Y02517D02*
X015985Y02525D01*
X015945Y02533D01*
X016025Y02529D01*
X016105Y02533D01*
X016065Y02525D01*
X016105Y02517D01*
X016025Y02521D01*
X015945Y02517D01*
X01901D02*
X01905Y02525D01*
X01901Y02533D01*
X01909Y02529D01*
X01917Y02533D01*
X01913Y02525D01*
X01917Y02517D01*
X01909Y02521D01*
X01901Y02517D01*
X02192Y02551D02*
X02196Y02559D01*
X02192Y02567D01*
X022Y02563D01*
X02208Y02567D01*
X02204Y02559D01*
X02208Y02551D01*
X022Y02555D01*
X02192Y02551D01*
X02268Y01833D02*
X02272Y01841D01*
X02268Y01849D01*
X02276Y01845D01*
X02284Y01849D01*
X0228Y01841D01*
X02284Y01833D01*
X02276Y01837D01*
X02268Y01833D01*
D57*
X01208Y0286D02*
G03*
X01208Y0286I-00008J0D01*
G01*
Y0266D02*
G03*
X01208Y0266I-00008J0D01*
G01*
Y0256D02*
G03*
X01208Y0256I-00008J0D01*
G01*
Y0276D02*
G03*
X01208Y0276I-00008J0D01*
G01*
X01688Y021035D02*
G03*
X01688Y021035I-00008J0D01*
G01*
Y022965D02*
G03*
X01688Y022965I-00008J0D01*
G01*
X01758Y0315D02*
G03*
X01758Y0315I-00008J0D01*
G01*
X01558D02*
G03*
X01558Y0315I-00008J0D01*
G01*
X01658D02*
G03*
X01658Y0315I-00008J0D01*
G01*
X01858D02*
G03*
X01858Y0315I-00008J0D01*
G01*
X01958D02*
G03*
X01958Y0315I-00008J0D01*
G01*
X02058D02*
G03*
X02058Y0315I-00008J0D01*
G01*
X02858Y0259D02*
G03*
X02858Y0259I-00008J0D01*
G01*
Y0279D02*
G03*
X02858Y0279I-00008J0D01*
G01*
Y0289D02*
G03*
X02858Y0289I-00008J0D01*
G01*
Y0269D02*
G03*
X02858Y0269I-00008J0D01*
G01*
X01208Y0183D02*
G03*
X01208Y0183I-00008J0D01*
G01*
Y0163D02*
G03*
X01208Y0163I-00008J0D01*
G01*
Y0153D02*
G03*
X01208Y0153I-00008J0D01*
G01*
Y0173D02*
G03*
X01208Y0173I-00008J0D01*
G01*
X03158Y0269D02*
G03*
X03158Y0269I-00008J0D01*
G01*
Y0289D02*
G03*
X03158Y0289I-00008J0D01*
G01*
Y0279D02*
G03*
X03158Y0279I-00008J0D01*
G01*
Y0259D02*
G03*
X03158Y0259I-00008J0D01*
G01*
M02*
