G04*
G04 #@! TF.GenerationSoftware,Altium Limited,Altium Designer,21.6.1 (37)*
G04*
G04 Layer_Color=8421504*
%FSTAX23Y23*%
%MOIN*%
G70*
G04*
G04 #@! TF.SameCoordinates,CC8BD2FC-D0AA-4785-96DD-124DC4C7110D*
G04*
G04*
G04 #@! TF.FilePolarity,Positive*
G04*
G01*
G75*
%ADD20R,0.060X0.026*%
%ADD21R,0.039X0.037*%
%ADD22O,0.057X0.012*%
%ADD23O,0.012X0.057*%
%ADD24R,0.130X0.094*%
%ADD25R,0.039X0.094*%
%ADD26R,0.037X0.039*%
%ADD27R,0.037X0.039*%
D20*
X02348Y02613D02*
D03*
Y02663D02*
D03*
Y02713D02*
D03*
Y02763D02*
D03*
X02561D02*
D03*
Y02713D02*
D03*
Y02663D02*
D03*
Y02613D02*
D03*
D21*
X01535Y02896D02*
D03*
X01476D02*
D03*
X01711Y023D02*
D03*
X01652D02*
D03*
X01711Y02391D02*
D03*
X01652D02*
D03*
X01711Y0248D02*
D03*
X01652D02*
D03*
X01711Y02569D02*
D03*
X01652D02*
D03*
X0206Y02475D02*
D03*
X02D02*
D03*
X01711Y0266D02*
D03*
X01652D02*
D03*
X01884Y0182D02*
D03*
X01825D02*
D03*
X01825Y01984D02*
D03*
X01884D02*
D03*
X01825Y02066D02*
D03*
X01884D02*
D03*
X01825Y02148D02*
D03*
X01884D02*
D03*
X025Y02105D02*
D03*
X0256D02*
D03*
X01884Y01902D02*
D03*
X01825D02*
D03*
D22*
X02046Y02104D02*
D03*
Y02085D02*
D03*
Y02065D02*
D03*
Y02045D02*
D03*
X02378Y02104D02*
D03*
Y02085D02*
D03*
Y02065D02*
D03*
Y02045D02*
D03*
Y02026D02*
D03*
Y02006D02*
D03*
Y01986D02*
D03*
Y01966D02*
D03*
Y01947D02*
D03*
Y01927D02*
D03*
Y01907D02*
D03*
Y01888D02*
D03*
X02046D02*
D03*
Y01907D02*
D03*
Y01927D02*
D03*
Y01947D02*
D03*
Y01966D02*
D03*
Y01986D02*
D03*
Y02006D02*
D03*
Y02026D02*
D03*
D23*
X02104Y02162D02*
D03*
X02123D02*
D03*
X02143D02*
D03*
X02163D02*
D03*
X02182D02*
D03*
X02202D02*
D03*
X02222D02*
D03*
X02242D02*
D03*
X02261D02*
D03*
X02281D02*
D03*
X02301D02*
D03*
X0232D02*
D03*
Y0183D02*
D03*
X02301D02*
D03*
X02281D02*
D03*
X02261D02*
D03*
X02242D02*
D03*
X02222D02*
D03*
X02202D02*
D03*
X02182D02*
D03*
X02163D02*
D03*
X02143D02*
D03*
X02123D02*
D03*
X02104D02*
D03*
D24*
X0203Y02571D02*
D03*
D25*
X01939Y02799D02*
D03*
X0203D02*
D03*
X02121D02*
D03*
D26*
X0266Y0265D02*
D03*
Y0271D02*
D03*
X02226Y0161D02*
D03*
Y0167D02*
D03*
X02195Y02355D02*
D03*
Y02295D02*
D03*
X021Y02295D02*
D03*
Y02355D02*
D03*
X0232Y0167D02*
D03*
Y0161D02*
D03*
D27*
X01556Y02569D02*
D03*
Y02479D02*
D03*
Y02389D02*
D03*
X01495Y02569D02*
D03*
Y02479D02*
D03*
Y02389D02*
D03*
X01556Y02299D02*
D03*
X01495D02*
D03*
M02*
