G04*
G04 #@! TF.GenerationSoftware,Altium Limited,Altium Designer,21.6.1 (37)*
G04*
G04 Layer_Color=65535*
%FSTAX23Y23*%
%MOIN*%
G70*
G04*
G04 #@! TF.SameCoordinates,70A83F60-4201-493C-AFFE-40F3CF65797C*
G04*
G04*
G04 #@! TF.FilePolarity,Positive*
G04*
G01*
G75*
%ADD10C,0.006*%
%ADD11C,0.024*%
%ADD12C,0.010*%
%ADD13C,0.007*%
%ADD14C,0.008*%
%ADD15C,0.004*%
%ADD16C,0.025*%
%ADD17C,0.010*%
%ADD18C,0.008*%
%ADD19R,0.012X0.047*%
G36*
X0276Y02614D02*
X02761D01*
Y02613D01*
X02761D01*
Y02613D01*
X02765D01*
Y02613D01*
X02766D01*
Y02612D01*
X02768D01*
Y02612D01*
X02769D01*
Y02611D01*
X0277D01*
Y02611D01*
X02771D01*
Y0261D01*
X02771D01*
Y0261D01*
X02772D01*
Y0261D01*
X02773D01*
Y02609D01*
X02775D01*
Y02609D01*
X02775D01*
Y02608D01*
X02775D01*
Y02608D01*
X02777D01*
Y02608D01*
X02777D01*
Y02607D01*
X02778D01*
Y02607D01*
X02778D01*
Y02606D01*
X02778D01*
Y02606D01*
X0278D01*
Y02605D01*
X0278D01*
Y02605D01*
X0278D01*
Y02605D01*
X02781D01*
Y02604D01*
X02781D01*
Y02604D01*
X02782D01*
Y02603D01*
X02782D01*
Y02603D01*
X02783D01*
Y02602D01*
X02784D01*
Y02602D01*
X02784D01*
Y02602D01*
X02785D01*
Y02601D01*
X02785D01*
Y02601D01*
X02786D01*
Y026D01*
X02787D01*
Y02599D01*
X02787D01*
Y02599D01*
X02788D01*
Y02599D01*
X02788D01*
Y02598D01*
X02789D01*
Y02598D01*
X02789D01*
Y02597D01*
X02789D01*
Y02597D01*
X0279D01*
Y02597D01*
X0279D01*
Y02596D01*
X02791D01*
Y02596D01*
X02791D01*
Y02595D01*
X02791D01*
Y02595D01*
X02792D01*
Y02594D01*
X02792D01*
Y02594D01*
X02793D01*
Y02594D01*
X02793D01*
Y02593D01*
X02794D01*
Y02593D01*
X02794D01*
Y02592D01*
X02794D01*
Y02592D01*
X02795D01*
Y02591D01*
X02795D01*
Y02591D01*
X02796D01*
Y02591D01*
X02796D01*
Y0259D01*
X02797D01*
Y0259D01*
X02797D01*
Y02589D01*
X02797D01*
Y02588D01*
X02798D01*
Y02588D01*
X02798D01*
Y02588D01*
X02799D01*
Y02587D01*
X028D01*
Y02586D01*
X028D01*
Y02586D01*
X02801D01*
Y02585D01*
X02801D01*
Y02585D01*
X02802D01*
Y02584D01*
X02802D01*
Y02583D01*
X02803D01*
Y02583D01*
X02803D01*
Y02582D01*
X02804D01*
Y02581D01*
X02805D01*
Y0258D01*
X02805D01*
Y0258D01*
X02805D01*
Y0258D01*
X02806D01*
Y02579D01*
X02806D01*
Y02579D01*
X02807D01*
Y02578D01*
X02807D01*
Y02578D01*
X02808D01*
Y02577D01*
X02808D01*
Y02577D01*
X02808D01*
Y02577D01*
X02809D01*
Y02576D01*
X02809D01*
Y02575D01*
X0281D01*
Y02575D01*
X0281D01*
Y02574D01*
X02811D01*
Y02574D01*
X02811D01*
Y02573D01*
X02811D01*
Y02573D01*
X02812D01*
Y02572D01*
X02812D01*
Y02572D01*
X02813D01*
Y02572D01*
X02813D01*
Y0257D01*
X02813D01*
Y0257D01*
X02814D01*
Y02569D01*
X02814D01*
Y02569D01*
X02815D01*
Y02569D01*
X02815D01*
Y02568D01*
X02816D01*
Y02567D01*
X02816D01*
Y02567D01*
X02816D01*
Y02566D01*
X02817D01*
Y02566D01*
X02817D01*
Y02565D01*
X02818D01*
Y02564D01*
X02818D01*
Y02564D01*
X02819D01*
Y02564D01*
X02819D01*
Y02563D01*
X02819D01*
Y02563D01*
X0282D01*
Y02562D01*
X0282D01*
Y02562D01*
X02821D01*
Y02561D01*
X02821D01*
Y02561D01*
X02822D01*
Y0256D01*
X02822D01*
Y02559D01*
X02822D01*
Y02559D01*
X02823D01*
Y02558D01*
X02823D01*
Y02558D01*
X02824D01*
Y02557D01*
X02824D01*
Y02555D01*
X02825D01*
Y02555D01*
X02825D01*
Y02555D01*
X02826D01*
Y02554D01*
X02826D01*
Y02554D01*
X02827D01*
Y02553D01*
X02827D01*
Y02553D01*
X02827D01*
Y02552D01*
X02828D01*
Y02551D01*
X02828D01*
Y02551D01*
X02829D01*
Y0255D01*
X02829D01*
Y0255D01*
X0283D01*
Y02549D01*
X0283D01*
Y02548D01*
X0283D01*
Y02548D01*
X02831D01*
Y02547D01*
X02831D01*
Y02547D01*
X02832D01*
Y02546D01*
X02832D01*
Y02546D01*
X02832D01*
Y02545D01*
X02833D01*
Y02544D01*
X02833D01*
Y02544D01*
X02834D01*
Y02543D01*
X02834D01*
Y02543D01*
X02835D01*
Y02542D01*
X02835D01*
Y02542D01*
X02835D01*
Y02541D01*
X02836D01*
Y0254D01*
X02836D01*
Y0254D01*
X02837D01*
Y02539D01*
X02838D01*
Y02537D01*
X02838D01*
Y02537D01*
X02838D01*
Y02536D01*
X02839D01*
Y02536D01*
X02839D01*
Y02536D01*
X0284D01*
Y02535D01*
X0284D01*
Y02535D01*
X02841D01*
Y02534D01*
X02841D01*
Y02533D01*
X02841D01*
Y02533D01*
X02842D01*
Y02532D01*
X02842D01*
Y02532D01*
X02843D01*
Y0253D01*
X02843D01*
Y0253D01*
X02843D01*
Y02529D01*
X02844D01*
Y02529D01*
X02844D01*
Y02528D01*
X02845D01*
Y02527D01*
X02845D01*
Y02527D01*
X02846D01*
Y02526D01*
X02846D01*
Y02526D01*
X02846D01*
Y02525D01*
X02847D01*
Y02524D01*
X02847D01*
Y02524D01*
X02848D01*
Y02523D01*
X02848D01*
Y02523D01*
X02849D01*
Y02522D01*
X02849D01*
Y02521D01*
X0285D01*
Y0252D01*
X0285D01*
Y0252D01*
X02851D01*
Y02518D01*
X02851D01*
Y02518D01*
X02852D01*
Y02517D01*
X02852D01*
Y02517D01*
X02852D01*
Y02517D01*
X02853D01*
Y02515D01*
X02853D01*
Y02515D01*
X02854D01*
Y02514D01*
X02854D01*
Y02514D01*
X02854D01*
Y02513D01*
X02855D01*
Y02513D01*
X02855D01*
Y02512D01*
X02856D01*
Y02511D01*
X02856D01*
Y02511D01*
X02857D01*
Y0251D01*
X02857D01*
Y0251D01*
X02857D01*
Y02509D01*
X02858D01*
Y02508D01*
X02858D01*
Y02508D01*
X02859D01*
Y02507D01*
X02859D01*
Y02506D01*
X0286D01*
Y02506D01*
X0286D01*
Y02505D01*
X0286D01*
Y02504D01*
X02861D01*
Y02504D01*
X02861D01*
Y02503D01*
X02862D01*
Y02502D01*
X02862D01*
Y02502D01*
X02863D01*
Y02501D01*
X02863D01*
Y02501D01*
X02863D01*
Y02501D01*
X02864D01*
Y02499D01*
X02864D01*
Y02498D01*
X02865D01*
Y02498D01*
X02865D01*
Y02498D01*
X02865D01*
Y02497D01*
X02866D01*
Y02496D01*
X02866D01*
Y02495D01*
X02867D01*
Y02495D01*
X02867D01*
Y02495D01*
X02868D01*
Y02494D01*
X02868D01*
Y02493D01*
X02868D01*
Y02493D01*
X02869D01*
Y02492D01*
X02869D01*
Y02491D01*
X0287D01*
Y02491D01*
X0287D01*
Y0249D01*
X02871D01*
Y02489D01*
X02871D01*
Y02489D01*
X02871D01*
Y02488D01*
X02872D01*
Y02487D01*
X02872D01*
Y02487D01*
X02873D01*
Y02486D01*
X02873D01*
Y02486D01*
X02874D01*
Y02485D01*
X02874D01*
Y02484D01*
X02874D01*
Y02483D01*
X02875D01*
Y02482D01*
X02876D01*
Y02482D01*
X02876D01*
Y02481D01*
X02876D01*
Y0248D01*
X02877D01*
Y0248D01*
X02877D01*
Y02479D01*
X02878D01*
Y02479D01*
X02878D01*
Y02478D01*
X02879D01*
Y02477D01*
X02879D01*
Y02477D01*
X02879D01*
Y02476D01*
X0288D01*
Y02476D01*
X0288D01*
Y02475D01*
X02881D01*
Y02473D01*
X02882D01*
Y02473D01*
X02882D01*
Y02473D01*
X02882D01*
Y02472D01*
X02883D01*
Y02472D01*
X02883D01*
Y02471D01*
X02884D01*
Y0247D01*
X02884D01*
Y0247D01*
X02885D01*
Y02469D01*
X02885D01*
Y02469D01*
X02885D01*
Y02467D01*
X02886D01*
Y02467D01*
X02887D01*
Y02466D01*
X02887D01*
Y02465D01*
X02887D01*
Y02465D01*
X02888D01*
Y02465D01*
X02888D01*
Y02463D01*
X02889D01*
Y02463D01*
X02889D01*
Y02462D01*
X0289D01*
Y02462D01*
X0289D01*
Y02462D01*
X0289D01*
Y02457D01*
X0289D01*
Y02456D01*
X0289D01*
Y02456D01*
X02889D01*
Y02455D01*
X02889D01*
Y02455D01*
X02888D01*
Y02454D01*
X02887D01*
Y02454D01*
X02886D01*
Y02453D01*
X02881D01*
Y02454D01*
X02881D01*
Y02454D01*
X0288D01*
Y02454D01*
X02879D01*
Y02455D01*
X02879D01*
Y02456D01*
X02878D01*
Y02457D01*
X02878D01*
Y02457D01*
X02877D01*
Y02457D01*
X02877D01*
Y02458D01*
X02876D01*
Y02459D01*
X02876D01*
Y0246D01*
X02876D01*
Y0246D01*
X02875D01*
Y0246D01*
X02875D01*
Y02461D01*
X02874D01*
Y02462D01*
X02874D01*
Y02462D01*
X02874D01*
Y02463D01*
X02873D01*
Y02463D01*
X02873D01*
Y02464D01*
X02872D01*
Y02465D01*
X02871D01*
Y02466D01*
X02871D01*
Y02467D01*
X02871D01*
Y02467D01*
X0287D01*
Y02468D01*
X0287D01*
Y02468D01*
X02869D01*
Y02469D01*
X02869D01*
Y0247D01*
X02868D01*
Y0247D01*
X02868D01*
Y02471D01*
X02868D01*
Y02472D01*
X02867D01*
Y02472D01*
X02867D01*
Y02473D01*
X02866D01*
Y02473D01*
X02865D01*
Y02475D01*
X02865D01*
Y02476D01*
X02865D01*
Y02476D01*
X02864D01*
Y02476D01*
X02864D01*
Y02477D01*
X02863D01*
Y02478D01*
X02863D01*
Y02479D01*
X02863D01*
Y02479D01*
X02862D01*
Y02479D01*
X02862D01*
Y0248D01*
X02861D01*
Y02482D01*
X0286D01*
Y02482D01*
X0286D01*
Y02483D01*
X0286D01*
Y02483D01*
X02859D01*
Y02484D01*
X02859D01*
Y02485D01*
X02858D01*
Y02485D01*
X02858D01*
Y02486D01*
X02857D01*
Y02487D01*
X02857D01*
Y02487D01*
X02857D01*
Y02488D01*
X02856D01*
Y02488D01*
X02856D01*
Y02489D01*
X02855D01*
Y0249D01*
X02855D01*
Y02491D01*
X02854D01*
Y02491D01*
X02854D01*
Y02492D01*
X02854D01*
Y02492D01*
X02853D01*
Y02493D01*
X02853D01*
Y02494D01*
X02852D01*
Y02494D01*
X02852D01*
Y02495D01*
X02852D01*
Y02495D01*
X02851D01*
Y02497D01*
X0285D01*
Y02498D01*
X0285D01*
Y02498D01*
X02849D01*
Y02498D01*
X02849D01*
Y025D01*
X02849D01*
Y025D01*
X02848D01*
Y02501D01*
X02848D01*
Y02501D01*
X02847D01*
Y02502D01*
X02847D01*
Y02503D01*
X02846D01*
Y02503D01*
X02846D01*
Y02503D01*
X02846D01*
Y02504D01*
X02845D01*
Y02505D01*
X02845D01*
Y02506D01*
X02844D01*
Y02506D01*
X02844D01*
Y02507D01*
X02843D01*
Y02507D01*
X02843D01*
Y02509D01*
X02843D01*
Y02509D01*
X02842D01*
Y02509D01*
X02842D01*
Y0251D01*
X02841D01*
Y0251D01*
X02841D01*
Y02512D01*
X0284D01*
Y02513D01*
X0284D01*
Y02513D01*
X02839D01*
Y02514D01*
X02839D01*
Y02514D01*
X02838D01*
Y02514D01*
X02838D01*
Y02516D01*
X02838D01*
Y02516D01*
X02837D01*
Y02517D01*
X02837D01*
Y02517D01*
X02836D01*
Y02517D01*
X02836D01*
Y02519D01*
X02835D01*
Y02519D01*
X02835D01*
Y0252D01*
X02835D01*
Y0252D01*
X02834D01*
Y02521D01*
X02834D01*
Y02522D01*
X02833D01*
Y02523D01*
X02832D01*
Y02523D01*
X02832D01*
Y02524D01*
X02832D01*
Y02525D01*
X02831D01*
Y02525D01*
X02831D01*
Y02526D01*
X0283D01*
Y02526D01*
X0283D01*
Y02527D01*
X0283D01*
Y02528D01*
X02829D01*
Y02528D01*
X02829D01*
Y02529D01*
X02828D01*
Y0253D01*
X02827D01*
Y02531D01*
X02827D01*
Y02531D01*
X02827D01*
Y02532D01*
X02826D01*
Y02533D01*
X02826D01*
Y02533D01*
X02825D01*
Y02534D01*
X02825D01*
Y02534D01*
X02824D01*
Y02534D01*
X02824D01*
Y02535D01*
X02824D01*
Y02536D01*
X02823D01*
Y02536D01*
X02823D01*
Y02537D01*
X02822D01*
Y02539D01*
X02822D01*
Y02539D01*
X02821D01*
Y0254D01*
X02821D01*
Y0254D01*
X0282D01*
Y02541D01*
X0282D01*
Y02541D01*
X02819D01*
Y02542D01*
X02819D01*
Y02542D01*
X02819D01*
Y02543D01*
X02818D01*
Y02544D01*
X02818D01*
Y02544D01*
X02817D01*
Y02545D01*
X02817D01*
Y02545D01*
X02816D01*
Y02545D01*
X02816D01*
Y02546D01*
X02816D01*
Y02547D01*
X02815D01*
Y02548D01*
X02814D01*
Y02549D01*
X02814D01*
Y02549D01*
X02813D01*
Y0255D01*
X02813D01*
Y0255D01*
X02813D01*
Y02551D01*
X02812D01*
Y02552D01*
X02812D01*
Y02552D01*
X02811D01*
Y02553D01*
X02811D01*
Y02553D01*
X02811D01*
Y02553D01*
X0281D01*
Y02554D01*
X0281D01*
Y02555D01*
X02809D01*
Y02555D01*
X02809D01*
Y02556D01*
X02808D01*
Y02556D01*
X02808D01*
Y02557D01*
X02808D01*
Y02558D01*
X02807D01*
Y02558D01*
X02806D01*
Y02559D01*
X02806D01*
Y02559D01*
X02805D01*
Y02561D01*
X02805D01*
Y02561D01*
X02805D01*
Y02561D01*
X02804D01*
Y02562D01*
X02804D01*
Y02562D01*
X02803D01*
Y02563D01*
X02803D01*
Y02563D01*
X02802D01*
Y02564D01*
X02802D01*
Y02564D01*
X02802D01*
Y02565D01*
X02801D01*
Y02566D01*
X02801D01*
Y02566D01*
X028D01*
Y02566D01*
X028D01*
Y02567D01*
X028D01*
Y02567D01*
X02799D01*
Y02568D01*
X02799D01*
Y02568D01*
X02798D01*
Y02569D01*
X02798D01*
Y02569D01*
X02797D01*
Y0257D01*
X02797D01*
Y02571D01*
X02796D01*
Y02572D01*
X02796D01*
Y02572D01*
X02795D01*
Y02573D01*
X02794D01*
Y02574D01*
X02794D01*
Y02574D01*
X02794D01*
Y02575D01*
X02793D01*
Y02575D01*
X02793D01*
Y02575D01*
X02792D01*
Y02576D01*
X02792D01*
Y02576D01*
X02791D01*
Y02577D01*
X02791D01*
Y02577D01*
X02791D01*
Y02577D01*
X0279D01*
Y02579D01*
X0279D01*
Y02579D01*
X02789D01*
Y0258D01*
X02789D01*
Y0258D01*
X02789D01*
Y0258D01*
X02788D01*
Y02581D01*
X02788D01*
Y02581D01*
X02787D01*
Y02582D01*
X02787D01*
Y02582D01*
X02786D01*
Y02583D01*
X02786D01*
Y02583D01*
X02786D01*
Y02583D01*
X02785D01*
Y02584D01*
X02785D01*
Y02584D01*
X02784D01*
Y02585D01*
X02784D01*
Y02585D01*
X02783D01*
Y02586D01*
X02783D01*
Y02586D01*
X02783D01*
Y02586D01*
X02782D01*
Y02587D01*
X02782D01*
Y02587D01*
X02781D01*
Y02588D01*
X02781D01*
Y02588D01*
X0278D01*
Y02588D01*
X0278D01*
Y02589D01*
X0278D01*
Y02589D01*
X02779D01*
Y0259D01*
X02779D01*
Y0259D01*
X02778D01*
Y02591D01*
X02777D01*
Y02591D01*
X02777D01*
Y02591D01*
X02776D01*
Y02592D01*
X02776D01*
Y02592D01*
X02775D01*
Y02593D01*
X02774D01*
Y02594D01*
X02773D01*
Y02594D01*
X02772D01*
Y02595D01*
X02772D01*
Y02595D01*
X02771D01*
Y02596D01*
X02771D01*
Y02596D01*
X0277D01*
Y02597D01*
X02769D01*
Y02597D01*
X02769D01*
Y02597D01*
X02768D01*
Y02598D01*
X02768D01*
Y02598D01*
X02766D01*
Y02599D01*
X02766D01*
Y02599D01*
X02765D01*
Y02599D01*
X02764D01*
Y026D01*
X02764D01*
Y026D01*
X02761D01*
Y02601D01*
X02761D01*
Y02601D01*
X02756D01*
Y026D01*
X02754D01*
Y026D01*
X02753D01*
Y02599D01*
X02752D01*
Y02599D01*
X02751D01*
Y02599D01*
X02751D01*
Y02598D01*
X0275D01*
Y02598D01*
X02749D01*
Y02597D01*
X02748D01*
Y02597D01*
X02748D01*
Y02597D01*
X02747D01*
Y02596D01*
X02747D01*
Y02596D01*
X02746D01*
Y02595D01*
X02745D01*
Y02594D01*
X02745D01*
Y02594D01*
X02744D01*
Y02593D01*
X02743D01*
Y02592D01*
X02742D01*
Y02591D01*
X02742D01*
Y02591D01*
X02741D01*
Y0259D01*
X0274D01*
Y02589D01*
X02739D01*
Y02588D01*
X02739D01*
Y02588D01*
X02739D01*
Y02588D01*
X02738D01*
Y02587D01*
X02738D01*
Y02587D01*
X02737D01*
Y02586D01*
X02737D01*
Y02586D01*
X02737D01*
Y02586D01*
X02736D01*
Y02584D01*
X02736D01*
Y02584D01*
X02735D01*
Y02583D01*
X02735D01*
Y02583D01*
X02734D01*
Y02583D01*
X02734D01*
Y02582D01*
X02734D01*
Y02582D01*
X02733D01*
Y0258D01*
X02733D01*
Y0258D01*
X02732D01*
Y0258D01*
X02732D01*
Y02579D01*
X02731D01*
Y02579D01*
X02731D01*
Y02577D01*
X02731D01*
Y02577D01*
X0273D01*
Y02576D01*
X0273D01*
Y02576D01*
X02729D01*
Y02575D01*
X02729D01*
Y02574D01*
X02728D01*
Y02574D01*
X02728D01*
Y02573D01*
X02728D01*
Y02573D01*
X02727D01*
Y02571D01*
X02727D01*
Y02571D01*
X02726D01*
Y0257D01*
X02726D01*
Y02569D01*
X02726D01*
Y02569D01*
X02725D01*
Y02567D01*
X02725D01*
Y02567D01*
X02724D01*
Y02566D01*
X02724D01*
Y02566D01*
X02723D01*
Y02564D01*
X02723D01*
Y02564D01*
X02722D01*
Y02562D01*
X02722D01*
Y02562D01*
X02721D01*
Y02561D01*
X02721D01*
Y0256D01*
X0272D01*
Y02558D01*
X0272D01*
Y02558D01*
X02719D01*
Y02557D01*
X02719D01*
Y02556D01*
X02718D01*
Y02555D01*
X02718D01*
Y02555D01*
X02717D01*
Y02553D01*
X02717D01*
Y02553D01*
X02716D01*
Y02552D01*
X02716D01*
Y02551D01*
X02715D01*
Y0255D01*
X02715D01*
Y02549D01*
X02715D01*
Y02548D01*
X02714D01*
Y02548D01*
X02714D01*
Y02547D01*
X02713D01*
Y02546D01*
X02713D01*
Y02545D01*
X02712D01*
Y02543D01*
X02712D01*
Y02542D01*
X02711D01*
Y02542D01*
X02711D01*
Y02541D01*
X0271D01*
Y0254D01*
X0271D01*
Y02539D01*
X02709D01*
Y02538D01*
X02709D01*
Y02537D01*
X02709D01*
Y02536D01*
X02708D01*
Y02536D01*
X02708D01*
Y02534D01*
X02707D01*
Y02533D01*
X02707D01*
Y02532D01*
X02706D01*
Y02532D01*
X02706D01*
Y02531D01*
X02705D01*
Y0253D01*
X02705D01*
Y02528D01*
X02704D01*
Y02527D01*
X02704D01*
Y02527D01*
X02704D01*
Y02525D01*
X02703D01*
Y02525D01*
X02703D01*
Y02524D01*
X02702D01*
Y02523D01*
X02702D01*
Y02523D01*
X02701D01*
Y02521D01*
X02701D01*
Y02521D01*
X02701D01*
Y0252D01*
X027D01*
Y02519D01*
X027D01*
Y02518D01*
X02699D01*
Y02517D01*
X02699D01*
Y02517D01*
X02698D01*
Y02515D01*
X02698D01*
Y02515D01*
X02698D01*
Y02513D01*
X02697D01*
Y02512D01*
X02696D01*
Y02511D01*
X02696D01*
Y02511D01*
X02696D01*
Y02509D01*
X02695D01*
Y02509D01*
X02695D01*
Y02508D01*
X02694D01*
Y02507D01*
X02694D01*
Y02506D01*
X02693D01*
Y02505D01*
X02693D01*
Y02505D01*
X02693D01*
Y02503D01*
X02692D01*
Y02503D01*
X02692D01*
Y02502D01*
X02691D01*
Y02502D01*
X02691D01*
Y02501D01*
X0269D01*
Y025D01*
X0269D01*
Y025D01*
X0269D01*
Y02498D01*
X02689D01*
Y02498D01*
X02689D01*
Y02497D01*
X02688D01*
Y02496D01*
X02688D01*
Y02495D01*
X02687D01*
Y02495D01*
X02687D01*
Y02495D01*
X02687D01*
Y02493D01*
X02686D01*
Y02493D01*
X02686D01*
Y02493D01*
X02685D01*
Y02492D01*
X02685D01*
Y02492D01*
X02685D01*
Y02491D01*
X02684D01*
Y0249D01*
X02683D01*
Y02489D01*
X02682D01*
Y02488D01*
X02682D01*
Y02487D01*
X02682D01*
Y02487D01*
X02681D01*
Y02487D01*
X02681D01*
Y02486D01*
X0268D01*
Y02486D01*
X0268D01*
Y02485D01*
X02679D01*
Y02485D01*
X02679D01*
Y02484D01*
X02679D01*
Y02484D01*
X02678D01*
Y02484D01*
X02676D01*
Y02483D01*
X02676D01*
Y02482D01*
X02675D01*
Y02482D01*
X02675D01*
Y02482D01*
X02674D01*
Y02481D01*
X02673D01*
Y02481D01*
X02671D01*
Y0248D01*
X02671D01*
Y0248D01*
X02668D01*
Y02479D01*
X02658D01*
Y0248D01*
X02655D01*
Y0248D01*
X02655D01*
Y02481D01*
X02653D01*
Y02481D01*
X02652D01*
Y02482D01*
X02651D01*
Y02482D01*
X0265D01*
Y02482D01*
X0265D01*
Y02483D01*
X02649D01*
Y02483D01*
X02648D01*
Y02484D01*
X02647D01*
Y02484D01*
X02646D01*
Y02485D01*
X02645D01*
Y02486D01*
X02644D01*
Y02486D01*
X02644D01*
Y02487D01*
X02644D01*
Y02487D01*
X02643D01*
Y02487D01*
X02643D01*
Y02488D01*
X02642D01*
Y02488D01*
X02642D01*
Y02489D01*
X02641D01*
Y02489D01*
X0264D01*
Y0249D01*
X0264D01*
Y0249D01*
X02639D01*
Y0249D01*
X02639D01*
Y02491D01*
X02637D01*
Y02492D01*
X02636D01*
Y02492D01*
X02634D01*
Y02493D01*
X02634D01*
Y02493D01*
X02631D01*
Y02493D01*
X02631D01*
Y02494D01*
X02626D01*
Y02493D01*
X02625D01*
Y02493D01*
X02624D01*
Y02493D01*
X02624D01*
Y02492D01*
X02623D01*
Y02492D01*
X02622D01*
Y02491D01*
X02622D01*
Y02491D01*
X02621D01*
Y0249D01*
X02621D01*
Y0249D01*
X0262D01*
Y0249D01*
X0262D01*
Y02489D01*
X02619D01*
Y02489D01*
X02619D01*
Y02488D01*
X02619D01*
Y02488D01*
X02618D01*
Y02487D01*
X02618D01*
Y02487D01*
X02617D01*
Y02486D01*
X02617D01*
Y02485D01*
X02616D01*
Y02485D01*
X02616D01*
Y02484D01*
X02616D01*
Y02484D01*
X02615D01*
Y02484D01*
X02615D01*
Y02483D01*
X02614D01*
Y02482D01*
X02614D01*
Y02482D01*
X02613D01*
Y0248D01*
X02613D01*
Y02479D01*
X02613D01*
Y02479D01*
X02612D01*
Y02479D01*
X02612D01*
Y02478D01*
X02611D01*
Y02477D01*
X02611D01*
Y02476D01*
X02611D01*
Y02475D01*
X0261D01*
Y02475D01*
X0261D01*
Y02474D01*
X02609D01*
Y02473D01*
X02609D01*
Y02472D01*
X02608D01*
Y02471D01*
X02608D01*
Y02471D01*
X02608D01*
Y02469D01*
X02607D01*
Y02468D01*
X02607D01*
Y02468D01*
X02606D01*
Y02467D01*
X02606D01*
Y02466D01*
X02605D01*
Y02465D01*
X02605D01*
Y02464D01*
X02605D01*
Y02463D01*
X02604D01*
Y02462D01*
X02604D01*
Y02461D01*
X02603D01*
Y0246D01*
X02603D01*
Y02459D01*
X02602D01*
Y02458D01*
X02602D01*
Y02457D01*
X02602D01*
Y02456D01*
X02601D01*
Y02454D01*
X02601D01*
Y02454D01*
X026D01*
Y02452D01*
X026D01*
Y02451D01*
X026D01*
Y02451D01*
X02599D01*
Y02449D01*
X02599D01*
Y02448D01*
X02598D01*
Y02446D01*
X02598D01*
Y02446D01*
X02597D01*
Y02443D01*
X02597D01*
Y02443D01*
X02597D01*
Y02443D01*
X02596D01*
Y0244D01*
X02596D01*
Y0244D01*
X02595D01*
Y02438D01*
X02595D01*
Y02437D01*
X02594D01*
Y02436D01*
X02594D01*
Y02434D01*
X02594D01*
Y02434D01*
X02593D01*
Y02431D01*
X02593D01*
Y02431D01*
X02592D01*
Y02428D01*
X02592D01*
Y02428D01*
X02592D01*
Y02427D01*
X02591D01*
Y02425D01*
X02591D01*
Y02424D01*
X0259D01*
Y02421D01*
X0259D01*
Y02421D01*
X02589D01*
Y0242D01*
X02589D01*
Y02418D01*
X02589D01*
Y02417D01*
X02588D01*
Y02415D01*
X02588D01*
Y02415D01*
X02587D01*
Y02413D01*
X02587D01*
Y02411D01*
X02586D01*
Y0241D01*
X02586D01*
Y02408D01*
X02586D01*
Y02408D01*
X02585D01*
Y02405D01*
X02585D01*
Y02405D01*
X02584D01*
Y02403D01*
X02584D01*
Y02401D01*
X02583D01*
Y024D01*
X02583D01*
Y02398D01*
X02583D01*
Y02397D01*
X02582D01*
Y02395D01*
X02582D01*
Y02395D01*
X02582D01*
Y02394D01*
X02582D01*
Y02394D01*
X02581D01*
Y02393D01*
X02581D01*
Y0239D01*
X02581D01*
Y02389D01*
X0258D01*
Y02387D01*
X0258D01*
Y02386D01*
X02579D01*
Y02385D01*
X02579D01*
Y02383D01*
X02578D01*
Y02382D01*
X02578D01*
Y02378D01*
X02578D01*
Y02378D01*
X02577D01*
Y02376D01*
X02577D01*
Y02375D01*
X02576D01*
Y02375D01*
X02576D01*
Y02371D01*
X02575D01*
Y02371D01*
X02575D01*
Y02367D01*
X02575D01*
Y02367D01*
X02574D01*
Y02366D01*
X02574D01*
Y02363D01*
X02573D01*
Y02363D01*
X02573D01*
Y0236D01*
X02572D01*
Y0236D01*
X02572D01*
Y02356D01*
X02572D01*
Y02356D01*
X02571D01*
Y02355D01*
X02571D01*
Y02352D01*
X0257D01*
Y02352D01*
X0257D01*
Y02348D01*
X0257D01*
Y02348D01*
X02569D01*
Y02346D01*
X02569D01*
Y02344D01*
X02568D01*
Y02343D01*
X02568D01*
Y0234D01*
X02567D01*
Y02339D01*
X02567D01*
Y02337D01*
X02567D01*
Y02336D01*
X02566D01*
Y02335D01*
X02566D01*
Y02332D01*
X02565D01*
Y02331D01*
X02565D01*
Y02329D01*
X02564D01*
Y02328D01*
X02564D01*
Y02326D01*
X02564D01*
Y02325D01*
X02563D01*
Y02324D01*
X02563D01*
Y02321D01*
X02562D01*
Y0232D01*
X02562D01*
Y02317D01*
X02561D01*
Y02316D01*
X02561D01*
Y02316D01*
X02561D01*
Y02312D01*
X0256D01*
Y02312D01*
X0256D01*
Y02309D01*
X02559D01*
Y02308D01*
X02559D01*
Y02307D01*
X02559D01*
Y02305D01*
X02558D01*
Y02305D01*
X02558D01*
Y02301D01*
X02557D01*
Y02301D01*
X02557D01*
Y02299D01*
X02556D01*
Y02297D01*
X02556D01*
Y02297D01*
X02556D01*
Y02293D01*
X02555D01*
Y02293D01*
X02555D01*
Y0229D01*
X02554D01*
Y0229D01*
X02554D01*
Y02288D01*
X02553D01*
Y02286D01*
X02553D01*
Y02285D01*
X02553D01*
Y02283D01*
X02552D01*
Y02283D01*
X02552D01*
Y02279D01*
X02551D01*
Y02279D01*
X02551D01*
Y02278D01*
X0255D01*
Y02275D01*
X0255D01*
Y02274D01*
X0255D01*
Y02272D01*
X02549D01*
Y02272D01*
X02549D01*
Y02271D01*
X02548D01*
Y02269D01*
X02548D01*
Y02268D01*
X02548D01*
Y02265D01*
X02547D01*
Y02265D01*
X02547D01*
Y02262D01*
X02546D01*
Y02262D01*
X02546D01*
Y02261D01*
X02545D01*
Y0226D01*
X02545D01*
Y02259D01*
X02545D01*
Y02259D01*
X02544D01*
Y02258D01*
X02543D01*
Y02258D01*
X02543D01*
Y02257D01*
X02537D01*
Y02258D01*
X02537D01*
Y02258D01*
X02536D01*
Y02259D01*
X02536D01*
Y02259D01*
X02535D01*
Y0226D01*
X02535D01*
Y0226D01*
X02534D01*
Y02261D01*
X02534D01*
Y02261D01*
X02534D01*
Y02266D01*
X02534D01*
Y02266D01*
X02534D01*
Y02267D01*
X02535D01*
Y02269D01*
X02535D01*
Y0227D01*
X02536D01*
Y02273D01*
X02536D01*
Y02273D01*
X02537D01*
Y02275D01*
X02537D01*
Y02276D01*
X02537D01*
Y02277D01*
X02538D01*
Y0228D01*
X02538D01*
Y02281D01*
X02539D01*
Y02283D01*
X02539D01*
Y02284D01*
X0254D01*
Y02284D01*
X0254D01*
Y02287D01*
X0254D01*
Y02288D01*
X02541D01*
Y02291D01*
X02541D01*
Y02292D01*
X02542D01*
Y02293D01*
X02542D01*
Y02295D01*
X02542D01*
Y02295D01*
X02543D01*
Y02298D01*
X02543D01*
Y02299D01*
X02544D01*
Y02301D01*
X02544D01*
Y02303D01*
X02545D01*
Y02304D01*
X02545D01*
Y02306D01*
X02545D01*
Y02306D01*
X02546D01*
Y02309D01*
X02546D01*
Y0231D01*
X02547D01*
Y02312D01*
X02547D01*
Y02314D01*
X02548D01*
Y02315D01*
X02548D01*
Y02318D01*
X02548D01*
Y02318D01*
X02549D01*
Y0232D01*
X02549D01*
Y02322D01*
X0255D01*
Y02323D01*
X0255D01*
Y02325D01*
X0255D01*
Y02325D01*
X02551D01*
Y02329D01*
X02551D01*
Y02329D01*
X02552D01*
Y02331D01*
X02552D01*
Y02333D01*
X02553D01*
Y02334D01*
X02553D01*
Y02337D01*
X02554D01*
Y02341D01*
X02554D01*
Y02341D01*
X02555D01*
Y02342D01*
X02555D01*
Y02345D01*
X02556D01*
Y02346D01*
X02556D01*
Y02349D01*
X02556D01*
Y0235D01*
X02557D01*
Y02351D01*
X02557D01*
Y02353D01*
X02558D01*
Y02354D01*
X02558D01*
Y02356D01*
X02559D01*
Y02357D01*
X02559D01*
Y0236D01*
X02559D01*
Y02361D01*
X0256D01*
Y02361D01*
X0256D01*
Y02364D01*
X02561D01*
Y02365D01*
X02561D01*
Y02368D01*
X02561D01*
Y02369D01*
X02562D01*
Y0237D01*
X02562D01*
Y02373D01*
X02563D01*
Y02373D01*
X02563D01*
Y02376D01*
X02564D01*
Y02379D01*
X02564D01*
Y0238D01*
X02565D01*
Y0238D01*
X02565D01*
Y02384D01*
X02566D01*
Y02384D01*
X02566D01*
Y02388D01*
X02567D01*
Y02388D01*
X02567D01*
Y02389D01*
X02567D01*
Y02391D01*
X02568D01*
Y02391D01*
X02568D01*
Y02395D01*
X02569D01*
Y02395D01*
X02569D01*
Y02398D01*
X0257D01*
Y02398D01*
X0257D01*
Y02399D01*
X0257D01*
Y02402D01*
X02571D01*
Y02402D01*
X02571D01*
Y02405D01*
X02572D01*
Y02405D01*
X02572D01*
Y02408D01*
X02572D01*
Y02409D01*
X02573D01*
Y0241D01*
X02573D01*
Y02412D01*
X02574D01*
Y02413D01*
X02574D01*
Y02416D01*
X02575D01*
Y02416D01*
X02575D01*
Y02417D01*
X02575D01*
Y02419D01*
X02576D01*
Y0242D01*
X02576D01*
Y02422D01*
X02577D01*
Y02423D01*
X02577D01*
Y02424D01*
X02578D01*
Y02427D01*
X02578D01*
Y02427D01*
X02578D01*
Y02429D01*
X02579D01*
Y0243D01*
X02579D01*
Y02432D01*
X0258D01*
Y02432D01*
X0258D01*
Y02433D01*
X02581D01*
Y02435D01*
X02581D01*
Y02436D01*
X02581D01*
Y02438D01*
X02582D01*
Y02439D01*
X02582D01*
Y02441D01*
X02583D01*
Y02442D01*
X02583D01*
Y02442D01*
X02583D01*
Y02445D01*
X02584D01*
Y02445D01*
X02584D01*
Y02447D01*
X02585D01*
Y02448D01*
X02585D01*
Y02449D01*
X02586D01*
Y02451D01*
X02586D01*
Y02451D01*
X02586D01*
Y02453D01*
X02587D01*
Y02453D01*
X02587D01*
Y02455D01*
X02588D01*
Y02456D01*
X02588D01*
Y02457D01*
X02589D01*
Y02459D01*
X02589D01*
Y02459D01*
X02589D01*
Y02461D01*
X0259D01*
Y02462D01*
X0259D01*
Y02462D01*
X02591D01*
Y02464D01*
X02591D01*
Y02464D01*
X02592D01*
Y02467D01*
X02592D01*
Y02467D01*
X02592D01*
Y02468D01*
X02593D01*
Y02469D01*
X02593D01*
Y02469D01*
X02594D01*
Y02471D01*
X02594D01*
Y02471D01*
X02594D01*
Y02473D01*
X02595D01*
Y02474D01*
X02596D01*
Y02476D01*
X02596D01*
Y02476D01*
X02597D01*
Y02478D01*
X02597D01*
Y02479D01*
X02598D01*
Y0248D01*
X02598D01*
Y02481D01*
X02599D01*
Y02481D01*
X02599D01*
Y02482D01*
X026D01*
Y02483D01*
X026D01*
Y02484D01*
X02601D01*
Y02485D01*
X02601D01*
Y02486D01*
X02602D01*
Y02487D01*
X02602D01*
Y02487D01*
X02602D01*
Y02488D01*
X02603D01*
Y02488D01*
X02603D01*
Y02489D01*
X02604D01*
Y0249D01*
X02605D01*
Y02491D01*
X02605D01*
Y02492D01*
X02605D01*
Y02492D01*
X02606D01*
Y02493D01*
X02606D01*
Y02494D01*
X02607D01*
Y02494D01*
X02607D01*
Y02495D01*
X02608D01*
Y02495D01*
X02608D01*
Y02495D01*
X02608D01*
Y02496D01*
X02609D01*
Y02496D01*
X02609D01*
Y02497D01*
X0261D01*
Y02497D01*
X0261D01*
Y02498D01*
X02611D01*
Y02498D01*
X02611D01*
Y02498D01*
X02611D01*
Y02499D01*
X02612D01*
Y025D01*
X02613D01*
Y025D01*
X02613D01*
Y02501D01*
X02613D01*
Y02501D01*
X02614D01*
Y02501D01*
X02614D01*
Y02502D01*
X02615D01*
Y02502D01*
X02615D01*
Y02503D01*
X02616D01*
Y02503D01*
X02616D01*
Y02503D01*
X02618D01*
Y02504D01*
X02619D01*
Y02505D01*
X0262D01*
Y02505D01*
X0262D01*
Y02506D01*
X02624D01*
Y02506D01*
X02625D01*
Y02506D01*
X0263D01*
Y02506D01*
X0263D01*
Y02506D01*
X02635D01*
Y02505D01*
X02636D01*
Y02505D01*
X02638D01*
Y02504D01*
X02639D01*
Y02504D01*
X02639D01*
Y02503D01*
X02641D01*
Y02503D01*
X02643D01*
Y02502D01*
X02643D01*
Y02502D01*
X02644D01*
Y02501D01*
X02645D01*
Y02501D01*
X02645D01*
Y02501D01*
X02647D01*
Y025D01*
X02648D01*
Y02499D01*
X02648D01*
Y02499D01*
X02649D01*
Y02498D01*
X0265D01*
Y02498D01*
X0265D01*
Y02498D01*
X02651D01*
Y02497D01*
X02651D01*
Y02497D01*
X02652D01*
Y02496D01*
X02652D01*
Y02496D01*
X02652D01*
Y02495D01*
X02654D01*
Y02495D01*
X02654D01*
Y02495D01*
X02655D01*
Y02494D01*
X02655D01*
Y02494D01*
X02656D01*
Y02493D01*
X02657D01*
Y02493D01*
X02657D01*
Y02493D01*
X0266D01*
Y02492D01*
X0266D01*
Y02493D01*
X0266D01*
Y02492D01*
X02661D01*
Y02492D01*
X02665D01*
Y02492D01*
X02666D01*
Y02493D01*
X02668D01*
Y02493D01*
X02669D01*
Y02493D01*
X02669D01*
Y02494D01*
X0267D01*
Y02494D01*
X0267D01*
Y02495D01*
X02671D01*
Y02495D01*
X02671D01*
Y02495D01*
X02671D01*
Y02496D01*
X02672D01*
Y02496D01*
X02672D01*
Y02497D01*
X02673D01*
Y02498D01*
X02674D01*
Y02499D01*
X02674D01*
Y02499D01*
X02674D01*
Y025D01*
X02675D01*
Y02501D01*
X02675D01*
Y02501D01*
X02676D01*
Y02502D01*
X02676D01*
Y02503D01*
X02676D01*
Y02503D01*
X02677D01*
Y02503D01*
X02677D01*
Y02504D01*
X02678D01*
Y02505D01*
X02678D01*
Y02506D01*
X02679D01*
Y02506D01*
X02679D01*
Y02508D01*
X02679D01*
Y02508D01*
X0268D01*
Y02509D01*
X0268D01*
Y02509D01*
X02681D01*
Y0251D01*
X02681D01*
Y02511D01*
X02682D01*
Y02512D01*
X02682D01*
Y02513D01*
X02682D01*
Y02513D01*
X02683D01*
Y02514D01*
X02683D01*
Y02515D01*
X02684D01*
Y02516D01*
X02684D01*
Y02517D01*
X02685D01*
Y02517D01*
X02685D01*
Y02519D01*
X02685D01*
Y02519D01*
X02686D01*
Y0252D01*
X02686D01*
Y02521D01*
X02687D01*
Y02521D01*
X02687D01*
Y02523D01*
X02687D01*
Y02523D01*
X02688D01*
Y02525D01*
X02688D01*
Y02525D01*
X02689D01*
Y02526D01*
X02689D01*
Y02527D01*
X0269D01*
Y02527D01*
X0269D01*
Y02529D01*
X0269D01*
Y02529D01*
X02691D01*
Y02531D01*
X02691D01*
Y02531D01*
X02692D01*
Y02531D01*
X02692D01*
Y02533D01*
X02693D01*
Y02535D01*
X02693D01*
Y02535D01*
X02694D01*
Y02536D01*
X02694D01*
Y02537D01*
X02695D01*
Y02538D01*
X02695D01*
Y02539D01*
X02696D01*
Y02539D01*
X02696D01*
Y02541D01*
X02696D01*
Y02541D01*
X02697D01*
Y02542D01*
X02697D01*
Y02543D01*
X02698D01*
Y02545D01*
X02698D01*
Y02545D01*
X02699D01*
Y02547D01*
X02699D01*
Y02547D01*
X027D01*
Y02547D01*
X027D01*
Y02549D01*
X02701D01*
Y0255D01*
X02701D01*
Y02551D01*
X02701D01*
Y02551D01*
X02702D01*
Y02553D01*
X02702D01*
Y02553D01*
X02703D01*
Y02554D01*
X02703D01*
Y02555D01*
X02704D01*
Y02555D01*
X02704D01*
Y02557D01*
X02704D01*
Y02557D01*
X02705D01*
Y02558D01*
X02705D01*
Y02559D01*
X02706D01*
Y0256D01*
X02706D01*
Y02561D01*
X02707D01*
Y02561D01*
X02707D01*
Y02562D01*
X02707D01*
Y02563D01*
X02708D01*
Y02564D01*
X02708D01*
Y02565D01*
X02709D01*
Y02566D01*
X02709D01*
Y02566D01*
X02709D01*
Y02566D01*
X0271D01*
Y02567D01*
X0271D01*
Y02569D01*
X02711D01*
Y0257D01*
X02712D01*
Y02571D01*
X02712D01*
Y02572D01*
X02712D01*
Y02572D01*
X02713D01*
Y02573D01*
X02713D01*
Y02575D01*
X02714D01*
Y02575D01*
X02715D01*
Y02576D01*
X02715D01*
Y02576D01*
X02715D01*
Y02577D01*
X02716D01*
Y02578D01*
X02716D01*
Y02579D01*
X02717D01*
Y0258D01*
X02717D01*
Y0258D01*
X02717D01*
Y02581D01*
X02718D01*
Y02581D01*
X02718D01*
Y02583D01*
X02719D01*
Y02583D01*
X02719D01*
Y02584D01*
X0272D01*
Y02585D01*
X0272D01*
Y02585D01*
X0272D01*
Y02586D01*
X02721D01*
Y02586D01*
X02721D01*
Y02587D01*
X02722D01*
Y02588D01*
X02723D01*
Y02589D01*
X02723D01*
Y02589D01*
X02723D01*
Y0259D01*
X02724D01*
Y0259D01*
X02724D01*
Y02591D01*
X02725D01*
Y02592D01*
X02725D01*
Y02592D01*
X02726D01*
Y02593D01*
X02726D01*
Y02593D01*
X02726D01*
Y02594D01*
X02727D01*
Y02594D01*
X02727D01*
Y02594D01*
X02728D01*
Y02595D01*
X02728D01*
Y02595D01*
X02728D01*
Y02597D01*
X02729D01*
Y02597D01*
X02729D01*
Y02597D01*
X0273D01*
Y02598D01*
X0273D01*
Y02598D01*
X02731D01*
Y02599D01*
X02731D01*
Y02599D01*
X02731D01*
Y02599D01*
X02732D01*
Y026D01*
X02732D01*
Y026D01*
X02733D01*
Y02601D01*
X02733D01*
Y02601D01*
X02734D01*
Y02602D01*
X02734D01*
Y02602D01*
X02734D01*
Y02602D01*
X02735D01*
Y02603D01*
X02735D01*
Y02603D01*
X02736D01*
Y02604D01*
X02736D01*
Y02604D01*
X02737D01*
Y02605D01*
X02737D01*
Y02605D01*
X02738D01*
Y02605D01*
X02739D01*
Y02606D01*
X02739D01*
Y02606D01*
X02739D01*
Y02607D01*
X0274D01*
Y02607D01*
X0274D01*
Y02608D01*
X02741D01*
Y02608D01*
X02742D01*
Y02608D01*
X02742D01*
Y02609D01*
X02743D01*
Y02609D01*
X02745D01*
Y0261D01*
X02745D01*
Y0261D01*
X02746D01*
Y02611D01*
X02748D01*
Y02611D01*
X02749D01*
Y02612D01*
X0275D01*
Y02613D01*
X02751D01*
Y02613D01*
X02755D01*
Y02613D01*
X02756D01*
Y02613D01*
X02756D01*
Y02613D01*
X02757D01*
Y02614D01*
X02757D01*
Y02614D01*
X02758D01*
Y02614D01*
X02759D01*
Y02614D01*
X0276D01*
Y02614D01*
D02*
G37*
G36*
X02748Y02658D02*
X02748D01*
Y02658D01*
X02751D01*
Y02657D01*
X02751D01*
Y02657D01*
X02752D01*
Y02657D01*
X02753D01*
Y02656D01*
X02754D01*
Y02656D01*
X02755D01*
Y02655D01*
X02756D01*
Y02655D01*
X02757D01*
Y02654D01*
X02758D01*
Y02654D01*
X02758D01*
Y02654D01*
X02759D01*
Y02653D01*
X0276D01*
Y02653D01*
X02761D01*
Y02652D01*
X02761D01*
Y02652D01*
X02762D01*
Y02651D01*
X02763D01*
Y02651D01*
X02764D01*
Y0265D01*
X02765D01*
Y02649D01*
X02766D01*
Y02649D01*
X02766D01*
Y02649D01*
X02767D01*
Y02648D01*
X02767D01*
Y02648D01*
X02768D01*
Y02647D01*
X02769D01*
Y02647D01*
X02769D01*
Y02646D01*
X0277D01*
Y02646D01*
X0277D01*
Y02646D01*
X0277D01*
Y02645D01*
X02771D01*
Y02645D01*
X02772D01*
Y02644D01*
X02772D01*
Y02644D01*
X02773D01*
Y02643D01*
X02773D01*
Y02643D01*
X02774D01*
Y02643D01*
X02775D01*
Y02642D01*
X02775D01*
Y02642D01*
X02775D01*
Y02641D01*
X02776D01*
Y02641D01*
X02776D01*
Y0264D01*
X02777D01*
Y0264D01*
X02777D01*
Y0264D01*
X02778D01*
Y02639D01*
X02779D01*
Y02639D01*
X02779D01*
Y02638D01*
X0278D01*
Y02638D01*
X0278D01*
Y02638D01*
X0278D01*
Y02637D01*
X02781D01*
Y02637D01*
X02781D01*
Y02636D01*
X02782D01*
Y02636D01*
X02782D01*
Y02635D01*
X02783D01*
Y02635D01*
X02783D01*
Y02635D01*
X02783D01*
Y02634D01*
X02784D01*
Y02634D01*
X02784D01*
Y02633D01*
X02785D01*
Y02633D01*
X02785D01*
Y02632D01*
X02786D01*
Y02632D01*
X02786D01*
Y02632D01*
X02786D01*
Y02631D01*
X02787D01*
Y02631D01*
X02787D01*
Y0263D01*
X02788D01*
Y0263D01*
X02788D01*
Y02629D01*
X02789D01*
Y02629D01*
X02789D01*
Y02628D01*
X0279D01*
Y02628D01*
X0279D01*
Y02627D01*
X02791D01*
Y02627D01*
X02791D01*
Y02627D01*
X02791D01*
Y02626D01*
X02792D01*
Y02626D01*
X02792D01*
Y02625D01*
X02793D01*
Y02625D01*
X02793D01*
Y02624D01*
X02794D01*
Y02624D01*
X02794D01*
Y02624D01*
X02794D01*
Y02623D01*
X02795D01*
Y02623D01*
X02795D01*
Y02622D01*
X02796D01*
Y02622D01*
X02796D01*
Y02621D01*
X02797D01*
Y02621D01*
X02797D01*
Y02621D01*
X02797D01*
Y0262D01*
X02798D01*
Y0262D01*
X02798D01*
Y02619D01*
X02799D01*
Y02619D01*
X02799D01*
Y02618D01*
X028D01*
Y02618D01*
X028D01*
Y02618D01*
X028D01*
Y02617D01*
X02801D01*
Y02617D01*
X02801D01*
Y02616D01*
X02802D01*
Y02616D01*
X02802D01*
Y02616D01*
X02802D01*
Y02615D01*
X02803D01*
Y02615D01*
X02803D01*
Y02614D01*
X02804D01*
Y02614D01*
X02804D01*
Y02613D01*
X02805D01*
Y02613D01*
X02805D01*
Y02613D01*
X02805D01*
Y02612D01*
X02806D01*
Y02612D01*
X02806D01*
Y02611D01*
X02807D01*
Y02611D01*
X02807D01*
Y0261D01*
X02808D01*
Y02609D01*
X02808D01*
Y02609D01*
X02808D01*
Y02608D01*
X02809D01*
Y02608D01*
X02809D01*
Y02608D01*
X0281D01*
Y02607D01*
X0281D01*
Y02607D01*
X02811D01*
Y02606D01*
X02811D01*
Y02606D01*
X02811D01*
Y02605D01*
X02812D01*
Y02604D01*
X02813D01*
Y02604D01*
X02813D01*
Y02603D01*
X02813D01*
Y02603D01*
X02814D01*
Y02602D01*
X02814D01*
Y02601D01*
X02815D01*
Y026D01*
X02816D01*
Y026D01*
X02816D01*
Y02599D01*
X02817D01*
Y02599D01*
X02817D01*
Y02598D01*
X02818D01*
Y02598D01*
X02818D01*
Y02597D01*
X02819D01*
Y02597D01*
X02819D01*
Y02597D01*
X02819D01*
Y02596D01*
X0282D01*
Y02596D01*
X0282D01*
Y02594D01*
X02821D01*
Y02594D01*
X02821D01*
Y02594D01*
X02822D01*
Y02593D01*
X02822D01*
Y02593D01*
X02822D01*
Y02592D01*
X02823D01*
Y02592D01*
X02823D01*
Y02591D01*
X02824D01*
Y02591D01*
X02824D01*
Y02591D01*
X02824D01*
Y0259D01*
X02825D01*
Y02588D01*
X02826D01*
Y02588D01*
X02826D01*
Y02588D01*
X02827D01*
Y02587D01*
X02827D01*
Y02586D01*
X02828D01*
Y02586D01*
X02828D01*
Y02585D01*
X02829D01*
Y02585D01*
X02829D01*
Y02584D01*
X0283D01*
Y02584D01*
X0283D01*
Y02583D01*
X0283D01*
Y02582D01*
X02831D01*
Y02582D01*
X02831D01*
Y02581D01*
X02832D01*
Y02581D01*
X02832D01*
Y0258D01*
X02832D01*
Y0258D01*
X02833D01*
Y0258D01*
X02833D01*
Y02579D01*
X02834D01*
Y02579D01*
X02834D01*
Y02578D01*
X02835D01*
Y02577D01*
X02835D01*
Y02577D01*
X02835D01*
Y02576D01*
X02836D01*
Y02576D01*
X02836D01*
Y02575D01*
X02837D01*
Y02575D01*
X02837D01*
Y02574D01*
X02838D01*
Y02574D01*
X02838D01*
Y02573D01*
X02838D01*
Y02572D01*
X02839D01*
Y02572D01*
X02839D01*
Y02571D01*
X0284D01*
Y02571D01*
X0284D01*
Y0257D01*
X02841D01*
Y0257D01*
X02841D01*
Y02569D01*
X02841D01*
Y02569D01*
X02842D01*
Y02568D01*
X02842D01*
Y02567D01*
X02843D01*
Y02567D01*
X02843D01*
Y02566D01*
X02843D01*
Y02566D01*
X02844D01*
Y02566D01*
X02844D01*
Y02565D01*
X02845D01*
Y02564D01*
X02846D01*
Y02563D01*
X02846D01*
Y02562D01*
X02847D01*
Y02561D01*
X02847D01*
Y02561D01*
X02848D01*
Y02561D01*
X02848D01*
Y0256D01*
X02849D01*
Y02559D01*
X02849D01*
Y02558D01*
X02849D01*
Y02558D01*
X0285D01*
Y02558D01*
X0285D01*
Y02557D01*
X02851D01*
Y02557D01*
X02851D01*
Y02556D01*
X02852D01*
Y02555D01*
X02852D01*
Y02555D01*
X02852D01*
Y02554D01*
X02853D01*
Y02554D01*
X02853D01*
Y02553D01*
X02854D01*
Y02553D01*
X02854D01*
Y02552D01*
X02854D01*
Y02552D01*
X02855D01*
Y0255D01*
X02855D01*
Y0255D01*
X02856D01*
Y0255D01*
X02856D01*
Y02549D01*
X02857D01*
Y02549D01*
X02857D01*
Y02547D01*
X02857D01*
Y02547D01*
X02858D01*
Y02547D01*
X02858D01*
Y02546D01*
X02859D01*
Y02546D01*
X02859D01*
Y02545D01*
X0286D01*
Y02545D01*
X0286D01*
Y02543D01*
X02861D01*
Y02543D01*
X02861D01*
Y02542D01*
X02862D01*
Y02542D01*
X02862D01*
Y02541D01*
X02863D01*
Y02541D01*
X02863D01*
Y02539D01*
X02863D01*
Y02539D01*
X02864D01*
Y02539D01*
X02864D01*
Y02538D01*
X02865D01*
Y02538D01*
X02865D01*
Y02536D01*
X02865D01*
Y02536D01*
X02866D01*
Y02536D01*
X02866D01*
Y02535D01*
X02867D01*
Y02534D01*
X02867D01*
Y02534D01*
X02868D01*
Y02534D01*
X02868D01*
Y02532D01*
X02868D01*
Y02532D01*
X02869D01*
Y02531D01*
X02869D01*
Y02531D01*
X0287D01*
Y02531D01*
X0287D01*
Y02529D01*
X02871D01*
Y02529D01*
X02871D01*
Y02528D01*
X02871D01*
Y02528D01*
X02872D01*
Y02527D01*
X02872D01*
Y02526D01*
X02873D01*
Y02526D01*
X02873D01*
Y02525D01*
X02874D01*
Y02525D01*
X02874D01*
Y02524D01*
X02874D01*
Y02524D01*
X02875D01*
Y02523D01*
X02875D01*
Y02522D01*
X02876D01*
Y02522D01*
X02876D01*
Y02521D01*
X02876D01*
Y02521D01*
X02877D01*
Y0252D01*
X02877D01*
Y02519D01*
X02878D01*
Y02519D01*
X02878D01*
Y02518D01*
X02879D01*
Y02517D01*
X02879D01*
Y02517D01*
X02879D01*
Y02516D01*
X0288D01*
Y02515D01*
X0288D01*
Y02515D01*
X02881D01*
Y02514D01*
X02881D01*
Y02513D01*
X02882D01*
Y02513D01*
X02882D01*
Y02512D01*
X02882D01*
Y02512D01*
X02883D01*
Y02512D01*
X02883D01*
Y0251D01*
X02884D01*
Y02509D01*
X02885D01*
Y02509D01*
X02885D01*
Y02508D01*
X02885D01*
Y02507D01*
X02886D01*
Y02506D01*
X02886D01*
Y02506D01*
X02887D01*
Y02506D01*
X02887D01*
Y02505D01*
X02887D01*
Y02504D01*
X02888D01*
Y02503D01*
X02888D01*
Y02503D01*
X02889D01*
Y02502D01*
X02889D01*
Y02501D01*
X0289D01*
Y02501D01*
X0289D01*
Y025D01*
X0289D01*
Y025D01*
X02891D01*
Y02499D01*
X02891D01*
Y02498D01*
X02892D01*
Y02498D01*
X02892D01*
Y02497D01*
X02893D01*
Y02495D01*
X02893D01*
Y02495D01*
X02894D01*
Y02494D01*
X02894D01*
Y02493D01*
X02895D01*
Y02493D01*
X02895D01*
Y02492D01*
X02895D01*
Y02492D01*
X02896D01*
Y02491D01*
X02896D01*
Y0249D01*
X02897D01*
Y0249D01*
X02897D01*
Y02489D01*
X02898D01*
Y02488D01*
X02898D01*
Y02487D01*
X02899D01*
Y02486D01*
X02899D01*
Y02485D01*
X029D01*
Y02484D01*
X029D01*
Y02484D01*
X02901D01*
Y02484D01*
X02901D01*
Y02483D01*
X02901D01*
Y02482D01*
X02902D01*
Y02482D01*
X02902D01*
Y02481D01*
X02903D01*
Y0248D01*
X02903D01*
Y0248D01*
X02904D01*
Y02475D01*
X02903D01*
Y02474D01*
X02903D01*
Y02474D01*
X02902D01*
Y02473D01*
X02902D01*
Y02473D01*
X02901D01*
Y02473D01*
X02901D01*
Y02472D01*
X02901D01*
Y02472D01*
X029D01*
Y02471D01*
X02898D01*
Y02471D01*
X02897D01*
Y02471D01*
X02896D01*
Y02471D01*
X02895D01*
Y02471D01*
X02894D01*
Y02472D01*
X02893D01*
Y02473D01*
X02893D01*
Y02473D01*
X02892D01*
Y02474D01*
X02891D01*
Y02475D01*
X02891D01*
Y02476D01*
X0289D01*
Y02476D01*
X0289D01*
Y02477D01*
X0289D01*
Y02477D01*
X02889D01*
Y02478D01*
X02889D01*
Y02479D01*
X02888D01*
Y0248D01*
X02888D01*
Y0248D01*
X02887D01*
Y02481D01*
X02887D01*
Y02481D01*
X02887D01*
Y02482D01*
X02886D01*
Y02483D01*
X02886D01*
Y02484D01*
X02885D01*
Y02484D01*
X02885D01*
Y02485D01*
X02885D01*
Y02486D01*
X02884D01*
Y02487D01*
X02883D01*
Y02488D01*
X02883D01*
Y02488D01*
X02882D01*
Y02489D01*
X02882D01*
Y02489D01*
X02882D01*
Y0249D01*
X02881D01*
Y02491D01*
X02881D01*
Y02491D01*
X0288D01*
Y02492D01*
X0288D01*
Y02493D01*
X02879D01*
Y02494D01*
X02879D01*
Y02495D01*
X02878D01*
Y02495D01*
X02878D01*
Y02496D01*
X02877D01*
Y02497D01*
X02877D01*
Y02497D01*
X02876D01*
Y02498D01*
X02876D01*
Y02498D01*
X02876D01*
Y02499D01*
X02875D01*
Y025D01*
X02875D01*
Y025D01*
X02874D01*
Y02501D01*
X02874D01*
Y02501D01*
X02874D01*
Y02503D01*
X02873D01*
Y02503D01*
X02873D01*
Y02503D01*
X02872D01*
Y02504D01*
X02872D01*
Y02504D01*
X02871D01*
Y02506D01*
X02871D01*
Y02506D01*
X02871D01*
Y02506D01*
X0287D01*
Y02507D01*
X0287D01*
Y02508D01*
X02869D01*
Y02509D01*
X02868D01*
Y0251D01*
X02868D01*
Y0251D01*
X02868D01*
Y02512D01*
X02867D01*
Y02512D01*
X02867D01*
Y02512D01*
X02866D01*
Y02513D01*
X02866D01*
Y02513D01*
X02865D01*
Y02514D01*
X02865D01*
Y02515D01*
X02865D01*
Y02515D01*
X02864D01*
Y02516D01*
X02863D01*
Y02518D01*
X02863D01*
Y02518D01*
X02863D01*
Y02519D01*
X02862D01*
Y02519D01*
X02862D01*
Y0252D01*
X02861D01*
Y02521D01*
X02861D01*
Y02521D01*
X0286D01*
Y02522D01*
X0286D01*
Y02522D01*
X0286D01*
Y02523D01*
X02859D01*
Y02523D01*
X02859D01*
Y02523D01*
X02858D01*
Y02525D01*
X02858D01*
Y02525D01*
X02857D01*
Y02526D01*
X02857D01*
Y02526D01*
X02857D01*
Y02527D01*
X02856D01*
Y02528D01*
X02856D01*
Y02528D01*
X02855D01*
Y02529D01*
X02855D01*
Y02529D01*
X02854D01*
Y0253D01*
X02854D01*
Y0253D01*
X02854D01*
Y02531D01*
X02853D01*
Y02532D01*
X02853D01*
Y02532D01*
X02852D01*
Y02533D01*
X02852D01*
Y02534D01*
X02851D01*
Y02535D01*
X0285D01*
Y02536D01*
X0285D01*
Y02536D01*
X02849D01*
Y02537D01*
X02849D01*
Y02537D01*
X02849D01*
Y02538D01*
X02848D01*
Y02539D01*
X02848D01*
Y02539D01*
X02847D01*
Y0254D01*
X02847D01*
Y0254D01*
X02846D01*
Y02541D01*
X02846D01*
Y02542D01*
X02845D01*
Y02543D01*
X02845D01*
Y02544D01*
X02844D01*
Y02545D01*
X02843D01*
Y02545D01*
X02843D01*
Y02546D01*
X02843D01*
Y02547D01*
X02842D01*
Y02547D01*
X02842D01*
Y02547D01*
X02841D01*
Y02548D01*
X02841D01*
Y02548D01*
X02841D01*
Y02549D01*
X0284D01*
Y0255D01*
X0284D01*
Y0255D01*
X02839D01*
Y02551D01*
X02839D01*
Y02551D01*
X02838D01*
Y02552D01*
X02838D01*
Y02553D01*
X02837D01*
Y02554D01*
X02837D01*
Y02555D01*
X02836D01*
Y02555D01*
X02835D01*
Y02556D01*
X02835D01*
Y02556D01*
X02835D01*
Y02557D01*
X02834D01*
Y02557D01*
X02834D01*
Y02558D01*
X02833D01*
Y02558D01*
X02833D01*
Y02559D01*
X02832D01*
Y0256D01*
X02832D01*
Y0256D01*
X02832D01*
Y02561D01*
X02831D01*
Y02561D01*
X02831D01*
Y02561D01*
X0283D01*
Y02562D01*
X0283D01*
Y02563D01*
X0283D01*
Y02564D01*
X02829D01*
Y02564D01*
X02829D01*
Y02565D01*
X02828D01*
Y02566D01*
X02827D01*
Y02566D01*
X02827D01*
Y02567D01*
X02827D01*
Y02568D01*
X02826D01*
Y02569D01*
X02825D01*
Y02569D01*
X02825D01*
Y02569D01*
X02824D01*
Y0257D01*
X02824D01*
Y0257D01*
X02824D01*
Y02571D01*
X02823D01*
Y02571D01*
X02823D01*
Y02572D01*
X02822D01*
Y02573D01*
X02822D01*
Y02573D01*
X02822D01*
Y02574D01*
X02821D01*
Y02574D01*
X02821D01*
Y02575D01*
X0282D01*
Y02575D01*
X0282D01*
Y02576D01*
X02819D01*
Y02577D01*
X02819D01*
Y02578D01*
X02818D01*
Y02579D01*
X02817D01*
Y02579D01*
X02817D01*
Y0258D01*
X02816D01*
Y0258D01*
X02816D01*
Y0258D01*
X02816D01*
Y02581D01*
X02815D01*
Y02581D01*
X02815D01*
Y02582D01*
X02814D01*
Y02582D01*
X02814D01*
Y02583D01*
X02813D01*
Y02584D01*
X02813D01*
Y02584D01*
X02813D01*
Y02585D01*
X02812D01*
Y02585D01*
X02812D01*
Y02586D01*
X02811D01*
Y02586D01*
X02811D01*
Y02586D01*
X02811D01*
Y02587D01*
X0281D01*
Y02587D01*
X0281D01*
Y02588D01*
X02809D01*
Y02588D01*
X02809D01*
Y02589D01*
X02808D01*
Y0259D01*
X02808D01*
Y0259D01*
X02808D01*
Y02591D01*
X02807D01*
Y02591D01*
X02807D01*
Y02591D01*
X02806D01*
Y02592D01*
X02806D01*
Y02593D01*
X02805D01*
Y02593D01*
X02805D01*
Y02594D01*
X02805D01*
Y02594D01*
X02804D01*
Y02594D01*
X02804D01*
Y02595D01*
X02803D01*
Y02595D01*
X02803D01*
Y02596D01*
X02802D01*
Y02597D01*
X02802D01*
Y02597D01*
X02802D01*
Y02598D01*
X02801D01*
Y02598D01*
X02801D01*
Y02599D01*
X028D01*
Y02599D01*
X028D01*
Y02599D01*
X028D01*
Y026D01*
X02799D01*
Y026D01*
X02799D01*
Y02601D01*
X02798D01*
Y02601D01*
X02798D01*
Y02602D01*
X02797D01*
Y02602D01*
X02797D01*
Y02602D01*
X02797D01*
Y02603D01*
X02796D01*
Y02603D01*
X02796D01*
Y02604D01*
X02795D01*
Y02604D01*
X02795D01*
Y02605D01*
X02794D01*
Y02605D01*
X02794D01*
Y02605D01*
X02794D01*
Y02606D01*
X02793D01*
Y02607D01*
X02793D01*
Y02608D01*
X02792D01*
Y02608D01*
X02792D01*
Y02608D01*
X02791D01*
Y02609D01*
X02791D01*
Y02609D01*
X02791D01*
Y0261D01*
X0279D01*
Y0261D01*
X0279D01*
Y0261D01*
X02789D01*
Y02611D01*
X02789D01*
Y02611D01*
X02789D01*
Y02612D01*
X02788D01*
Y02612D01*
X02788D01*
Y02613D01*
X02787D01*
Y02613D01*
X02787D01*
Y02613D01*
X02786D01*
Y02614D01*
X02786D01*
Y02614D01*
X02786D01*
Y02615D01*
X02785D01*
Y02615D01*
X02785D01*
Y02616D01*
X02784D01*
Y02616D01*
X02784D01*
Y02616D01*
X02783D01*
Y02617D01*
X02783D01*
Y02617D01*
X02783D01*
Y02618D01*
X02782D01*
Y02618D01*
X02782D01*
Y02618D01*
X02781D01*
Y02619D01*
X02781D01*
Y02619D01*
X0278D01*
Y0262D01*
X0278D01*
Y0262D01*
X0278D01*
Y02621D01*
X02779D01*
Y02621D01*
X02779D01*
Y02621D01*
X02778D01*
Y02622D01*
X02778D01*
Y02622D01*
X02778D01*
Y02623D01*
X02777D01*
Y02623D01*
X02777D01*
Y02624D01*
X02776D01*
Y02624D01*
X02776D01*
Y02624D01*
X02775D01*
Y02625D01*
X02774D01*
Y02625D01*
X02774D01*
Y02626D01*
X02773D01*
Y02626D01*
X02773D01*
Y02627D01*
X02772D01*
Y02627D01*
X02772D01*
Y02627D01*
X02772D01*
Y02628D01*
X02771D01*
Y02628D01*
X02771D01*
Y02629D01*
X0277D01*
Y02629D01*
X0277D01*
Y02629D01*
X0277D01*
Y0263D01*
X02769D01*
Y0263D01*
X02769D01*
Y02631D01*
X02768D01*
Y02631D01*
X02768D01*
Y02632D01*
X02767D01*
Y02632D01*
X02767D01*
Y02632D01*
X02767D01*
Y02633D01*
X02766D01*
Y02633D01*
X02766D01*
Y02634D01*
X02764D01*
Y02634D01*
X02764D01*
Y02635D01*
X02764D01*
Y02635D01*
X02763D01*
Y02635D01*
X02763D01*
Y02636D01*
X02762D01*
Y02637D01*
X02761D01*
Y02637D01*
X02761D01*
Y02638D01*
X0276D01*
Y02638D01*
X02759D01*
Y02638D01*
X02759D01*
Y02639D01*
X02758D01*
Y02639D01*
X02758D01*
Y0264D01*
X02757D01*
Y0264D01*
X02756D01*
Y0264D01*
X02756D01*
Y02641D01*
X02755D01*
Y02641D01*
X02755D01*
Y02642D01*
X02753D01*
Y02642D01*
X02753D01*
Y02643D01*
X02752D01*
Y02643D01*
X02751D01*
Y02643D01*
X0275D01*
Y02644D01*
X02749D01*
Y02644D01*
X02749D01*
Y02645D01*
X02748D01*
Y02645D01*
X02746D01*
Y02646D01*
X02745D01*
Y02646D01*
X02738D01*
Y02646D01*
X02737D01*
Y02645D01*
X02737D01*
Y02645D01*
X02736D01*
Y02644D01*
X02736D01*
Y02644D01*
X02734D01*
Y02643D01*
X02734D01*
Y02643D01*
X02734D01*
Y02643D01*
X02733D01*
Y02642D01*
X02733D01*
Y02642D01*
X02732D01*
Y02641D01*
X02732D01*
Y02641D01*
X02731D01*
Y0264D01*
X02731D01*
Y0264D01*
X02731D01*
Y0264D01*
X0273D01*
Y02639D01*
X0273D01*
Y02639D01*
X02729D01*
Y02638D01*
X02729D01*
Y02638D01*
X02728D01*
Y02638D01*
X02728D01*
Y02637D01*
X02728D01*
Y02637D01*
X02727D01*
Y02635D01*
X02727D01*
Y02635D01*
X02726D01*
Y02635D01*
X02726D01*
Y02634D01*
X02726D01*
Y02634D01*
X02725D01*
Y02633D01*
X02725D01*
Y02632D01*
X02724D01*
Y02632D01*
X02724D01*
Y02631D01*
X02723D01*
Y0263D01*
X02723D01*
Y02629D01*
X02723D01*
Y02629D01*
X02722D01*
Y02628D01*
X02722D01*
Y02628D01*
X02721D01*
Y02627D01*
X02721D01*
Y02626D01*
X0272D01*
Y02625D01*
X0272D01*
Y02625D01*
X0272D01*
Y02624D01*
X02719D01*
Y02624D01*
X02719D01*
Y02623D01*
X02718D01*
Y02622D01*
X02718D01*
Y02621D01*
X02717D01*
Y02621D01*
X02717D01*
Y02619D01*
X02717D01*
Y02618D01*
X02716D01*
Y02618D01*
X02716D01*
Y02617D01*
X02715D01*
Y02616D01*
X02715D01*
Y02616D01*
X02714D01*
Y02614D01*
X02714D01*
Y02613D01*
X02713D01*
Y02613D01*
X02713D01*
Y02612D01*
X02712D01*
Y02611D01*
X02712D01*
Y0261D01*
X02712D01*
Y02609D01*
X02711D01*
Y02609D01*
X02711D01*
Y02607D01*
X0271D01*
Y02606D01*
X0271D01*
Y02605D01*
X02709D01*
Y02605D01*
X02709D01*
Y02604D01*
X02709D01*
Y02602D01*
X02708D01*
Y02602D01*
X02708D01*
Y02601D01*
X02707D01*
Y026D01*
X02707D01*
Y02599D01*
X02707D01*
Y02598D01*
X02706D01*
Y02598D01*
X02706D01*
Y02595D01*
X02705D01*
Y02594D01*
X02704D01*
Y02593D01*
X02704D01*
Y02592D01*
X02704D01*
Y02591D01*
X02703D01*
Y02591D01*
X02703D01*
Y02588D01*
X02702D01*
Y02588D01*
X02702D01*
Y02587D01*
X02701D01*
Y02586D01*
X02701D01*
Y02586D01*
X02701D01*
Y02583D01*
X027D01*
Y02583D01*
X027D01*
Y02581D01*
X02699D01*
Y02581D01*
X02699D01*
Y0258D01*
X02698D01*
Y02578D01*
X02698D01*
Y02578D01*
X02698D01*
Y02576D01*
X02697D01*
Y02576D01*
X02697D01*
Y02574D01*
X02696D01*
Y02573D01*
X02696D01*
Y02572D01*
X02696D01*
Y02571D01*
X02695D01*
Y02571D01*
X02695D01*
Y02568D01*
X02694D01*
Y02568D01*
X02694D01*
Y02566D01*
X02693D01*
Y02566D01*
X02693D01*
Y02565D01*
X02693D01*
Y02563D01*
X02692D01*
Y02563D01*
X02692D01*
Y02561D01*
X02691D01*
Y02561D01*
X02691D01*
Y0256D01*
X0269D01*
Y02558D01*
X0269D01*
Y02558D01*
X0269D01*
Y02556D01*
X02689D01*
Y02555D01*
X02689D01*
Y02555D01*
X02688D01*
Y02553D01*
X02687D01*
Y02551D01*
X02687D01*
Y0255D01*
X02687D01*
Y02549D01*
X02686D01*
Y02549D01*
X02686D01*
Y02548D01*
X02685D01*
Y02547D01*
X02685D01*
Y02546D01*
X02685D01*
Y02544D01*
X02684D01*
Y02544D01*
X02684D01*
Y02543D01*
X02683D01*
Y02542D01*
X02683D01*
Y02541D01*
X02682D01*
Y0254D01*
X02682D01*
Y02539D01*
X02682D01*
Y02538D01*
X02681D01*
Y02537D01*
X02681D01*
Y02537D01*
X0268D01*
Y02535D01*
X0268D01*
Y02534D01*
X02679D01*
Y02533D01*
X02679D01*
Y02532D01*
X02679D01*
Y02532D01*
X02678D01*
Y02531D01*
X02678D01*
Y02531D01*
X02677D01*
Y02529D01*
X02676D01*
Y02528D01*
X02676D01*
Y02527D01*
X02676D01*
Y02527D01*
X02675D01*
Y02525D01*
X02675D01*
Y02525D01*
X02674D01*
Y02525D01*
X02674D01*
Y02524D01*
X02674D01*
Y02523D01*
X02673D01*
Y02522D01*
X02672D01*
Y02521D01*
X02672D01*
Y02521D01*
X02671D01*
Y0252D01*
X02671D01*
Y0252D01*
X02671D01*
Y0252D01*
X0267D01*
Y02518D01*
X0267D01*
Y02518D01*
X02669D01*
Y02517D01*
X02669D01*
Y02517D01*
X02668D01*
Y02517D01*
X02668D01*
Y02516D01*
X02668D01*
Y02516D01*
X02667D01*
Y02515D01*
X02667D01*
Y02515D01*
X02666D01*
Y02514D01*
X02666D01*
Y02514D01*
X02665D01*
Y02514D01*
X02665D01*
Y02513D01*
X02664D01*
Y02513D01*
X02663D01*
Y02512D01*
X02663D01*
Y02512D01*
X02661D01*
Y02512D01*
X02661D01*
Y02511D01*
X02659D01*
Y02511D01*
X02658D01*
Y0251D01*
X02655D01*
Y0251D01*
X0265D01*
Y0251D01*
X02647D01*
Y02511D01*
X02647D01*
Y02511D01*
X02644D01*
Y02512D01*
X02643D01*
Y02512D01*
X02641D01*
Y02513D01*
X02641D01*
Y02513D01*
X02639D01*
Y02514D01*
X02639D01*
Y02514D01*
X02638D01*
Y02514D01*
X02637D01*
Y02515D01*
X02636D01*
Y02516D01*
X02636D01*
Y02516D01*
X02635D01*
Y02517D01*
X02634D01*
Y02517D01*
X02633D01*
Y02517D01*
X02633D01*
Y02518D01*
X02633D01*
Y02518D01*
X02632D01*
Y02519D01*
X02631D01*
Y0252D01*
X02631D01*
Y0252D01*
X0263D01*
Y0252D01*
X0263D01*
Y02521D01*
X0263D01*
Y02521D01*
X02629D01*
Y02522D01*
X02628D01*
Y02523D01*
X02628D01*
Y02523D01*
X02627D01*
Y02523D01*
X02627D01*
Y02524D01*
X02626D01*
Y02525D01*
X02626D01*
Y02525D01*
X02625D01*
Y02525D01*
X02625D01*
Y02526D01*
X02624D01*
Y02526D01*
X02624D01*
Y02527D01*
X02624D01*
Y02527D01*
X02623D01*
Y02528D01*
X02622D01*
Y02528D01*
X02622D01*
Y02528D01*
X02621D01*
Y02529D01*
X02621D01*
Y02529D01*
X02618D01*
Y0253D01*
X02618D01*
Y0253D01*
X02616D01*
Y02531D01*
X02613D01*
Y02531D01*
X02612D01*
Y02531D01*
X02611D01*
Y02531D01*
X02611D01*
Y02531D01*
X0261D01*
Y0253D01*
X02609D01*
Y02531D01*
X02608D01*
Y0253D01*
X02608D01*
Y0253D01*
X02607D01*
Y02529D01*
X02607D01*
Y02529D01*
X02606D01*
Y02528D01*
X02606D01*
Y02528D01*
X02605D01*
Y02528D01*
X02605D01*
Y02527D01*
X02605D01*
Y02527D01*
X02604D01*
Y02526D01*
X02604D01*
Y02526D01*
X02603D01*
Y02525D01*
X02603D01*
Y02525D01*
X02602D01*
Y02525D01*
X02602D01*
Y02524D01*
X02602D01*
Y02524D01*
X02601D01*
Y02523D01*
X02601D01*
Y02523D01*
X026D01*
Y02522D01*
X026D01*
Y02521D01*
X026D01*
Y02521D01*
X02599D01*
Y0252D01*
X02599D01*
Y0252D01*
X02598D01*
Y02519D01*
X02598D01*
Y02518D01*
X02597D01*
Y02517D01*
X02597D01*
Y02517D01*
X02597D01*
Y02517D01*
X02596D01*
Y02515D01*
X02596D01*
Y02515D01*
X02595D01*
Y02514D01*
X02595D01*
Y02513D01*
X02594D01*
Y02513D01*
X02594D01*
Y02511D01*
X02594D01*
Y02511D01*
X02593D01*
Y0251D01*
X02593D01*
Y0251D01*
X02592D01*
Y02509D01*
X02592D01*
Y02508D01*
X02592D01*
Y02507D01*
X02591D01*
Y02505D01*
X02591D01*
Y02505D01*
X0259D01*
Y02503D01*
X0259D01*
Y02503D01*
X02589D01*
Y02502D01*
X02589D01*
Y02501D01*
X02589D01*
Y02501D01*
X02588D01*
Y02499D01*
X02588D01*
Y02499D01*
X02587D01*
Y02497D01*
X02587D01*
Y02496D01*
X02586D01*
Y02495D01*
X02586D01*
Y02494D01*
X02585D01*
Y02491D01*
X02585D01*
Y02491D01*
X02584D01*
Y0249D01*
X02584D01*
Y02489D01*
X02583D01*
Y02488D01*
X02583D01*
Y02486D01*
X02583D01*
Y02486D01*
X02582D01*
Y02484D01*
X02582D01*
Y02484D01*
X02581D01*
Y02483D01*
X02581D01*
Y02481D01*
X02581D01*
Y0248D01*
X0258D01*
Y02478D01*
X0258D01*
Y02478D01*
X02579D01*
Y02477D01*
X02579D01*
Y02475D01*
X02578D01*
Y02474D01*
X02578D01*
Y02472D01*
X02578D01*
Y02471D01*
X02577D01*
Y02469D01*
X02577D01*
Y02468D01*
X02576D01*
Y02468D01*
X02576D01*
Y02466D01*
X02575D01*
Y02465D01*
X02575D01*
Y02463D01*
X02575D01*
Y02462D01*
X02574D01*
Y02462D01*
X02574D01*
Y0246D01*
X02573D01*
Y02459D01*
X02573D01*
Y02457D01*
X02572D01*
Y02456D01*
X02572D01*
Y02454D01*
X02572D01*
Y02452D01*
X02571D01*
Y02451D01*
X02571D01*
Y02449D01*
X0257D01*
Y02449D01*
X0257D01*
Y02446D01*
X0257D01*
Y02445D01*
X02569D01*
Y02444D01*
X02569D01*
Y02442D01*
X02568D01*
Y02442D01*
X02568D01*
Y02438D01*
X02567D01*
Y02438D01*
X02567D01*
Y02435D01*
X02567D01*
Y02435D01*
X02566D01*
Y02434D01*
X02566D01*
Y02431D01*
X02565D01*
Y02431D01*
X02565D01*
Y02427D01*
X02564D01*
Y02427D01*
X02564D01*
Y02425D01*
X02564D01*
Y02423D01*
X02563D01*
Y02422D01*
X02563D01*
Y02419D01*
X02562D01*
Y02419D01*
X02562D01*
Y02416D01*
X02561D01*
Y02416D01*
X02561D01*
Y02415D01*
X02561D01*
Y02412D01*
X0256D01*
Y02411D01*
X0256D01*
Y02408D01*
X02559D01*
Y02408D01*
X02559D01*
Y02405D01*
X02559D01*
Y02404D01*
X02558D01*
Y02403D01*
X02558D01*
Y024D01*
X02557D01*
Y02399D01*
X02557D01*
Y02396D01*
X02556D01*
Y02395D01*
X02556D01*
Y02395D01*
X02556D01*
Y02391D01*
X02555D01*
Y02391D01*
X02555D01*
Y02388D01*
X02554D01*
Y02387D01*
X02554D01*
Y02385D01*
X02553D01*
Y02383D01*
X02553D01*
Y02383D01*
X02553D01*
Y0238D01*
X02552D01*
Y02379D01*
X02552D01*
Y02375D01*
X02551D01*
Y02375D01*
X02551D01*
Y02375D01*
X0255D01*
Y02371D01*
X0255D01*
Y02371D01*
X0255D01*
Y02367D01*
X02549D01*
Y02366D01*
X02549D01*
Y02365D01*
X02548D01*
Y02362D01*
X02548D01*
Y02361D01*
X02548D01*
Y02358D01*
X02547D01*
Y02358D01*
X02547D01*
Y02356D01*
X02546D01*
Y02355D01*
X02547D01*
Y02355D01*
X02546D01*
Y02354D01*
X02546D01*
Y02353D01*
X02545D01*
Y0235D01*
X02545D01*
Y0235D01*
X02545D01*
Y02346D01*
X02544D01*
Y02346D01*
X02544D01*
Y02344D01*
X02543D01*
Y02342D01*
X02543D01*
Y02341D01*
X02542D01*
Y02338D01*
X02542D01*
Y02337D01*
X02542D01*
Y02334D01*
X02541D01*
Y02334D01*
X02541D01*
Y02333D01*
X0254D01*
Y0233D01*
X0254D01*
Y02329D01*
X0254D01*
Y02326D01*
X02539D01*
Y02325D01*
X02539D01*
Y02323D01*
X02538D01*
Y02321D01*
X02538D01*
Y02321D01*
X02537D01*
Y02317D01*
X02537D01*
Y02317D01*
X02537D01*
Y02314D01*
X02536D01*
Y02313D01*
X02536D01*
Y02312D01*
X02535D01*
Y02309D01*
X02535D01*
Y02309D01*
X02534D01*
Y02306D01*
X02534D01*
Y02305D01*
X02534D01*
Y02304D01*
X02533D01*
Y02301D01*
X02533D01*
Y02301D01*
X02532D01*
Y02298D01*
X02532D01*
Y02297D01*
X02531D01*
Y02295D01*
X02531D01*
Y02294D01*
X02531D01*
Y02293D01*
X0253D01*
Y0229D01*
X0253D01*
Y0229D01*
X02529D01*
Y02286D01*
X02529D01*
Y02286D01*
X02529D01*
Y02284D01*
X02528D01*
Y02282D01*
X02528D01*
Y02282D01*
X02527D01*
Y02279D01*
X02527D01*
Y02279D01*
X02526D01*
Y02276D01*
X02526D01*
Y02275D01*
X02526D01*
Y02274D01*
X02525D01*
Y02272D01*
X02525D01*
Y02271D01*
X02524D01*
Y02268D01*
X02524D01*
Y02268D01*
X02523D01*
Y02265D01*
X02523D01*
Y02265D01*
X02523D01*
Y02264D01*
X02522D01*
Y02261D01*
X02522D01*
Y0226D01*
X02521D01*
Y0226D01*
X02521D01*
Y0226D01*
X0252D01*
Y02259D01*
X0252D01*
Y02259D01*
X0252D01*
Y02258D01*
X02519D01*
Y02258D01*
X02519D01*
Y02257D01*
X02513D01*
Y02258D01*
X02512D01*
Y02258D01*
X02512D01*
Y02259D01*
X02512D01*
Y02259D01*
X02511D01*
Y0226D01*
X02511D01*
Y0226D01*
X0251D01*
Y0226D01*
X0251D01*
Y02261D01*
X02509D01*
Y02265D01*
X0251D01*
Y02265D01*
X0251D01*
Y02269D01*
X02511D01*
Y02269D01*
X02511D01*
Y0227D01*
X02512D01*
Y02272D01*
X02512D01*
Y02273D01*
X02512D01*
Y02276D01*
X02513D01*
Y02276D01*
X02513D01*
Y02279D01*
X02514D01*
Y0228D01*
X02514D01*
Y02281D01*
X02515D01*
Y02283D01*
X02515D01*
Y02284D01*
X02515D01*
Y02287D01*
X02516D01*
Y02287D01*
X02516D01*
Y02288D01*
X02517D01*
Y02292D01*
X02517D01*
Y02292D01*
X02518D01*
Y02295D01*
X02518D01*
Y02297D01*
X02519D01*
Y02298D01*
X02518D01*
Y02298D01*
X02519D01*
Y02299D01*
X02519D01*
Y02299D01*
X0252D01*
Y02303D01*
X0252D01*
Y02303D01*
X0252D01*
Y02306D01*
X02521D01*
Y02307D01*
X02521D01*
Y02308D01*
X02522D01*
Y02308D01*
X02521D01*
Y02309D01*
X02522D01*
Y02311D01*
X02522D01*
Y02311D01*
X02523D01*
Y02315D01*
X02523D01*
Y02317D01*
X02524D01*
Y02318D01*
X02524D01*
Y02319D01*
X02525D01*
Y02322D01*
X02525D01*
Y02323D01*
X02526D01*
Y02326D01*
X02526D01*
Y02326D01*
X02526D01*
Y02328D01*
X02527D01*
Y0233D01*
X02527D01*
Y02331D01*
X02528D01*
Y02335D01*
X02528D01*
Y02335D01*
X02529D01*
Y02337D01*
X02529D01*
Y02339D01*
X02529D01*
Y0234D01*
X0253D01*
Y02343D01*
X0253D01*
Y02344D01*
X02531D01*
Y02347D01*
X02531D01*
Y02347D01*
X02531D01*
Y02349D01*
X02532D01*
Y02351D01*
X02532D01*
Y02352D01*
X02533D01*
Y02355D01*
X02533D01*
Y02356D01*
X02534D01*
Y02359D01*
X02534D01*
Y0236D01*
X02534D01*
Y0236D01*
X02535D01*
Y02364D01*
X02535D01*
Y02364D01*
X02536D01*
Y02367D01*
X02536D01*
Y02368D01*
X02537D01*
Y0237D01*
X02537D01*
Y02372D01*
X02537D01*
Y02372D01*
X02538D01*
Y02376D01*
X02539D01*
Y02379D01*
X02539D01*
Y0238D01*
X0254D01*
Y0238D01*
X0254D01*
Y02384D01*
X0254D01*
Y02384D01*
X02541D01*
Y02388D01*
X02541D01*
Y02388D01*
X02542D01*
Y0239D01*
X02542D01*
Y02392D01*
X02542D01*
Y02392D01*
X02543D01*
Y02396D01*
X02544D01*
Y02399D01*
X02544D01*
Y024D01*
X02545D01*
Y02401D01*
X02545D01*
Y02404D01*
X02545D01*
Y02405D01*
X02546D01*
Y02408D01*
X02546D01*
Y02408D01*
X02547D01*
Y0241D01*
X02547D01*
Y02412D01*
X02548D01*
Y02413D01*
X02548D01*
Y02416D01*
X02548D01*
Y02416D01*
X02549D01*
Y02419D01*
X02549D01*
Y02419D01*
X02549D01*
Y0242D01*
X02549D01*
Y02421D01*
X0255D01*
Y02421D01*
X0255D01*
Y02423D01*
X0255D01*
Y02424D01*
X02551D01*
Y02427D01*
X02551D01*
Y02428D01*
X02552D01*
Y02429D01*
X02552D01*
Y02432D01*
X02553D01*
Y02432D01*
X02553D01*
Y02435D01*
X02553D01*
Y02435D01*
X02554D01*
Y02438D01*
X02554D01*
Y02439D01*
X02555D01*
Y02439D01*
X02555D01*
Y02443D01*
X02556D01*
Y02443D01*
X02556D01*
Y02446D01*
X02556D01*
Y02446D01*
X02557D01*
Y02447D01*
X02557D01*
Y02447D01*
X02557D01*
Y02448D01*
X02557D01*
Y02449D01*
X02558D01*
Y02449D01*
X02558D01*
Y02453D01*
X02559D01*
Y02453D01*
X02559D01*
Y02456D01*
X02559D01*
Y02456D01*
X0256D01*
Y02457D01*
X0256D01*
Y0246D01*
X02561D01*
Y0246D01*
X02561D01*
Y02462D01*
X02561D01*
Y02463D01*
X02562D01*
Y02464D01*
X02562D01*
Y02466D01*
X02563D01*
Y02467D01*
X02563D01*
Y02469D01*
X02564D01*
Y02469D01*
X02564D01*
Y02472D01*
X02564D01*
Y02472D01*
X02565D01*
Y02473D01*
X02565D01*
Y02476D01*
X02566D01*
Y02476D01*
X02566D01*
Y02479D01*
X02567D01*
Y02479D01*
X02567D01*
Y02481D01*
X02567D01*
Y02481D01*
X02568D01*
Y02482D01*
X02568D01*
Y02484D01*
X02569D01*
Y02484D01*
X02569D01*
Y02487D01*
X0257D01*
Y02487D01*
X0257D01*
Y02488D01*
X0257D01*
Y0249D01*
X02571D01*
Y02491D01*
X02571D01*
Y02493D01*
X02572D01*
Y02493D01*
X02572D01*
Y02495D01*
X02572D01*
Y02495D01*
X02573D01*
Y02496D01*
X02573D01*
Y02498D01*
X02574D01*
Y02499D01*
X02574D01*
Y025D01*
X02575D01*
Y02501D01*
X02575D01*
Y02501D01*
X02575D01*
Y02503D01*
X02576D01*
Y02504D01*
X02576D01*
Y02505D01*
X02577D01*
Y02506D01*
X02577D01*
Y02507D01*
X02578D01*
Y02508D01*
X02578D01*
Y02508D01*
X02578D01*
Y0251D01*
X02579D01*
Y02511D01*
X02579D01*
Y02512D01*
X0258D01*
Y02513D01*
X0258D01*
Y02513D01*
X02581D01*
Y02514D01*
X02581D01*
Y02515D01*
X02581D01*
Y02517D01*
X02582D01*
Y02517D01*
X02582D01*
Y02518D01*
X02583D01*
Y02519D01*
X02583D01*
Y02519D01*
X02583D01*
Y02521D01*
X02584D01*
Y02522D01*
X02585D01*
Y02523D01*
X02585D01*
Y02523D01*
X02586D01*
Y02524D01*
X02586D01*
Y02524D01*
X02586D01*
Y02525D01*
X02587D01*
Y02526D01*
X02587D01*
Y02527D01*
X02588D01*
Y02528D01*
X02589D01*
Y02529D01*
X02589D01*
Y02529D01*
X02589D01*
Y0253D01*
X0259D01*
Y0253D01*
X0259D01*
Y02531D01*
X02591D01*
Y02532D01*
X02591D01*
Y02532D01*
X02592D01*
Y02533D01*
X02592D01*
Y02533D01*
X02592D01*
Y02534D01*
X02593D01*
Y02534D01*
X02593D01*
Y02534D01*
X02594D01*
Y02535D01*
X02594D01*
Y02535D01*
X02594D01*
Y02536D01*
X02595D01*
Y02536D01*
X02595D01*
Y02536D01*
X02596D01*
Y02537D01*
X02596D01*
Y02537D01*
X02597D01*
Y02538D01*
X02597D01*
Y02538D01*
X02597D01*
Y02539D01*
X02598D01*
Y02539D01*
X02599D01*
Y02539D01*
X026D01*
Y0254D01*
X026D01*
Y0254D01*
X02602D01*
Y02541D01*
X02603D01*
Y02542D01*
X02604D01*
Y02542D01*
X02606D01*
Y02542D01*
X02607D01*
Y02543D01*
X02607D01*
Y02543D01*
X02619D01*
Y02543D01*
X0262D01*
Y02542D01*
X02622D01*
Y02542D01*
X02623D01*
Y02542D01*
X02624D01*
Y02541D01*
X02625D01*
Y02541D01*
X02626D01*
Y0254D01*
X02627D01*
Y0254D01*
X02628D01*
Y02539D01*
X02628D01*
Y02539D01*
X0263D01*
Y02539D01*
X0263D01*
Y02538D01*
X0263D01*
Y02538D01*
X02631D01*
Y02537D01*
X02631D01*
Y02537D01*
X02633D01*
Y02536D01*
X02633D01*
Y02536D01*
X02633D01*
Y02536D01*
X02634D01*
Y02535D01*
X02634D01*
Y02535D01*
X02635D01*
Y02534D01*
X02635D01*
Y02534D01*
X02635D01*
Y02534D01*
X02636D01*
Y02533D01*
X02636D01*
Y02533D01*
X02637D01*
Y02532D01*
X02637D01*
Y02532D01*
X02638D01*
Y02531D01*
X02638D01*
Y02531D01*
X02638D01*
Y02531D01*
X02639D01*
Y0253D01*
X02639D01*
Y0253D01*
X0264D01*
Y02529D01*
X0264D01*
Y02529D01*
X02641D01*
Y02528D01*
X02641D01*
Y02528D01*
X02641D01*
Y02528D01*
X02642D01*
Y02527D01*
X02642D01*
Y02527D01*
X02643D01*
Y02526D01*
X02643D01*
Y02526D01*
X02644D01*
Y02525D01*
X02646D01*
Y02525D01*
X02646D01*
Y02524D01*
X02646D01*
Y02524D01*
X02649D01*
Y02523D01*
X02649D01*
Y02523D01*
X02653D01*
Y02523D01*
X02654D01*
Y02523D01*
X02656D01*
Y02523D01*
X02657D01*
Y02524D01*
X02657D01*
Y02524D01*
X02657D01*
Y02525D01*
X02658D01*
Y02525D01*
X02658D01*
Y02525D01*
X02659D01*
Y02526D01*
X02659D01*
Y02526D01*
X0266D01*
Y02527D01*
X0266D01*
Y02527D01*
X0266D01*
Y02528D01*
X02661D01*
Y02528D01*
X02661D01*
Y02528D01*
X02662D01*
Y0253D01*
X02662D01*
Y0253D01*
X02663D01*
Y02531D01*
X02663D01*
Y02532D01*
X02664D01*
Y02533D01*
X02664D01*
Y02534D01*
X02665D01*
Y02535D01*
X02665D01*
Y02535D01*
X02665D01*
Y02536D01*
X02666D01*
Y02536D01*
X02666D01*
Y02537D01*
X02667D01*
Y02538D01*
X02667D01*
Y02539D01*
X02668D01*
Y0254D01*
X02668D01*
Y0254D01*
X02668D01*
Y02542D01*
X02669D01*
Y02542D01*
X02669D01*
Y02543D01*
X0267D01*
Y02544D01*
X0267D01*
Y02545D01*
X02671D01*
Y02546D01*
X02671D01*
Y02546D01*
X02671D01*
Y02547D01*
X02672D01*
Y02548D01*
X02672D01*
Y02549D01*
X02673D01*
Y02551D01*
X02673D01*
Y02551D01*
X02674D01*
Y02553D01*
X02674D01*
Y02553D01*
X02674D01*
Y02554D01*
X02675D01*
Y02555D01*
X02675D01*
Y02555D01*
X02676D01*
Y02557D01*
X02676D01*
Y02558D01*
X02676D01*
Y02558D01*
X02677D01*
Y0256D01*
X02677D01*
Y02561D01*
X02678D01*
Y02562D01*
X02678D01*
Y02563D01*
X02679D01*
Y02564D01*
X02679D01*
Y02565D01*
X02679D01*
Y02566D01*
X0268D01*
Y02567D01*
X0268D01*
Y02568D01*
X02681D01*
Y02569D01*
X02682D01*
Y02571D01*
X02682D01*
Y02572D01*
X02682D01*
Y02573D01*
X02683D01*
Y02575D01*
X02684D01*
Y02577D01*
X02684D01*
Y02577D01*
X02685D01*
Y02578D01*
X02685D01*
Y0258D01*
X02685D01*
Y0258D01*
X02686D01*
Y02582D01*
X02686D01*
Y02583D01*
X02687D01*
Y02583D01*
X02687D01*
Y02585D01*
X02687D01*
Y02585D01*
X02688D01*
Y02587D01*
X02689D01*
Y02589D01*
X02689D01*
Y0259D01*
X0269D01*
Y0259D01*
X0269D01*
Y02592D01*
X0269D01*
Y02592D01*
X02691D01*
Y02594D01*
X02691D01*
Y02595D01*
X02692D01*
Y02596D01*
X02692D01*
Y02597D01*
X02693D01*
Y02597D01*
X02693D01*
Y02599D01*
X02693D01*
Y02599D01*
X02694D01*
Y02601D01*
X02694D01*
Y02602D01*
X02695D01*
Y02602D01*
X02695D01*
Y02604D01*
X02696D01*
Y02604D01*
X02696D01*
Y02606D01*
X02696D01*
Y02606D01*
X02697D01*
Y02607D01*
X02697D01*
Y02609D01*
X02698D01*
Y02609D01*
X02698D01*
Y02611D01*
X02698D01*
Y02611D01*
X02699D01*
Y02613D01*
X02699D01*
Y02613D01*
X027D01*
Y02613D01*
X027D01*
Y02615D01*
X02701D01*
Y02616D01*
X02701D01*
Y02617D01*
X02702D01*
Y02618D01*
X02702D01*
Y02619D01*
X02703D01*
Y0262D01*
X02703D01*
Y02621D01*
X02704D01*
Y02621D01*
X02704D01*
Y02623D01*
X02705D01*
Y02624D01*
X02705D01*
Y02625D01*
X02706D01*
Y02626D01*
X02706D01*
Y02627D01*
X02707D01*
Y02627D01*
X02707D01*
Y02628D01*
X02707D01*
Y02629D01*
X02708D01*
Y02629D01*
X02708D01*
Y02631D01*
X02709D01*
Y02632D01*
X02709D01*
Y02632D01*
X02709D01*
Y02632D01*
X0271D01*
Y02633D01*
X0271D01*
Y02634D01*
X02711D01*
Y02635D01*
X02711D01*
Y02636D01*
X02712D01*
Y02636D01*
X02712D01*
Y02637D01*
X02712D01*
Y02638D01*
X02713D01*
Y02638D01*
X02713D01*
Y02639D01*
X02714D01*
Y0264D01*
X02714D01*
Y0264D01*
X02715D01*
Y0264D01*
X02715D01*
Y02641D01*
X02715D01*
Y02642D01*
X02716D01*
Y02643D01*
X02716D01*
Y02643D01*
X02717D01*
Y02644D01*
X02717D01*
Y02645D01*
X02718D01*
Y02645D01*
X02718D01*
Y02646D01*
X02719D01*
Y02646D01*
X02719D01*
Y02647D01*
X0272D01*
Y02648D01*
X0272D01*
Y02648D01*
X0272D01*
Y02649D01*
X02721D01*
Y02649D01*
X02721D01*
Y02649D01*
X02722D01*
Y0265D01*
X02722D01*
Y0265D01*
X02723D01*
Y02651D01*
X02723D01*
Y02651D01*
X02723D01*
Y02651D01*
X02724D01*
Y02652D01*
X02724D01*
Y02652D01*
X02725D01*
Y02653D01*
X02725D01*
Y02653D01*
X02726D01*
Y02654D01*
X02727D01*
Y02654D01*
X02728D01*
Y02655D01*
X02728D01*
Y02655D01*
X02729D01*
Y02656D01*
X0273D01*
Y02656D01*
X02731D01*
Y02657D01*
X02731D01*
Y02657D01*
X02732D01*
Y02657D01*
X02733D01*
Y02658D01*
X02735D01*
Y02658D01*
X02736D01*
Y02659D01*
X02748D01*
Y02658D01*
D02*
G37*
G36*
X02761Y0257D02*
X02762D01*
Y02569D01*
X02765D01*
Y02569D01*
X02766D01*
Y02569D01*
X02768D01*
Y02568D01*
X02769D01*
Y02568D01*
X0277D01*
Y02567D01*
X02772D01*
Y02567D01*
X02772D01*
Y02566D01*
X02773D01*
Y02566D01*
X02774D01*
Y02566D01*
X02774D01*
Y02565D01*
X02775D01*
Y02565D01*
X02776D01*
Y02564D01*
X02777D01*
Y02564D01*
X02777D01*
Y02564D01*
X02778D01*
Y02563D01*
X02779D01*
Y02563D01*
X02779D01*
Y02562D01*
X0278D01*
Y02562D01*
X02781D01*
Y02561D01*
X02781D01*
Y02561D01*
X02782D01*
Y02561D01*
X02783D01*
Y0256D01*
X02783D01*
Y02559D01*
X02785D01*
Y02558D01*
X02786D01*
Y02558D01*
X02786D01*
Y02558D01*
X02786D01*
Y02557D01*
X02787D01*
Y02557D01*
X02787D01*
Y02556D01*
X02789D01*
Y02556D01*
X02789D01*
Y02555D01*
X02789D01*
Y02555D01*
X0279D01*
Y02555D01*
X0279D01*
Y02554D01*
X02791D01*
Y02554D01*
X02791D01*
Y02553D01*
X02791D01*
Y02553D01*
X02792D01*
Y02553D01*
X02792D01*
Y02552D01*
X02793D01*
Y02552D01*
X02793D01*
Y02551D01*
X02794D01*
Y0255D01*
X02795D01*
Y0255D01*
X02796D01*
Y0255D01*
X02796D01*
Y02549D01*
X02797D01*
Y02549D01*
X02797D01*
Y02548D01*
X02797D01*
Y02548D01*
X02798D01*
Y02547D01*
X02798D01*
Y02547D01*
X02799D01*
Y02547D01*
X02799D01*
Y02546D01*
X028D01*
Y02545D01*
X028D01*
Y02545D01*
X02801D01*
Y02544D01*
X02802D01*
Y02544D01*
X02802D01*
Y02543D01*
X02802D01*
Y02543D01*
X02803D01*
Y02542D01*
X02803D01*
Y02542D01*
X02804D01*
Y02542D01*
X02804D01*
Y02541D01*
X02805D01*
Y02541D01*
X02805D01*
Y0254D01*
X02805D01*
Y0254D01*
X02806D01*
Y02539D01*
X02806D01*
Y02539D01*
X02807D01*
Y02537D01*
X02808D01*
Y02537D01*
X02808D01*
Y02536D01*
X02809D01*
Y02535D01*
X0281D01*
Y02535D01*
X0281D01*
Y02534D01*
X02811D01*
Y02534D01*
X02811D01*
Y02534D01*
X02811D01*
Y02533D01*
X02812D01*
Y02533D01*
X02812D01*
Y02532D01*
X02813D01*
Y02532D01*
X02813D01*
Y02531D01*
X02813D01*
Y02531D01*
X02814D01*
Y02531D01*
X02814D01*
Y0253D01*
X02815D01*
Y0253D01*
X02815D01*
Y02528D01*
X02816D01*
Y02528D01*
X02816D01*
Y02528D01*
X02816D01*
Y02527D01*
X02817D01*
Y02527D01*
X02817D01*
Y02526D01*
X02818D01*
Y02526D01*
X02818D01*
Y02525D01*
X02819D01*
Y02525D01*
X02819D01*
Y02525D01*
X02819D01*
Y02524D01*
X0282D01*
Y02524D01*
X0282D01*
Y02522D01*
X02821D01*
Y02522D01*
X02822D01*
Y02521D01*
X02822D01*
Y0252D01*
X02822D01*
Y0252D01*
X02823D01*
Y0252D01*
X02823D01*
Y02519D01*
X02824D01*
Y02519D01*
X02824D01*
Y02518D01*
X02824D01*
Y02517D01*
X02825D01*
Y02517D01*
X02825D01*
Y02516D01*
X02826D01*
Y02516D01*
X02826D01*
Y02515D01*
X02827D01*
Y02515D01*
X02827D01*
Y02514D01*
X02827D01*
Y02513D01*
X02828D01*
Y02513D01*
X02828D01*
Y02512D01*
X02829D01*
Y02512D01*
X02829D01*
Y02512D01*
X0283D01*
Y02511D01*
X0283D01*
Y02509D01*
X02831D01*
Y02509D01*
X02832D01*
Y02508D01*
X02832D01*
Y02507D01*
X02832D01*
Y02507D01*
X02833D01*
Y02506D01*
X02833D01*
Y02506D01*
X02834D01*
Y02505D01*
X02834D01*
Y02504D01*
X02835D01*
Y02504D01*
X02835D01*
Y02503D01*
X02835D01*
Y02503D01*
X02836D01*
Y02503D01*
X02836D01*
Y02502D01*
X02837D01*
Y02501D01*
X02838D01*
Y025D01*
X02838D01*
Y02499D01*
X02838D01*
Y02499D01*
X02839D01*
Y02498D01*
X02839D01*
Y02498D01*
X0284D01*
Y02497D01*
X0284D01*
Y02496D01*
X02841D01*
Y02496D01*
X02841D01*
Y02495D01*
X02841D01*
Y02495D01*
X02842D01*
Y02494D01*
X02842D01*
Y02493D01*
X02843D01*
Y02493D01*
X02843D01*
Y02491D01*
X02844D01*
Y0249D01*
X02844D01*
Y0249D01*
X02845D01*
Y0249D01*
X02845D01*
Y02489D01*
X02846D01*
Y02489D01*
X02846D01*
Y02488D01*
X02846D01*
Y02487D01*
X02847D01*
Y02487D01*
X02847D01*
Y02486D01*
X02848D01*
Y02486D01*
X02848D01*
Y02485D01*
X02849D01*
Y02484D01*
X02849D01*
Y02483D01*
X0285D01*
Y02482D01*
X0285D01*
Y02482D01*
X02851D01*
Y02481D01*
X02851D01*
Y0248D01*
X02852D01*
Y0248D01*
X02852D01*
Y02479D01*
X02852D01*
Y02479D01*
X02853D01*
Y02478D01*
X02853D01*
Y02477D01*
X02854D01*
Y02477D01*
X02854D01*
Y02476D01*
X02854D01*
Y02476D01*
X02855D01*
Y02474D01*
X02856D01*
Y02473D01*
X02856D01*
Y02473D01*
X02857D01*
Y02473D01*
X02857D01*
Y02472D01*
X02857D01*
Y02472D01*
X02858D01*
Y02471D01*
X02858D01*
Y0247D01*
X02859D01*
Y0247D01*
X02859D01*
Y02469D01*
X0286D01*
Y02468D01*
X0286D01*
Y02467D01*
X02861D01*
Y02466D01*
X02861D01*
Y02466D01*
X02862D01*
Y02465D01*
X02862D01*
Y02464D01*
X02863D01*
Y02464D01*
X02863D01*
Y02463D01*
X02863D01*
Y02463D01*
X02864D01*
Y02462D01*
X02864D01*
Y02461D01*
X02865D01*
Y02461D01*
X02865D01*
Y0246D01*
X02866D01*
Y02458D01*
X02866D01*
Y02458D01*
X02867D01*
Y02457D01*
X02867D01*
Y02457D01*
X02868D01*
Y02457D01*
X02868D01*
Y02455D01*
X02868D01*
Y02455D01*
X02869D01*
Y02454D01*
X02869D01*
Y02454D01*
X0287D01*
Y02454D01*
X0287D01*
Y02453D01*
X02871D01*
Y02451D01*
X02872D01*
Y02451D01*
X02872D01*
Y0245D01*
X02873D01*
Y02449D01*
X02873D01*
Y02448D01*
X02874D01*
Y02448D01*
X02874D01*
Y02447D01*
X02874D01*
Y02447D01*
X02875D01*
Y02446D01*
X02875D01*
Y02445D01*
X02876D01*
Y02445D01*
X02876D01*
Y02444D01*
X02876D01*
Y02444D01*
X02877D01*
Y02442D01*
X02877D01*
Y02439D01*
X02877D01*
Y02439D01*
X02876D01*
Y02437D01*
X02875D01*
Y02436D01*
X02874D01*
Y02436D01*
X02873D01*
Y02435D01*
X02873D01*
Y02435D01*
X02868D01*
Y02436D01*
X02867D01*
Y02436D01*
X02866D01*
Y02437D01*
X02866D01*
Y02437D01*
X02865D01*
Y02438D01*
X02865D01*
Y02438D01*
X02865D01*
Y02439D01*
X02864D01*
Y0244D01*
X02863D01*
Y02441D01*
X02863D01*
Y02441D01*
X02863D01*
Y02442D01*
X02862D01*
Y02443D01*
X02862D01*
Y02443D01*
X02861D01*
Y02444D01*
X02861D01*
Y02444D01*
X0286D01*
Y02445D01*
X0286D01*
Y02445D01*
X0286D01*
Y02446D01*
X02859D01*
Y02447D01*
X02859D01*
Y02447D01*
X02858D01*
Y02448D01*
X02857D01*
Y02449D01*
X02857D01*
Y0245D01*
X02857D01*
Y02451D01*
X02856D01*
Y02451D01*
X02856D01*
Y02451D01*
X02855D01*
Y02453D01*
X02855D01*
Y02453D01*
X02854D01*
Y02454D01*
X02854D01*
Y02454D01*
X02854D01*
Y02454D01*
X02853D01*
Y02456D01*
X02852D01*
Y02457D01*
X02852D01*
Y02457D01*
X02852D01*
Y02458D01*
X02851D01*
Y02459D01*
X02851D01*
Y0246D01*
X0285D01*
Y0246D01*
X0285D01*
Y0246D01*
X02849D01*
Y02461D01*
X02849D01*
Y02462D01*
X02849D01*
Y02462D01*
X02848D01*
Y02463D01*
X02848D01*
Y02463D01*
X02847D01*
Y02465D01*
X02847D01*
Y02465D01*
X02846D01*
Y02466D01*
X02846D01*
Y02466D01*
X02846D01*
Y02467D01*
X02845D01*
Y02468D01*
X02845D01*
Y02468D01*
X02844D01*
Y02469D01*
X02844D01*
Y02469D01*
X02843D01*
Y0247D01*
X02843D01*
Y02471D01*
X02843D01*
Y02471D01*
X02842D01*
Y02472D01*
X02842D01*
Y02473D01*
X02841D01*
Y02473D01*
X02841D01*
Y02474D01*
X02841D01*
Y02475D01*
X0284D01*
Y02475D01*
X0284D01*
Y02476D01*
X02839D01*
Y02476D01*
X02839D01*
Y02476D01*
X02838D01*
Y02477D01*
X02838D01*
Y02478D01*
X02838D01*
Y02479D01*
X02837D01*
Y02479D01*
X02837D01*
Y0248D01*
X02836D01*
Y0248D01*
X02836D01*
Y02482D01*
X02835D01*
Y02482D01*
X02835D01*
Y02483D01*
X02834D01*
Y02483D01*
X02834D01*
Y02484D01*
X02833D01*
Y02485D01*
X02833D01*
Y02485D01*
X02832D01*
Y02486D01*
X02832D01*
Y02486D01*
X02832D01*
Y02487D01*
X02831D01*
Y02487D01*
X02831D01*
Y02489D01*
X0283D01*
Y0249D01*
X0283D01*
Y0249D01*
X02829D01*
Y0249D01*
X02829D01*
Y02492D01*
X02828D01*
Y02492D01*
X02828D01*
Y02493D01*
X02827D01*
Y02493D01*
X02827D01*
Y02493D01*
X02827D01*
Y02494D01*
X02826D01*
Y02494D01*
X02826D01*
Y02495D01*
X02825D01*
Y02496D01*
X02825D01*
Y02496D01*
X02824D01*
Y02497D01*
X02824D01*
Y02497D01*
X02824D01*
Y02498D01*
X02823D01*
Y02498D01*
X02823D01*
Y025D01*
X02822D01*
Y025D01*
X02822D01*
Y02501D01*
X02822D01*
Y02501D01*
X02821D01*
Y02501D01*
X02821D01*
Y02502D01*
X0282D01*
Y02502D01*
X0282D01*
Y02503D01*
X02819D01*
Y02504D01*
X02819D01*
Y02504D01*
X02819D01*
Y02505D01*
X02818D01*
Y02505D01*
X02818D01*
Y02506D01*
X02817D01*
Y02506D01*
X02817D01*
Y02507D01*
X02816D01*
Y02508D01*
X02816D01*
Y02508D01*
X02816D01*
Y02509D01*
X02815D01*
Y0251D01*
X02814D01*
Y0251D01*
X02814D01*
Y02511D01*
X02813D01*
Y02511D01*
X02813D01*
Y02512D01*
X02813D01*
Y02513D01*
X02812D01*
Y02513D01*
X02812D01*
Y02514D01*
X02811D01*
Y02514D01*
X02811D01*
Y02514D01*
X02811D01*
Y02515D01*
X0281D01*
Y02515D01*
X0281D01*
Y02516D01*
X02809D01*
Y02516D01*
X02809D01*
Y02517D01*
X02808D01*
Y02517D01*
X02808D01*
Y02517D01*
X02808D01*
Y02519D01*
X02807D01*
Y02519D01*
X02807D01*
Y0252D01*
X02806D01*
Y0252D01*
X02806D01*
Y0252D01*
X02805D01*
Y02521D01*
X02805D01*
Y02521D01*
X02805D01*
Y02522D01*
X02804D01*
Y02522D01*
X02804D01*
Y02523D01*
X02803D01*
Y02523D01*
X02802D01*
Y02524D01*
X02802D01*
Y02525D01*
X02801D01*
Y02526D01*
X028D01*
Y02527D01*
X028D01*
Y02528D01*
X02799D01*
Y02528D01*
X02799D01*
Y02529D01*
X02798D01*
Y02529D01*
X02798D01*
Y0253D01*
X02797D01*
Y0253D01*
X02797D01*
Y02531D01*
X02797D01*
Y02531D01*
X02796D01*
Y02531D01*
X02796D01*
Y02532D01*
X02795D01*
Y02532D01*
X02795D01*
Y02533D01*
X02794D01*
Y02533D01*
X02794D01*
Y02534D01*
X02794D01*
Y02534D01*
X02793D01*
Y02534D01*
X02793D01*
Y02535D01*
X02792D01*
Y02535D01*
X02792D01*
Y02536D01*
X02791D01*
Y02536D01*
X02791D01*
Y02536D01*
X02791D01*
Y02537D01*
X0279D01*
Y02537D01*
X0279D01*
Y02538D01*
X02789D01*
Y02538D01*
X02789D01*
Y02539D01*
X02789D01*
Y02539D01*
X02788D01*
Y02539D01*
X02788D01*
Y0254D01*
X02787D01*
Y0254D01*
X02787D01*
Y02541D01*
X02786D01*
Y02541D01*
X02786D01*
Y02542D01*
X02786D01*
Y02542D01*
X02785D01*
Y02542D01*
X02785D01*
Y02543D01*
X02784D01*
Y02543D01*
X02784D01*
Y02544D01*
X02783D01*
Y02544D01*
X02783D01*
Y02545D01*
X02782D01*
Y02545D01*
X02781D01*
Y02546D01*
X0278D01*
Y02546D01*
X0278D01*
Y02547D01*
X02779D01*
Y02547D01*
X02779D01*
Y02547D01*
X02778D01*
Y02548D01*
X02778D01*
Y02548D01*
X02778D01*
Y02549D01*
X02776D01*
Y02549D01*
X02776D01*
Y0255D01*
X02775D01*
Y0255D01*
X02775D01*
Y0255D01*
X02775D01*
Y02551D01*
X02773D01*
Y02551D01*
X02773D01*
Y02552D01*
X02772D01*
Y02553D01*
X0277D01*
Y02553D01*
X0277D01*
Y02553D01*
X0277D01*
Y02554D01*
X02768D01*
Y02554D01*
X02768D01*
Y02555D01*
X02767D01*
Y02555D01*
X02766D01*
Y02555D01*
X02765D01*
Y02556D01*
X02764D01*
Y02556D01*
X02764D01*
Y02557D01*
X02761D01*
Y02557D01*
X02761D01*
Y02558D01*
X02757D01*
Y02558D01*
X02756D01*
Y02558D01*
X02753D01*
Y02557D01*
X02752D01*
Y02557D01*
X02751D01*
Y02556D01*
X0275D01*
Y02556D01*
X0275D01*
Y02555D01*
X02749D01*
Y02555D01*
X02748D01*
Y02554D01*
X02747D01*
Y02553D01*
X02746D01*
Y02553D01*
X02745D01*
Y02552D01*
X02745D01*
Y02551D01*
X02745D01*
Y02551D01*
X02744D01*
Y0255D01*
X02743D01*
Y02549D01*
X02743D01*
Y02549D01*
X02742D01*
Y02548D01*
X02742D01*
Y02547D01*
X02742D01*
Y02547D01*
X02741D01*
Y02547D01*
X02741D01*
Y02546D01*
X0274D01*
Y02546D01*
X0274D01*
Y02545D01*
X02739D01*
Y02545D01*
X02739D01*
Y02544D01*
X02739D01*
Y02543D01*
X02738D01*
Y02543D01*
X02738D01*
Y02542D01*
X02737D01*
Y02542D01*
X02737D01*
Y02541D01*
X02737D01*
Y0254D01*
X02736D01*
Y02539D01*
X02735D01*
Y02538D01*
X02735D01*
Y02537D01*
X02734D01*
Y02537D01*
X02734D01*
Y02536D01*
X02734D01*
Y02535D01*
X02733D01*
Y02535D01*
X02733D01*
Y02534D01*
X02732D01*
Y02533D01*
X02732D01*
Y02532D01*
X02731D01*
Y02532D01*
X02731D01*
Y02531D01*
X02731D01*
Y0253D01*
X0273D01*
Y02529D01*
X0273D01*
Y02528D01*
X02729D01*
Y02528D01*
X02729D01*
Y02526D01*
X02728D01*
Y02526D01*
X02728D01*
Y02525D01*
X02728D01*
Y02524D01*
X02727D01*
Y02523D01*
X02727D01*
Y02522D01*
X02726D01*
Y02522D01*
X02726D01*
Y0252D01*
X02726D01*
Y0252D01*
X02725D01*
Y02518D01*
X02724D01*
Y02517D01*
X02724D01*
Y02516D01*
X02723D01*
Y02516D01*
X02723D01*
Y02514D01*
X02723D01*
Y02513D01*
X02722D01*
Y02512D01*
X02722D01*
Y02511D01*
X02721D01*
Y02511D01*
X02721D01*
Y02509D01*
X0272D01*
Y02507D01*
X0272D01*
Y02507D01*
X02719D01*
Y02506D01*
X02719D01*
Y02504D01*
X02718D01*
Y02502D01*
X02717D01*
Y02502D01*
X02717D01*
Y02501D01*
X02717D01*
Y025D01*
X02716D01*
Y02499D01*
X02716D01*
Y02497D01*
X02715D01*
Y02497D01*
X02715D01*
Y02495D01*
X02715D01*
Y02495D01*
X02714D01*
Y02494D01*
X02714D01*
Y02493D01*
X02713D01*
Y02493D01*
X02713D01*
Y0249D01*
X02712D01*
Y0249D01*
X02712D01*
Y02489D01*
X02712D01*
Y02488D01*
X02711D01*
Y02487D01*
X02711D01*
Y02486D01*
X0271D01*
Y02484D01*
X02709D01*
Y02484D01*
X02709D01*
Y02483D01*
X02709D01*
Y02482D01*
X02708D01*
Y02481D01*
X02708D01*
Y02479D01*
X02707D01*
Y02479D01*
X02707D01*
Y02478D01*
X02707D01*
Y02476D01*
X02706D01*
Y02475D01*
X02705D01*
Y02474D01*
X02705D01*
Y02473D01*
X02704D01*
Y02473D01*
X02704D01*
Y02472D01*
X02704D01*
Y02471D01*
X02703D01*
Y0247D01*
X02703D01*
Y0247D01*
X02702D01*
Y02469D01*
X02702D01*
Y02468D01*
X02701D01*
Y02468D01*
X02701D01*
Y02467D01*
X02701D01*
Y02465D01*
X027D01*
Y02464D01*
X02699D01*
Y02463D01*
X02699D01*
Y02463D01*
X02698D01*
Y02462D01*
X02698D01*
Y02462D01*
X02698D01*
Y02461D01*
X02697D01*
Y0246D01*
X02697D01*
Y0246D01*
X02696D01*
Y0246D01*
X02696D01*
Y02459D01*
X02696D01*
Y02458D01*
X02695D01*
Y02458D01*
X02695D01*
Y02457D01*
X02694D01*
Y02457D01*
X02694D01*
Y02457D01*
X02693D01*
Y02455D01*
X02692D01*
Y02454D01*
X02691D01*
Y02454D01*
X0269D01*
Y02453D01*
X0269D01*
Y02453D01*
X02689D01*
Y02452D01*
X02688D01*
Y02452D01*
X02687D01*
Y02451D01*
X02687D01*
Y02451D01*
X02685D01*
Y02451D01*
X02684D01*
Y0245D01*
X02675D01*
Y02451D01*
X02675D01*
Y02451D01*
X02672D01*
Y02451D01*
X02672D01*
Y02452D01*
X02671D01*
Y02452D01*
X02669D01*
Y02453D01*
X02668D01*
Y02453D01*
X02667D01*
Y02454D01*
X02667D01*
Y02454D01*
X02666D01*
Y02454D01*
X02665D01*
Y02455D01*
X02665D01*
Y02455D01*
X02664D01*
Y02456D01*
X02663D01*
Y02456D01*
X02663D01*
Y02457D01*
X02663D01*
Y02457D01*
X02662D01*
Y02457D01*
X02661D01*
Y02458D01*
X0266D01*
Y02458D01*
X0266D01*
Y02459D01*
X02659D01*
Y0246D01*
X02658D01*
Y0246D01*
X02657D01*
Y02461D01*
X02656D01*
Y02461D01*
X02656D01*
Y02462D01*
X02655D01*
Y02462D01*
X02655D01*
Y02462D01*
X02654D01*
Y02463D01*
X02653D01*
Y02463D01*
X02653D01*
Y02464D01*
X02652D01*
Y02464D01*
X02652D01*
Y02465D01*
X0265D01*
Y02465D01*
X0265D01*
Y02465D01*
X02649D01*
Y02466D01*
X02648D01*
Y02466D01*
X02647D01*
Y02467D01*
X02646D01*
Y02466D01*
X02646D01*
Y02467D01*
X02645D01*
Y02467D01*
X02645D01*
Y02468D01*
X02644D01*
Y02467D01*
X02644D01*
Y02467D01*
X02644D01*
Y02466D01*
X02643D01*
Y02467D01*
X02642D01*
Y02466D01*
X02641D01*
Y02466D01*
X02641D01*
Y02465D01*
X0264D01*
Y02465D01*
X0264D01*
Y02465D01*
X02638D01*
Y02464D01*
X02638D01*
Y02464D01*
X02638D01*
Y02463D01*
X02637D01*
Y02463D01*
X02637D01*
Y02462D01*
X02636D01*
Y02462D01*
X02636D01*
Y02462D01*
X02635D01*
Y02461D01*
X02635D01*
Y02461D01*
X02635D01*
Y0246D01*
X02634D01*
Y02459D01*
X02634D01*
Y02459D01*
X02633D01*
Y02458D01*
X02633D01*
Y02458D01*
X02633D01*
Y02457D01*
X02632D01*
Y02457D01*
X02632D01*
Y02457D01*
X02631D01*
Y02456D01*
X02631D01*
Y02455D01*
X0263D01*
Y02454D01*
X0263D01*
Y02454D01*
X0263D01*
Y02453D01*
X02629D01*
Y02451D01*
X02628D01*
Y02451D01*
X02628D01*
Y02451D01*
X02627D01*
Y02449D01*
X02627D01*
Y02449D01*
X02627D01*
Y02448D01*
X02626D01*
Y02446D01*
X02625D01*
Y02446D01*
X02625D01*
Y02446D01*
X02624D01*
Y02444D01*
X02624D01*
Y02444D01*
X02624D01*
Y02442D01*
X02623D01*
Y0244D01*
X02622D01*
Y0244D01*
X02622D01*
Y0244D01*
X02622D01*
Y02437D01*
X02621D01*
Y02435D01*
X0262D01*
Y02435D01*
X0262D01*
Y02435D01*
X02619D01*
Y02433D01*
X02619D01*
Y0243D01*
X02618D01*
Y0243D01*
X02618D01*
Y02429D01*
X02617D01*
Y02428D01*
X02617D01*
Y02427D01*
X02616D01*
Y02425D01*
X02616D01*
Y02425D01*
X02616D01*
Y02423D01*
X02615D01*
Y02423D01*
X02615D01*
Y02422D01*
X02614D01*
Y0242D01*
X02614D01*
Y02419D01*
X02613D01*
Y02417D01*
X02613D01*
Y02417D01*
X02613D01*
Y02415D01*
X02612D01*
Y02415D01*
X02612D01*
Y02414D01*
X02611D01*
Y02412D01*
X02611D01*
Y02411D01*
X02611D01*
Y02409D01*
X0261D01*
Y02409D01*
X0261D01*
Y02408D01*
X02609D01*
Y02406D01*
X02609D01*
Y02405D01*
X02608D01*
Y02403D01*
X02608D01*
Y02402D01*
X02608D01*
Y02401D01*
X02607D01*
Y02399D01*
X02607D01*
Y02399D01*
X02606D01*
Y02397D01*
X02606D01*
Y02396D01*
X02605D01*
Y02394D01*
X02605D01*
Y02394D01*
X02605D01*
Y02393D01*
X02605D01*
Y02392D01*
X02605D01*
Y02392D01*
X02604D01*
Y02389D01*
X02604D01*
Y02389D01*
X02603D01*
Y02387D01*
X02603D01*
Y02386D01*
X02602D01*
Y02385D01*
X02602D01*
Y02385D01*
X02602D01*
Y02384D01*
X02602D01*
Y02383D01*
X02602D01*
Y02383D01*
X02601D01*
Y0238D01*
X02601D01*
Y02379D01*
X026D01*
Y02377D01*
X026D01*
Y02376D01*
X026D01*
Y02375D01*
X02599D01*
Y02372D01*
X02598D01*
Y02369D01*
X02598D01*
Y02369D01*
X02597D01*
Y02367D01*
X02597D01*
Y02365D01*
X02597D01*
Y02364D01*
X02596D01*
Y02361D01*
X02595D01*
Y02358D01*
X02595D01*
Y02358D01*
X02594D01*
Y02357D01*
X02594D01*
Y02354D01*
X02594D01*
Y02353D01*
X02593D01*
Y0235D01*
X02593D01*
Y0235D01*
X02592D01*
Y02348D01*
X02592D01*
Y02346D01*
X02592D01*
Y02345D01*
X02591D01*
Y02343D01*
X02591D01*
Y02342D01*
X0259D01*
Y02339D01*
X0259D01*
Y02339D01*
X02589D01*
Y02338D01*
X02589D01*
Y02335D01*
X02589D01*
Y02334D01*
X02588D01*
Y02331D01*
X02588D01*
Y02331D01*
X02587D01*
Y02328D01*
X02587D01*
Y02326D01*
X02586D01*
Y02326D01*
X02586D01*
Y02323D01*
X02586D01*
Y02322D01*
X02585D01*
Y02319D01*
X02585D01*
Y02318D01*
X02584D01*
Y02317D01*
X02584D01*
Y02315D01*
X02583D01*
Y02314D01*
X02583D01*
Y02311D01*
X02583D01*
Y0231D01*
X02582D01*
Y02308D01*
X02582D01*
Y02308D01*
X02582D01*
Y02307D01*
X02582D01*
Y02306D01*
X02581D01*
Y02306D01*
X02581D01*
Y02302D01*
X02581D01*
Y02302D01*
X0258D01*
Y02298D01*
X0258D01*
Y02298D01*
X02579D01*
Y02297D01*
X02579D01*
Y02294D01*
X02578D01*
Y02294D01*
X02578D01*
Y0229D01*
X02578D01*
Y0229D01*
X02577D01*
Y02288D01*
X02577D01*
Y02286D01*
X02576D01*
Y02285D01*
X02576D01*
Y02282D01*
X02575D01*
Y02282D01*
X02575D01*
Y02278D01*
X02575D01*
Y02278D01*
X02574D01*
Y02277D01*
X02574D01*
Y02274D01*
X02573D01*
Y02273D01*
X02573D01*
Y0227D01*
X02572D01*
Y0227D01*
X02572D01*
Y02269D01*
X02572D01*
Y02268D01*
X02572D01*
Y02267D01*
X02572D01*
Y02267D01*
X02571D01*
Y02266D01*
X02571D01*
Y02263D01*
X0257D01*
Y02263D01*
X0257D01*
Y0226D01*
X0257D01*
Y0226D01*
X02569D01*
Y02259D01*
X02569D01*
Y02259D01*
X02568D01*
Y02258D01*
X02568D01*
Y02258D01*
X02567D01*
Y02257D01*
X02561D01*
Y02258D01*
X02561D01*
Y02258D01*
X02561D01*
Y02259D01*
X02559D01*
Y02259D01*
X02559D01*
Y0226D01*
X02559D01*
Y02261D01*
X02558D01*
Y02267D01*
X02559D01*
Y02268D01*
X02559D01*
Y02271D01*
X02559D01*
Y02271D01*
X0256D01*
Y02272D01*
X0256D01*
Y02275D01*
X02561D01*
Y02276D01*
X02561D01*
Y02279D01*
X02561D01*
Y02279D01*
X02562D01*
Y0228D01*
X02562D01*
Y02284D01*
X02563D01*
Y02284D01*
X02563D01*
Y02287D01*
X02564D01*
Y02288D01*
X02564D01*
Y0229D01*
X02564D01*
Y0229D01*
X02564D01*
Y02291D01*
X02564D01*
Y02292D01*
X02565D01*
Y02292D01*
X02565D01*
Y02295D01*
X02566D01*
Y02296D01*
X02566D01*
Y02299D01*
X02567D01*
Y023D01*
X02567D01*
Y02301D01*
X02567D01*
Y02304D01*
X02568D01*
Y02304D01*
X02568D01*
Y02308D01*
X02569D01*
Y02308D01*
X02569D01*
Y0231D01*
X0257D01*
Y02311D01*
X02569D01*
Y02312D01*
X0257D01*
Y02312D01*
X0257D01*
Y02312D01*
X0257D01*
Y02316D01*
X02571D01*
Y02316D01*
X02571D01*
Y0232D01*
X02572D01*
Y0232D01*
X02572D01*
Y02321D01*
X02572D01*
Y02324D01*
X02573D01*
Y02325D01*
X02573D01*
Y02328D01*
X02574D01*
Y02328D01*
X02574D01*
Y02331D01*
X02575D01*
Y02331D01*
X02574D01*
Y02332D01*
X02575D01*
Y02332D01*
X02575D01*
Y02333D01*
X02575D01*
Y02336D01*
X02576D01*
Y02336D01*
X02576D01*
Y0234D01*
X02577D01*
Y0234D01*
X02577D01*
Y02341D01*
X02578D01*
Y02344D01*
X02578D01*
Y02345D01*
X02578D01*
Y02347D01*
X02579D01*
Y02347D01*
X02579D01*
Y02351D01*
X0258D01*
Y02352D01*
X0258D01*
Y02352D01*
X02581D01*
Y02356D01*
X02581D01*
Y02356D01*
X02581D01*
Y02359D01*
X02582D01*
Y0236D01*
X02582D01*
Y02361D01*
X02583D01*
Y02361D01*
X02582D01*
Y02362D01*
X02583D01*
Y02363D01*
X02583D01*
Y02363D01*
X02583D01*
Y02367D01*
X02584D01*
Y02367D01*
X02584D01*
Y0237D01*
X02585D01*
Y02371D01*
X02585D01*
Y02371D01*
X02586D01*
Y02374D01*
X02586D01*
Y02374D01*
X02586D01*
Y02378D01*
X02587D01*
Y02378D01*
X02587D01*
Y02379D01*
X02588D01*
Y02381D01*
X02588D01*
Y02381D01*
X02589D01*
Y02385D01*
X02589D01*
Y02385D01*
X02589D01*
Y02388D01*
X0259D01*
Y02388D01*
X0259D01*
Y02388D01*
X02591D01*
Y02391D01*
X02591D01*
Y02391D01*
X02592D01*
Y02394D01*
X02592D01*
Y02396D01*
X02593D01*
Y02398D01*
X02593D01*
Y02399D01*
X02594D01*
Y02401D01*
X02594D01*
Y02401D01*
X02594D01*
Y02403D01*
X02595D01*
Y02404D01*
X02595D01*
Y02405D01*
X02596D01*
Y02407D01*
X02596D01*
Y02408D01*
X02597D01*
Y0241D01*
X02597D01*
Y0241D01*
X02597D01*
Y02411D01*
X02598D01*
Y02413D01*
X02598D01*
Y02414D01*
X02599D01*
Y02416D01*
X02599D01*
Y02416D01*
X026D01*
Y02418D01*
X026D01*
Y02419D01*
X026D01*
Y02419D01*
X026D01*
Y02419D01*
X026D01*
Y0242D01*
X02601D01*
Y02422D01*
X02601D01*
Y02423D01*
X02602D01*
Y02424D01*
X02602D01*
Y02426D01*
X02603D01*
Y02427D01*
X02603D01*
Y02428D01*
X02604D01*
Y0243D01*
X02604D01*
Y0243D01*
X02605D01*
Y02432D01*
X02605D01*
Y02432D01*
X02605D01*
Y02433D01*
X02606D01*
Y02435D01*
X02606D01*
Y02435D01*
X02607D01*
Y02437D01*
X02607D01*
Y02438D01*
X02608D01*
Y02439D01*
X02608D01*
Y0244D01*
X02608D01*
Y0244D01*
X02609D01*
Y02442D01*
X0261D01*
Y02444D01*
X0261D01*
Y02445D01*
X02611D01*
Y02445D01*
X02611D01*
Y02446D01*
X02611D01*
Y02447D01*
X02612D01*
Y02449D01*
X02612D01*
Y02449D01*
X02613D01*
Y02449D01*
X02613D01*
Y02451D01*
X02613D01*
Y02451D01*
X02614D01*
Y02453D01*
X02614D01*
Y02453D01*
X02615D01*
Y02454D01*
X02615D01*
Y02454D01*
X02616D01*
Y02454D01*
X02616D01*
Y02456D01*
X02616D01*
Y02456D01*
X02617D01*
Y02458D01*
X02618D01*
Y02459D01*
X02618D01*
Y0246D01*
X02619D01*
Y0246D01*
X02619D01*
Y02461D01*
X02619D01*
Y02461D01*
X0262D01*
Y02462D01*
X0262D01*
Y02463D01*
X02621D01*
Y02463D01*
X02621D01*
Y02464D01*
X02622D01*
Y02464D01*
X02622D01*
Y02466D01*
X02622D01*
Y02466D01*
X02623D01*
Y02467D01*
X02623D01*
Y02467D01*
X02624D01*
Y02468D01*
X02624D01*
Y02468D01*
X02624D01*
Y02468D01*
X02625D01*
Y02469D01*
X02625D01*
Y02469D01*
X02626D01*
Y0247D01*
X02626D01*
Y0247D01*
X02627D01*
Y02471D01*
X02627D01*
Y02471D01*
X02627D01*
Y02471D01*
X02628D01*
Y02472D01*
X02628D01*
Y02472D01*
X02629D01*
Y02473D01*
X02629D01*
Y02473D01*
X0263D01*
Y02473D01*
X0263D01*
Y02474D01*
X0263D01*
Y02474D01*
X02631D01*
Y02475D01*
X02631D01*
Y02475D01*
X02633D01*
Y02476D01*
X02633D01*
Y02476D01*
X02634D01*
Y02477D01*
X02635D01*
Y02477D01*
X02636D01*
Y02478D01*
X02636D01*
Y02478D01*
X02639D01*
Y02479D01*
X02639D01*
Y02479D01*
X0264D01*
Y02479D01*
X02641D01*
Y02479D01*
X02641D01*
Y02479D01*
X02649D01*
Y02479D01*
X0265D01*
Y02479D01*
X02651D01*
Y02478D01*
X02653D01*
Y02478D01*
X02653D01*
Y02477D01*
X02655D01*
Y02476D01*
X02656D01*
Y02476D01*
X02657D01*
Y02476D01*
X02657D01*
Y02475D01*
X02659D01*
Y02475D01*
X02659D01*
Y02474D01*
X0266D01*
Y02473D01*
X0266D01*
Y02473D01*
X02662D01*
Y02473D01*
X02663D01*
Y02472D01*
X02663D01*
Y02472D01*
X02663D01*
Y02471D01*
X02664D01*
Y02471D01*
X02665D01*
Y02471D01*
X02665D01*
Y0247D01*
X02666D01*
Y0247D01*
X02666D01*
Y02469D01*
X02667D01*
Y02468D01*
X02668D01*
Y02468D01*
X02669D01*
Y02468D01*
X02669D01*
Y02467D01*
X0267D01*
Y02466D01*
X02671D01*
Y02466D01*
X02672D01*
Y02465D01*
X02673D01*
Y02465D01*
X02673D01*
Y02465D01*
X02674D01*
Y02464D01*
X02675D01*
Y02464D01*
X02675D01*
Y02463D01*
X02676D01*
Y02463D01*
X02682D01*
Y02463D01*
X02682D01*
Y02464D01*
X02683D01*
Y02464D01*
X02684D01*
Y02465D01*
X02684D01*
Y02465D01*
X02685D01*
Y02465D01*
X02685D01*
Y02466D01*
X02685D01*
Y02466D01*
X02686D01*
Y02467D01*
X02686D01*
Y02467D01*
X02687D01*
Y02468D01*
X02687D01*
Y02469D01*
X02687D01*
Y02469D01*
X02688D01*
Y02471D01*
X02688D01*
Y02471D01*
X02689D01*
Y02472D01*
X02689D01*
Y02472D01*
X0269D01*
Y02473D01*
X0269D01*
Y02474D01*
X0269D01*
Y02474D01*
X02691D01*
Y02476D01*
X02691D01*
Y02476D01*
X02692D01*
Y02477D01*
X02692D01*
Y02478D01*
X02693D01*
Y02479D01*
X02693D01*
Y0248D01*
X02693D01*
Y0248D01*
X02694D01*
Y02482D01*
X02694D01*
Y02482D01*
X02695D01*
Y02483D01*
X02695D01*
Y02484D01*
X02696D01*
Y02484D01*
X02696D01*
Y02486D01*
X02696D01*
Y02486D01*
X02697D01*
Y02487D01*
X02697D01*
Y02488D01*
X02698D01*
Y02489D01*
X02698D01*
Y0249D01*
X02699D01*
Y02493D01*
X02699D01*
Y02493D01*
X027D01*
Y02494D01*
X027D01*
Y02495D01*
X02701D01*
Y02497D01*
X02701D01*
Y02498D01*
X02702D01*
Y02499D01*
X02702D01*
Y025D01*
X02703D01*
Y02502D01*
X02704D01*
Y02503D01*
X02704D01*
Y02504D01*
X02704D01*
Y02504D01*
X02705D01*
Y02505D01*
X02705D01*
Y02506D01*
X02706D01*
Y02507D01*
X02706D01*
Y02509D01*
X02707D01*
Y0251D01*
X02707D01*
Y0251D01*
X02707D01*
Y02512D01*
X02708D01*
Y02512D01*
X02708D01*
Y02514D01*
X02709D01*
Y02515D01*
X02709D01*
Y02516D01*
X0271D01*
Y02516D01*
X0271D01*
Y02518D01*
X02711D01*
Y0252D01*
X02712D01*
Y02521D01*
X02712D01*
Y02521D01*
X02712D01*
Y02523D01*
X02713D01*
Y02525D01*
X02714D01*
Y02525D01*
X02714D01*
Y02526D01*
X02715D01*
Y02527D01*
X02715D01*
Y02528D01*
X02715D01*
Y02529D01*
X02716D01*
Y02529D01*
X02716D01*
Y02531D01*
X02717D01*
Y02531D01*
X02717D01*
Y02532D01*
X02717D01*
Y02533D01*
X02718D01*
Y02534D01*
X02718D01*
Y02535D01*
X02719D01*
Y02535D01*
X02719D01*
Y02536D01*
X0272D01*
Y02537D01*
X0272D01*
Y02537D01*
X0272D01*
Y02539D01*
X02721D01*
Y02539D01*
X02721D01*
Y02541D01*
X02722D01*
Y02541D01*
X02722D01*
Y02542D01*
X02723D01*
Y02542D01*
X02723D01*
Y02542D01*
X02723D01*
Y02544D01*
X02724D01*
Y02546D01*
X02725D01*
Y02546D01*
X02725D01*
Y02547D01*
X02726D01*
Y02548D01*
X02726D01*
Y02548D01*
X02726D01*
Y02549D01*
X02727D01*
Y0255D01*
X02728D01*
Y02551D01*
X02728D01*
Y02552D01*
X02728D01*
Y02552D01*
X02729D01*
Y02553D01*
X02729D01*
Y02554D01*
X0273D01*
Y02554D01*
X0273D01*
Y02555D01*
X02731D01*
Y02555D01*
X02731D01*
Y02555D01*
X02731D01*
Y02556D01*
X02732D01*
Y02556D01*
X02732D01*
Y02557D01*
X02733D01*
Y02558D01*
X02733D01*
Y02558D01*
X02734D01*
Y02559D01*
X02734D01*
Y02559D01*
X02734D01*
Y0256D01*
X02735D01*
Y02561D01*
X02736D01*
Y02561D01*
X02737D01*
Y02562D01*
X02737D01*
Y02563D01*
X02738D01*
Y02563D01*
X02738D01*
Y02564D01*
X02739D01*
Y02564D01*
X0274D01*
Y02565D01*
X02741D01*
Y02565D01*
X02741D01*
Y02566D01*
X02742D01*
Y02566D01*
X02742D01*
Y02566D01*
X02743D01*
Y02567D01*
X02744D01*
Y02567D01*
X02745D01*
Y02568D01*
X02746D01*
Y02569D01*
X02748D01*
Y02569D01*
X02748D01*
Y02569D01*
X02751D01*
Y0257D01*
X02752D01*
Y0257D01*
X02761D01*
Y0257D01*
D02*
G37*
G36*
X02767Y02533D02*
X02768D01*
Y02532D01*
X02768D01*
Y02532D01*
X02771D01*
Y02531D01*
X02772D01*
Y02531D01*
X02773D01*
Y0253D01*
X02774D01*
Y0253D01*
X02775D01*
Y02529D01*
X02775D01*
Y02529D01*
X02775D01*
Y02528D01*
X02776D01*
Y02528D01*
X02778D01*
Y02528D01*
X02778D01*
Y02527D01*
X02778D01*
Y02527D01*
X02779D01*
Y02526D01*
X02779D01*
Y02526D01*
X0278D01*
Y02525D01*
X0278D01*
Y02525D01*
X02781D01*
Y02525D01*
X02782D01*
Y02524D01*
X02782D01*
Y02524D01*
X02783D01*
Y02523D01*
X02783D01*
Y02523D01*
X02783D01*
Y02523D01*
X02784D01*
Y02522D01*
X02784D01*
Y02522D01*
X02785D01*
Y02521D01*
X02785D01*
Y02521D01*
X02786D01*
Y0252D01*
X02786D01*
Y0252D01*
X02786D01*
Y0252D01*
X02787D01*
Y02519D01*
X02787D01*
Y02519D01*
X02788D01*
Y02518D01*
X02788D01*
Y02518D01*
X02789D01*
Y02517D01*
X0279D01*
Y02517D01*
X0279D01*
Y02517D01*
X02791D01*
Y02516D01*
X02791D01*
Y02516D01*
X02791D01*
Y02515D01*
X02792D01*
Y02515D01*
X02792D01*
Y02514D01*
X02793D01*
Y02514D01*
X02793D01*
Y02514D01*
X02794D01*
Y02513D01*
X02794D01*
Y02513D01*
X02794D01*
Y02512D01*
X02795D01*
Y02512D01*
X02795D01*
Y02512D01*
X02796D01*
Y02511D01*
X02796D01*
Y02511D01*
X02797D01*
Y0251D01*
X02797D01*
Y0251D01*
X02797D01*
Y02509D01*
X02798D01*
Y02509D01*
X02798D01*
Y02509D01*
X02799D01*
Y02508D01*
X02799D01*
Y02508D01*
X028D01*
Y02507D01*
X028D01*
Y02506D01*
X028D01*
Y02506D01*
X02801D01*
Y02505D01*
X02802D01*
Y02504D01*
X02802D01*
Y02504D01*
X02802D01*
Y02503D01*
X02803D01*
Y02503D01*
X02803D01*
Y02503D01*
X02804D01*
Y02502D01*
X02804D01*
Y02502D01*
X02805D01*
Y02501D01*
X02805D01*
Y02501D01*
X02805D01*
Y02501D01*
X02806D01*
Y025D01*
X02806D01*
Y025D01*
X02807D01*
Y02499D01*
X02807D01*
Y02499D01*
X02808D01*
Y02498D01*
X02808D01*
Y02498D01*
X02808D01*
Y02498D01*
X02809D01*
Y02497D01*
X02809D01*
Y02496D01*
X0281D01*
Y02495D01*
X0281D01*
Y02495D01*
X02811D01*
Y02495D01*
X02811D01*
Y02494D01*
X02811D01*
Y02494D01*
X02812D01*
Y02493D01*
X02812D01*
Y02493D01*
X02813D01*
Y02493D01*
X02813D01*
Y02492D01*
X02813D01*
Y02492D01*
X02814D01*
Y02491D01*
X02814D01*
Y0249D01*
X02815D01*
Y02489D01*
X02816D01*
Y02488D01*
X02816D01*
Y02487D01*
X02817D01*
Y02487D01*
X02817D01*
Y02487D01*
X02818D01*
Y02486D01*
X02818D01*
Y02486D01*
X02819D01*
Y02485D01*
X02819D01*
Y02485D01*
X02819D01*
Y02484D01*
X0282D01*
Y02483D01*
X0282D01*
Y02483D01*
X02821D01*
Y02482D01*
X02821D01*
Y02482D01*
X02822D01*
Y02482D01*
X02822D01*
Y02481D01*
X02822D01*
Y02481D01*
X02823D01*
Y0248D01*
X02823D01*
Y02479D01*
X02824D01*
Y02479D01*
X02824D01*
Y02478D01*
X02824D01*
Y02478D01*
X02825D01*
Y02477D01*
X02825D01*
Y02476D01*
X02826D01*
Y02476D01*
X02826D01*
Y02476D01*
X02827D01*
Y02475D01*
X02827D01*
Y02475D01*
X02827D01*
Y02473D01*
X02828D01*
Y02473D01*
X02828D01*
Y02473D01*
X02829D01*
Y02472D01*
X02829D01*
Y02472D01*
X0283D01*
Y02471D01*
X0283D01*
Y02471D01*
X0283D01*
Y0247D01*
X02831D01*
Y02469D01*
X02831D01*
Y02469D01*
X02832D01*
Y02468D01*
X02832D01*
Y02468D01*
X02832D01*
Y02467D01*
X02833D01*
Y02467D01*
X02833D01*
Y02466D01*
X02834D01*
Y02465D01*
X02835D01*
Y02464D01*
X02835D01*
Y02464D01*
X02835D01*
Y02463D01*
X02836D01*
Y02463D01*
X02836D01*
Y02462D01*
X02837D01*
Y02461D01*
X02837D01*
Y02461D01*
X02838D01*
Y0246D01*
X02838D01*
Y0246D01*
X02838D01*
Y0246D01*
X02839D01*
Y02459D01*
X02839D01*
Y02458D01*
X0284D01*
Y02457D01*
X02841D01*
Y02457D01*
X02841D01*
Y02456D01*
X02841D01*
Y02455D01*
X02842D01*
Y02455D01*
X02842D01*
Y02454D01*
X02843D01*
Y02453D01*
X02843D01*
Y02453D01*
X02843D01*
Y02452D01*
X02844D01*
Y02452D01*
X02844D01*
Y02451D01*
X02845D01*
Y02451D01*
X02845D01*
Y02451D01*
X02846D01*
Y02449D01*
X02846D01*
Y02449D01*
X02846D01*
Y02449D01*
X02847D01*
Y02448D01*
X02847D01*
Y02448D01*
X02848D01*
Y02446D01*
X02848D01*
Y02446D01*
X02849D01*
Y02445D01*
X02849D01*
Y02445D01*
X02849D01*
Y02444D01*
X0285D01*
Y02444D01*
X0285D01*
Y02443D01*
X02851D01*
Y02442D01*
X02851D01*
Y02442D01*
X02852D01*
Y02441D01*
X02852D01*
Y02441D01*
X02852D01*
Y0244D01*
X02853D01*
Y0244D01*
X02853D01*
Y0244D01*
X02854D01*
Y02438D01*
X02854D01*
Y02438D01*
X02854D01*
Y02438D01*
X02855D01*
Y02437D01*
X02856D01*
Y02436D01*
X02856D01*
Y02435D01*
X02857D01*
Y02435D01*
X02857D01*
Y02434D01*
X02857D01*
Y02433D01*
X02858D01*
Y02433D01*
X02858D01*
Y02432D01*
X02859D01*
Y02431D01*
X02859D01*
Y02431D01*
X0286D01*
Y0243D01*
X0286D01*
Y0243D01*
X0286D01*
Y0243D01*
X02861D01*
Y02429D01*
X02861D01*
Y02429D01*
X02862D01*
Y02428D01*
X02862D01*
Y02427D01*
X02863D01*
Y02426D01*
X02863D01*
Y02425D01*
X02864D01*
Y02421D01*
X02863D01*
Y02421D01*
X02863D01*
Y02419D01*
X02863D01*
Y02419D01*
X02862D01*
Y02419D01*
X02861D01*
Y02418D01*
X0286D01*
Y02418D01*
X02854D01*
Y02418D01*
X02853D01*
Y02419D01*
X02853D01*
Y02419D01*
X02852D01*
Y02419D01*
X02852D01*
Y0242D01*
X02852D01*
Y0242D01*
X02851D01*
Y02421D01*
X02851D01*
Y02422D01*
X0285D01*
Y02422D01*
X0285D01*
Y02423D01*
X02849D01*
Y02423D01*
X02849D01*
Y02424D01*
X02849D01*
Y02424D01*
X02848D01*
Y02426D01*
X02847D01*
Y02426D01*
X02847D01*
Y02427D01*
X02846D01*
Y02428D01*
X02846D01*
Y02428D01*
X02845D01*
Y0243D01*
X02845D01*
Y0243D01*
X02844D01*
Y0243D01*
X02844D01*
Y02431D01*
X02843D01*
Y02431D01*
X02843D01*
Y02432D01*
X02843D01*
Y02432D01*
X02842D01*
Y02433D01*
X02842D01*
Y02434D01*
X02841D01*
Y02434D01*
X02841D01*
Y02435D01*
X02841D01*
Y02435D01*
X0284D01*
Y02436D01*
X0284D01*
Y02436D01*
X02839D01*
Y02437D01*
X02839D01*
Y02438D01*
X02838D01*
Y02438D01*
X02838D01*
Y02439D01*
X02838D01*
Y02439D01*
X02837D01*
Y0244D01*
X02837D01*
Y0244D01*
X02836D01*
Y0244D01*
X02836D01*
Y02442D01*
X02835D01*
Y02442D01*
X02835D01*
Y02443D01*
X02835D01*
Y02443D01*
X02834D01*
Y02444D01*
X02834D01*
Y02445D01*
X02833D01*
Y02446D01*
X02832D01*
Y02447D01*
X02832D01*
Y02447D01*
X02831D01*
Y02448D01*
X02831D01*
Y02449D01*
X0283D01*
Y02449D01*
X0283D01*
Y0245D01*
X0283D01*
Y0245D01*
X02829D01*
Y02451D01*
X02829D01*
Y02451D01*
X02828D01*
Y02451D01*
X02828D01*
Y02453D01*
X02827D01*
Y02453D01*
X02827D01*
Y02454D01*
X02827D01*
Y02454D01*
X02826D01*
Y02454D01*
X02826D01*
Y02455D01*
X02825D01*
Y02457D01*
X02824D01*
Y02457D01*
X02824D01*
Y02458D01*
X02823D01*
Y02459D01*
X02823D01*
Y02459D01*
X02822D01*
Y0246D01*
X02822D01*
Y02461D01*
X02822D01*
Y02461D01*
X02821D01*
Y02462D01*
X02821D01*
Y02462D01*
X0282D01*
Y02462D01*
X0282D01*
Y02463D01*
X02819D01*
Y02463D01*
X02819D01*
Y02464D01*
X02819D01*
Y02465D01*
X02818D01*
Y02466D01*
X02817D01*
Y02467D01*
X02816D01*
Y02468D01*
X02816D01*
Y02468D01*
X02816D01*
Y02468D01*
X02815D01*
Y02469D01*
X02815D01*
Y0247D01*
X02814D01*
Y02471D01*
X02813D01*
Y02471D01*
X02813D01*
Y02472D01*
X02813D01*
Y02472D01*
X02812D01*
Y02473D01*
X02812D01*
Y02473D01*
X02811D01*
Y02473D01*
X02811D01*
Y02474D01*
X02811D01*
Y02475D01*
X0281D01*
Y02476D01*
X0281D01*
Y02476D01*
X02809D01*
Y02476D01*
X02809D01*
Y02477D01*
X02808D01*
Y02477D01*
X02808D01*
Y02478D01*
X02808D01*
Y02479D01*
X02807D01*
Y02479D01*
X02806D01*
Y0248D01*
X02805D01*
Y02482D01*
X02805D01*
Y02482D01*
X02805D01*
Y02482D01*
X02804D01*
Y02483D01*
X02804D01*
Y02483D01*
X02803D01*
Y02484D01*
X02803D01*
Y02484D01*
X02802D01*
Y02484D01*
X02802D01*
Y02485D01*
X02802D01*
Y02485D01*
X02801D01*
Y02486D01*
X02801D01*
Y02486D01*
X028D01*
Y02487D01*
X028D01*
Y02488D01*
X028D01*
Y02488D01*
X02799D01*
Y02489D01*
X02799D01*
Y02489D01*
X02798D01*
Y0249D01*
X02798D01*
Y0249D01*
X02797D01*
Y0249D01*
X02797D01*
Y02491D01*
X02797D01*
Y02491D01*
X02796D01*
Y02492D01*
X02796D01*
Y02492D01*
X02795D01*
Y02493D01*
X02795D01*
Y02493D01*
X02794D01*
Y02493D01*
X02794D01*
Y02494D01*
X02794D01*
Y02494D01*
X02793D01*
Y02495D01*
X02792D01*
Y02496D01*
X02792D01*
Y02497D01*
X02791D01*
Y02497D01*
X02791D01*
Y02498D01*
X02791D01*
Y02498D01*
X0279D01*
Y02498D01*
X0279D01*
Y02499D01*
X02789D01*
Y02499D01*
X02789D01*
Y025D01*
X02789D01*
Y025D01*
X02788D01*
Y02501D01*
X02787D01*
Y02502D01*
X02786D01*
Y02502D01*
X02786D01*
Y02503D01*
X02786D01*
Y02503D01*
X02785D01*
Y02504D01*
X02784D01*
Y02505D01*
X02784D01*
Y02505D01*
X02783D01*
Y02506D01*
X02783D01*
Y02506D01*
X02782D01*
Y02507D01*
X02781D01*
Y02508D01*
X0278D01*
Y02508D01*
X0278D01*
Y02509D01*
X02779D01*
Y02509D01*
X02779D01*
Y0251D01*
X02778D01*
Y0251D01*
X02778D01*
Y02511D01*
X02778D01*
Y02511D01*
X02777D01*
Y02512D01*
X02777D01*
Y02512D01*
X02776D01*
Y02512D01*
X02775D01*
Y02513D01*
X02775D01*
Y02513D01*
X02774D01*
Y02514D01*
X02774D01*
Y02514D01*
X02773D01*
Y02514D01*
X02773D01*
Y02515D01*
X02772D01*
Y02515D01*
X02772D01*
Y02516D01*
X02772D01*
Y02516D01*
X0277D01*
Y02517D01*
X0277D01*
Y02517D01*
X0277D01*
Y02517D01*
X02769D01*
Y02518D01*
X02769D01*
Y02518D01*
X02767D01*
Y02519D01*
X02765D01*
Y0252D01*
X02765D01*
Y0252D01*
X02764D01*
Y0252D01*
X02763D01*
Y02521D01*
X02762D01*
Y02521D01*
X0276D01*
Y02521D01*
X02759D01*
Y0252D01*
X02759D01*
Y0252D01*
X02758D01*
Y0252D01*
X02757D01*
Y02519D01*
X02757D01*
Y02519D01*
X02756D01*
Y02518D01*
X02756D01*
Y02518D01*
X02756D01*
Y02517D01*
X02755D01*
Y02517D01*
X02754D01*
Y02516D01*
X02753D01*
Y02515D01*
X02752D01*
Y02514D01*
X02752D01*
Y02514D01*
X02751D01*
Y02513D01*
X02751D01*
Y02513D01*
X0275D01*
Y02512D01*
X0275D01*
Y02512D01*
X0275D01*
Y02512D01*
X02749D01*
Y02511D01*
X02749D01*
Y02511D01*
X02748D01*
Y0251D01*
X02748D01*
Y0251D01*
X02748D01*
Y02509D01*
X02747D01*
Y02508D01*
X02747D01*
Y02508D01*
X02746D01*
Y02507D01*
X02746D01*
Y02507D01*
X02745D01*
Y02506D01*
X02745D01*
Y02506D01*
X02745D01*
Y02505D01*
X02744D01*
Y02504D01*
X02744D01*
Y02503D01*
X02743D01*
Y02503D01*
X02743D01*
Y02503D01*
X02742D01*
Y02501D01*
X02742D01*
Y02501D01*
X02742D01*
Y02501D01*
X02741D01*
Y02499D01*
X02741D01*
Y02499D01*
X0274D01*
Y02498D01*
X02739D01*
Y02497D01*
X02739D01*
Y02496D01*
X02739D01*
Y02495D01*
X02738D01*
Y02494D01*
X02738D01*
Y02494D01*
X02737D01*
Y02493D01*
X02737D01*
Y02492D01*
X02737D01*
Y02492D01*
X02736D01*
Y0249D01*
X02736D01*
Y0249D01*
X02735D01*
Y02488D01*
X02735D01*
Y02488D01*
X02734D01*
Y02487D01*
X02734D01*
Y02487D01*
X02733D01*
Y02485D01*
X02733D01*
Y02484D01*
X02732D01*
Y02483D01*
X02732D01*
Y02483D01*
X02731D01*
Y02482D01*
X02731D01*
Y0248D01*
X02731D01*
Y02479D01*
X0273D01*
Y02478D01*
X0273D01*
Y02478D01*
X02729D01*
Y02477D01*
X02729D01*
Y02476D01*
X02728D01*
Y02475D01*
X02728D01*
Y02474D01*
X02728D01*
Y02473D01*
X02727D01*
Y02473D01*
X02727D01*
Y02471D01*
X02726D01*
Y0247D01*
X02726D01*
Y02469D01*
X02725D01*
Y02468D01*
X02725D01*
Y02468D01*
X02724D01*
Y02467D01*
X02724D01*
Y02465D01*
X02723D01*
Y02465D01*
X02723D01*
Y02464D01*
X02723D01*
Y02463D01*
X02722D01*
Y02462D01*
X02722D01*
Y02462D01*
X02722D01*
Y02461D01*
X02722D01*
Y0246D01*
X02721D01*
Y0246D01*
X02721D01*
Y02459D01*
X0272D01*
Y02458D01*
X0272D01*
Y02457D01*
X0272D01*
Y02456D01*
X02719D01*
Y02456D01*
X02719D01*
Y02454D01*
X02718D01*
Y02454D01*
X02718D01*
Y02452D01*
X02717D01*
Y02452D01*
X02717D01*
Y02451D01*
X02717D01*
Y0245D01*
X02716D01*
Y0245D01*
X02716D01*
Y02447D01*
X02715D01*
Y02447D01*
X02715D01*
Y02446D01*
X02715D01*
Y02445D01*
X02714D01*
Y02445D01*
X02714D01*
Y02443D01*
X02713D01*
Y02443D01*
X02713D01*
Y02441D01*
X02712D01*
Y02441D01*
X02712D01*
Y0244D01*
X02712D01*
Y02439D01*
X02711D01*
Y02439D01*
X02711D01*
Y02437D01*
X0271D01*
Y02437D01*
X0271D01*
Y02435D01*
X02709D01*
Y02435D01*
X02709D01*
Y02434D01*
X02709D01*
Y02433D01*
X02708D01*
Y02431D01*
X02707D01*
Y02431D01*
X02707D01*
Y0243D01*
X02707D01*
Y02429D01*
X02706D01*
Y02429D01*
X02706D01*
Y02427D01*
X02705D01*
Y02427D01*
X02705D01*
Y02425D01*
X02704D01*
Y02425D01*
X02704D01*
Y02424D01*
X02704D01*
Y02423D01*
X02703D01*
Y02421D01*
X02702D01*
Y02421D01*
X02702D01*
Y0242D01*
X02701D01*
Y0242D01*
X02701D01*
Y02419D01*
X02701D01*
Y02418D01*
X027D01*
Y02418D01*
X027D01*
Y02417D01*
X02699D01*
Y02416D01*
X02698D01*
Y02415D01*
X02698D01*
Y02414D01*
X02698D01*
Y02414D01*
X02697D01*
Y02413D01*
X02697D01*
Y02413D01*
X02696D01*
Y02413D01*
X02696D01*
Y02412D01*
X02696D01*
Y02412D01*
X02695D01*
Y02411D01*
X02695D01*
Y02411D01*
X02694D01*
Y0241D01*
X02694D01*
Y0241D01*
X02693D01*
Y0241D01*
X02692D01*
Y02409D01*
X02691D01*
Y02409D01*
X02689D01*
Y02408D01*
X02685D01*
Y02409D01*
X02681D01*
Y02409D01*
X02681D01*
Y0241D01*
X02679D01*
Y0241D01*
X02679D01*
Y0241D01*
X02678D01*
Y02411D01*
X02677D01*
Y02411D01*
X02676D01*
Y02412D01*
X02676D01*
Y02412D01*
X02676D01*
Y02413D01*
X02675D01*
Y02413D01*
X02674D01*
Y02414D01*
X02674D01*
Y02415D01*
X02673D01*
Y02416D01*
X02672D01*
Y02416D01*
X02672D01*
Y02416D01*
X02671D01*
Y02417D01*
X02671D01*
Y02417D01*
X02671D01*
Y02418D01*
X0267D01*
Y02418D01*
X0267D01*
Y02419D01*
X02669D01*
Y0242D01*
X02669D01*
Y0242D01*
X02668D01*
Y02421D01*
X02668D01*
Y02422D01*
X02668D01*
Y02422D01*
X02667D01*
Y02423D01*
X02667D01*
Y02424D01*
X02666D01*
Y02425D01*
X02666D01*
Y02425D01*
X02665D01*
Y02427D01*
X02665D01*
Y02427D01*
X02665D01*
Y02427D01*
X02664D01*
Y02428D01*
X02664D01*
Y02429D01*
X02663D01*
Y0243D01*
X02663D01*
Y02431D01*
X02662D01*
Y02431D01*
X02662D01*
Y02432D01*
X02661D01*
Y02432D01*
X02661D01*
Y02432D01*
X0266D01*
Y02433D01*
X0266D01*
Y02433D01*
X0266D01*
Y02434D01*
X02659D01*
Y02434D01*
X02659D01*
Y02435D01*
X02658D01*
Y02435D01*
X02658D01*
Y02435D01*
X02657D01*
Y02436D01*
X02657D01*
Y02437D01*
X02656D01*
Y02437D01*
X02655D01*
Y02438D01*
X02654D01*
Y02438D01*
X02652D01*
Y02438D01*
X02651D01*
Y02438D01*
X0265D01*
Y02438D01*
X02649D01*
Y02439D01*
X02648D01*
Y02438D01*
X02648D01*
Y02438D01*
X02647D01*
Y02438D01*
X02647D01*
Y02437D01*
X02646D01*
Y02437D01*
X02646D01*
Y02436D01*
X02646D01*
Y02436D01*
X02645D01*
Y02435D01*
X02645D01*
Y02435D01*
X02644D01*
Y02435D01*
X02644D01*
Y02433D01*
X02644D01*
Y02433D01*
X02643D01*
Y02432D01*
X02643D01*
Y02432D01*
X02642D01*
Y02432D01*
X02642D01*
Y0243D01*
X02641D01*
Y0243D01*
X02641D01*
Y02428D01*
X02641D01*
Y02428D01*
X0264D01*
Y02427D01*
X0264D01*
Y02426D01*
X02639D01*
Y02426D01*
X02639D01*
Y02424D01*
X02638D01*
Y02424D01*
X02638D01*
Y02423D01*
X02638D01*
Y02422D01*
X02637D01*
Y02421D01*
X02637D01*
Y0242D01*
X02636D01*
Y02417D01*
X02635D01*
Y02417D01*
X02635D01*
Y02416D01*
X02635D01*
Y02415D01*
X02634D01*
Y02414D01*
X02634D01*
Y02412D01*
X02633D01*
Y02412D01*
X02633D01*
Y0241D01*
X02633D01*
Y0241D01*
X02632D01*
Y02409D01*
X02632D01*
Y02407D01*
X02631D01*
Y02406D01*
X02631D01*
Y02404D01*
X0263D01*
Y02404D01*
X0263D01*
Y02403D01*
X0263D01*
Y02401D01*
X02629D01*
Y024D01*
X02629D01*
Y02397D01*
X02628D01*
Y02397D01*
X02628D01*
Y02396D01*
X02627D01*
Y02394D01*
X02627D01*
Y02393D01*
X02627D01*
Y02391D01*
X02626D01*
Y0239D01*
X02626D01*
Y02387D01*
X02625D01*
Y02386D01*
X02625D01*
Y02386D01*
X02624D01*
Y02383D01*
X02624D01*
Y02383D01*
X02624D01*
Y0238D01*
X02623D01*
Y02379D01*
X02623D01*
Y02378D01*
X02622D01*
Y02375D01*
X02622D01*
Y02375D01*
X02622D01*
Y02372D01*
X02621D01*
Y02372D01*
X02621D01*
Y02369D01*
X0262D01*
Y02368D01*
X0262D01*
Y02367D01*
X02619D01*
Y02364D01*
X02619D01*
Y02364D01*
X02619D01*
Y02361D01*
X02618D01*
Y0236D01*
X02618D01*
Y02358D01*
X02617D01*
Y02356D01*
X02617D01*
Y02356D01*
X02616D01*
Y02352D01*
X02616D01*
Y02352D01*
X02616D01*
Y0235D01*
X02615D01*
Y02349D01*
X02616D01*
Y02348D01*
X02615D01*
Y02348D01*
X02615D01*
Y02347D01*
X02614D01*
Y02344D01*
X02613D01*
Y0234D01*
X02613D01*
Y02339D01*
X02613D01*
Y02338D01*
X02612D01*
Y02336D01*
X02612D01*
Y02335D01*
X02611D01*
Y02332D01*
X02611D01*
Y02331D01*
X02611D01*
Y02328D01*
X0261D01*
Y02328D01*
X0261D01*
Y02327D01*
X02609D01*
Y02323D01*
X02609D01*
Y02322D01*
X02608D01*
Y02319D01*
X02608D01*
Y02318D01*
X02608D01*
Y02316D01*
X02607D01*
Y02315D01*
X02607D01*
Y02314D01*
X02606D01*
Y0231D01*
X02606D01*
Y0231D01*
X02605D01*
Y02307D01*
X02605D01*
Y02305D01*
X02605D01*
Y02305D01*
X02604D01*
Y02301D01*
X02604D01*
Y02301D01*
X02603D01*
Y02297D01*
X02602D01*
Y02295D01*
X02602D01*
Y02293D01*
X02602D01*
Y02293D01*
X02601D01*
Y02289D01*
X02601D01*
Y02289D01*
X026D01*
Y02287D01*
X026D01*
Y02286D01*
X026D01*
Y02285D01*
X026D01*
Y02285D01*
X026D01*
Y02284D01*
X02599D01*
Y02281D01*
X02599D01*
Y02281D01*
X02598D01*
Y02277D01*
X02598D01*
Y02277D01*
X02597D01*
Y02275D01*
X02597D01*
Y02273D01*
X02597D01*
Y02272D01*
X02596D01*
Y0227D01*
X02595D01*
Y02266D01*
X02595D01*
Y02265D01*
X02594D01*
Y02265D01*
X02594D01*
Y02262D01*
X02594D01*
Y02261D01*
X02593D01*
Y0226D01*
X02593D01*
Y0226D01*
X02592D01*
Y02259D01*
X02592D01*
Y02259D01*
X02591D01*
Y02258D01*
X0259D01*
Y02258D01*
X0259D01*
Y02257D01*
X02589D01*
Y02258D01*
X02588D01*
Y02257D01*
X02587D01*
Y02258D01*
X02586D01*
Y02258D01*
X02585D01*
Y02259D01*
X02583D01*
Y02259D01*
X02583D01*
Y0226D01*
X02583D01*
Y0226D01*
X02582D01*
Y0226D01*
X02582D01*
Y02261D01*
X02581D01*
Y02267D01*
X02582D01*
Y02268D01*
X02582D01*
Y02268D01*
X02583D01*
Y0227D01*
X02583D01*
Y02271D01*
X02583D01*
Y02274D01*
X02584D01*
Y02275D01*
X02584D01*
Y02278D01*
X02585D01*
Y02279D01*
X02585D01*
Y02279D01*
X02586D01*
Y02282D01*
X02586D01*
Y02283D01*
X02586D01*
Y02286D01*
X02587D01*
Y02287D01*
X02587D01*
Y02288D01*
X02588D01*
Y0229D01*
X02588D01*
Y02291D01*
X02589D01*
Y02295D01*
X02589D01*
Y02297D01*
X0259D01*
Y02298D01*
X02589D01*
Y02298D01*
X0259D01*
Y02299D01*
X0259D01*
Y02299D01*
X02591D01*
Y02303D01*
X02591D01*
Y02303D01*
X02592D01*
Y02306D01*
X02592D01*
Y02307D01*
X02592D01*
Y02309D01*
X02593D01*
Y02311D01*
X02593D01*
Y02311D01*
X02594D01*
Y02315D01*
X02594D01*
Y02315D01*
X02594D01*
Y02318D01*
X02595D01*
Y02319D01*
X02594D01*
Y0232D01*
X02595D01*
Y0232D01*
X02595D01*
Y0232D01*
X02596D01*
Y02324D01*
X02596D01*
Y02324D01*
X02597D01*
Y02328D01*
X02597D01*
Y02328D01*
X02597D01*
Y02331D01*
X02598D01*
Y02332D01*
X02598D01*
Y02333D01*
X02599D01*
Y02336D01*
X02599D01*
Y02336D01*
X026D01*
Y02341D01*
X026D01*
Y02341D01*
X026D01*
Y02342D01*
X02601D01*
Y02345D01*
X02601D01*
Y02346D01*
X02602D01*
Y02349D01*
X02602D01*
Y0235D01*
X02602D01*
Y02351D01*
X02603D01*
Y02353D01*
X02603D01*
Y02354D01*
X02604D01*
Y02357D01*
X02604D01*
Y02358D01*
X02605D01*
Y02361D01*
X02605D01*
Y02361D01*
X02605D01*
Y02362D01*
X02606D01*
Y02366D01*
X02606D01*
Y02366D01*
X02607D01*
Y02369D01*
X02607D01*
Y0237D01*
X02608D01*
Y02371D01*
X02608D01*
Y02372D01*
X02608D01*
Y02372D01*
X02608D01*
Y02373D01*
X02608D01*
Y02373D01*
X02609D01*
Y02377D01*
X02609D01*
Y02377D01*
X0261D01*
Y0238D01*
X0261D01*
Y02381D01*
X02611D01*
Y02382D01*
X02611D01*
Y02385D01*
X02611D01*
Y02385D01*
X02612D01*
Y02388D01*
X02612D01*
Y02388D01*
X02613D01*
Y0239D01*
X02613D01*
Y02392D01*
X02613D01*
Y02392D01*
X02614D01*
Y02395D01*
X02614D01*
Y02395D01*
X02615D01*
Y02398D01*
X02615D01*
Y02398D01*
X02616D01*
Y02399D01*
X02616D01*
Y02402D01*
X02616D01*
Y02402D01*
X02617D01*
Y02405D01*
X02617D01*
Y02405D01*
X02618D01*
Y02406D01*
X02618D01*
Y02408D01*
X02619D01*
Y02409D01*
X02619D01*
Y02411D01*
X02619D01*
Y02411D01*
X0262D01*
Y02413D01*
X0262D01*
Y02413D01*
X02621D01*
Y02414D01*
X02621D01*
Y02416D01*
X02622D01*
Y02417D01*
X02622D01*
Y02419D01*
X02622D01*
Y02419D01*
X02623D01*
Y0242D01*
X02623D01*
Y02421D01*
X02624D01*
Y02422D01*
X02624D01*
Y02424D01*
X02625D01*
Y02426D01*
X02625D01*
Y02427D01*
X02626D01*
Y02427D01*
X02626D01*
Y0243D01*
X02627D01*
Y0243D01*
X02627D01*
Y02431D01*
X02627D01*
Y02432D01*
X02628D01*
Y02432D01*
X02628D01*
Y02434D01*
X02629D01*
Y02435D01*
X0263D01*
Y02436D01*
X0263D01*
Y02437D01*
X0263D01*
Y02438D01*
X02631D01*
Y02438D01*
X02631D01*
Y02439D01*
X02632D01*
Y0244D01*
X02633D01*
Y02441D01*
X02633D01*
Y02441D01*
X02633D01*
Y02442D01*
X02634D01*
Y02442D01*
X02634D01*
Y02443D01*
X02635D01*
Y02444D01*
X02635D01*
Y02444D01*
X02635D01*
Y02445D01*
X02636D01*
Y02445D01*
X02636D01*
Y02446D01*
X02637D01*
Y02446D01*
X02637D01*
Y02446D01*
X02638D01*
Y02447D01*
X02638D01*
Y02447D01*
X02638D01*
Y02448D01*
X0264D01*
Y02448D01*
X0264D01*
Y02449D01*
X02641D01*
Y02449D01*
X02641D01*
Y02449D01*
X02641D01*
Y0245D01*
X02644D01*
Y0245D01*
X02644D01*
Y02451D01*
X02645D01*
Y02451D01*
X02645D01*
Y02451D01*
X02646D01*
Y02451D01*
X02653D01*
Y02451D01*
X02656D01*
Y0245D01*
X02656D01*
Y0245D01*
X02659D01*
Y02449D01*
X02659D01*
Y02449D01*
X0266D01*
Y02449D01*
X02661D01*
Y02448D01*
X02662D01*
Y02448D01*
X02663D01*
Y02447D01*
X02663D01*
Y02447D01*
X02664D01*
Y02446D01*
X02664D01*
Y02446D01*
X02665D01*
Y02446D01*
X02666D01*
Y02445D01*
X02666D01*
Y02445D01*
X02667D01*
Y02444D01*
X02667D01*
Y02444D01*
X02668D01*
Y02443D01*
X02668D01*
Y02443D01*
X02669D01*
Y02442D01*
X0267D01*
Y02441D01*
X0267D01*
Y02441D01*
X02671D01*
Y0244D01*
X02671D01*
Y0244D01*
X02671D01*
Y02439D01*
X02672D01*
Y02438D01*
X02673D01*
Y02438D01*
X02673D01*
Y02437D01*
X02674D01*
Y02437D01*
X02674D01*
Y02436D01*
X02674D01*
Y02435D01*
X02675D01*
Y02435D01*
X02675D01*
Y02434D01*
X02676D01*
Y02434D01*
X02676D01*
Y02433D01*
X02676D01*
Y02432D01*
X02677D01*
Y02431D01*
X02677D01*
Y0243D01*
X02678D01*
Y0243D01*
X02678D01*
Y02429D01*
X02679D01*
Y02429D01*
X02679D01*
Y02428D01*
X02679D01*
Y02427D01*
X0268D01*
Y02426D01*
X02681D01*
Y02425D01*
X02681D01*
Y02425D01*
X02682D01*
Y02424D01*
X02682D01*
Y02423D01*
X02683D01*
Y02422D01*
X02684D01*
Y02421D01*
X02687D01*
Y02422D01*
X02687D01*
Y02422D01*
X02687D01*
Y02423D01*
X02688D01*
Y02423D01*
X02688D01*
Y02424D01*
X02689D01*
Y02425D01*
X02689D01*
Y02425D01*
X0269D01*
Y02426D01*
X0269D01*
Y02427D01*
X02691D01*
Y02428D01*
X02691D01*
Y02429D01*
X02692D01*
Y02429D01*
X02692D01*
Y0243D01*
X02693D01*
Y02431D01*
X02693D01*
Y02432D01*
X02694D01*
Y02433D01*
X02694D01*
Y02434D01*
X02695D01*
Y02434D01*
X02695D01*
Y02435D01*
X02696D01*
Y02436D01*
X02696D01*
Y02437D01*
X02696D01*
Y02438D01*
X02697D01*
Y02438D01*
X02697D01*
Y0244D01*
X02698D01*
Y0244D01*
X02698D01*
Y02441D01*
X02698D01*
Y02442D01*
X02699D01*
Y02443D01*
X02699D01*
Y02444D01*
X027D01*
Y02444D01*
X027D01*
Y02446D01*
X02701D01*
Y02446D01*
X02701D01*
Y02448D01*
X02702D01*
Y02449D01*
X02702D01*
Y0245D01*
X02703D01*
Y0245D01*
X02703D01*
Y02452D01*
X02704D01*
Y02454D01*
X02704D01*
Y02455D01*
X02705D01*
Y02455D01*
X02705D01*
Y02457D01*
X02706D01*
Y02459D01*
X02707D01*
Y02459D01*
X02707D01*
Y0246D01*
X02707D01*
Y02461D01*
X02708D01*
Y02461D01*
X02708D01*
Y02463D01*
X02709D01*
Y02463D01*
X02709D01*
Y02465D01*
X02709D01*
Y02465D01*
X02709D01*
Y02465D01*
X02709D01*
Y02466D01*
X0271D01*
Y02466D01*
X0271D01*
Y02468D01*
X02711D01*
Y02468D01*
X02711D01*
Y0247D01*
X02712D01*
Y0247D01*
X02712D01*
Y02471D01*
X02712D01*
Y02472D01*
X02713D01*
Y02473D01*
X02713D01*
Y02474D01*
X02714D01*
Y02474D01*
X02714D01*
Y02476D01*
X02715D01*
Y02476D01*
X02715D01*
Y02477D01*
X02715D01*
Y02478D01*
X02716D01*
Y02479D01*
X02716D01*
Y02481D01*
X02717D01*
Y02481D01*
X02717D01*
Y02482D01*
X02717D01*
Y02483D01*
X02718D01*
Y02484D01*
X02718D01*
Y02485D01*
X02719D01*
Y02485D01*
X02719D01*
Y02486D01*
X0272D01*
Y02487D01*
X0272D01*
Y02488D01*
X0272D01*
Y02489D01*
X02721D01*
Y0249D01*
X02721D01*
Y02491D01*
X02722D01*
Y02491D01*
X02722D01*
Y02492D01*
X02723D01*
Y02493D01*
X02723D01*
Y02494D01*
X02723D01*
Y02494D01*
X02724D01*
Y02495D01*
X02724D01*
Y02496D01*
X02725D01*
Y02497D01*
X02725D01*
Y02497D01*
X02726D01*
Y02498D01*
X02726D01*
Y02499D01*
X02726D01*
Y025D01*
X02727D01*
Y02501D01*
X02727D01*
Y02501D01*
X02728D01*
Y02503D01*
X02728D01*
Y02503D01*
X02728D01*
Y02503D01*
X02729D01*
Y02504D01*
X02729D01*
Y02505D01*
X0273D01*
Y02506D01*
X0273D01*
Y02506D01*
X02731D01*
Y02507D01*
X02731D01*
Y02508D01*
X02731D01*
Y02509D01*
X02732D01*
Y02509D01*
X02732D01*
Y0251D01*
X02733D01*
Y02511D01*
X02733D01*
Y02511D01*
X02734D01*
Y02512D01*
X02734D01*
Y02513D01*
X02734D01*
Y02513D01*
X02735D01*
Y02514D01*
X02735D01*
Y02514D01*
X02736D01*
Y02516D01*
X02737D01*
Y02517D01*
X02737D01*
Y02517D01*
X02737D01*
Y02517D01*
X02738D01*
Y02519D01*
X02738D01*
Y02519D01*
X02739D01*
Y0252D01*
X02739D01*
Y0252D01*
X02739D01*
Y0252D01*
X0274D01*
Y02521D01*
X0274D01*
Y02521D01*
X02741D01*
Y02522D01*
X02741D01*
Y02522D01*
X02742D01*
Y02523D01*
X02742D01*
Y02523D01*
X02743D01*
Y02524D01*
X02743D01*
Y02524D01*
X02744D01*
Y02525D01*
X02745D01*
Y02526D01*
X02745D01*
Y02526D01*
X02746D01*
Y02527D01*
X02746D01*
Y02527D01*
X02747D01*
Y02528D01*
X02747D01*
Y02528D01*
X02748D01*
Y02528D01*
X02748D01*
Y02529D01*
X02748D01*
Y02529D01*
X02749D01*
Y0253D01*
X0275D01*
Y0253D01*
X0275D01*
Y02531D01*
X02751D01*
Y02531D01*
X02753D01*
Y02531D01*
X02753D01*
Y02532D01*
X02754D01*
Y02532D01*
X02755D01*
Y02533D01*
X02756D01*
Y02533D01*
X02767D01*
Y02533D01*
D02*
G37*
G36*
X02923Y02386D02*
X02923D01*
Y02385D01*
X02925D01*
Y02385D01*
X02926D01*
Y02384D01*
X02926D01*
Y02383D01*
X02927D01*
Y02381D01*
X02927D01*
Y02381D01*
X02928D01*
Y02318D01*
X02927D01*
Y02318D01*
X02927D01*
Y02316D01*
X02926D01*
Y02315D01*
X02926D01*
Y02315D01*
X02926D01*
Y02315D01*
X02925D01*
Y02314D01*
X02925D01*
Y02314D01*
X02924D01*
Y02313D01*
X02917D01*
Y02314D01*
X02917D01*
Y02314D01*
X02917D01*
Y02315D01*
X02916D01*
Y02315D01*
X02916D01*
Y02315D01*
X02915D01*
Y02316D01*
X02915D01*
Y02317D01*
X02915D01*
Y02317D01*
X02914D01*
Y02359D01*
X02913D01*
Y02358D01*
X02912D01*
Y02357D01*
X02912D01*
Y02356D01*
X02912D01*
Y02356D01*
X02911D01*
Y02356D01*
X02911D01*
Y02354D01*
X0291D01*
Y02354D01*
X0291D01*
Y02353D01*
X02909D01*
Y02353D01*
X02909D01*
Y02353D01*
X02909D01*
Y02351D01*
X02908D01*
Y0235D01*
X02907D01*
Y02349D01*
X02907D01*
Y02348D01*
X02906D01*
Y02348D01*
X02906D01*
Y02347D01*
X02906D01*
Y02346D01*
X02905D01*
Y02346D01*
X02905D01*
Y02345D01*
X02904D01*
Y02344D01*
X02904D01*
Y02343D01*
X02903D01*
Y02342D01*
X02903D01*
Y02342D01*
X02902D01*
Y02341D01*
X02902D01*
Y0234D01*
X02901D01*
Y0234D01*
X02901D01*
Y02339D01*
X02901D01*
Y02338D01*
X029D01*
Y02338D01*
X029D01*
Y02337D01*
X02899D01*
Y02336D01*
X02898D01*
Y02335D01*
X02897D01*
Y02334D01*
X02896D01*
Y02334D01*
X02896D01*
Y02334D01*
X02891D01*
Y02334D01*
X0289D01*
Y02334D01*
X0289D01*
Y02335D01*
X0289D01*
Y02335D01*
X02889D01*
Y02336D01*
X02889D01*
Y02336D01*
X02888D01*
Y02336D01*
X02888D01*
Y02337D01*
X02887D01*
Y02338D01*
X02887D01*
Y02339D01*
X02886D01*
Y0234D01*
X02886D01*
Y0234D01*
X02885D01*
Y02341D01*
X02885D01*
Y02341D01*
X02885D01*
Y02342D01*
X02884D01*
Y02343D01*
X02884D01*
Y02343D01*
X02883D01*
Y02344D01*
X02883D01*
Y02345D01*
X02882D01*
Y02346D01*
X02882D01*
Y02346D01*
X02882D01*
Y02347D01*
X02881D01*
Y02348D01*
X02881D01*
Y02348D01*
X0288D01*
Y02349D01*
X0288D01*
Y02349D01*
X02879D01*
Y0235D01*
X02879D01*
Y02351D01*
X02879D01*
Y02352D01*
X02878D01*
Y02352D01*
X02878D01*
Y02353D01*
X02877D01*
Y02354D01*
X02877D01*
Y02354D01*
X02876D01*
Y02355D01*
X02876D01*
Y02355D01*
X02876D01*
Y02356D01*
X02875D01*
Y02357D01*
X02875D01*
Y02357D01*
X02874D01*
Y02359D01*
X02873D01*
Y02317D01*
X02873D01*
Y02317D01*
X02872D01*
Y02316D01*
X02872D01*
Y02315D01*
X02871D01*
Y02315D01*
X02871D01*
Y02315D01*
X02871D01*
Y02314D01*
X0287D01*
Y02314D01*
X0287D01*
Y02313D01*
X02864D01*
Y02314D01*
X02863D01*
Y02314D01*
X02863D01*
Y02315D01*
X02862D01*
Y02315D01*
X02861D01*
Y02317D01*
X02861D01*
Y02317D01*
X0286D01*
Y02382D01*
X02861D01*
Y02382D01*
X02861D01*
Y02383D01*
X02862D01*
Y02384D01*
X02862D01*
Y02384D01*
X02863D01*
Y02385D01*
X02863D01*
Y02385D01*
X02865D01*
Y02386D01*
X02865D01*
Y02386D01*
X02868D01*
Y02386D01*
X02868D01*
Y02385D01*
X02871D01*
Y02385D01*
X02871D01*
Y02384D01*
X02871D01*
Y02384D01*
X02872D01*
Y02383D01*
X02872D01*
Y02383D01*
X02873D01*
Y02383D01*
X02873D01*
Y02381D01*
X02874D01*
Y02381D01*
X02874D01*
Y0238D01*
X02874D01*
Y0238D01*
X02875D01*
Y0238D01*
X02875D01*
Y02378D01*
X02876D01*
Y02378D01*
X02876D01*
Y02377D01*
X02876D01*
Y02377D01*
X02877D01*
Y02376D01*
X02877D01*
Y02375D01*
X02878D01*
Y02375D01*
X02878D01*
Y02373D01*
X02879D01*
Y02373D01*
X02879D01*
Y02372D01*
X02879D01*
Y02372D01*
X0288D01*
Y02372D01*
X0288D01*
Y0237D01*
X02881D01*
Y02369D01*
X02881D01*
Y02369D01*
X02882D01*
Y02369D01*
X02882D01*
Y02368D01*
X02882D01*
Y02367D01*
X02883D01*
Y02367D01*
X02883D01*
Y02366D01*
X02884D01*
Y02366D01*
X02884D01*
Y02364D01*
X02885D01*
Y02364D01*
X02885D01*
Y02363D01*
X02885D01*
Y02362D01*
X02886D01*
Y02361D01*
X02886D01*
Y02361D01*
X02887D01*
Y02361D01*
X02887D01*
Y0236D01*
X02887D01*
Y02359D01*
X02888D01*
Y02358D01*
X02888D01*
Y02358D01*
X02889D01*
Y02357D01*
X02889D01*
Y02356D01*
X0289D01*
Y02356D01*
X0289D01*
Y02355D01*
X0289D01*
Y02355D01*
X02891D01*
Y02354D01*
X02891D01*
Y02353D01*
X02892D01*
Y02353D01*
X02892D01*
Y02352D01*
X02893D01*
Y02351D01*
X02893D01*
Y0235D01*
X02893D01*
Y0235D01*
X02894D01*
Y02349D01*
X02895D01*
Y0235D01*
X02895D01*
Y0235D01*
X02895D01*
Y02351D01*
X02896D01*
Y02351D01*
X02896D01*
Y02352D01*
X02897D01*
Y02353D01*
X02897D01*
Y02353D01*
X02898D01*
Y02354D01*
X02898D01*
Y02355D01*
X02898D01*
Y02355D01*
X02899D01*
Y02356D01*
X02899D01*
Y02357D01*
X029D01*
Y02358D01*
X029D01*
Y02358D01*
X02901D01*
Y02359D01*
X02901D01*
Y0236D01*
X02902D01*
Y02361D01*
X02902D01*
Y02362D01*
X02903D01*
Y02362D01*
X02903D01*
Y02363D01*
X02904D01*
Y02363D01*
X02904D01*
Y02364D01*
X02904D01*
Y02365D01*
X02905D01*
Y02366D01*
X02905D01*
Y02367D01*
X02906D01*
Y02367D01*
X02906D01*
Y02368D01*
X02906D01*
Y02368D01*
X02907D01*
Y02369D01*
X02907D01*
Y0237D01*
X02908D01*
Y0237D01*
X02908D01*
Y02372D01*
X02909D01*
Y02372D01*
X02909D01*
Y02373D01*
X0291D01*
Y02375D01*
X0291D01*
Y02375D01*
X02911D01*
Y02375D01*
X02911D01*
Y02376D01*
X02912D01*
Y02376D01*
X02912D01*
Y02378D01*
X02912D01*
Y02378D01*
X02913D01*
Y02379D01*
X02913D01*
Y0238D01*
X02914D01*
Y0238D01*
X02914D01*
Y02381D01*
X02915D01*
Y02381D01*
X02915D01*
Y02383D01*
X02915D01*
Y02383D01*
X02916D01*
Y02383D01*
X02916D01*
Y02384D01*
X02917D01*
Y02384D01*
X02917D01*
Y02385D01*
X02918D01*
Y02385D01*
X0292D01*
Y02386D01*
X0292D01*
Y02386D01*
X02923D01*
Y02386D01*
D02*
G37*
G36*
X02841D02*
X02842D01*
Y02385D01*
X02843D01*
Y02385D01*
X02843D01*
Y02384D01*
X02844D01*
Y02384D01*
X02844D01*
Y02383D01*
X02845D01*
Y02382D01*
X02845D01*
Y02382D01*
X02846D01*
Y02317D01*
X02845D01*
Y02317D01*
X02845D01*
Y02316D01*
X02844D01*
Y02315D01*
X02844D01*
Y02315D01*
X02843D01*
Y02315D01*
X02843D01*
Y02314D01*
X02843D01*
Y02314D01*
X02842D01*
Y02313D01*
X02836D01*
Y02314D01*
X02836D01*
Y02314D01*
X02835D01*
Y02315D01*
X02834D01*
Y02315D01*
X02834D01*
Y02315D01*
X02833D01*
Y02316D01*
X02833D01*
Y02362D01*
X02832D01*
Y02361D01*
X02831D01*
Y0236D01*
X02831D01*
Y02359D01*
X0283D01*
Y02359D01*
X0283D01*
Y02357D01*
X02829D01*
Y02357D01*
X02829D01*
Y02356D01*
X02828D01*
Y02356D01*
X02828D01*
Y02356D01*
X02827D01*
Y02355D01*
X02827D01*
Y02355D01*
X02827D01*
Y02353D01*
X02826D01*
Y02353D01*
X02826D01*
Y02353D01*
X02825D01*
Y02352D01*
X02825D01*
Y02352D01*
X02824D01*
Y02351D01*
X02824D01*
Y0235D01*
X02823D01*
Y02349D01*
X02822D01*
Y02348D01*
X02822D01*
Y02347D01*
X02822D01*
Y02347D01*
X02821D01*
Y02347D01*
X02821D01*
Y02346D01*
X0282D01*
Y02345D01*
X0282D01*
Y02345D01*
X02819D01*
Y02344D01*
X02819D01*
Y02344D01*
X02819D01*
Y02343D01*
X02818D01*
Y02342D01*
X02818D01*
Y02342D01*
X02817D01*
Y02341D01*
X02816D01*
Y0234D01*
X02816D01*
Y02339D01*
X02816D01*
Y02339D01*
X02815D01*
Y02338D01*
X02815D01*
Y02337D01*
X02814D01*
Y02337D01*
X02814D01*
Y02336D01*
X02813D01*
Y02336D01*
X02813D01*
Y02336D01*
X02813D01*
Y02335D01*
X02812D01*
Y02334D01*
X02812D01*
Y02334D01*
X02811D01*
Y02333D01*
X02811D01*
Y02333D01*
X02811D01*
Y02332D01*
X0281D01*
Y02331D01*
X02809D01*
Y0233D01*
X02809D01*
Y02329D01*
X02808D01*
Y02329D01*
X02808D01*
Y02328D01*
X02808D01*
Y02328D01*
X02807D01*
Y02327D01*
X02807D01*
Y02326D01*
X02806D01*
Y02326D01*
X02806D01*
Y02325D01*
X02805D01*
Y02325D01*
X02805D01*
Y02325D01*
X02805D01*
Y02324D01*
X02804D01*
Y02323D01*
X02804D01*
Y02323D01*
X02803D01*
Y02322D01*
X02803D01*
Y02322D01*
X02802D01*
Y02321D01*
X02802D01*
Y0232D01*
X02802D01*
Y0232D01*
X02801D01*
Y02319D01*
X02801D01*
Y02318D01*
X028D01*
Y02318D01*
X028D01*
Y02317D01*
X028D01*
Y02317D01*
X02799D01*
Y02317D01*
X02799D01*
Y02316D01*
X02798D01*
Y02316D01*
X02798D01*
Y02315D01*
X02797D01*
Y02315D01*
X02797D01*
Y02315D01*
X02797D01*
Y02314D01*
X02796D01*
Y02314D01*
X02796D01*
Y02313D01*
X0279D01*
Y02314D01*
X02789D01*
Y02314D01*
X02789D01*
Y02315D01*
X02789D01*
Y02315D01*
X02788D01*
Y02315D01*
X02788D01*
Y02316D01*
X02787D01*
Y02378D01*
Y02379D01*
Y02383D01*
X02788D01*
Y02383D01*
X02788D01*
Y02383D01*
X02789D01*
Y02384D01*
X02789D01*
Y02384D01*
X02789D01*
Y02385D01*
X0279D01*
Y02385D01*
X02791D01*
Y02386D01*
X02791D01*
Y02386D01*
X02795D01*
Y02386D01*
X02795D01*
Y02385D01*
X02797D01*
Y02385D01*
X02798D01*
Y02384D01*
X02798D01*
Y02384D01*
X02799D01*
Y02383D01*
X02799D01*
Y02382D01*
X028D01*
Y02382D01*
X028D01*
Y02338D01*
X02801D01*
Y02339D01*
X02802D01*
Y02339D01*
X02802D01*
Y0234D01*
X02803D01*
Y02341D01*
X02803D01*
Y02342D01*
X02804D01*
Y02342D01*
X02804D01*
Y02343D01*
X02805D01*
Y02343D01*
X02805D01*
Y02344D01*
X02805D01*
Y02344D01*
X02806D01*
Y02345D01*
X02806D01*
Y02345D01*
X02807D01*
Y02346D01*
X02807D01*
Y02347D01*
X02808D01*
Y02347D01*
X02808D01*
Y02347D01*
X02808D01*
Y02349D01*
X02809D01*
Y0235D01*
X0281D01*
Y0235D01*
X0281D01*
Y02351D01*
X02811D01*
Y02351D01*
X02811D01*
Y02352D01*
X02811D01*
Y02352D01*
X02812D01*
Y02353D01*
X02812D01*
Y02354D01*
X02813D01*
Y02354D01*
X02813D01*
Y02355D01*
X02813D01*
Y02356D01*
X02814D01*
Y02356D01*
X02815D01*
Y02358D01*
X02816D01*
Y02358D01*
X02816D01*
Y02359D01*
X02816D01*
Y02359D01*
X02817D01*
Y02361D01*
X02817D01*
Y02361D01*
X02818D01*
Y02361D01*
X02818D01*
Y02362D01*
X02819D01*
Y02362D01*
X02819D01*
Y02363D01*
X02819D01*
Y02363D01*
X0282D01*
Y02364D01*
X0282D01*
Y02365D01*
X02821D01*
Y02365D01*
X02821D01*
Y02366D01*
X02822D01*
Y02367D01*
X02822D01*
Y02367D01*
X02822D01*
Y02368D01*
X02823D01*
Y02369D01*
X02823D01*
Y02369D01*
X02824D01*
Y02369D01*
X02824D01*
Y0237D01*
X02824D01*
Y0237D01*
X02825D01*
Y02372D01*
X02825D01*
Y02372D01*
X02826D01*
Y02372D01*
X02826D01*
Y02373D01*
X02827D01*
Y02373D01*
X02827D01*
Y02374D01*
X02827D01*
Y02374D01*
X02828D01*
Y02375D01*
X02828D01*
Y02376D01*
X02829D01*
Y02377D01*
X02829D01*
Y02377D01*
X0283D01*
Y02378D01*
X0283D01*
Y02379D01*
X0283D01*
Y02379D01*
X02831D01*
Y0238D01*
X02831D01*
Y0238D01*
X02832D01*
Y0238D01*
X02832D01*
Y02381D01*
X02832D01*
Y02381D01*
X02833D01*
Y02383D01*
X02833D01*
Y02383D01*
X02834D01*
Y02383D01*
X02834D01*
Y02384D01*
X02835D01*
Y02384D01*
X02835D01*
Y02385D01*
X02835D01*
Y02385D01*
X02838D01*
Y02386D01*
X02838D01*
Y02386D01*
X02841D01*
Y02386D01*
D02*
G37*
G36*
X02994D02*
X02994D01*
Y02385D01*
X02996D01*
Y02385D01*
X02997D01*
Y02384D01*
X02997D01*
Y02384D01*
X02997D01*
Y02383D01*
X02998D01*
Y02382D01*
X02998D01*
Y02382D01*
X02999D01*
Y02379D01*
X02999D01*
Y02324D01*
Y02324D01*
Y0232D01*
X02999D01*
Y02317D01*
X02998D01*
Y02316D01*
X02998D01*
Y02315D01*
X02997D01*
Y02315D01*
X02997D01*
Y02315D01*
X02997D01*
Y02314D01*
X02996D01*
Y02314D01*
X02995D01*
Y02313D01*
X02989D01*
Y02314D01*
X02989D01*
Y02314D01*
X02988D01*
Y02315D01*
X02987D01*
Y02315D01*
X02987D01*
Y02316D01*
X02986D01*
Y02317D01*
X02986D01*
Y02374D01*
X02986D01*
Y02374D01*
X02956D01*
Y02373D01*
X02955D01*
Y02373D01*
X02956D01*
Y02319D01*
X02955D01*
Y02316D01*
X02954D01*
Y02315D01*
X02954D01*
Y02315D01*
X02953D01*
Y02314D01*
X02952D01*
Y02313D01*
X02946D01*
Y02314D01*
X02945D01*
Y02314D01*
X02945D01*
Y02315D01*
X02945D01*
Y02315D01*
X02944D01*
Y02315D01*
X02944D01*
Y02316D01*
X02943D01*
Y02316D01*
X02943D01*
Y02317D01*
X02942D01*
Y02382D01*
X02943D01*
Y02382D01*
X02943D01*
Y02383D01*
X02944D01*
Y02384D01*
X02944D01*
Y02384D01*
X02945D01*
Y02385D01*
X02945D01*
Y02385D01*
X02947D01*
Y02386D01*
X02994D01*
Y02386D01*
D02*
G37*
G36*
X02767D02*
X02768D01*
Y02385D01*
X0277D01*
Y02385D01*
X02771D01*
Y02384D01*
X02772D01*
Y02382D01*
X02772D01*
Y02382D01*
X02772D01*
Y0238D01*
X02773D01*
Y02379D01*
X02772D01*
Y02377D01*
X02773D01*
Y02376D01*
X02772D01*
Y02316D01*
X02772D01*
Y02316D01*
X02772D01*
Y02315D01*
X02771D01*
Y02315D01*
X02771D01*
Y02315D01*
X0277D01*
Y02314D01*
X0277D01*
Y02314D01*
X02769D01*
Y02313D01*
X02763D01*
Y02314D01*
X02763D01*
Y02314D01*
X02762D01*
Y02315D01*
X02761D01*
Y02316D01*
X02761D01*
Y02316D01*
X0276D01*
Y02317D01*
X0276D01*
Y02374D01*
X02759D01*
Y02374D01*
X02742D01*
Y02374D01*
X02741D01*
Y02366D01*
X02741D01*
Y02366D01*
X0274D01*
Y02352D01*
X0274D01*
Y02351D01*
X0274D01*
Y0235D01*
X0274D01*
Y0235D01*
X02739D01*
Y02346D01*
X02739D01*
Y02342D01*
X02739D01*
Y02341D01*
X02738D01*
Y02336D01*
X02737D01*
Y02332D01*
X02737D01*
Y02331D01*
X02737D01*
Y0233D01*
X02736D01*
Y02327D01*
X02736D01*
Y02326D01*
X02735D01*
Y02325D01*
X02735D01*
Y02324D01*
X02734D01*
Y02323D01*
X02734D01*
Y02323D01*
X02734D01*
Y02322D01*
X02733D01*
Y02321D01*
X02733D01*
Y0232D01*
X02732D01*
Y0232D01*
X02732D01*
Y02319D01*
X02731D01*
Y02319D01*
X02731D01*
Y02317D01*
X02731D01*
Y02317D01*
X0273D01*
Y02317D01*
X0273D01*
Y02316D01*
X02729D01*
Y02316D01*
X02729D01*
Y02315D01*
X02728D01*
Y02315D01*
X02727D01*
Y02315D01*
X02727D01*
Y02314D01*
X02726D01*
Y02314D01*
X02726D01*
Y02313D01*
X02723D01*
Y02313D01*
X02723D01*
Y02312D01*
X02717D01*
Y02313D01*
X02717D01*
Y02313D01*
X02715D01*
Y02314D01*
X02714D01*
Y02314D01*
X02714D01*
Y02315D01*
X02713D01*
Y02315D01*
X02713D01*
Y02315D01*
X02712D01*
Y02316D01*
X02712D01*
Y02318D01*
X02712D01*
Y02319D01*
X02711D01*
Y0232D01*
X02712D01*
Y0232D01*
X02712D01*
Y02323D01*
X02712D01*
Y02323D01*
X02713D01*
Y02323D01*
X02713D01*
Y02324D01*
X02714D01*
Y02324D01*
X02714D01*
Y02325D01*
X02715D01*
Y02325D01*
X0272D01*
Y02325D01*
X0272D01*
Y02326D01*
X02721D01*
Y02326D01*
X02721D01*
Y02327D01*
X02722D01*
Y02327D01*
X02722D01*
Y02328D01*
X02723D01*
Y02328D01*
X02723D01*
Y02328D01*
X02723D01*
Y0233D01*
X02724D01*
Y02333D01*
X02725D01*
Y02333D01*
X02725D01*
Y02334D01*
X02726D01*
Y02338D01*
X02726D01*
Y02339D01*
X02726D01*
Y02344D01*
X02727D01*
Y02345D01*
X02727D01*
Y0235D01*
X02728D01*
Y02356D01*
X02728D01*
Y02356D01*
X02728D01*
Y0238D01*
X02729D01*
Y0238D01*
X02729D01*
Y02383D01*
X0273D01*
Y02383D01*
X0273D01*
Y02383D01*
X02731D01*
Y02384D01*
X02731D01*
Y02384D01*
X02731D01*
Y02385D01*
X02732D01*
Y02385D01*
X02733D01*
Y02386D01*
X02734D01*
Y02386D01*
X02767D01*
Y02386D01*
D02*
G37*
G36*
X0268Y02386D02*
X02681D01*
Y02386D01*
X02686D01*
Y02386D01*
X02687D01*
Y02385D01*
X02689D01*
Y02385D01*
X0269D01*
Y02384D01*
X0269D01*
Y02384D01*
X02692D01*
Y02383D01*
X02693D01*
Y02383D01*
X02694D01*
Y02383D01*
X02695D01*
Y02382D01*
X02695D01*
Y02382D01*
X02696D01*
Y02381D01*
X02696D01*
Y02381D01*
X02697D01*
Y0238D01*
X02698D01*
Y0238D01*
X02698D01*
Y0238D01*
X02698D01*
Y02379D01*
X02699D01*
Y02379D01*
X027D01*
Y02378D01*
X02701D01*
Y02378D01*
X02701D01*
Y02377D01*
X02701D01*
Y02377D01*
X02702D01*
Y02376D01*
X02702D01*
Y02375D01*
X02703D01*
Y02375D01*
X02703D01*
Y02375D01*
X02704D01*
Y02374D01*
X02704D01*
Y02373D01*
X02704D01*
Y02372D01*
X02705D01*
Y02372D01*
X02705D01*
Y02372D01*
X02706D01*
Y0237D01*
X02706D01*
Y02369D01*
X02707D01*
Y02369D01*
X02707D01*
Y02368D01*
X02707D01*
Y02367D01*
X02708D01*
Y02365D01*
X02708D01*
Y02365D01*
X02709D01*
Y02364D01*
X02709D01*
Y02364D01*
X02709D01*
Y02363D01*
X02709D01*
Y02362D01*
X02709D01*
Y02361D01*
X0271D01*
Y02357D01*
X0271D01*
Y02356D01*
X02711D01*
Y02342D01*
X0271D01*
Y02342D01*
X0271D01*
Y02337D01*
X02709D01*
Y02336D01*
X02709D01*
Y02336D01*
X02709D01*
Y02334D01*
X02708D01*
Y02333D01*
X02708D01*
Y02332D01*
X02707D01*
Y02331D01*
X02707D01*
Y02329D01*
X02707D01*
Y02328D01*
X02706D01*
Y02328D01*
X02706D01*
Y02328D01*
X02705D01*
Y02327D01*
X02705D01*
Y02326D01*
X02704D01*
Y02325D01*
X02704D01*
Y02325D01*
X02704D01*
Y02325D01*
X02703D01*
Y02324D01*
X02703D01*
Y02323D01*
X02702D01*
Y02323D01*
X02702D01*
Y02322D01*
X02701D01*
Y02322D01*
X02701D01*
Y02321D01*
X02701D01*
Y02321D01*
X027D01*
Y0232D01*
X027D01*
Y0232D01*
X02698D01*
Y02319D01*
X02698D01*
Y02318D01*
X02697D01*
Y02318D01*
X02696D01*
Y02317D01*
X02696D01*
Y02317D01*
X02696D01*
Y02317D01*
X02695D01*
Y02316D01*
X02694D01*
Y02316D01*
X02693D01*
Y02315D01*
X02692D01*
Y02315D01*
X02691D01*
Y02315D01*
X0269D01*
Y02314D01*
X02689D01*
Y02314D01*
X02688D01*
Y02313D01*
X02685D01*
Y02313D01*
X02685D01*
Y02312D01*
X02668D01*
Y02313D01*
X02667D01*
Y02313D01*
X02664D01*
Y02314D01*
X02663D01*
Y02314D01*
X02663D01*
Y02315D01*
X02662D01*
Y02315D01*
X02661D01*
Y02315D01*
X02659D01*
Y02316D01*
X02658D01*
Y02316D01*
X02658D01*
Y02317D01*
X02657D01*
Y02317D01*
X02657D01*
Y02317D01*
X02656D01*
Y02318D01*
X02655D01*
Y02318D01*
X02655D01*
Y02319D01*
X02654D01*
Y0232D01*
X02653D01*
Y0232D01*
X02653D01*
Y0232D01*
X02652D01*
Y02321D01*
X02652D01*
Y02321D01*
X02652D01*
Y02322D01*
X02651D01*
Y02322D01*
X02651D01*
Y02323D01*
X0265D01*
Y02323D01*
X02649D01*
Y02324D01*
X02649D01*
Y02325D01*
X02649D01*
Y02325D01*
X02648D01*
Y02326D01*
X02648D01*
Y02327D01*
X02647D01*
Y02327D01*
X02647D01*
Y02328D01*
X02646D01*
Y02329D01*
X02646D01*
Y0233D01*
X02646D01*
Y0233D01*
X02645D01*
Y02332D01*
X02645D01*
Y02333D01*
X02644D01*
Y02334D01*
X02644D01*
Y02335D01*
X02644D01*
Y02336D01*
X02643D01*
Y02339D01*
X02643D01*
Y02339D01*
X02642D01*
Y02359D01*
X02643D01*
Y0236D01*
X02643D01*
Y02363D01*
X02644D01*
Y02364D01*
X02644D01*
Y02364D01*
X02644D01*
Y02367D01*
X02645D01*
Y02367D01*
X02645D01*
Y02368D01*
X02646D01*
Y02369D01*
X02646D01*
Y02369D01*
X02646D01*
Y02371D01*
X02647D01*
Y02371D01*
X02647D01*
Y02372D01*
X02648D01*
Y02373D01*
X02648D01*
Y02373D01*
X02649D01*
Y02374D01*
X02649D01*
Y02374D01*
X02649D01*
Y02375D01*
X0265D01*
Y02376D01*
X02651D01*
Y02377D01*
X02651D01*
Y02377D01*
X02652D01*
Y02378D01*
X02652D01*
Y02378D01*
X02652D01*
Y02379D01*
X02653D01*
Y02379D01*
X02654D01*
Y0238D01*
X02654D01*
Y0238D01*
X02655D01*
Y02381D01*
X02656D01*
Y02381D01*
X02657D01*
Y02382D01*
X02657D01*
Y02382D01*
X02658D01*
Y02383D01*
X02659D01*
Y02383D01*
X0266D01*
Y02384D01*
X02662D01*
Y02384D01*
X02663D01*
Y02385D01*
X02663D01*
Y02385D01*
X02665D01*
Y02386D01*
X02666D01*
Y02386D01*
X02671D01*
Y02386D01*
X02672D01*
Y02387D01*
X0268D01*
Y02386D01*
D02*
G37*
G36*
X02988Y0229D02*
X02989D01*
Y0229D01*
X02989D01*
Y0229D01*
X02991D01*
Y02289D01*
X02992D01*
Y02289D01*
X02992D01*
Y02288D01*
X02993D01*
Y02288D01*
X02993D01*
Y02287D01*
X02994D01*
Y02287D01*
X02994D01*
Y02287D01*
X02994D01*
Y02286D01*
X02995D01*
Y02285D01*
X02995D01*
Y02284D01*
X02996D01*
Y02283D01*
X02996D01*
Y02282D01*
X02997D01*
Y02281D01*
X02997D01*
Y02275D01*
X02997D01*
Y02275D01*
X02996D01*
Y02274D01*
X02996D01*
Y02273D01*
X02995D01*
Y02273D01*
X02975D01*
Y0227D01*
X02975D01*
Y02269D01*
X02975D01*
Y02268D01*
X02976D01*
Y02267D01*
X02976D01*
Y02266D01*
X02977D01*
Y02265D01*
X02977D01*
Y02265D01*
X02978D01*
Y02265D01*
X02978D01*
Y02264D01*
X02978D01*
Y02264D01*
X02979D01*
Y02263D01*
X02981D01*
Y02263D01*
X02982D01*
Y02263D01*
X02983D01*
Y02262D01*
X02986D01*
Y02263D01*
X02986D01*
Y02262D01*
X02987D01*
Y02263D01*
X02988D01*
Y02263D01*
X02989D01*
Y02263D01*
X02991D01*
Y02264D01*
X02991D01*
Y02264D01*
X02995D01*
Y02261D01*
X02994D01*
Y0226D01*
X02994D01*
Y0226D01*
X02994D01*
Y0226D01*
X02991D01*
Y02259D01*
X02991D01*
Y02259D01*
X02987D01*
Y02258D01*
X02987D01*
Y02259D01*
X02984D01*
Y02258D01*
X02983D01*
Y02259D01*
X02979D01*
Y02259D01*
X02979D01*
Y0226D01*
X02977D01*
Y0226D01*
X02977D01*
Y0226D01*
X02976D01*
Y02261D01*
X02975D01*
Y02261D01*
X02975D01*
Y02262D01*
X02974D01*
Y02262D01*
X02974D01*
Y02263D01*
X02973D01*
Y02263D01*
X02973D01*
Y02264D01*
X02972D01*
Y02265D01*
X02972D01*
Y02265D01*
X02972D01*
Y02267D01*
X02971D01*
Y0227D01*
Y02271D01*
X0297D01*
Y02271D01*
X0297D01*
Y02277D01*
X0297D01*
Y02278D01*
X02971D01*
Y02281D01*
X02971D01*
Y02282D01*
X02972D01*
Y02283D01*
X02972D01*
Y02284D01*
X02972D01*
Y02284D01*
X02973D01*
Y02285D01*
X02973D01*
Y02286D01*
X02974D01*
Y02286D01*
X02974D01*
Y02287D01*
X02975D01*
Y02287D01*
X02975D01*
Y02287D01*
X02975D01*
Y02288D01*
X02976D01*
Y02288D01*
X02976D01*
Y02289D01*
X02978D01*
Y02289D01*
X02978D01*
Y0229D01*
X0298D01*
Y0229D01*
X0298D01*
Y0229D01*
X02983D01*
Y02291D01*
X02986D01*
Y0229D01*
X02988D01*
Y02291D01*
X02988D01*
Y0229D01*
D02*
G37*
G36*
X0289D02*
X0289D01*
Y0229D01*
X02891D01*
Y0229D01*
X02893D01*
Y02289D01*
X02893D01*
Y02289D01*
X02894D01*
Y02288D01*
X02895D01*
Y02287D01*
X02895D01*
Y02287D01*
X02896D01*
Y02286D01*
X02896D01*
Y02285D01*
X02897D01*
Y02284D01*
X02897D01*
Y02284D01*
X02898D01*
Y02283D01*
X02898D01*
Y02282D01*
X02898D01*
Y02275D01*
X02898D01*
Y02273D01*
X02897D01*
Y02273D01*
X02897D01*
Y02273D01*
X02876D01*
Y02272D01*
X02876D01*
Y0227D01*
X02876D01*
Y02269D01*
X02877D01*
Y02268D01*
X02877D01*
Y02268D01*
X02878D01*
Y02267D01*
X02878D01*
Y02265D01*
X02879D01*
Y02265D01*
X02879D01*
Y02264D01*
X02881D01*
Y02263D01*
X02883D01*
Y02263D01*
X02883D01*
Y02263D01*
X02884D01*
Y02262D01*
X02887D01*
Y02263D01*
X02888D01*
Y02262D01*
X02889D01*
Y02263D01*
X0289D01*
Y02263D01*
X0289D01*
Y02263D01*
X02893D01*
Y02264D01*
X02893D01*
Y02264D01*
X02897D01*
Y02263D01*
X02897D01*
Y02262D01*
X02896D01*
Y02261D01*
X02896D01*
Y0226D01*
X02895D01*
Y0226D01*
X02895D01*
Y0226D01*
X02893D01*
Y02259D01*
X02892D01*
Y02259D01*
X02886D01*
Y02258D01*
X02885D01*
Y02259D01*
X02881D01*
Y02259D01*
X0288D01*
Y0226D01*
X02879D01*
Y0226D01*
X02877D01*
Y02261D01*
X02876D01*
Y02261D01*
X02876D01*
Y02262D01*
X02876D01*
Y02262D01*
X02875D01*
Y02263D01*
X02875D01*
Y02263D01*
X02874D01*
Y02265D01*
X02874D01*
Y02266D01*
X02873D01*
Y02267D01*
X02873D01*
Y02268D01*
X02872D01*
Y02271D01*
X02872D01*
Y02271D01*
X02871D01*
Y02275D01*
X02872D01*
Y02275D01*
X02871D01*
Y02277D01*
X02872D01*
Y02278D01*
X02872D01*
Y0228D01*
X02873D01*
Y02282D01*
X02873D01*
Y02282D01*
X02874D01*
Y02283D01*
X02874D01*
Y02284D01*
X02874D01*
Y02285D01*
X02875D01*
Y02286D01*
X02875D01*
Y02286D01*
X02876D01*
Y02287D01*
X02876D01*
Y02287D01*
X02876D01*
Y02287D01*
X02877D01*
Y02288D01*
X02878D01*
Y02288D01*
X02878D01*
Y02289D01*
X02879D01*
Y02289D01*
X0288D01*
Y0229D01*
X02881D01*
Y0229D01*
X02882D01*
Y0229D01*
X02884D01*
Y02291D01*
X02888D01*
Y0229D01*
X02889D01*
Y02291D01*
X0289D01*
Y0229D01*
D02*
G37*
G36*
X0293Y02289D02*
X0293D01*
Y0226D01*
X0293D01*
Y0226D01*
X02929D01*
Y02259D01*
X02929D01*
Y02259D01*
X02927D01*
Y02259D01*
X02927D01*
Y0226D01*
X02926D01*
Y0226D01*
X02926D01*
Y02261D01*
X02926D01*
Y02262D01*
X02926D01*
Y02271D01*
X02926D01*
Y02272D01*
X02926D01*
Y02273D01*
X02926D01*
Y02273D01*
X02923D01*
Y02273D01*
X02922D01*
Y02273D01*
X02913D01*
Y02273D01*
X02912D01*
Y02273D01*
X02909D01*
Y02273D01*
X02909D01*
Y0226D01*
X02908D01*
Y0226D01*
X02908D01*
Y02259D01*
X02907D01*
Y02259D01*
X02906D01*
Y02259D01*
X02906D01*
Y0226D01*
X02905D01*
Y02265D01*
Y02265D01*
Y0229D01*
X02908D01*
Y02289D01*
X02909D01*
Y02277D01*
X02909D01*
Y02276D01*
X02926D01*
Y02277D01*
X02926D01*
Y02278D01*
X02926D01*
Y02288D01*
X02926D01*
Y0229D01*
X0293D01*
Y02289D01*
D02*
G37*
G36*
X02863Y0229D02*
X02866D01*
Y0226D01*
X02865D01*
Y02259D01*
X02865D01*
Y02259D01*
X02863D01*
Y02259D01*
X02862D01*
Y0226D01*
X02862D01*
Y0226D01*
X02861D01*
Y02273D01*
X02861D01*
Y02273D01*
X02859D01*
Y02273D01*
X02857D01*
Y02273D01*
X02848D01*
Y02273D01*
X02847D01*
Y02273D01*
X02844D01*
Y02273D01*
X02844D01*
Y0226D01*
X02843D01*
Y0226D01*
X02843D01*
Y02259D01*
X02843D01*
Y02259D01*
X02841D01*
Y0226D01*
X0284D01*
Y0229D01*
X02843D01*
Y02289D01*
X02844D01*
Y02276D01*
X02861D01*
Y02277D01*
X02861D01*
Y02288D01*
X02862D01*
Y02289D01*
X02862D01*
Y0229D01*
X02863D01*
Y0229D01*
X02863D01*
Y0229D01*
D02*
G37*
G36*
X02964Y02289D02*
X02964D01*
Y02276D01*
X02964D01*
Y02275D01*
X02964D01*
Y02273D01*
X02964D01*
Y02272D01*
X02964D01*
Y02263D01*
X02964D01*
Y02262D01*
X02964D01*
Y0226D01*
X02964D01*
Y0226D01*
X02964D01*
Y02259D01*
X02963D01*
Y02259D01*
X02961D01*
Y02259D01*
X02961D01*
Y0226D01*
X0296D01*
Y0226D01*
X0296D01*
Y02281D01*
X02958D01*
Y02281D01*
X02958D01*
Y0228D01*
X02958D01*
Y02279D01*
X02957D01*
Y02279D01*
X02957D01*
Y02279D01*
X02956D01*
Y02278D01*
X02956D01*
Y02278D01*
X02956D01*
Y02277D01*
X02955D01*
Y02276D01*
X02955D01*
Y02276D01*
X02954D01*
Y02275D01*
X02954D01*
Y02275D01*
X02953D01*
Y02274D01*
X02953D01*
Y02274D01*
X02953D01*
Y02273D01*
X02952D01*
Y02272D01*
X02952D01*
Y02272D01*
X02951D01*
Y02271D01*
X02951D01*
Y02271D01*
X0295D01*
Y0227D01*
X0295D01*
Y0227D01*
X0295D01*
Y02269D01*
X02949D01*
Y02269D01*
X02949D01*
Y02268D01*
X02948D01*
Y02268D01*
X02948D01*
Y02267D01*
X02947D01*
Y02266D01*
X02947D01*
Y02266D01*
X02947D01*
Y02265D01*
X02946D01*
Y02265D01*
X02946D01*
Y02265D01*
X02945D01*
Y02264D01*
X02945D01*
Y02264D01*
X02945D01*
Y02263D01*
X02944D01*
Y02262D01*
X02944D01*
Y02262D01*
X02943D01*
Y02261D01*
X02943D01*
Y02261D01*
X02942D01*
Y0226D01*
X02942D01*
Y0226D01*
X0294D01*
Y02259D01*
X0294D01*
Y02259D01*
X02939D01*
Y02259D01*
X02939D01*
Y0226D01*
X02938D01*
Y0226D01*
X02938D01*
Y02261D01*
X02937D01*
Y02288D01*
X02938D01*
Y02289D01*
X02938D01*
Y0229D01*
X02942D01*
Y02267D01*
X02943D01*
Y02268D01*
X02944D01*
Y02268D01*
X02944D01*
Y02269D01*
X02945D01*
Y0227D01*
X02945D01*
Y02271D01*
X02945D01*
Y02271D01*
X02946D01*
Y02271D01*
X02946D01*
Y02272D01*
X02947D01*
Y02272D01*
X02947D01*
Y02273D01*
X02947D01*
Y02273D01*
X02948D01*
Y02275D01*
X02949D01*
Y02275D01*
X02949D01*
Y02276D01*
X0295D01*
Y02276D01*
X0295D01*
Y02277D01*
X0295D01*
Y02277D01*
X02951D01*
Y02278D01*
X02951D01*
Y02278D01*
X02952D01*
Y02279D01*
X02952D01*
Y0228D01*
X02953D01*
Y0228D01*
X02953D01*
Y02281D01*
X02953D01*
Y02281D01*
X02954D01*
Y02282D01*
X02954D01*
Y02282D01*
X02955D01*
Y02282D01*
X02955D01*
Y02283D01*
X02956D01*
Y02284D01*
X02956D01*
Y02284D01*
X02956D01*
Y02285D01*
X02957D01*
Y02285D01*
X02957D01*
Y02286D01*
X02958D01*
Y02287D01*
X02958D01*
Y02288D01*
X02959D01*
Y02289D01*
X0296D01*
Y0229D01*
X02964D01*
Y02289D01*
D02*
G37*
G36*
X02832Y0226D02*
X02832D01*
Y02259D01*
X02831D01*
Y02259D01*
X0283D01*
Y02259D01*
X0283D01*
Y0226D01*
X02829D01*
Y0226D01*
X02828D01*
Y02261D01*
X02828D01*
Y02281D01*
X02827D01*
Y02281D01*
X02827D01*
Y0228D01*
X02826D01*
Y0228D01*
X02826D01*
Y02279D01*
X02825D01*
Y02279D01*
X02825D01*
Y02279D01*
X02824D01*
Y02277D01*
X02824D01*
Y02277D01*
X02824D01*
Y02276D01*
X02823D01*
Y02276D01*
X02823D01*
Y02276D01*
X02822D01*
Y02275D01*
X02822D01*
Y02274D01*
X02822D01*
Y02274D01*
X02821D01*
Y02273D01*
X02821D01*
Y02273D01*
X0282D01*
Y02272D01*
X0282D01*
Y02271D01*
X02819D01*
Y02271D01*
X02819D01*
Y02271D01*
X02819D01*
Y0227D01*
X02818D01*
Y0227D01*
X02818D01*
Y02269D01*
X02817D01*
Y02268D01*
X02817D01*
Y02268D01*
X02816D01*
Y02267D01*
X02816D01*
Y02267D01*
X02816D01*
Y02266D01*
X02815D01*
Y02266D01*
X02815D01*
Y02265D01*
X02814D01*
Y02265D01*
X02813D01*
Y02264D01*
X02813D01*
Y02263D01*
X02813D01*
Y02263D01*
X02812D01*
Y02262D01*
X02812D01*
Y02261D01*
X02811D01*
Y02261D01*
X02811D01*
Y0226D01*
X02811D01*
Y0226D01*
X0281D01*
Y0226D01*
X02808D01*
Y02259D01*
X02808D01*
Y02259D01*
X02807D01*
Y0226D01*
X02807D01*
Y0226D01*
X02806D01*
Y02289D01*
X02807D01*
Y0229D01*
X0281D01*
Y02268D01*
X02811D01*
Y02267D01*
X02811D01*
Y02268D01*
X02812D01*
Y02268D01*
X02812D01*
Y02269D01*
X02813D01*
Y02269D01*
X02813D01*
Y0227D01*
X02813D01*
Y02271D01*
X02814D01*
Y02271D01*
X02814D01*
Y02272D01*
X02815D01*
Y02272D01*
X02815D01*
Y02273D01*
X02816D01*
Y02273D01*
X02816D01*
Y02273D01*
X02816D01*
Y02274D01*
X02817D01*
Y02275D01*
X02817D01*
Y02276D01*
X02818D01*
Y02276D01*
X02818D01*
Y02276D01*
X02819D01*
Y02277D01*
X02819D01*
Y02278D01*
X0282D01*
Y02279D01*
X0282D01*
Y02279D01*
X02821D01*
Y0228D01*
X02821D01*
Y0228D01*
X02822D01*
Y02281D01*
X02822D01*
Y02282D01*
X02822D01*
Y02282D01*
X02823D01*
Y02282D01*
X02823D01*
Y02283D01*
X02824D01*
Y02284D01*
X02824D01*
Y02284D01*
X02824D01*
Y02285D01*
X02825D01*
Y02285D01*
X02825D01*
Y02286D01*
X02826D01*
Y02286D01*
X02826D01*
Y02287D01*
X02827D01*
Y02287D01*
X02827D01*
Y02287D01*
X02827D01*
Y02288D01*
X02828D01*
Y02289D01*
X02828D01*
Y0229D01*
X02832D01*
Y0226D01*
D02*
G37*
G36*
X02796Y02289D02*
X02796D01*
Y02289D01*
X02797D01*
Y02288D01*
X02797D01*
Y02263D01*
X02797D01*
Y02263D01*
X02799D01*
Y02263D01*
X028D01*
Y02263D01*
X028D01*
Y02263D01*
X028D01*
Y02262D01*
X02801D01*
Y02262D01*
X02801D01*
Y02261D01*
X02801D01*
Y02254D01*
X02801D01*
Y02253D01*
X02801D01*
Y02252D01*
X028D01*
Y02252D01*
X028D01*
Y02252D01*
X02797D01*
Y02253D01*
X02797D01*
Y02254D01*
X02797D01*
Y02258D01*
X02796D01*
Y02259D01*
X02773D01*
Y02252D01*
X02772D01*
Y02252D01*
X0277D01*
Y02252D01*
X02769D01*
Y02262D01*
X0277D01*
Y02263D01*
X0277D01*
Y02263D01*
X0277D01*
Y02263D01*
X02771D01*
Y02263D01*
X02772D01*
Y02263D01*
X02773D01*
Y02264D01*
X02773D01*
Y02264D01*
X02774D01*
Y02265D01*
X02774D01*
Y02267D01*
X02775D01*
Y02268D01*
X02775D01*
Y0227D01*
X02775D01*
Y02271D01*
X02776D01*
Y02272D01*
X02776D01*
Y02277D01*
X02777D01*
Y02278D01*
X02777D01*
Y02289D01*
X02778D01*
Y0229D01*
X02796D01*
Y02289D01*
D02*
G37*
G36*
X0272Y0228D02*
X0272D01*
Y02279D01*
X02731D01*
Y02279D01*
X02731D01*
Y02279D01*
X02734D01*
Y02278D01*
X02734D01*
Y02278D01*
X02735D01*
Y02277D01*
X02735D01*
Y02276D01*
X02736D01*
Y02276D01*
X02737D01*
Y02275D01*
X02737D01*
Y02275D01*
X02737D01*
Y02273D01*
X02738D01*
Y02273D01*
X02738D01*
Y02266D01*
X02738D01*
Y02265D01*
X02737D01*
Y02264D01*
X02737D01*
Y02264D01*
X02737D01*
Y02263D01*
X02736D01*
Y02263D01*
X02735D01*
Y02262D01*
X02735D01*
Y02261D01*
X02734D01*
Y02261D01*
X02734D01*
Y0226D01*
X02733D01*
Y0226D01*
X02733D01*
Y0226D01*
X02729D01*
Y02259D01*
X02729D01*
Y02259D01*
X02718D01*
Y02259D01*
X02718D01*
Y0226D01*
X02717D01*
Y0226D01*
X02716D01*
Y02286D01*
X02715D01*
Y02286D01*
X02715D01*
Y02286D01*
X0271D01*
Y02286D01*
X02708D01*
Y02287D01*
X02708D01*
Y02287D01*
X02707D01*
Y02288D01*
X02708D01*
Y02289D01*
X02708D01*
Y0229D01*
X0272D01*
Y0228D01*
D02*
G37*
G36*
X02757Y0229D02*
X02761D01*
Y0229D01*
X02761D01*
Y0229D01*
X02762D01*
Y02289D01*
X02763D01*
Y02289D01*
X02764D01*
Y02288D01*
X02764D01*
Y02287D01*
X02764D01*
Y02287D01*
X02765D01*
Y02287D01*
X02765D01*
Y02286D01*
X02766D01*
Y02286D01*
X02766D01*
Y02285D01*
X02767D01*
Y02284D01*
X02767D01*
Y02284D01*
X02767D01*
Y02282D01*
X02768D01*
Y02274D01*
X02767D01*
Y02274D01*
X02767D01*
Y02273D01*
X02767D01*
Y02273D01*
X02766D01*
Y02273D01*
X02745D01*
Y02271D01*
X02746D01*
Y0227D01*
X02746D01*
Y02268D01*
X02747D01*
Y02267D01*
X02747D01*
Y02267D01*
X02748D01*
Y02266D01*
X02748D01*
Y02266D01*
X02748D01*
Y02265D01*
X02749D01*
Y02265D01*
X02749D01*
Y02265D01*
X0275D01*
Y02264D01*
X0275D01*
Y02264D01*
X0275D01*
Y02263D01*
X02752D01*
Y02263D01*
X02753D01*
Y02263D01*
X02753D01*
Y02262D01*
X02758D01*
Y02263D01*
X0276D01*
Y02263D01*
X0276D01*
Y02263D01*
X02763D01*
Y02264D01*
X02763D01*
Y02264D01*
X02767D01*
Y02263D01*
X02766D01*
Y02263D01*
X02766D01*
Y02261D01*
X02765D01*
Y0226D01*
X02765D01*
Y0226D01*
X02764D01*
Y0226D01*
X02762D01*
Y02259D01*
X02761D01*
Y02259D01*
X02757D01*
Y02258D01*
X02754D01*
Y02259D01*
X02751D01*
Y02259D01*
X0275D01*
Y0226D01*
X02748D01*
Y0226D01*
X02748D01*
Y0226D01*
X02747D01*
Y02261D01*
X02747D01*
Y02261D01*
X02746D01*
Y02262D01*
X02745D01*
Y02262D01*
X02745D01*
Y02263D01*
X02744D01*
Y02264D01*
X02744D01*
Y02264D01*
X02743D01*
Y02265D01*
X02743D01*
Y02266D01*
X02742D01*
Y02268D01*
X02742D01*
Y02268D01*
X02742D01*
Y0228D01*
X02742D01*
Y02281D01*
X02742D01*
Y02282D01*
X02743D01*
Y02283D01*
X02743D01*
Y02284D01*
X02744D01*
Y02284D01*
X02744D01*
Y02285D01*
X02745D01*
Y02286D01*
X02745D01*
Y02287D01*
X02745D01*
Y02287D01*
X02746D01*
Y02287D01*
X02746D01*
Y02288D01*
X02747D01*
Y02288D01*
X02747D01*
Y02289D01*
X02748D01*
Y02289D01*
X02749D01*
Y0229D01*
X0275D01*
Y0229D01*
X02751D01*
Y0229D01*
X02754D01*
Y02291D01*
X02757D01*
Y0229D01*
D02*
G37*
G36*
X02704Y023D02*
X02703D01*
Y023D01*
X02703D01*
Y02299D01*
X02701D01*
Y02299D01*
X02701D01*
Y02298D01*
X027D01*
Y02298D01*
X02699D01*
Y02298D01*
X02698D01*
Y02297D01*
X02696D01*
Y02297D01*
X02696D01*
Y02296D01*
X02695D01*
Y02296D01*
X02693D01*
Y02295D01*
X02691D01*
Y02295D01*
X0269D01*
Y02294D01*
X02689D01*
Y02294D01*
X02689D01*
Y02293D01*
X02688D01*
Y02293D01*
X02687D01*
Y02293D01*
X02686D01*
Y02292D01*
X02686D01*
Y02292D01*
X02685D01*
Y02291D01*
X02685D01*
Y02291D01*
X02685D01*
Y0229D01*
X02684D01*
Y0229D01*
X02684D01*
Y0229D01*
X02683D01*
Y02289D01*
X02683D01*
Y02289D01*
X02682D01*
Y02288D01*
X02682D01*
Y02285D01*
X02681D01*
Y02285D01*
X02681D01*
Y02284D01*
X0268D01*
Y02284D01*
X02681D01*
Y02283D01*
X02681D01*
Y02284D01*
X02682D01*
Y02284D01*
X02682D01*
Y02284D01*
X02682D01*
Y02285D01*
X02683D01*
Y02285D01*
X02683D01*
Y02286D01*
X02684D01*
Y02286D01*
X02684D01*
Y02287D01*
X02685D01*
Y02287D01*
X02685D01*
Y02287D01*
X02687D01*
Y02288D01*
X02688D01*
Y02288D01*
X02688D01*
Y02289D01*
X02696D01*
Y02288D01*
X02696D01*
Y02289D01*
X02697D01*
Y02288D01*
X02698D01*
Y02288D01*
X02698D01*
Y02287D01*
X027D01*
Y02287D01*
X027D01*
Y02287D01*
X02701D01*
Y02286D01*
X02701D01*
Y02286D01*
X02701D01*
Y02285D01*
X02702D01*
Y02285D01*
X02702D01*
Y02284D01*
X02703D01*
Y02284D01*
X02703D01*
Y02284D01*
X02704D01*
Y02283D01*
X02704D01*
Y02282D01*
X02704D01*
Y02282D01*
X02705D01*
Y0228D01*
X02705D01*
Y02279D01*
X02706D01*
Y02275D01*
X02706D01*
Y02273D01*
X02706D01*
Y02268D01*
X02705D01*
Y02268D01*
X02705D01*
Y02266D01*
X02704D01*
Y02265D01*
X02704D01*
Y02265D01*
X02704D01*
Y02264D01*
X02703D01*
Y02263D01*
X02703D01*
Y02263D01*
X02702D01*
Y02263D01*
X02702D01*
Y02262D01*
X02701D01*
Y02262D01*
X02701D01*
Y02261D01*
X02701D01*
Y02261D01*
X027D01*
Y0226D01*
X02699D01*
Y0226D01*
X02698D01*
Y0226D01*
X02697D01*
Y02259D01*
X02696D01*
Y02259D01*
X02691D01*
Y02258D01*
X02689D01*
Y02259D01*
X02686D01*
Y02259D01*
X02685D01*
Y0226D01*
X02684D01*
Y0226D01*
X02684D01*
Y0226D01*
X02682D01*
Y02261D01*
X02682D01*
Y02261D01*
X02682D01*
Y02262D01*
X02681D01*
Y02262D01*
X02681D01*
Y02263D01*
X0268D01*
Y02263D01*
X0268D01*
Y02264D01*
X02679D01*
Y02265D01*
X02679D01*
Y02265D01*
X02679D01*
Y02266D01*
X02678D01*
Y02267D01*
X02678D01*
Y02269D01*
X02677D01*
Y0227D01*
X02677D01*
Y02273D01*
X02676D01*
Y02282D01*
X02677D01*
Y02283D01*
Y02284D01*
Y02284D01*
X02677D01*
Y02285D01*
X02678D01*
Y02288D01*
X02678D01*
Y02289D01*
X02679D01*
Y0229D01*
X02679D01*
Y0229D01*
X02679D01*
Y02291D01*
X0268D01*
Y02292D01*
X0268D01*
Y02292D01*
X02681D01*
Y02293D01*
X02681D01*
Y02294D01*
X02682D01*
Y02294D01*
X02682D01*
Y02295D01*
X02683D01*
Y02295D01*
X02684D01*
Y02295D01*
X02684D01*
Y02296D01*
X02685D01*
Y02296D01*
X02685D01*
Y02297D01*
X02687D01*
Y02297D01*
X02687D01*
Y02298D01*
X02688D01*
Y02298D01*
X02689D01*
Y02298D01*
X02689D01*
Y02299D01*
X02691D01*
Y02299D01*
X02691D01*
Y023D01*
X02693D01*
Y023D01*
X02694D01*
Y02301D01*
X02695D01*
Y02301D01*
X02697D01*
Y02301D01*
X02697D01*
Y02302D01*
X02699D01*
Y02302D01*
X02699D01*
Y02303D01*
X02704D01*
Y023D01*
D02*
G37*
G36*
X02659Y0229D02*
X02662D01*
Y0229D01*
X02663D01*
Y0229D01*
X02664D01*
Y02289D01*
Y02289D01*
X02665D01*
Y02288D01*
X02666D01*
Y02288D01*
X02667D01*
Y02287D01*
X02667D01*
Y02287D01*
X02668D01*
Y02287D01*
X02668D01*
Y02286D01*
X02668D01*
Y02286D01*
X02669D01*
Y02285D01*
X02669D01*
Y02285D01*
X0267D01*
Y02284D01*
X0267D01*
Y02283D01*
X02671D01*
Y02282D01*
X02671D01*
Y02282D01*
X02671D01*
Y02279D01*
X02672D01*
Y02278D01*
X02672D01*
Y02271D01*
X02672D01*
Y02271D01*
X02671D01*
Y02268D01*
X02671D01*
Y02268D01*
X02671D01*
Y02267D01*
X02671D01*
Y02267D01*
X02671D01*
Y02266D01*
X0267D01*
Y02265D01*
X02669D01*
Y02264D01*
X02669D01*
Y02263D01*
X02668D01*
Y02263D01*
X02668D01*
Y02263D01*
X02668D01*
Y02262D01*
X02667D01*
Y02262D01*
X02667D01*
Y02261D01*
X02666D01*
Y02261D01*
X02666D01*
Y0226D01*
X02665D01*
Y0226D01*
X02665D01*
Y0226D01*
X02663D01*
Y02259D01*
X02662D01*
Y02259D01*
X02659D01*
Y02258D01*
X02657D01*
Y02259D01*
X02652D01*
Y02259D01*
X02651D01*
Y0226D01*
X02649D01*
Y0226D01*
X02649D01*
Y02261D01*
X02647D01*
Y02261D01*
X02647D01*
Y02262D01*
X02646D01*
Y02262D01*
X02646D01*
Y02263D01*
X02646D01*
Y02263D01*
X02645D01*
Y02264D01*
X02645D01*
Y02265D01*
X02644D01*
Y02265D01*
X02644D01*
Y02266D01*
X02644D01*
Y02266D01*
X02643D01*
Y02268D01*
X02643D01*
Y02269D01*
X02642D01*
Y0228D01*
X02643D01*
Y02281D01*
X02643D01*
Y02282D01*
X02644D01*
Y02284D01*
X02644D01*
Y02284D01*
X02644D01*
Y02284D01*
X02645D01*
Y02285D01*
X02645D01*
Y02286D01*
X02646D01*
Y02287D01*
X02646D01*
Y02287D01*
X02646D01*
Y02287D01*
X02648D01*
Y02288D01*
X02648D01*
Y02288D01*
X02649D01*
Y02289D01*
X02649D01*
Y02289D01*
X02649D01*
Y0229D01*
X02652D01*
Y0229D01*
X02652D01*
Y0229D01*
X02655D01*
Y02291D01*
X02659D01*
Y0229D01*
D02*
G37*
%LPC*%
G36*
X02679Y02375D02*
X02674D01*
Y02375D01*
X02673D01*
Y02374D01*
X0267D01*
Y02374D01*
X02669D01*
Y02373D01*
X02668D01*
Y02373D01*
X02667D01*
Y02372D01*
X02666D01*
Y02372D01*
X02665D01*
Y02372D01*
X02665D01*
Y02371D01*
X02665D01*
Y02371D01*
X02664D01*
Y0237D01*
X02664D01*
Y0237D01*
X02663D01*
Y02369D01*
X02662D01*
Y02368D01*
X02662D01*
Y02368D01*
X02661D01*
Y02367D01*
X02661D01*
Y02367D01*
X0266D01*
Y02367D01*
X0266D01*
Y02366D01*
X0266D01*
Y02366D01*
X02659D01*
Y02364D01*
X02659D01*
Y02364D01*
X02658D01*
Y02362D01*
X02658D01*
Y02362D01*
X02657D01*
Y02361D01*
X02657D01*
Y02358D01*
X02657D01*
Y02358D01*
X02656D01*
Y02354D01*
X02656D01*
Y02353D01*
X02656D01*
Y02352D01*
X02656D01*
Y02352D01*
X02655D01*
Y02347D01*
X02656D01*
Y02344D01*
X02656D01*
Y0234D01*
X02657D01*
Y02338D01*
X02657D01*
Y02337D01*
X02658D01*
Y02336D01*
X02658D01*
Y02335D01*
X02659D01*
Y02335D01*
X02659D01*
Y02334D01*
X0266D01*
Y02333D01*
X0266D01*
Y02332D01*
X0266D01*
Y02331D01*
X02661D01*
Y02331D01*
X02661D01*
Y02331D01*
X02662D01*
Y0233D01*
X02662D01*
Y0233D01*
X02663D01*
Y02329D01*
X02663D01*
Y02329D01*
X02663D01*
Y02328D01*
X02664D01*
Y02328D01*
X02664D01*
Y02328D01*
X02665D01*
Y02327D01*
X02666D01*
Y02327D01*
X02666D01*
Y02326D01*
X02667D01*
Y02326D01*
X02668D01*
Y02325D01*
X02668D01*
Y02325D01*
X0267D01*
Y02325D01*
X02671D01*
Y02324D01*
X02682D01*
Y02325D01*
X02682D01*
Y02325D01*
X02685D01*
Y02325D01*
X02685D01*
Y02326D01*
X02686D01*
Y02326D01*
X02687D01*
Y02327D01*
X02687D01*
Y02327D01*
X02688D01*
Y02328D01*
X02689D01*
Y02328D01*
X02689D01*
Y02329D01*
X0269D01*
Y0233D01*
X02691D01*
Y02331D01*
X02691D01*
Y02331D01*
X02692D01*
Y02332D01*
X02692D01*
Y02332D01*
X02693D01*
Y02333D01*
X02693D01*
Y02334D01*
X02693D01*
Y02334D01*
X02694D01*
Y02336D01*
X02694D01*
Y02336D01*
X02695D01*
Y02337D01*
X02695D01*
Y02339D01*
X02696D01*
Y02339D01*
X02696D01*
Y02343D01*
X02696D01*
Y02343D01*
X02697D01*
Y02356D01*
X02696D01*
Y02356D01*
X02696D01*
Y0236D01*
X02696D01*
Y0236D01*
X02695D01*
Y02362D01*
X02695D01*
Y02363D01*
X02694D01*
Y02364D01*
X02694D01*
Y02365D01*
X02693D01*
Y02365D01*
X02693D01*
Y02366D01*
X02693D01*
Y02366D01*
X02692D01*
Y02367D01*
X02692D01*
Y02368D01*
X02691D01*
Y02368D01*
X02691D01*
Y02369D01*
X0269D01*
Y02369D01*
X0269D01*
Y02369D01*
X0269D01*
Y0237D01*
X02689D01*
Y0237D01*
X02689D01*
Y02371D01*
X02688D01*
Y02371D01*
X02688D01*
Y02372D01*
X02687D01*
Y02372D01*
X02686D01*
Y02372D01*
X02686D01*
Y02373D01*
X02685D01*
Y02373D01*
X02684D01*
Y02374D01*
X02684D01*
Y02374D01*
X02679D01*
Y02375D01*
X02679D01*
Y02375D01*
D02*
G37*
G36*
X02986Y02287D02*
X02982D01*
Y02287D01*
X02982D01*
Y02286D01*
X02981D01*
Y02286D01*
X0298D01*
Y02285D01*
X02979D01*
Y02285D01*
X02978D01*
Y02284D01*
X02978D01*
Y02284D01*
X02977D01*
Y02284D01*
X02977D01*
Y02282D01*
X02976D01*
Y02282D01*
X02976D01*
Y02282D01*
X02975D01*
Y0228D01*
X02975D01*
Y02279D01*
X02975D01*
Y02276D01*
X02993D01*
Y02277D01*
X02993D01*
Y02279D01*
X02993D01*
Y0228D01*
X02992D01*
Y02282D01*
X02992D01*
Y02283D01*
X02991D01*
Y02283D01*
X02991D01*
Y02284D01*
X02991D01*
Y02284D01*
X0299D01*
Y02284D01*
X0299D01*
Y02285D01*
X02989D01*
Y02285D01*
X02989D01*
Y02286D01*
X02988D01*
Y02286D01*
X02987D01*
Y02287D01*
X02986D01*
Y02287D01*
D02*
G37*
G36*
X02888D02*
X02884D01*
Y02287D01*
X02883D01*
Y02286D01*
X02882D01*
Y02286D01*
X02881D01*
Y02285D01*
X02881D01*
Y02285D01*
X02879D01*
Y02284D01*
X02879D01*
Y02284D01*
X02878D01*
Y02282D01*
X02877D01*
Y0228D01*
X02877D01*
Y0228D01*
X02876D01*
Y02279D01*
X02876D01*
Y02277D01*
X02876D01*
Y02276D01*
X02895D01*
Y0228D01*
X02894D01*
Y0228D01*
X02894D01*
Y02282D01*
X02893D01*
Y02283D01*
X02893D01*
Y02283D01*
X02893D01*
Y02284D01*
X02892D01*
Y02285D01*
X02891D01*
Y02286D01*
X0289D01*
Y02286D01*
X02889D01*
Y02287D01*
X02888D01*
Y02287D01*
D02*
G37*
G36*
X02791Y02286D02*
X02791D01*
Y02286D01*
X02783D01*
Y02286D01*
X02782D01*
Y02286D01*
X02781D01*
Y02276D01*
X0278D01*
Y02276D01*
X02781D01*
Y02275D01*
X0278D01*
Y02275D01*
X0278D01*
Y02272D01*
X0278D01*
Y02269D01*
X02779D01*
Y02268D01*
X02779D01*
Y02265D01*
X02778D01*
Y02265D01*
X02778D01*
Y02263D01*
X02779D01*
Y02263D01*
X0278D01*
Y02263D01*
X02782D01*
Y02263D01*
X02783D01*
Y02263D01*
X02792D01*
Y02263D01*
X02792D01*
Y02286D01*
X02791D01*
Y02286D01*
D02*
G37*
G36*
X02729Y02276D02*
X0272D01*
Y02263D01*
X0272D01*
Y02263D01*
X02721D01*
Y02263D01*
X02727D01*
Y02263D01*
X02728D01*
Y02263D01*
X0273D01*
Y02264D01*
X02731D01*
Y02264D01*
X02732D01*
Y02265D01*
X02732D01*
Y02265D01*
X02733D01*
Y02265D01*
X02733D01*
Y02266D01*
X02734D01*
Y02272D01*
X02733D01*
Y02273D01*
X02733D01*
Y02273D01*
X02732D01*
Y02273D01*
X02732D01*
Y02274D01*
X02731D01*
Y02274D01*
X02731D01*
Y02275D01*
X0273D01*
Y02275D01*
X02729D01*
Y02276D01*
D02*
G37*
G36*
X02757Y02287D02*
X02753D01*
Y02287D01*
X02753D01*
Y02286D01*
X02752D01*
Y02286D01*
X0275D01*
Y02285D01*
X0275D01*
Y02285D01*
X0275D01*
Y02284D01*
X02749D01*
Y02284D01*
X02749D01*
Y02284D01*
X02748D01*
Y02283D01*
X02748D01*
Y02283D01*
X02748D01*
Y02282D01*
X02747D01*
Y02281D01*
X02747D01*
Y02281D01*
X02746D01*
Y02279D01*
X02746D01*
Y02279D01*
X02745D01*
Y02276D01*
X02764D01*
Y02277D01*
X02764D01*
Y0228D01*
X02764D01*
Y02281D01*
X02763D01*
Y02283D01*
X02763D01*
Y02284D01*
X02762D01*
Y02284D01*
X02762D01*
Y02284D01*
X02761D01*
Y02285D01*
X02761D01*
Y02285D01*
X02761D01*
Y02286D01*
X0276D01*
Y02286D01*
X02758D01*
Y02287D01*
X02757D01*
Y02287D01*
D02*
G37*
G36*
X02695Y02285D02*
X02689D01*
Y02284D01*
X02688D01*
Y02284D01*
X02687D01*
Y02284D01*
X02687D01*
Y02283D01*
X02686D01*
Y02283D01*
X02686D01*
Y02282D01*
X02685D01*
Y02282D01*
X02685D01*
Y02282D01*
X02685D01*
Y02281D01*
X02684D01*
Y02281D01*
X02684D01*
Y0228D01*
X02683D01*
Y0228D01*
X02683D01*
Y02279D01*
X02682D01*
Y02278D01*
X02682D01*
Y02278D01*
X02682D01*
Y0227D01*
X02682D01*
Y02269D01*
X02682D01*
Y02267D01*
X02683D01*
Y02266D01*
X02683D01*
Y02266D01*
X02684D01*
Y02265D01*
X02684D01*
Y02265D01*
X02685D01*
Y02265D01*
X02685D01*
Y02264D01*
X02685D01*
Y02264D01*
X02686D01*
Y02263D01*
X02688D01*
Y02263D01*
X02688D01*
Y02263D01*
X0269D01*
Y02262D01*
X02693D01*
Y02263D01*
X02695D01*
Y02263D01*
X02696D01*
Y02263D01*
X02697D01*
Y02264D01*
X02697D01*
Y02264D01*
X02698D01*
Y02265D01*
X02698D01*
Y02265D01*
X02698D01*
Y02265D01*
X02699D01*
Y02266D01*
X02699D01*
Y02266D01*
X027D01*
Y02267D01*
X027D01*
Y02267D01*
X02701D01*
Y02268D01*
X02701D01*
Y0227D01*
X02701D01*
Y02271D01*
X02702D01*
Y02276D01*
X02701D01*
Y02277D01*
X02701D01*
Y02279D01*
X02701D01*
Y0228D01*
X027D01*
Y0228D01*
X027D01*
Y02281D01*
X02699D01*
Y02282D01*
X02699D01*
Y02282D01*
X02698D01*
Y02282D01*
X02698D01*
Y02283D01*
X02697D01*
Y02283D01*
X02697D01*
Y02284D01*
X02696D01*
Y02284D01*
X02695D01*
Y02284D01*
X02695D01*
Y02285D01*
D02*
G37*
G36*
X02659Y02287D02*
X02655D01*
Y02287D01*
X02654D01*
Y02286D01*
X02654D01*
Y02286D01*
X02652D01*
Y02285D01*
X02652D01*
Y02285D01*
X0265D01*
Y02284D01*
X0265D01*
Y02284D01*
X02649D01*
Y02284D01*
X02649D01*
Y02283D01*
X02649D01*
Y02283D01*
X02648D01*
Y02282D01*
X02648D01*
Y02281D01*
X02647D01*
Y0228D01*
X02647D01*
Y02277D01*
X02646D01*
Y02276D01*
X02646D01*
Y02271D01*
X02647D01*
Y02269D01*
X02647D01*
Y02268D01*
X02648D01*
Y02268D01*
X02648D01*
Y02266D01*
X02649D01*
Y02266D01*
X02649D01*
Y02265D01*
X0265D01*
Y02265D01*
X0265D01*
Y02264D01*
X02651D01*
Y02263D01*
X02654D01*
Y02263D01*
X02654D01*
Y02263D01*
X02655D01*
Y02262D01*
X02658D01*
Y02263D01*
X0266D01*
Y02263D01*
X02661D01*
Y02263D01*
X02663D01*
Y02264D01*
X02664D01*
Y02265D01*
X02665D01*
Y02266D01*
X02665D01*
Y02266D01*
X02665D01*
Y02267D01*
X02666D01*
Y02268D01*
X02666D01*
Y02268D01*
X02667D01*
Y02269D01*
X02667D01*
Y0227D01*
X02668D01*
Y02279D01*
X02667D01*
Y0228D01*
X02667D01*
Y02281D01*
X02666D01*
Y02282D01*
X02665D01*
Y02283D01*
X02665D01*
Y02283D01*
X02665D01*
Y02284D01*
X02664D01*
Y02284D01*
X02664D01*
Y02284D01*
X02663D01*
Y02285D01*
X02663D01*
Y02285D01*
X02663D01*
Y02286D01*
X02661D01*
Y02286D01*
X0266D01*
Y02287D01*
X02659D01*
Y02287D01*
D02*
G37*
%LPD*%
D10*
X0131Y02182D02*
X01309Y02193D01*
X01306Y02202D01*
X01301Y02211D01*
X01294Y02219D01*
X01286Y02225D01*
X01277Y02229D01*
X01268Y02232D01*
X01257Y02232D01*
X01247Y02231D01*
X01238Y02227D01*
X01229Y02222D01*
X01222Y02215D01*
X01216Y02207D01*
X01212Y02197D01*
X0121Y02188D01*
Y02177D01*
X01212Y02168D01*
X01216Y02158D01*
X01222Y0215D01*
X01229Y02143D01*
X01238Y02138D01*
X01247Y02134D01*
X01257Y02133D01*
X01268Y02133D01*
X01277Y02136D01*
X01286Y0214D01*
X01294Y02146D01*
X01301Y02154D01*
X01306Y02163D01*
X01309Y02172D01*
X0131Y02182D01*
X01801Y01487D02*
X018Y01497D01*
X01797Y01507D01*
X01792Y01516D01*
X01785Y01523D01*
X01777Y01529D01*
X01768Y01534D01*
X01759Y01536D01*
X01748Y01537D01*
X01738Y01535D01*
X01729Y01532D01*
X0172Y01527D01*
X01713Y0152D01*
X01707Y01511D01*
X01703Y01502D01*
X01701Y01492D01*
Y01482D01*
X01703Y01472D01*
X01707Y01463D01*
X01713Y01454D01*
X0172Y01447D01*
X01729Y01442D01*
X01738Y01439D01*
X01748Y01437D01*
X01759Y01438D01*
X01768Y0144D01*
X01777Y01445D01*
X01785Y01451D01*
X01792Y01458D01*
X01797Y01467D01*
X018Y01477D01*
X01801Y01487D01*
X01165Y02102D02*
Y02257D01*
X0122Y02297D02*
X01315D01*
X01365Y02103D02*
Y02257D01*
X0122Y02072D02*
X01315D01*
X01846Y01412D02*
Y01567D01*
X01696Y01372D02*
X01791D01*
X01646Y01412D02*
Y01566D01*
X01696Y01597D02*
X01791D01*
X01488Y02816D02*
Y02856D01*
X01508D01*
X01515Y02849D01*
Y02836D01*
X01508Y02829D01*
X01488D01*
X01502D02*
X01515Y02816D01*
X01528D02*
X01542D01*
X01535D01*
Y02856D01*
X01528Y02849D01*
X02416Y01466D02*
Y01506D01*
X02429Y01493D01*
X02443Y01506D01*
Y01466D01*
X02456D02*
Y01493D01*
X02469Y01506D01*
X02483Y01493D01*
Y01466D01*
Y01486D01*
X02456D01*
X02496Y01506D02*
Y01466D01*
X02516D01*
X02523Y01473D01*
Y01499D01*
X02516Y01506D01*
X02496D01*
X02563D02*
X02536D01*
Y01466D01*
X02563D01*
X02536Y01486D02*
X02549D01*
X02616Y01506D02*
Y01466D01*
X02636D01*
X02643Y01473D01*
Y01479D01*
X02636Y01486D01*
X02616D01*
X02636D01*
X02643Y01493D01*
Y01499D01*
X02636Y01506D01*
X02616D01*
X02656D02*
Y01499D01*
X02669Y01486D01*
X02683Y01499D01*
Y01506D01*
X02669Y01486D02*
Y01466D01*
X02736Y01506D02*
Y01466D01*
Y01486D01*
X02763D01*
Y01506D01*
Y01466D01*
X02776Y01506D02*
Y01473D01*
X02783Y01466D01*
X02796D01*
X02803Y01473D01*
Y01506D01*
X02816D02*
Y01499D01*
X02829Y01486D01*
X02843Y01499D01*
Y01506D01*
X02829Y01486D02*
Y01466D01*
X02856D02*
Y01506D01*
X02883Y01466D01*
Y01506D01*
X02896D02*
Y01466D01*
Y01486D01*
X02923D01*
Y01506D01*
Y01466D01*
X02976Y01506D02*
X03002D01*
X02989D01*
Y01466D01*
X03016D02*
Y01493D01*
X03029Y01506D01*
X03042Y01493D01*
Y01466D01*
Y01486D01*
X03016D01*
X03056Y01466D02*
Y01506D01*
X03082Y01466D01*
Y01506D01*
X03162Y01499D02*
X03156Y01506D01*
X03142D01*
X03136Y01499D01*
Y01473D01*
X03142Y01466D01*
X03156D01*
X03162Y01473D01*
X03176Y01506D02*
Y01473D01*
X03182Y01466D01*
X03196D01*
X03202Y01473D01*
Y01506D01*
X03236D02*
X03222D01*
X03216Y01499D01*
Y01473D01*
X03222Y01466D01*
X03236D01*
X03242Y01473D01*
Y01499D01*
X03236Y01506D01*
X03256Y01466D02*
Y01506D01*
X03282Y01466D01*
Y01506D01*
X03322Y01499D02*
X03316Y01506D01*
X03302D01*
X03296Y01499D01*
Y01473D01*
X03302Y01466D01*
X03316D01*
X03322Y01473D01*
Y01486D01*
X03309D01*
X01296Y0152D02*
X01323D01*
X01309Y01533D02*
Y01507D01*
X01363Y0154D02*
X01336D01*
Y0152D01*
X01349Y01527D01*
X01356D01*
X01363Y0152D01*
Y01507D01*
X01356Y015D01*
X01343D01*
X01336Y01507D01*
X01323Y01628D02*
X01316Y01635D01*
X01303D01*
X01296Y01628D01*
Y01602D01*
X01303Y01595D01*
X01316D01*
X01323Y01602D01*
X01336Y01595D02*
Y01622D01*
X01349Y01635D01*
X01363Y01622D01*
Y01595D01*
Y01615D01*
X01336D01*
X01376Y01595D02*
Y01635D01*
X01403Y01595D01*
Y01635D01*
X01416D02*
Y01595D01*
X01443D01*
X01323Y01838D02*
X01316Y01845D01*
X01303D01*
X01296Y01838D01*
Y01812D01*
X01303Y01805D01*
X01316D01*
X01323Y01812D01*
Y01825D01*
X01309D01*
X01336Y01805D02*
Y01845D01*
X01363Y01805D01*
Y01845D01*
X01376D02*
Y01805D01*
X01396D01*
X01403Y01812D01*
Y01838D01*
X01396Y01845D01*
X01376D01*
X01323Y01728D02*
X01316Y01735D01*
X01303D01*
X01296Y01728D01*
Y01702D01*
X01303Y01695D01*
X01316D01*
X01323Y01702D01*
X01336Y01695D02*
Y01722D01*
X01349Y01735D01*
X01363Y01722D01*
Y01695D01*
Y01715D01*
X01336D01*
X01376Y01695D02*
Y01735D01*
X01403Y01695D01*
Y01735D01*
X01416D02*
Y01695D01*
Y01715D01*
X01443D01*
Y01735D01*
Y01695D01*
X01313Y02834D02*
X01306Y02841D01*
X01293D01*
X01286Y02834D01*
Y02808D01*
X01293Y02801D01*
X01306D01*
X01313Y02808D01*
Y02821D01*
X01299D01*
X01326Y02801D02*
Y02841D01*
X01353Y02801D01*
Y02841D01*
X01366D02*
Y02801D01*
X01386D01*
X01393Y02808D01*
Y02834D01*
X01386Y02841D01*
X01366D01*
X01313Y02734D02*
X01306Y02741D01*
X01293D01*
X01286Y02734D01*
Y02708D01*
X01293Y02701D01*
X01306D01*
X01313Y02708D01*
X01326Y02701D02*
Y02728D01*
X01339Y02741D01*
X01353Y02728D01*
Y02701D01*
Y02721D01*
X01326D01*
X01366Y02701D02*
Y02741D01*
X01393Y02701D01*
Y02741D01*
X01406D02*
Y02701D01*
Y02721D01*
X01433D01*
Y02741D01*
Y02701D01*
X01313Y02634D02*
X01306Y02641D01*
X01293D01*
X01286Y02634D01*
Y02608D01*
X01293Y02601D01*
X01306D01*
X01313Y02608D01*
X01326Y02601D02*
Y02628D01*
X01339Y02641D01*
X01353Y02628D01*
Y02601D01*
Y02621D01*
X01326D01*
X01366Y02601D02*
Y02641D01*
X01393Y02601D01*
Y02641D01*
X01406D02*
Y02601D01*
X01433D01*
X01286Y02526D02*
X01313D01*
X01299Y02539D02*
Y02513D01*
X01353Y02546D02*
X01326D01*
Y02526D01*
X01339Y02533D01*
X01346D01*
X01353Y02526D01*
Y02513D01*
X01346Y02506D01*
X01333D01*
X01326Y02513D01*
X02666Y01649D02*
X02673Y01656D01*
X02686D01*
X02693Y01649D01*
Y01623D01*
X02686Y01616D01*
X02673D01*
X02666Y01623D01*
Y01649D01*
X02766D02*
X02773Y01656D01*
X02786D01*
X02793Y01649D01*
Y01623D01*
X02786Y01616D01*
X02773D01*
X02766Y01623D01*
Y01649D01*
X02666Y01986D02*
X02679D01*
X02673D01*
Y02026D01*
X02666Y02019D01*
X02766Y01986D02*
X02779D01*
X02773D01*
Y02026D01*
X02766Y02019D01*
X02876Y01906D02*
X02836D01*
Y01886D01*
X02843Y01879D01*
X02849D01*
X02856Y01886D01*
Y01906D01*
Y01886D01*
X02863Y01879D01*
X02869D01*
X02876Y01886D01*
Y01906D01*
Y01846D02*
Y01859D01*
X02869Y01866D01*
X02843D01*
X02836Y01859D01*
Y01846D01*
X02843Y01839D01*
X02869D01*
X02876Y01846D01*
Y01806D02*
Y01819D01*
X02869Y01826D01*
X02843D01*
X02836Y01819D01*
Y01806D01*
X02843Y01799D01*
X02869D01*
X02876Y01806D01*
Y01786D02*
Y01759D01*
Y01773D01*
X02836D01*
Y01746D02*
Y01733D01*
Y01739D01*
X02876D01*
X02869Y01746D01*
X02564Y01726D02*
X02604D01*
Y01746D01*
X02597Y01753D01*
X02591D01*
X02584Y01746D01*
Y01726D01*
Y01746D01*
X02577Y01753D01*
X02571D01*
X02564Y01746D01*
Y01726D01*
Y01786D02*
Y01773D01*
X02571Y01766D01*
X02597D01*
X02604Y01773D01*
Y01786D01*
X02597Y01793D01*
X02571D01*
X02564Y01786D01*
Y01826D02*
Y01813D01*
X02571Y01806D01*
X02597D01*
X02604Y01813D01*
Y01826D01*
X02597Y01833D01*
X02571D01*
X02564Y01826D01*
Y01846D02*
Y01873D01*
Y01859D01*
X02604D01*
X02571Y01886D02*
X02564Y01893D01*
Y01906D01*
X02571Y01913D01*
X02597D01*
X02604Y01906D01*
Y01893D01*
X02597Y01886D01*
X02571D01*
X01958Y01209D02*
X01931D01*
X01918Y01222D01*
X01931Y01236D01*
X01958D01*
X01938D01*
Y01209D01*
X01918Y01276D02*
Y01249D01*
X01938D01*
X01931Y01262D01*
Y01269D01*
X01938Y01276D01*
X01951D01*
X01958Y01269D01*
Y01256D01*
X01951Y01249D01*
X01858Y01209D02*
X01831D01*
X01818Y01222D01*
X01831Y01236D01*
X01858D01*
X01838D01*
Y01209D01*
X01858Y01269D02*
X01818D01*
X01838Y01249D01*
Y01276D01*
X01758Y01209D02*
X01731D01*
X01718Y01222D01*
X01731Y01236D01*
X01758D01*
X01738D01*
Y01209D01*
X01725Y01249D02*
X01718Y01256D01*
Y01269D01*
X01725Y01276D01*
X01731D01*
X01738Y01269D01*
Y01262D01*
Y01269D01*
X01745Y01276D01*
X01751D01*
X01758Y01269D01*
Y01256D01*
X01751Y01249D01*
X01658Y01209D02*
X01631D01*
X01618Y01222D01*
X01631Y01236D01*
X01658D01*
X01638D01*
Y01209D01*
X01658Y01276D02*
Y01249D01*
X01631Y01276D01*
X01625D01*
X01618Y01269D01*
Y01256D01*
X01625Y01249D01*
X01558Y01209D02*
X01531D01*
X01518Y01222D01*
X01531Y01236D01*
X01558D01*
X01538D01*
Y01209D01*
X01558Y01249D02*
Y01262D01*
Y01256D01*
X01518D01*
X01525Y01249D01*
X02158Y01209D02*
X02131D01*
X02118Y01222D01*
X02131Y01236D01*
X02158D01*
X02138D01*
Y01209D01*
X02118Y01249D02*
Y01276D01*
X02125D01*
X02151Y01249D01*
X02158D01*
X02318Y01209D02*
X02358D01*
Y01229D01*
X02351Y01236D01*
X02345D01*
X02338Y01229D01*
Y01209D01*
Y01229D01*
X02331Y01236D01*
X02325D01*
X02318Y01229D01*
Y01209D01*
X02358Y01249D02*
Y01262D01*
Y01256D01*
X02318D01*
X02325Y01249D01*
X02058Y01209D02*
X02031D01*
X02018Y01222D01*
X02031Y01236D01*
X02058D01*
X02038D01*
Y01209D01*
X02018Y01276D02*
X02025Y01262D01*
X02038Y01249D01*
X02051D01*
X02058Y01256D01*
Y01269D01*
X02051Y01276D01*
X02045D01*
X02038Y01269D01*
Y01249D01*
X02218Y01209D02*
X02258D01*
Y01229D01*
X02251Y01236D01*
X02245D01*
X02238Y01229D01*
Y01209D01*
Y01229D01*
X02231Y01236D01*
X02225D01*
X02218Y01229D01*
Y01209D01*
X02225Y01249D02*
X02218Y01256D01*
Y01269D01*
X02225Y01276D01*
X02251D01*
X02258Y01269D01*
Y01256D01*
X02251Y01249D01*
X02225D01*
X01459Y01211D02*
X01432D01*
X01419Y01224D01*
X01432Y01238D01*
X01459D01*
X01439D01*
Y01211D01*
X01426Y01251D02*
X01419Y01258D01*
Y01271D01*
X01426Y01278D01*
X01452D01*
X01459Y01271D01*
Y01258D01*
X01452Y01251D01*
X01426D01*
X03079Y02508D02*
Y02535D01*
X03092Y02548D01*
X03105Y02535D01*
Y02508D01*
Y02528D01*
X03079D01*
X03119Y02515D02*
X03125Y02508D01*
X03139D01*
X03145Y02515D01*
Y02541D01*
X03139Y02548D01*
X03125D01*
X03119Y02541D01*
Y02535D01*
X03125Y02528D01*
X03145D01*
X02526Y03144D02*
Y03117D01*
X02539Y03131D02*
X02513D01*
X02546Y03077D02*
Y03104D01*
X02526D01*
X02533Y03091D01*
Y03084D01*
X02526Y03077D01*
X02513D01*
X02506Y03084D01*
Y03097D01*
X02513Y03104D01*
X01554Y03037D02*
X01561Y03044D01*
Y03057D01*
X01554Y03064D01*
X01528D01*
X01521Y03057D01*
Y03044D01*
X01528Y03037D01*
X01554Y02997D02*
X01561Y03004D01*
Y03017D01*
X01554Y03024D01*
X01548D01*
X01541Y03017D01*
Y03004D01*
X01534Y02997D01*
X01528D01*
X01521Y03004D01*
Y03017D01*
X01528Y03024D01*
X01554Y02984D02*
X01561Y02977D01*
Y02964D01*
X01554Y02957D01*
X01548D01*
X01541Y02964D01*
Y02971D01*
Y02964D01*
X01534Y02957D01*
X01528D01*
X01521Y02964D01*
Y02977D01*
X01528Y02984D01*
X01659Y03037D02*
X01666Y03044D01*
Y03057D01*
X01659Y03064D01*
X01633D01*
X01626Y03057D01*
Y03044D01*
X01633Y03037D01*
X01659Y02997D02*
X01666Y03004D01*
Y03017D01*
X01659Y03024D01*
X01653D01*
X01646Y03017D01*
Y03004D01*
X01639Y02997D01*
X01633D01*
X01626Y03004D01*
Y03017D01*
X01633Y03024D01*
X01626Y02957D02*
Y02984D01*
X01653Y02957D01*
X01659D01*
X01666Y02964D01*
Y02977D01*
X01659Y02984D01*
X01833Y02904D02*
X01826Y02911D01*
X01813D01*
X01806Y02904D01*
Y02878D01*
X01813Y02871D01*
X01826D01*
X01833Y02878D01*
X01846Y02871D02*
Y02898D01*
X01859Y02911D01*
X01873Y02898D01*
Y02871D01*
Y02891D01*
X01846D01*
X01886Y02871D02*
Y02911D01*
X01913Y02871D01*
Y02911D01*
X01966D02*
X01993D01*
X01979D01*
Y02871D01*
X02033Y02911D02*
X02006D01*
Y02871D01*
X02033D01*
X02006Y02891D02*
X02019D01*
X02046Y02871D02*
Y02911D01*
X02066D01*
X02073Y02904D01*
Y02891D01*
X02066Y02884D01*
X02046D01*
X02059D02*
X02073Y02871D01*
X02086D02*
Y02911D01*
X02099Y02898D01*
X02113Y02911D01*
Y02871D01*
X02126Y02911D02*
X02139D01*
X02133D01*
Y02871D01*
X02126D01*
X02139D01*
X02159D02*
Y02911D01*
X02186Y02871D01*
Y02911D01*
X02199Y02871D02*
Y02898D01*
X02213Y02911D01*
X02226Y02898D01*
Y02871D01*
Y02891D01*
X02199D01*
X02239Y02911D02*
X02266D01*
X02253D01*
Y02871D01*
X02279Y02911D02*
X02293D01*
X02286D01*
Y02871D01*
X02279D01*
X02293D01*
X02332Y02911D02*
X02319D01*
X02313Y02904D01*
Y02878D01*
X02319Y02871D01*
X02332D01*
X02339Y02878D01*
Y02904D01*
X02332Y02911D01*
X02352Y02871D02*
Y02911D01*
X02379Y02871D01*
Y02911D01*
X02956Y01696D02*
X02983D01*
Y01689D01*
X02956Y01663D01*
Y01656D01*
X02983D01*
X02996Y01676D02*
X03023D01*
X03063Y01689D02*
X03056Y01696D01*
X03043D01*
X03036Y01689D01*
Y01663D01*
X03043Y01656D01*
X03056D01*
X03063Y01663D01*
X02961Y01791D02*
Y01751D01*
X02981D01*
X02988Y01758D01*
Y01784D01*
X02981Y01791D01*
X02961D01*
X03001D02*
X03014D01*
X03008D01*
Y01751D01*
X03001D01*
X03014D01*
X03034D02*
Y01791D01*
X03048Y01778D01*
X03061Y01791D01*
Y01751D01*
X02921Y01876D02*
X02948D01*
X02934Y01889D02*
Y01863D01*
X02961Y01889D02*
X02968Y01896D01*
X02981D01*
X02988Y01889D01*
Y01883D01*
X02981Y01876D01*
X02974D01*
X02981D01*
X02988Y01869D01*
Y01863D01*
X02981Y01856D01*
X02968D01*
X02961Y01863D01*
X03001Y01856D02*
Y01863D01*
X03008D01*
Y01856D01*
X03001D01*
X03034Y01889D02*
X03041Y01896D01*
X03054D01*
X03061Y01889D01*
Y01883D01*
X03054Y01876D01*
X03048D01*
X03054D01*
X03061Y01869D01*
Y01863D01*
X03054Y01856D01*
X03041D01*
X03034Y01863D01*
X02983Y01989D02*
X02976Y01996D01*
X02963D01*
X02956Y01989D01*
Y01963D01*
X02963Y01956D01*
X02976D01*
X02983Y01963D01*
Y01976D01*
X02969D01*
X02996Y01956D02*
Y01996D01*
X03023Y01956D01*
Y01996D01*
X03036D02*
Y01956D01*
X03056D01*
X03063Y01963D01*
Y01989D01*
X03056Y01996D01*
X03036D01*
X03045Y02248D02*
Y02208D01*
X03065D01*
X03072Y02215D01*
Y02221D01*
X03065Y02228D01*
X03045D01*
X03065D01*
X03072Y02235D01*
Y02241D01*
X03065Y02248D01*
X03045D01*
X03085Y02208D02*
X03099D01*
X03092D01*
Y02248D01*
X03085Y02241D01*
X03139Y02208D02*
Y02248D01*
X03119Y02228D01*
X03145D01*
X03045Y02348D02*
Y02308D01*
X03065D01*
X03072Y02315D01*
Y02321D01*
X03065Y02328D01*
X03045D01*
X03065D01*
X03072Y02335D01*
Y02341D01*
X03065Y02348D01*
X03045D01*
X03085Y02308D02*
X03099D01*
X03092D01*
Y02348D01*
X03085Y02341D01*
X03145Y02348D02*
X03119D01*
Y02328D01*
X03132Y02335D01*
X03139D01*
X03145Y02328D01*
Y02315D01*
X03139Y02308D01*
X03125D01*
X03119Y02315D01*
X03079Y02408D02*
Y02435D01*
X03092Y02448D01*
X03105Y02435D01*
Y02408D01*
Y02428D01*
X03079D01*
X03119Y02441D02*
X03125Y02448D01*
X03139D01*
X03145Y02441D01*
Y02435D01*
X03139Y02428D01*
X03145Y02421D01*
Y02415D01*
X03139Y02408D01*
X03125D01*
X03119Y02415D01*
Y02421D01*
X03125Y02428D01*
X03119Y02435D01*
Y02441D01*
X03125Y02428D02*
X03139D01*
X03059Y02708D02*
Y02735D01*
X03072Y02748D01*
X03085Y02735D01*
Y02708D01*
Y02728D01*
X03059D01*
X03099Y02708D02*
X03112D01*
X03105D01*
Y02748D01*
X03099Y02741D01*
X03132Y02708D02*
X03145D01*
X03139D01*
Y02748D01*
X03132Y02741D01*
X03045Y02608D02*
Y02635D01*
X03059Y02648D01*
X03072Y02635D01*
Y02608D01*
Y02628D01*
X03045D01*
X03085Y02608D02*
X03099D01*
X03092D01*
Y02648D01*
X03085Y02641D01*
X03119D02*
X03125Y02648D01*
X03139D01*
X03145Y02641D01*
Y02615D01*
X03139Y02608D01*
X03125D01*
X03119Y02615D01*
Y02641D01*
X03045Y02808D02*
Y02835D01*
X03059Y02848D01*
X03072Y02835D01*
Y02808D01*
Y02828D01*
X03045D01*
X03085Y02808D02*
X03099D01*
X03092D01*
Y02848D01*
X03085Y02841D01*
X03145Y02808D02*
X03119D01*
X03145Y02835D01*
Y02841D01*
X03139Y02848D01*
X03125D01*
X03119Y02841D01*
X02739Y03117D02*
X02746Y03124D01*
Y03137D01*
X02739Y03144D01*
X02733D01*
X02726Y03137D01*
Y03124D01*
X02719Y03117D01*
X02713D01*
X02706Y03124D01*
Y03137D01*
X02713Y03144D01*
X02746Y03104D02*
X02706D01*
X02719Y03091D01*
X02706Y03077D01*
X02746D01*
X02739Y03037D02*
X02746Y03044D01*
Y03057D01*
X02739Y03064D01*
X02713D01*
X02706Y03057D01*
Y03044D01*
X02713Y03037D01*
X02746Y03024D02*
X02706D01*
Y02997D01*
X02746Y02984D02*
X02706D01*
X02719D01*
X02746Y02957D01*
X02726Y02977D01*
X02706Y02957D01*
X02839Y03117D02*
X02846Y03124D01*
Y03137D01*
X02839Y03144D01*
X02813D01*
X02806Y03137D01*
Y03124D01*
X02813Y03117D01*
X02826D01*
Y03131D01*
X02806Y03104D02*
X02846D01*
X02806Y03077D01*
X02846D01*
Y03064D02*
X02806D01*
Y03044D01*
X02813Y03037D01*
X02839D01*
X02846Y03044D01*
Y03064D01*
X02939Y03117D02*
X02946Y03124D01*
Y03137D01*
X02939Y03144D01*
X02933D01*
X02926Y03137D01*
Y03124D01*
X02919Y03117D01*
X02913D01*
X02906Y03124D01*
Y03137D01*
X02913Y03144D01*
X02946Y03104D02*
X02906D01*
X02919Y03091D01*
X02906Y03077D01*
X02946D01*
Y03064D02*
X02906D01*
Y03044D01*
X02913Y03037D01*
X02939D01*
X02946Y03044D01*
Y03064D01*
Y03024D02*
Y03011D01*
Y03017D01*
X02906D01*
Y03024D01*
Y03011D01*
X02946Y02971D02*
Y02984D01*
X02939Y02991D01*
X02913D01*
X02906Y02984D01*
Y02971D01*
X02913Y02964D01*
X02939D01*
X02946Y02971D01*
X02626Y03144D02*
Y03117D01*
X02639Y03131D02*
X02613D01*
X02639Y03104D02*
X02646Y03097D01*
Y03084D01*
X02639Y03077D01*
X02633D01*
X02626Y03084D01*
Y03091D01*
Y03084D01*
X02619Y03077D01*
X02613D01*
X02606Y03084D01*
Y03097D01*
X02613Y03104D01*
X02606Y03064D02*
X02613D01*
Y03057D01*
X02606D01*
Y03064D01*
X02639Y03031D02*
X02646Y03024D01*
Y03011D01*
X02639Y03004D01*
X02633D01*
X02626Y03011D01*
Y03017D01*
Y03011D01*
X02619Y03004D01*
X02613D01*
X02606Y03011D01*
Y03024D01*
X02613Y03031D01*
X02871Y01331D02*
X02865Y01324D01*
Y01311D01*
X02871Y01304D01*
X02898D01*
X02904Y01311D01*
Y01324D01*
X02898Y01331D01*
X02885D01*
Y01317D01*
X02904Y01344D02*
X02865D01*
X02904Y01371D01*
X02865D01*
Y01384D02*
X02904D01*
Y01404D01*
X02898Y01411D01*
X02871D01*
X02865Y01404D01*
Y01384D01*
X02785Y01304D02*
Y01331D01*
X02771Y01317D02*
X02798D01*
X02765Y01371D02*
Y01344D01*
X02785D01*
X02778Y01357D01*
Y01364D01*
X02785Y01371D01*
X02798D01*
X02804Y01364D01*
Y01351D01*
X02798Y01344D01*
X02671Y01331D02*
X02665Y01324D01*
Y01311D01*
X02671Y01304D01*
X02678D01*
X02685Y01311D01*
Y01324D01*
X02691Y01331D01*
X02698D01*
X02704Y01324D01*
Y01311D01*
X02698Y01304D01*
X02665Y01344D02*
X02704D01*
Y01364D01*
X02698Y01371D01*
X02671D01*
X02665Y01364D01*
Y01344D01*
X02704Y01384D02*
X02678D01*
X02665Y01397D01*
X02678Y01411D01*
X02704D01*
X02685D01*
Y01384D01*
X02571Y01331D02*
X02565Y01324D01*
Y01311D01*
X02571Y01304D01*
X02578D01*
X02585Y01311D01*
Y01324D01*
X02591Y01331D01*
X02598D01*
X02604Y01324D01*
Y01311D01*
X02598Y01304D01*
X02571Y01371D02*
X02565Y01364D01*
Y01351D01*
X02571Y01344D01*
X02598D01*
X02604Y01351D01*
Y01364D01*
X02598Y01371D01*
X02565Y01384D02*
X02604D01*
Y01411D01*
X02259Y03037D02*
X02266Y03044D01*
Y03057D01*
X02259Y03064D01*
X02233D01*
X02226Y03057D01*
Y03044D01*
X02233Y03037D01*
X02246D01*
Y03051D01*
X02226Y03024D02*
X02266D01*
X02226Y02997D01*
X02266D01*
Y02984D02*
X02226D01*
Y02964D01*
X02233Y02957D01*
X02259D01*
X02266Y02964D01*
Y02984D01*
X02141Y03064D02*
Y03037D01*
X02154Y03051D02*
X02128D01*
X02161Y02997D02*
Y03024D01*
X02141D01*
X02148Y03011D01*
Y03004D01*
X02141Y02997D01*
X02128D01*
X02121Y03004D01*
Y03017D01*
X02128Y03024D01*
X01964Y03037D02*
X01971Y03044D01*
Y03057D01*
X01964Y03064D01*
X01958D01*
X01951Y03057D01*
Y03044D01*
X01944Y03037D01*
X01938D01*
X01931Y03044D01*
Y03057D01*
X01938Y03064D01*
X01964Y02997D02*
X01971Y03004D01*
Y03017D01*
X01964Y03024D01*
X01938D01*
X01931Y03017D01*
Y03004D01*
X01938Y02997D01*
X01971Y02984D02*
X01931D01*
X01944D01*
X01971Y02957D01*
X01951Y02977D01*
X01931Y02957D01*
X02064Y03037D02*
X02071Y03044D01*
Y03057D01*
X02064Y03064D01*
X02038D01*
X02031Y03057D01*
Y03044D01*
X02038Y03037D01*
X02064Y02997D02*
X02071Y03004D01*
Y03017D01*
X02064Y03024D01*
X02058D01*
X02051Y03017D01*
Y03004D01*
X02044Y02997D01*
X02038D01*
X02031Y03004D01*
Y03017D01*
X02038Y03024D01*
X02031Y02984D02*
Y02971D01*
Y02977D01*
X02071D01*
X02064Y02984D01*
X01721Y03064D02*
X01761D01*
X01748Y03051D01*
X01761Y03037D01*
X01721D01*
X01761Y03004D02*
Y03017D01*
X01754Y03024D01*
X01728D01*
X01721Y03017D01*
Y03004D01*
X01728Y02997D01*
X01754D01*
X01761Y03004D01*
X01754Y02957D02*
X01761Y02964D01*
Y02977D01*
X01754Y02984D01*
X01748D01*
X01741Y02977D01*
Y02964D01*
X01734Y02957D01*
X01728D01*
X01721Y02964D01*
Y02977D01*
X01728Y02984D01*
X01761Y02944D02*
Y02931D01*
Y02937D01*
X01721D01*
Y02944D01*
Y02931D01*
X01826Y03064D02*
X01866D01*
X01853Y03051D01*
X01866Y03037D01*
X01826D01*
X01866Y03024D02*
Y03011D01*
Y03017D01*
X01826D01*
Y03024D01*
Y03011D01*
X01859Y02964D02*
X01866Y02971D01*
Y02984D01*
X01859Y02991D01*
X01853D01*
X01846Y02984D01*
Y02971D01*
X01839Y02964D01*
X01833D01*
X01826Y02971D01*
Y02984D01*
X01833Y02991D01*
X01866Y02931D02*
Y02944D01*
X01859Y02951D01*
X01833D01*
X01826Y02944D01*
Y02931D01*
X01833Y02924D01*
X01859D01*
X01866Y02931D01*
X01723Y01833D02*
X01717Y0184D01*
X01703D01*
X01697Y01833D01*
Y01807D01*
X01703Y018D01*
X01717D01*
X01723Y01807D01*
X01737Y018D02*
X0175D01*
X01743D01*
Y0184D01*
X01737Y01833D01*
X0177Y018D02*
X01783D01*
X01777D01*
Y0184D01*
X0177Y01833D01*
X01413Y02242D02*
X01453D01*
Y02222D01*
X01446Y02215D01*
X01433D01*
X01426Y02222D01*
Y02242D01*
Y02228D02*
X01413Y02215D01*
X01453Y02175D02*
Y02202D01*
X01413D01*
Y02175D01*
X01433Y02202D02*
Y02188D01*
X01446Y02135D02*
X01453Y02142D01*
Y02155D01*
X01446Y02162D01*
X0144D01*
X01433Y02155D01*
Y02142D01*
X01426Y02135D01*
X0142D01*
X01413Y02142D01*
Y02155D01*
X0142Y02162D01*
X01453Y02095D02*
Y02122D01*
X01413D01*
Y02095D01*
X01433Y02122D02*
Y02109D01*
X01453Y02082D02*
Y02055D01*
Y02069D01*
X01413D01*
X01998Y02245D02*
Y02212D01*
X02005Y02205D01*
X02018D01*
X02025Y02212D01*
Y02245D01*
X02038Y02205D02*
X02052D01*
X02045D01*
Y02245D01*
X02038Y02238D01*
X02002Y01763D02*
X01995Y0177D01*
X01982D01*
X01975Y01763D01*
Y01757D01*
X01982Y0175D01*
X01995D01*
X02002Y01743D01*
Y01737D01*
X01995Y0173D01*
X01982D01*
X01975Y01737D01*
X02015Y0177D02*
X02042D01*
X02028D01*
Y0173D01*
X02055D02*
Y0177D01*
X02068Y01757D01*
X02082Y0177D01*
Y0173D01*
X02095Y01763D02*
X02102Y0177D01*
X02115D01*
X02122Y01763D01*
Y01757D01*
X02115Y0175D01*
X02108D01*
X02115D01*
X02122Y01743D01*
Y01737D01*
X02115Y0173D01*
X02102D01*
X02095Y01737D01*
X02162Y0173D02*
X02135D01*
X02162Y01757D01*
Y01763D01*
X02155Y0177D01*
X02142D01*
X02135Y01763D01*
X02202Y0177D02*
X02175D01*
Y0175D01*
X02188D01*
X02175D01*
Y0173D01*
X02215D02*
X02228D01*
X02222D01*
Y0177D01*
X02215Y01763D01*
X02248D02*
X02255Y0177D01*
X02268D01*
X02275Y01763D01*
Y01737D01*
X02268Y0173D01*
X02255D01*
X02248Y01737D01*
Y01763D01*
X02288D02*
X02295Y0177D01*
X02308D01*
X02315Y01763D01*
Y01757D01*
X02308Y0175D01*
X02302D01*
X02308D01*
X02315Y01743D01*
Y01737D01*
X02308Y0173D01*
X02295D01*
X02288Y01737D01*
X02355Y01763D02*
X02348Y0177D01*
X02335D01*
X02328Y01763D01*
Y01737D01*
X02335Y0173D01*
X02348D01*
X02355Y01737D01*
X02368Y01763D02*
X02375Y0177D01*
X02388D01*
X02395Y01763D01*
Y01757D01*
X02388Y0175D01*
X02395Y01743D01*
Y01737D01*
X02388Y0173D01*
X02375D01*
X02368Y01737D01*
Y01743D01*
X02375Y0175D01*
X02368Y01757D01*
Y01763D01*
X02375Y0175D02*
X02388D01*
X02408Y0177D02*
X02435D01*
X02422D01*
Y0173D01*
X02475Y0177D02*
X02462Y01763D01*
X02448Y0175D01*
Y01737D01*
X02455Y0173D01*
X02468D01*
X02475Y01737D01*
Y01743D01*
X02468Y0175D01*
X02448D01*
X0175Y0228D02*
Y0232D01*
X0177D01*
X01777Y02313D01*
Y023D01*
X0177Y02293D01*
X0175D01*
X01817Y02313D02*
X0181Y0232D01*
X01797D01*
X0179Y02313D01*
Y02287D01*
X01797Y0228D01*
X0181D01*
X01817Y02287D01*
X0183Y0228D02*
X01843D01*
X01837D01*
Y0232D01*
X0183Y02313D01*
X0189Y0232D02*
X01863D01*
Y023D01*
X01877Y02307D01*
X01883D01*
X0189Y023D01*
Y02287D01*
X01883Y0228D01*
X0187D01*
X01863Y02287D01*
X0175Y0237D02*
Y0241D01*
X0177D01*
X01777Y02403D01*
Y0239D01*
X0177Y02383D01*
X0175D01*
X01817Y02403D02*
X0181Y0241D01*
X01797D01*
X0179Y02403D01*
Y02377D01*
X01797Y0237D01*
X0181D01*
X01817Y02377D01*
X0183Y0237D02*
X01843D01*
X01837D01*
Y0241D01*
X0183Y02403D01*
X01883Y0237D02*
Y0241D01*
X01863Y0239D01*
X0189D01*
X01657Y01674D02*
Y01701D01*
X0167Y01714D01*
X01683Y01701D01*
Y01674D01*
Y01694D01*
X01657D01*
X01697Y01707D02*
X01703Y01714D01*
X01717D01*
X01723Y01707D01*
Y01681D01*
X01717Y01674D01*
X01703D01*
X01697Y01681D01*
Y01707D01*
X0175Y0246D02*
Y025D01*
X0177D01*
X01777Y02493D01*
Y0248D01*
X0177Y02473D01*
X0175D01*
X01817Y02493D02*
X0181Y025D01*
X01797D01*
X0179Y02493D01*
Y02467D01*
X01797Y0246D01*
X0181D01*
X01817Y02467D01*
X0183Y0246D02*
X01843D01*
X01837D01*
Y025D01*
X0183Y02493D01*
X01863D02*
X0187Y025D01*
X01883D01*
X0189Y02493D01*
Y02487D01*
X01883Y0248D01*
X01877D01*
X01883D01*
X0189Y02473D01*
Y02467D01*
X01883Y0246D01*
X0187D01*
X01863Y02467D01*
X0175Y0255D02*
Y0259D01*
X0177D01*
X01777Y02583D01*
Y0257D01*
X0177Y02563D01*
X0175D01*
X0179Y0259D02*
Y0255D01*
X01803Y02563D01*
X01817Y0255D01*
Y0259D01*
X0183Y0255D02*
Y0259D01*
X0185D01*
X01857Y02583D01*
Y0257D01*
X0185Y02563D01*
X0183D01*
X01843D02*
X01857Y0255D01*
X01723Y02245D02*
Y02238D01*
X01737Y02225D01*
X0175Y02238D01*
Y02245D01*
X01737Y02225D02*
Y02205D01*
X01763D02*
X01777D01*
X0177D01*
Y02245D01*
X01763Y02238D01*
X02206Y01543D02*
X02246D01*
Y01523D01*
X02239Y01517D01*
X02226D01*
X02219Y01523D01*
Y01543D01*
Y0153D02*
X02206Y01517D01*
X02239Y01503D02*
X02246Y01497D01*
Y01483D01*
X02239Y01477D01*
X02233D01*
X02226Y01483D01*
Y0149D01*
Y01483D01*
X02219Y01477D01*
X02213D01*
X02206Y01483D01*
Y01497D01*
X02213Y01503D01*
X02162Y02395D02*
Y02435D01*
X02182D01*
X02188Y02428D01*
Y02415D01*
X02182Y02408D01*
X02162D01*
X02175D02*
X02188Y02395D01*
X02228D02*
X02202D01*
X02228Y02422D01*
Y02428D01*
X02222Y02435D01*
X02208D01*
X02202Y02428D01*
X02627Y02118D02*
X0262Y02125D01*
X02607D01*
X026Y02118D01*
Y02092D01*
X02607Y02085D01*
X0262D01*
X02627Y02092D01*
X0264Y02085D02*
X02653D01*
X02647D01*
Y02125D01*
X0264Y02118D01*
X02673D02*
X0268Y02125D01*
X02693D01*
X027Y02118D01*
Y02092D01*
X02693Y02085D01*
X0268D01*
X02673Y02092D01*
Y02118D01*
X01744Y01911D02*
X01737Y01918D01*
X01724D01*
X01717Y01911D01*
Y01885D01*
X01724Y01878D01*
X01737D01*
X01744Y01885D01*
X01757D02*
X01764Y01878D01*
X01777D01*
X01784Y01885D01*
Y01911D01*
X01777Y01918D01*
X01764D01*
X01757Y01911D01*
Y01905D01*
X01764Y01898D01*
X01784D01*
X02093Y02428D02*
X02087Y02435D01*
X02073D01*
X02067Y02428D01*
Y02402D01*
X02073Y02395D01*
X02087D01*
X02093Y02402D01*
X02107Y02428D02*
X02113Y02435D01*
X02127D01*
X02133Y02428D01*
Y02422D01*
X02127Y02415D01*
X02133Y02408D01*
Y02402D01*
X02127Y02395D01*
X02113D01*
X02107Y02402D01*
Y02408D01*
X02113Y02415D01*
X02107Y02422D01*
Y02428D01*
X02113Y02415D02*
X02127D01*
X02333Y01517D02*
X0234Y01523D01*
Y01537D01*
X02333Y01543D01*
X02307D01*
X023Y01537D01*
Y01523D01*
X02307Y01517D01*
X0234Y01503D02*
Y01477D01*
X02333D01*
X02307Y01503D01*
X023D01*
X01744Y02157D02*
X01737Y02164D01*
X01724D01*
X01717Y02157D01*
Y02131D01*
X01724Y02124D01*
X01737D01*
X01744Y02131D01*
X01784Y02164D02*
X01771Y02157D01*
X01757Y02144D01*
Y02131D01*
X01764Y02124D01*
X01777D01*
X01784Y02131D01*
Y02137D01*
X01777Y02144D01*
X01757D01*
X01744Y01993D02*
X01737Y02D01*
X01724D01*
X01717Y01993D01*
Y01967D01*
X01724Y0196D01*
X01737D01*
X01744Y01967D01*
X01784Y02D02*
X01757D01*
Y0198D01*
X01771Y01987D01*
X01777D01*
X01784Y0198D01*
Y01967D01*
X01777Y0196D01*
X01764D01*
X01757Y01967D01*
X01744Y02075D02*
X01737Y02082D01*
X01724D01*
X01717Y02075D01*
Y02049D01*
X01724Y02042D01*
X01737D01*
X01744Y02049D01*
X01777Y02042D02*
Y02082D01*
X01757Y02062D01*
X01784D01*
X02133Y02493D02*
X02127Y025D01*
X02113D01*
X02107Y02493D01*
Y02467D01*
X02113Y0246D01*
X02127D01*
X02133Y02467D01*
X02147Y02493D02*
X02153Y025D01*
X02167D01*
X02173Y02493D01*
Y02487D01*
X02167Y0248D01*
X0216D01*
X02167D01*
X02173Y02473D01*
Y02467D01*
X02167Y0246D01*
X02153D01*
X02147Y02467D01*
X0178Y02673D02*
X01773Y0268D01*
X0176D01*
X01753Y02673D01*
Y02647D01*
X0176Y0264D01*
X01773D01*
X0178Y02647D01*
X0182Y0264D02*
X01793D01*
X0182Y02667D01*
Y02673D01*
X01813Y0268D01*
X018D01*
X01793Y02673D01*
X0266Y02783D02*
X02653Y0279D01*
X0264D01*
X02633Y02783D01*
Y02757D01*
X0264Y0275D01*
X02653D01*
X0266Y02757D01*
X02673Y0275D02*
X02687D01*
X0268D01*
Y0279D01*
X02673Y02783D01*
D11*
X02141Y02079D02*
X02137Y02088D01*
X02127Y0209D01*
X02119Y02084D01*
Y02074D01*
X02127Y02067D01*
X02137Y02069D01*
X02141Y02079D01*
D12*
X02051Y02132D02*
X02043Y02136D01*
Y02128D01*
X02051Y02132D01*
X02167Y02799D02*
X02159Y02803D01*
Y02795D01*
X02167Y02799D01*
D13*
X0152Y0188D02*
X01521Y0187D01*
X01522Y0186D01*
X01525Y0185D01*
X01529Y01841D01*
X01534Y01832D01*
X0154Y01824D01*
X01547Y01817D01*
X01554Y0181D01*
X01563Y01804D01*
X01571Y01799D01*
X01581Y01796D01*
X0159Y01793D01*
X016Y01791D01*
X0161Y01791D01*
X0162Y01791D01*
X0163Y01793D01*
X0164Y01796D01*
X01649Y018D01*
X01658Y01805D01*
X01666Y01811D01*
X01674Y01817D01*
X01681Y01825D01*
X01686Y01833D01*
X01691Y01842D01*
X01695Y01851D01*
X01698Y01861D01*
X01699Y01871D01*
X017Y01881D01*
X017Y02111D02*
X017Y02121D01*
X01698Y02131D01*
X01696Y0214D01*
X01693Y0215D01*
X01688Y02159D01*
X01683Y02167D01*
X01676Y02175D01*
X01669Y02182D01*
X01662Y02188D01*
X01653Y02193D01*
X01644Y02197D01*
X01635Y02201D01*
X01625Y02203D01*
X01615Y02204D01*
X01605Y02204D01*
X01595Y02203D01*
X01585Y02201D01*
X01576Y02197D01*
X01567Y02193D01*
X01559Y02188D01*
X01551Y02182D01*
X01544Y02175D01*
X01537Y02167D01*
X01532Y02159D01*
X01527Y0215D01*
X01524Y02141D01*
X01522Y02131D01*
X0152Y02121D01*
X0152Y02111D01*
X01535Y01881D02*
X01536Y01871D01*
X01538Y01862D01*
X01541Y01852D01*
X01545Y01844D01*
X01551Y01835D01*
X01557Y01828D01*
X01565Y01822D01*
X01573Y01816D01*
X01582Y01812D01*
X01591Y01809D01*
X01601Y01807D01*
X0161Y01806D01*
X0162Y01807D01*
X0163Y01809D01*
X01639Y01812D01*
X01648Y01817D01*
X01656Y01822D01*
X01663Y01829D01*
X0167Y01836D01*
X01675Y01844D01*
X01679Y01853D01*
X01683Y01862D01*
X01684Y01872D01*
X01685Y01882D01*
Y02112D02*
X01684Y02122D01*
X01682Y02131D01*
X01679Y0214D01*
X01675Y02149D01*
X01669Y02157D01*
X01663Y02165D01*
X01655Y02171D01*
X01647Y02176D01*
X01638Y02181D01*
X01629Y02184D01*
X01619Y02186D01*
X0161Y02186D01*
X016Y02186D01*
X0159Y02184D01*
X01581Y0218D01*
X01572Y02176D01*
X01564Y02171D01*
X01557Y02164D01*
X0155Y02157D01*
X01545Y02148D01*
X01541Y0214D01*
X01537Y0213D01*
X01536Y02121D01*
X01535Y02111D01*
X01379Y02297D02*
X0138Y02296D01*
X01631Y01373D02*
X01632Y01372D01*
X017Y01881D02*
X017Y02111D01*
X0152Y01881D02*
Y02111D01*
X01685Y01881D02*
X01685Y02111D01*
X01535Y01881D02*
Y02111D01*
D14*
X02531Y02586D02*
X02591D01*
X02518Y02591D02*
Y02784D01*
X02392D02*
X02518D01*
X02392Y02591D02*
Y02784D01*
Y02591D02*
X02518D01*
X01588Y02921D02*
X01688D01*
Y02721D02*
Y02921D01*
X01588Y02721D02*
X01688D01*
X01588D02*
Y02921D01*
X0297Y0317D02*
Y0327D01*
X0247Y0317D02*
X0297D01*
X0247Y0327D02*
X0297D01*
X0247Y0317D02*
Y0327D01*
X0287Y0317D02*
Y0327D01*
X0209Y01874D02*
X02334D01*
X0209Y02118D02*
X02334D01*
Y01874D02*
Y02118D01*
X0209Y01874D02*
Y02118D01*
X0272Y0187D02*
Y0197D01*
X0262Y0187D02*
X0272D01*
X0262Y0197D02*
X0282D01*
Y0167D02*
Y0197D01*
X0262Y0167D02*
X0282D01*
X0262D02*
Y0197D01*
X01898Y0263D02*
Y0274D01*
X02162Y0263D02*
Y0274D01*
X01898Y0263D02*
X02162D01*
X01898Y0274D02*
X02162D01*
X01577Y026D02*
X01585Y02592D01*
X01577Y02538D02*
X01585Y02545D01*
X01541Y02538D02*
X01577D01*
X01465D02*
Y026D01*
X01585Y02545D02*
Y02592D01*
X01465Y02538D02*
X0151D01*
X01541Y026D02*
X01577D01*
X01465D02*
X0151D01*
X01465Y0251D02*
X0151D01*
X01541D02*
X01577D01*
X01465Y02448D02*
X0151D01*
X01585Y02455D02*
Y02502D01*
X01465Y02448D02*
Y0251D01*
X01541Y02448D02*
X01577D01*
X01585Y02455D01*
X01577Y0251D02*
X01585Y02502D01*
X01577Y0242D02*
X01585Y02412D01*
X01577Y02358D02*
X01585Y02365D01*
X01541Y02358D02*
X01577D01*
X01465D02*
Y0242D01*
X01585Y02365D02*
Y02412D01*
X01465Y02358D02*
X0151D01*
X01541Y0242D02*
X01577D01*
X01465D02*
X0151D01*
X01577Y0233D02*
X01585Y02322D01*
X01577Y02268D02*
X01585Y02275D01*
X01541Y02268D02*
X01577D01*
X01465D02*
Y0233D01*
X01585Y02275D02*
Y02322D01*
X01465Y02268D02*
X0151D01*
X01541Y0233D02*
X01577D01*
X01465D02*
X0151D01*
X0139Y0109D02*
X02315D01*
X0239D01*
Y0119D01*
X0139D02*
X0239D01*
X0139Y0109D02*
Y0119D01*
X0229Y0109D02*
Y0119D01*
X03175Y02775D02*
X03275D01*
X03175Y02175D02*
X03275D01*
X03175D02*
Y02875D01*
X03275D01*
Y02175D02*
Y02875D01*
D15*
X01447Y02923D02*
X01563D01*
X01447Y02869D02*
Y02923D01*
X01563Y02869D02*
Y02923D01*
X01447Y02869D02*
X01563D01*
X02687Y02622D02*
Y02738D01*
X02633Y02622D02*
X02687D01*
X02633D02*
Y02738D01*
X02687D01*
X01624Y02327D02*
X0174D01*
X01624Y02273D02*
Y02327D01*
X0174Y02273D02*
Y02327D01*
X01624Y02273D02*
X0174D01*
X01624Y02418D02*
X0174D01*
X01624Y02364D02*
Y02418D01*
X0174Y02364D02*
Y02418D01*
X01624Y02364D02*
X0174D01*
X01624Y02507D02*
X0174D01*
X01624Y02453D02*
Y02507D01*
X0174Y02453D02*
Y02507D01*
X01624Y02453D02*
X0174D01*
X01624Y02596D02*
X0174D01*
X01624Y02542D02*
Y02596D01*
X0174Y02542D02*
Y02596D01*
X01624Y02542D02*
X0174D01*
X01972Y02502D02*
X02088D01*
Y02448D02*
Y02502D01*
X01972Y02448D02*
X02088D01*
X01972D02*
Y02502D01*
X01624Y02687D02*
X0174D01*
Y02633D02*
Y02687D01*
X01624Y02633D02*
X0174D01*
X01624D02*
Y02687D01*
X01913Y01793D02*
Y01847D01*
X01797D02*
X01913D01*
X01797Y01793D02*
Y01847D01*
Y01793D02*
X01913D01*
X01797Y01957D02*
X01913D01*
X01797D02*
Y02011D01*
X01913D01*
Y01957D02*
Y02011D01*
X01797Y02039D02*
X01913D01*
X01797D02*
Y02093D01*
X01913D01*
Y02039D02*
Y02093D01*
X01797Y02121D02*
X01913D01*
X01797D02*
Y02175D01*
X01913D01*
Y02121D02*
Y02175D01*
X02253Y01582D02*
Y01698D01*
X02199D02*
X02253D01*
X02199Y01582D02*
X02253D01*
X02199D02*
Y01698D01*
X02168Y02267D02*
Y02383D01*
Y02267D02*
X02222D01*
X02168Y02383D02*
X02222D01*
Y02267D02*
Y02383D01*
X02472Y02078D02*
Y02132D01*
Y02078D02*
X02588D01*
Y02132D01*
X02472D02*
X02588D01*
X01913Y01875D02*
Y01929D01*
X01797D02*
X01913D01*
X01797Y01875D02*
Y01929D01*
Y01875D02*
X01913D01*
X02073Y02267D02*
X02127D01*
Y02383D01*
X02073D02*
X02127D01*
X02073Y02267D02*
Y02383D01*
X02293Y01698D02*
X02347D01*
X02293Y01582D02*
Y01698D01*
Y01582D02*
X02347D01*
Y01698D01*
D16*
X01036Y01923D02*
X01261D01*
Y01427D02*
Y01923D01*
X01036Y01427D02*
X01261D01*
X01036D02*
Y01923D01*
Y02427D02*
Y02923D01*
Y02427D02*
X01261D01*
Y02923D01*
X01036D02*
X01261D01*
X01442Y03309D02*
X02338D01*
X01442Y03084D02*
Y03309D01*
Y03084D02*
X02338D01*
Y03309D01*
X02482Y01051D02*
X02978D01*
Y01276D01*
X02482D02*
X02978D01*
X02482Y01051D02*
Y01276D01*
X03314Y01577D02*
Y02073D01*
X03089D02*
X03314D01*
X03089Y01577D02*
Y02073D01*
Y01577D02*
X03314D01*
D17*
X0173Y0289D02*
X0179D01*
X0173Y0287D02*
Y0289D01*
Y0291D01*
X0171Y0289D02*
X0173Y0291D01*
X0171Y0289D02*
X0173Y0287D01*
D18*
X02535Y02217D02*
X02531Y02221D01*
X02525Y02223D01*
X02518D01*
X02512Y02221D01*
X02508Y02217D01*
Y02213D01*
X0251Y0221D01*
X02512Y02208D01*
X02516Y02206D01*
X02527Y02202D01*
X02531Y022D01*
X02533Y02198D01*
X02535Y02194D01*
Y02189D01*
X02531Y02185D01*
X02525Y02183D01*
X02518D01*
X02512Y02185D01*
X02508Y02189D01*
X02557Y02223D02*
Y02183D01*
X02544Y02223D02*
X0257D01*
X02575D02*
Y02183D01*
Y02223D02*
X0259Y02183D01*
X02606Y02223D02*
X0259Y02183D01*
X02606Y02223D02*
Y02183D01*
X02621Y02223D02*
X02642D01*
X0263Y02208D01*
X02636D01*
X0264Y02206D01*
X02642Y02204D01*
X02644Y02198D01*
Y02194D01*
X02642Y02189D01*
X02638Y02185D01*
X02632Y02183D01*
X02626D01*
X02621Y02185D01*
X02619Y02187D01*
X02617Y02191D01*
X02654Y02213D02*
Y02215D01*
X02656Y02219D01*
X02658Y02221D01*
X02662Y02223D01*
X0267D01*
X02673Y02221D01*
X02675Y02219D01*
X02677Y02215D01*
Y02212D01*
X02675Y02208D01*
X02672Y02202D01*
X02653Y02183D01*
X02679D01*
X02748Y02213D02*
X02746Y02217D01*
X02742Y02221D01*
X02739Y02223D01*
X02731D01*
X02727Y02221D01*
X02723Y02217D01*
X02721Y02213D01*
X0272Y02208D01*
Y02198D01*
X02721Y02193D01*
X02723Y02189D01*
X02727Y02185D01*
X02731Y02183D01*
X02739D01*
X02742Y02185D01*
X02746Y02189D01*
X02748Y02193D01*
X0279Y02183D02*
X02775Y02223D01*
X02759Y02183D01*
X02765Y02196D02*
X02784D01*
X02799Y02223D02*
Y02183D01*
Y02223D02*
X02826Y02183D01*
Y02223D02*
Y02183D01*
X02868Y02223D02*
Y02183D01*
Y02223D02*
X02895Y02183D01*
Y02223D02*
Y02183D01*
X02916Y0221D02*
X02912Y02208D01*
X02908Y02204D01*
X02906Y02198D01*
Y02194D01*
X02908Y02189D01*
X02912Y02185D01*
X02916Y02183D01*
X02921D01*
X02925Y02185D01*
X02929Y02189D01*
X02931Y02194D01*
Y02198D01*
X02929Y02204D01*
X02925Y02208D01*
X02921Y0221D01*
X02916D01*
X02962Y02223D02*
Y02183D01*
Y02204D02*
X02959Y02208D01*
X02955Y0221D01*
X02949D01*
X02945Y02208D01*
X02941Y02204D01*
X0294Y02198D01*
Y02194D01*
X02941Y02189D01*
X02945Y02185D01*
X02949Y02183D01*
X02955D01*
X02959Y02185D01*
X02962Y02189D01*
X02973Y02198D02*
X02996D01*
Y02202D01*
X02994Y02206D01*
X02992Y02208D01*
X02988Y0221D01*
X02983D01*
X02979Y02208D01*
X02975Y02204D01*
X02973Y02198D01*
Y02194D01*
X02975Y02189D01*
X02979Y02185D01*
X02983Y02183D01*
X02988D01*
X02992Y02185D01*
X02996Y02189D01*
D19*
X01598Y02569D02*
D03*
X01598Y02479D02*
D03*
X01598Y02389D02*
D03*
Y02299D02*
D03*
M02*
