G04*
G04 #@! TF.GenerationSoftware,Altium Limited,Altium Designer,21.6.1 (37)*
G04*
G04 Layer_Color=128*
%FSTAX24Y24*%
%MOIN*%
G70*
G04*
G04 #@! TF.SameCoordinates,EF07AD57-FAF1-4C8D-99CD-AC66FC3846F0*
G04*
G04*
G04 #@! TF.FilePolarity,Positive*
G04*
G01*
G75*
%ADD21C,0.0039*%
%ADD22C,0.0020*%
%ADD23C,0.0080*%
%ADD56C,0.0020*%
D21*
X02145Y023047D02*
G03*
X02145Y023047I-000197J0D01*
G01*
X020899Y020645D02*
Y023401D01*
X023655D02*
X023655Y020645D01*
X020899Y023401D02*
X023655D01*
X020899Y020645D02*
X023655D01*
X024985Y027843D02*
Y028157D01*
X025615Y027843D02*
Y028157D01*
X024985D02*
X025615D01*
X024985Y027843D02*
X025615D01*
X024985Y028757D02*
X025615D01*
X024985Y028443D02*
X025615D01*
X024985D02*
Y028757D01*
X025615Y028443D02*
Y028757D01*
X020259Y027585D02*
Y028215D01*
X019941Y027585D02*
X020259D01*
X019941D02*
Y028215D01*
X020259D01*
X021509Y028865D02*
X023045D01*
Y026935D02*
Y028865D01*
X021509Y026935D02*
X023045D01*
X021509D02*
Y028865D01*
Y028365D02*
X022009Y028865D01*
X018328Y028184D02*
X018446Y028066D01*
X018367Y028263D02*
X018485Y028144D01*
X018689Y027985D02*
Y0283D01*
X018532Y028064D02*
X018846D01*
X018689D02*
X018846Y028221D01*
X018532D02*
X018689Y028064D01*
X018532Y028221D02*
X018846D01*
X017428Y028184D02*
X017546Y028066D01*
X017467Y028263D02*
X017585Y028144D01*
X017789Y027985D02*
Y0283D01*
X017631Y028064D02*
X017946D01*
X017789D02*
X017946Y028221D01*
X017631D02*
X017789Y028064D01*
X017631Y028221D02*
X017946D01*
X016731Y028221D02*
X017046D01*
X016731D02*
X016889Y028064D01*
X017046Y028221D01*
X016731Y028064D02*
X017046D01*
X016889Y027985D02*
Y0283D01*
X016567Y028263D02*
X016685Y028144D01*
X016528Y028184D02*
X016646Y028066D01*
X015832Y028221D02*
X016146D01*
X015832D02*
X015989Y028064D01*
X016146Y028221D01*
X015832Y028064D02*
X016146D01*
X015989Y027985D02*
Y0283D01*
X015667Y028263D02*
X015785Y028144D01*
X015628Y028184D02*
X015746Y028066D01*
X017046Y026268D02*
Y026897D01*
X016731Y026268D02*
Y026897D01*
X017046D01*
X016731Y026268D02*
X017046D01*
X016157Y02629D02*
Y02692D01*
X015843Y02629D02*
Y02692D01*
X016157D01*
X015843Y02629D02*
X016157D01*
X018372Y014074D02*
Y016712D01*
X019828Y014074D02*
Y016712D01*
X018372D02*
X019828D01*
X018372Y014074D02*
X019828D01*
X017946Y026268D02*
Y026897D01*
X017631Y026268D02*
Y026897D01*
X017946D01*
X017631Y026268D02*
X017946D01*
X018846D02*
Y026897D01*
X018532Y026268D02*
Y026897D01*
X018846D01*
X018532Y026268D02*
X018846D01*
X022757Y018785D02*
Y019415D01*
X022443Y018785D02*
Y019415D01*
X022757D01*
X022443Y018785D02*
X022757D01*
X021843Y024585D02*
X022157D01*
X021843Y025215D02*
X022157D01*
X021843Y024585D02*
Y025215D01*
X022157Y024585D02*
Y025215D01*
X024785Y022943D02*
Y023257D01*
X025415Y022943D02*
Y023257D01*
X024785D02*
X025415D01*
X024785Y022943D02*
X025415D01*
X019655Y021383D02*
Y021697D01*
X019025Y021383D02*
Y021697D01*
Y021383D02*
X019655D01*
X019025Y021697D02*
X019655D01*
X021457Y024585D02*
Y025215D01*
X021143Y024585D02*
Y025215D01*
X021457D01*
X021143Y024585D02*
X021457D01*
X023215Y019425D02*
X02353D01*
X023215Y018795D02*
X02353D01*
Y019425D01*
X023215Y018795D02*
Y019425D01*
X019655Y022783D02*
Y023097D01*
X019025Y022783D02*
Y023097D01*
Y022783D02*
X019655D01*
X019025Y023097D02*
X019655D01*
X019655Y020683D02*
Y020997D01*
X019025Y020683D02*
Y020997D01*
Y020683D02*
X019655D01*
X019025Y020997D02*
X019655D01*
X019655Y022083D02*
Y022397D01*
X019025Y022083D02*
Y022397D01*
Y022083D02*
X019655D01*
X019025Y022397D02*
X019655D01*
X016085Y015243D02*
X016715D01*
X016085Y015557D02*
X016715D01*
Y015243D02*
Y015557D01*
X016085Y015243D02*
Y015557D01*
X025615Y027243D02*
Y027557D01*
X024985Y027243D02*
Y027557D01*
Y027243D02*
X025615D01*
X024985Y027557D02*
X025615D01*
X01608Y014343D02*
X01671D01*
X01608Y014657D02*
X01671D01*
Y014343D02*
Y014657D01*
X01608Y014343D02*
Y014657D01*
X02208Y022023D02*
X022474D01*
X022277Y021826D02*
Y02222D01*
X017387Y013976D02*
Y016811D01*
X020813Y013976D02*
Y016811D01*
X017387D02*
X020813D01*
X017387Y013976D02*
X020813D01*
X018903Y015393D02*
X019297D01*
X0191Y015196D02*
Y01559D01*
D22*
X02023Y019976D02*
Y02407D01*
X024324Y019976D02*
Y02407D01*
X02023D02*
X024324D01*
X02023Y019976D02*
X024324D01*
X020356Y027412D02*
Y028388D01*
X019844Y027412D02*
X020356D01*
X019844D02*
Y028388D01*
X020356D01*
X02081Y028983D02*
X023743D01*
Y026817D02*
Y028983D01*
X02081Y026817D02*
X023743D01*
X02081D02*
Y028983D01*
D23*
X018492Y027276D02*
X018886D01*
X018492Y029048D02*
X018886D01*
X018689Y028851D02*
Y029245D01*
X017592Y027276D02*
X017986D01*
X017592Y029048D02*
X017986D01*
X017789Y028851D02*
Y029245D01*
X016889Y028851D02*
Y029245D01*
X016692Y029048D02*
X017086D01*
X016692Y027276D02*
X017086D01*
X015989Y028851D02*
Y029245D01*
X015792Y029048D02*
X016186D01*
X015792Y027276D02*
X016186D01*
D56*
X027055Y01445D02*
X027365D01*
X02721Y014295D02*
Y014605D01*
X024345Y01633D02*
X024655D01*
X0245Y016175D02*
Y016485D01*
X024345Y01445D02*
X024655D01*
X0245Y014295D02*
Y014605D01*
X027055Y01633D02*
X027365D01*
X02721Y016175D02*
Y016485D01*
X011843Y0286D02*
X012157D01*
X012Y028443D02*
Y028757D01*
X011843Y0266D02*
X012157D01*
X012Y026443D02*
Y026757D01*
X011843Y0256D02*
X012157D01*
X012Y025443D02*
Y025757D01*
X011843Y0276D02*
X012157D01*
X012Y027443D02*
Y027757D01*
X024083Y0262D02*
X024517D01*
X0243Y025983D02*
Y026417D01*
X025083Y0262D02*
X025517D01*
X0253Y025983D02*
Y026417D01*
X031311Y0119D02*
X032689D01*
X032Y011211D02*
Y012589D01*
X032231Y0231D02*
X032664D01*
X032448Y022883D02*
Y023317D01*
X032231Y0221D02*
X032664D01*
X032448Y021883D02*
Y022317D01*
X032231Y0201D02*
X032664D01*
X032448Y019883D02*
Y020317D01*
X032231Y0191D02*
X032664D01*
X032448Y018883D02*
Y019317D01*
X032231Y0181D02*
X032664D01*
X032448Y017883D02*
Y018317D01*
X032231Y0171D02*
X032664D01*
X032448Y016883D02*
Y017317D01*
X032231Y0161D02*
X032664D01*
X032448Y015883D02*
Y016317D01*
X032231Y0151D02*
X032664D01*
X032448Y014883D02*
Y015317D01*
X032231Y0141D02*
X032664D01*
X032448Y013883D02*
Y014317D01*
X032231Y0211D02*
X032664D01*
X032448Y020883D02*
Y021317D01*
X016643Y021035D02*
X016957D01*
X0168Y020878D02*
Y021193D01*
X016643Y022965D02*
X016957D01*
X0168Y022807D02*
Y023122D01*
X023683Y0324D02*
X024117D01*
X0239Y032183D02*
Y032617D01*
X024683Y0324D02*
X025117D01*
X0249Y032183D02*
Y032617D01*
X025683Y0324D02*
X026117D01*
X0259Y032183D02*
Y032617D01*
X026683Y0324D02*
X027117D01*
X0269Y032183D02*
Y032617D01*
X017343Y0315D02*
X017657D01*
X0175Y031343D02*
Y031657D01*
X015343Y0315D02*
X015657D01*
X0155Y031343D02*
Y031657D01*
X016343Y0315D02*
X016657D01*
X0165Y031343D02*
Y031657D01*
X018343Y0315D02*
X018657D01*
X0185Y031343D02*
Y031657D01*
X019343Y0315D02*
X019657D01*
X0195Y031343D02*
Y031657D01*
X020343Y0315D02*
X020657D01*
X0205Y031343D02*
Y031657D01*
X028343Y0259D02*
X028657D01*
X0285Y025743D02*
Y026057D01*
X028343Y0279D02*
X028657D01*
X0285Y027743D02*
Y028057D01*
X028343Y0289D02*
X028657D01*
X0285Y028743D02*
Y029057D01*
X028343Y0269D02*
X028657D01*
X0285Y026743D02*
Y027057D01*
X029483Y0223D02*
X029917D01*
X0297Y022083D02*
Y022517D01*
X029483Y0213D02*
X029917D01*
X0297Y021083D02*
Y021517D01*
X029483Y0203D02*
X029917D01*
X0297Y020083D02*
Y020517D01*
X028483Y0223D02*
X028917D01*
X0287Y022083D02*
Y022517D01*
X028483Y0213D02*
X028917D01*
X0287Y021083D02*
Y021517D01*
X028483Y0203D02*
X028917D01*
X0287Y020083D02*
Y020517D01*
X026083Y0111D02*
X026517D01*
X0263Y010883D02*
Y011317D01*
X025083Y0111D02*
X025517D01*
X0253Y010883D02*
Y011317D01*
X023083Y0111D02*
X023517D01*
X0233Y010883D02*
Y011317D01*
X022083Y0111D02*
X022517D01*
X0223Y010883D02*
Y011317D01*
X021083Y0111D02*
X021517D01*
X0213Y010883D02*
Y011317D01*
X020083Y0111D02*
X020517D01*
X0203Y010883D02*
Y011317D01*
X019083Y0111D02*
X019517D01*
X0193Y010883D02*
Y011317D01*
X018083Y0111D02*
X018517D01*
X0183Y010883D02*
Y011317D01*
X017083Y0111D02*
X017517D01*
X0173Y010883D02*
Y011317D01*
X024083Y0111D02*
X024517D01*
X0243Y010883D02*
Y011317D01*
X011843Y0183D02*
X012157D01*
X012Y018143D02*
Y018457D01*
X011843Y0163D02*
X012157D01*
X012Y016143D02*
Y016457D01*
X011843Y0153D02*
X012157D01*
X012Y015143D02*
Y015457D01*
X011843Y0173D02*
X012157D01*
X012Y017143D02*
Y017457D01*
X011311Y0119D02*
X012689D01*
X012Y011211D02*
Y012589D01*
X031311Y032D02*
X032689D01*
X032Y031311D02*
Y032689D01*
X011311Y032D02*
X012689D01*
X012Y031311D02*
Y032689D01*
X031343Y0269D02*
X031657D01*
X0315Y026743D02*
Y027057D01*
X031343Y0289D02*
X031657D01*
X0315Y028743D02*
Y029057D01*
X031343Y0279D02*
X031657D01*
X0315Y027743D02*
Y028057D01*
X031343Y0259D02*
X031657D01*
X0315Y025743D02*
Y026057D01*
X022725Y02865D02*
X022875D01*
X0228Y028575D02*
Y028725D01*
X023375Y02232D02*
X023525D01*
X02345Y022245D02*
Y022395D01*
X023025Y02425D02*
X023175D01*
X0231Y024175D02*
Y024325D01*
X022497Y023202D02*
X022647D01*
X022572Y023127D02*
Y023277D01*
X020255Y019616D02*
X020405D01*
X02033Y019541D02*
Y019691D01*
X021055Y02128D02*
X021205D01*
X02113Y021205D02*
Y021355D01*
X021715Y0228D02*
X021865D01*
X02179Y022725D02*
Y022875D01*
X021225Y02558D02*
X021375D01*
X0213Y025505D02*
Y025655D01*
X025915Y028D02*
X026065D01*
X02599Y027925D02*
Y028075D01*
X023965Y0206D02*
X024115D01*
X02404Y020525D02*
Y020675D01*
X023005Y021013D02*
X023155D01*
X02308Y020938D02*
Y021088D01*
X01956Y02037D02*
X01971D01*
X019635Y020295D02*
Y020445D01*
X022915Y02226D02*
X023065D01*
X02299Y022185D02*
Y022335D01*
X024535Y02784D02*
X024685D01*
X02461Y027765D02*
Y027915D01*
X020155Y02066D02*
X020305D01*
X02023Y020585D02*
Y020735D01*
X020425Y02028D02*
X020575D01*
X0205Y020205D02*
Y020355D01*
X023765Y02831D02*
X023915D01*
X02384Y028235D02*
Y028385D01*
X026824Y02255D02*
X026974D01*
X026899Y022475D02*
Y022625D01*
X024515Y02228D02*
X024665D01*
X02459Y022205D02*
Y022355D01*
X023375Y021531D02*
X023525D01*
X02345Y021456D02*
Y021606D01*
X021135Y02621D02*
X021285D01*
X02121Y026135D02*
Y026285D01*
X021705Y0232D02*
X021855D01*
X02178Y023125D02*
Y023275D01*
X022895Y019866D02*
X023045D01*
X02297Y019791D02*
Y019941D01*
X022375Y02125D02*
X022525D01*
X02245Y021175D02*
Y021325D01*
X022295Y02085D02*
X022445D01*
X02237Y020775D02*
Y020925D01*
X021906Y011782D02*
X022057D01*
X021981Y011707D02*
Y011856D01*
X022891Y02309D02*
X023041D01*
X022966Y023015D02*
Y023165D01*
X022305Y02417D02*
X022455D01*
X02238Y024095D02*
Y024245D01*
X021842Y022262D02*
X021992D01*
X021917Y022187D02*
Y022337D01*
X01595Y02525D02*
X0161D01*
X016025Y025175D02*
Y025325D01*
X019015Y02525D02*
X019165D01*
X01909Y025175D02*
Y025325D01*
X021925Y02559D02*
X022075D01*
X022Y025515D02*
Y025665D01*
X022685Y01841D02*
X022835D01*
X02276Y018335D02*
Y018485D01*
M02*
