G04*
G04 #@! TF.GenerationSoftware,Altium Limited,Altium Designer,21.6.1 (37)*
G04*
G04 Layer_Color=32896*
%FSTAX23Y23*%
%MOIN*%
G70*
G04*
G04 #@! TF.SameCoordinates,70A83F60-4201-493C-AFFE-40F3CF65797C*
G04*
G04*
G04 #@! TF.FilePolarity,Positive*
G04*
G01*
G75*
%ADD10C,0.006*%
%ADD18C,0.008*%
G36*
X02005Y02452D02*
X0201D01*
Y0245D01*
X02012D01*
Y02447D01*
X02014D01*
Y02383D01*
Y02381D01*
Y02339D01*
X02012D01*
Y02335D01*
X0201D01*
Y02334D01*
X02009D01*
Y02332D01*
X01997D01*
Y02334D01*
X01995D01*
Y02335D01*
X01994D01*
Y02339D01*
X01992D01*
Y02408D01*
X0199D01*
Y02405D01*
X01988D01*
Y02401D01*
X01987D01*
Y024D01*
X01985D01*
Y02396D01*
X01983D01*
Y02394D01*
X01982D01*
Y02391D01*
X0198D01*
Y02389D01*
X01978D01*
Y02386D01*
X01977D01*
Y02383D01*
X01975D01*
Y02381D01*
X01973D01*
Y02378D01*
X01972D01*
Y02376D01*
X0197D01*
Y02372D01*
X01968D01*
Y02371D01*
X01966D01*
Y02369D01*
X01965D01*
Y02367D01*
X01963D01*
Y02366D01*
X01953D01*
Y02367D01*
X0195D01*
Y02369D01*
X01948D01*
Y02372D01*
X01946D01*
Y02376D01*
X01944D01*
Y02378D01*
X01943D01*
Y02381D01*
X01941D01*
Y02383D01*
X01939D01*
Y02386D01*
X01938D01*
Y02389D01*
X01936D01*
Y02391D01*
X01934D01*
Y02394D01*
X01933D01*
Y02398D01*
X01931D01*
Y024D01*
X01929D01*
Y02403D01*
X01928D01*
Y02405D01*
X01926D01*
Y02408D01*
X01924D01*
Y02339D01*
X01922D01*
Y02335D01*
X01921D01*
Y02334D01*
X01919D01*
Y02332D01*
X01906D01*
Y02334D01*
X01904D01*
Y02335D01*
X01902D01*
Y0234D01*
X019D01*
Y02445D01*
X01902D01*
Y02449D01*
X01904D01*
Y02452D01*
X01909D01*
Y02454D01*
X01914D01*
Y02452D01*
X01919D01*
Y0245D01*
X01921D01*
Y02449D01*
X01922D01*
Y02445D01*
X01924D01*
Y02444D01*
X01926D01*
Y0244D01*
X01928D01*
Y02437D01*
X01929D01*
Y02435D01*
X01931D01*
Y02432D01*
X01933D01*
Y0243D01*
X01934D01*
Y02427D01*
X01936D01*
Y02423D01*
X01938D01*
Y02422D01*
X01939D01*
Y02418D01*
X01941D01*
Y02415D01*
X01943D01*
Y02413D01*
X01944D01*
Y0241D01*
X01946D01*
Y02408D01*
X01948D01*
Y02405D01*
X0195D01*
Y02401D01*
X01951D01*
Y024D01*
X01953D01*
Y02396D01*
X01955D01*
Y02394D01*
X01956D01*
Y02393D01*
X01958D01*
Y02394D01*
X0196D01*
Y02398D01*
X01961D01*
Y02401D01*
X01963D01*
Y02403D01*
X01965D01*
Y02406D01*
X01966D01*
Y02408D01*
X01968D01*
Y02411D01*
X0197D01*
Y02413D01*
X01972D01*
Y02417D01*
X01973D01*
Y0242D01*
X01975D01*
Y02422D01*
X01977D01*
Y02425D01*
X01978D01*
Y02427D01*
X0198D01*
Y0243D01*
X01982D01*
Y02432D01*
X01983D01*
Y02435D01*
X01985D01*
Y02439D01*
X01987D01*
Y0244D01*
X01988D01*
Y02444D01*
X0199D01*
Y02445D01*
X01992D01*
Y02449D01*
X01994D01*
Y0245D01*
X01995D01*
Y02452D01*
X02D01*
Y02454D01*
X02005D01*
Y02452D01*
D02*
G37*
G36*
X02129D02*
X02132D01*
Y0245D01*
X02134D01*
Y02449D01*
X02136D01*
Y02335D01*
X02134D01*
Y02334D01*
X02132D01*
Y02332D01*
X02121D01*
Y02334D01*
X02119D01*
Y02335D01*
X02117D01*
Y02337D01*
X02115D01*
Y02339D01*
X02114D01*
Y0234D01*
X02112D01*
Y02344D01*
X0211D01*
Y02345D01*
X02109D01*
Y02347D01*
X02107D01*
Y0235D01*
X02105D01*
Y02352D01*
X02104D01*
Y02354D01*
X02102D01*
Y02357D01*
X021D01*
Y02359D01*
X02099D01*
Y02362D01*
X02097D01*
Y02364D01*
X02095D01*
Y02366D01*
X02093D01*
Y02369D01*
X02092D01*
Y02371D01*
X0209D01*
Y02372D01*
X02088D01*
Y02376D01*
X02087D01*
Y02378D01*
X02085D01*
Y02379D01*
X02083D01*
Y02383D01*
X02082D01*
Y02384D01*
X0208D01*
Y02388D01*
X02078D01*
Y02389D01*
X02077D01*
Y02391D01*
X02075D01*
Y02394D01*
X02073D01*
Y02396D01*
X02071D01*
Y02398D01*
X0207D01*
Y02401D01*
X02068D01*
Y02403D01*
X02066D01*
Y02405D01*
X02065D01*
Y02408D01*
X02063D01*
Y0241D01*
X02061D01*
Y02413D01*
X0206D01*
Y02335D01*
X02058D01*
Y02334D01*
X02054D01*
Y02332D01*
X02043D01*
Y02334D01*
X02041D01*
Y02335D01*
X02039D01*
Y02339D01*
X02038D01*
Y02447D01*
X02039D01*
Y0245D01*
X02041D01*
Y02452D01*
X02044D01*
Y02454D01*
X02051D01*
Y02452D01*
X02056D01*
Y0245D01*
X02058D01*
Y02449D01*
X0206D01*
Y02445D01*
X02061D01*
Y02444D01*
X02063D01*
Y02442D01*
X02065D01*
Y02439D01*
X02066D01*
Y02437D01*
X02068D01*
Y02433D01*
X0207D01*
Y02432D01*
X02071D01*
Y0243D01*
X02073D01*
Y02427D01*
X02075D01*
Y02425D01*
X02077D01*
Y02423D01*
X02078D01*
Y0242D01*
X0208D01*
Y02418D01*
X02082D01*
Y02415D01*
X02083D01*
Y02413D01*
X02085D01*
Y02411D01*
X02087D01*
Y02408D01*
X02088D01*
Y02406D01*
X0209D01*
Y02403D01*
X02092D01*
Y02401D01*
X02093D01*
Y024D01*
X02095D01*
Y02396D01*
X02097D01*
Y02394D01*
X02099D01*
Y02393D01*
X021D01*
Y02389D01*
X02102D01*
Y02388D01*
X02104D01*
Y02384D01*
X02105D01*
Y02383D01*
X02107D01*
Y02381D01*
X02109D01*
Y02378D01*
X0211D01*
Y02376D01*
X02112D01*
Y02374D01*
X02114D01*
Y02447D01*
X02115D01*
Y0245D01*
X02117D01*
Y02452D01*
X02122D01*
Y02454D01*
X02129D01*
Y02452D01*
D02*
G37*
G36*
X01868D02*
X01873D01*
Y0245D01*
X01875D01*
Y02447D01*
X01877D01*
Y02337D01*
X01875D01*
Y02335D01*
X01873D01*
Y02334D01*
X01872D01*
Y02332D01*
X0186D01*
Y02334D01*
X01856D01*
Y02337D01*
X01855D01*
Y02433D01*
X01804D01*
Y02337D01*
X01802D01*
Y02334D01*
X01799D01*
Y02332D01*
X01787D01*
Y02334D01*
X01785D01*
Y02335D01*
X01784D01*
Y02337D01*
X01782D01*
Y0244D01*
Y02442D01*
Y02447D01*
X01784D01*
Y0245D01*
X01785D01*
Y02452D01*
X0179D01*
Y02454D01*
X01868D01*
Y02452D01*
D02*
G37*
G36*
X02329Y02454D02*
X02339D01*
Y02452D01*
X02344D01*
Y0245D01*
X02347D01*
Y02449D01*
X02351D01*
Y02447D01*
X02354D01*
Y02445D01*
X02356D01*
Y02444D01*
X02359D01*
Y02442D01*
X02361D01*
Y0244D01*
X02363D01*
Y02439D01*
X02364D01*
Y02435D01*
X02366D01*
Y02433D01*
X02368D01*
Y02432D01*
X02369D01*
Y02428D01*
X02371D01*
Y02425D01*
X02373D01*
Y02422D01*
X02374D01*
Y02417D01*
X02376D01*
Y0241D01*
X02378D01*
Y02374D01*
X02376D01*
Y02367D01*
X02374D01*
Y02364D01*
X02373D01*
Y02359D01*
X02371D01*
Y02356D01*
X02369D01*
Y02354D01*
X02368D01*
Y0235D01*
X02366D01*
Y02349D01*
X02364D01*
Y02347D01*
X02363D01*
Y02345D01*
X02361D01*
Y02344D01*
X02359D01*
Y02342D01*
X02358D01*
Y0234D01*
X02356D01*
Y02339D01*
X02352D01*
Y02337D01*
X02351D01*
Y02335D01*
X02346D01*
Y02334D01*
X02342D01*
Y02332D01*
X02336D01*
Y0233D01*
X02307D01*
Y02332D01*
X023D01*
Y02334D01*
X02295D01*
Y02335D01*
X02292D01*
Y02337D01*
X02288D01*
Y02339D01*
X02286D01*
Y0234D01*
X02285D01*
Y02342D01*
X02281D01*
Y02344D01*
X0228D01*
Y02345D01*
X02278D01*
Y02347D01*
X02276D01*
Y0235D01*
X02275D01*
Y02352D01*
X02273D01*
Y02356D01*
X02271D01*
Y02357D01*
X0227D01*
Y02362D01*
X02268D01*
Y02366D01*
X02266D01*
Y02371D01*
X02264D01*
Y02379D01*
X02263D01*
Y02405D01*
X02264D01*
Y02413D01*
X02266D01*
Y02418D01*
X02268D01*
Y02423D01*
X0227D01*
Y02427D01*
X02271D01*
Y0243D01*
X02273D01*
Y02432D01*
X02275D01*
Y02435D01*
X02276D01*
Y02437D01*
X02278D01*
Y02439D01*
X0228D01*
Y0244D01*
X02281D01*
Y02442D01*
X02283D01*
Y02444D01*
X02285D01*
Y02445D01*
X02288D01*
Y02447D01*
X0229D01*
Y02449D01*
X02293D01*
Y0245D01*
X02298D01*
Y02452D01*
X02303D01*
Y02454D01*
X02314D01*
Y02455D01*
X02329D01*
Y02454D01*
D02*
G37*
G36*
X02226Y02452D02*
X02229D01*
Y0245D01*
X02231D01*
Y02449D01*
X02232D01*
Y02444D01*
X02234D01*
Y02403D01*
X02236D01*
Y02384D01*
X02237D01*
Y02374D01*
X02239D01*
Y02366D01*
X02241D01*
Y02361D01*
X02242D01*
Y02357D01*
X02244D01*
Y02356D01*
X02246D01*
Y02354D01*
X02248D01*
Y02352D01*
X02258D01*
Y0235D01*
X02259D01*
Y02349D01*
X02261D01*
Y02344D01*
X02263D01*
Y0234D01*
X02261D01*
Y02335D01*
X02259D01*
Y02334D01*
X02258D01*
Y02332D01*
X02253D01*
Y0233D01*
X02242D01*
Y02332D01*
X02237D01*
Y02334D01*
X02236D01*
Y02335D01*
X02232D01*
Y02337D01*
X02231D01*
Y02339D01*
X02229D01*
Y02342D01*
X02227D01*
Y02344D01*
X02226D01*
Y02347D01*
X02224D01*
Y0235D01*
X02222D01*
Y02354D01*
X0222D01*
Y02361D01*
X02219D01*
Y02369D01*
X02217D01*
Y02379D01*
X02215D01*
Y02393D01*
X02214D01*
Y0242D01*
X02212D01*
Y02433D01*
X02181D01*
Y02345D01*
Y02344D01*
Y02337D01*
X0218D01*
Y02334D01*
X02176D01*
Y02332D01*
X02165D01*
Y02334D01*
X02163D01*
Y02335D01*
X02161D01*
Y02337D01*
X02159D01*
Y02447D01*
X02161D01*
Y0245D01*
X02163D01*
Y02452D01*
X02168D01*
Y02454D01*
X02226D01*
Y02452D01*
D02*
G37*
G36*
X02283Y02313D02*
X02286D01*
Y02312D01*
X02292D01*
Y0231D01*
X02297D01*
Y02308D01*
X023D01*
Y02306D01*
X02303D01*
Y02305D01*
X02307D01*
Y02303D01*
X02308D01*
Y02301D01*
X02312D01*
Y023D01*
X02314D01*
Y02296D01*
X02315D01*
Y02295D01*
X02317D01*
Y02291D01*
X02319D01*
Y02284D01*
X0232D01*
Y02259D01*
X02319D01*
Y02254D01*
X02317D01*
Y02251D01*
X02315D01*
Y02247D01*
X02314D01*
Y02246D01*
X02312D01*
Y02244D01*
X02308D01*
Y02242D01*
X02305D01*
Y0224D01*
X02286D01*
Y02242D01*
X02283D01*
Y02244D01*
X0228D01*
Y02246D01*
X02278D01*
Y02247D01*
X02276D01*
Y02249D01*
X02275D01*
Y02252D01*
X02273D01*
Y02256D01*
X02271D01*
Y02276D01*
X02273D01*
Y02281D01*
X02275D01*
Y02283D01*
X02276D01*
Y02284D01*
X02278D01*
Y02286D01*
X0228D01*
Y02288D01*
X02281D01*
Y0229D01*
X02285D01*
Y02291D01*
X02302D01*
Y0229D01*
X02307D01*
Y02288D01*
X02308D01*
Y02286D01*
X0231D01*
Y02284D01*
X02312D01*
Y02283D01*
X02314D01*
Y02284D01*
X02312D01*
Y0229D01*
X0231D01*
Y02291D01*
X02308D01*
Y02293D01*
X02307D01*
Y02295D01*
X02305D01*
Y02296D01*
X02303D01*
Y02298D01*
X023D01*
Y023D01*
X02297D01*
Y02301D01*
X02293D01*
Y02303D01*
X02288D01*
Y02305D01*
X02283D01*
Y02306D01*
X0228D01*
Y02308D01*
X02276D01*
Y0231D01*
X02275D01*
Y02315D01*
X02283D01*
Y02313D01*
D02*
G37*
G36*
X02048Y02242D02*
X02046D01*
Y0224D01*
X02043D01*
Y02242D01*
X02041D01*
Y02264D01*
X02012D01*
Y02242D01*
X0201D01*
Y0224D01*
X02005D01*
Y02242D01*
X02004D01*
Y02293D01*
X0201D01*
Y02291D01*
X02012D01*
Y02271D01*
X02041D01*
Y02283D01*
Y02284D01*
Y02293D01*
X02048D01*
Y02242D01*
D02*
G37*
G36*
X01939D02*
X01938D01*
Y0224D01*
X01934D01*
Y02242D01*
X01933D01*
Y02264D01*
X01904D01*
Y02242D01*
X01902D01*
Y0224D01*
X01899D01*
Y02242D01*
X01897D01*
Y02293D01*
X01904D01*
Y02271D01*
X01933D01*
Y02293D01*
X01939D01*
Y02242D01*
D02*
G37*
G36*
X02104D02*
X02102D01*
Y0224D01*
X021D01*
Y02242D01*
X02097D01*
Y02244D01*
X02095D01*
Y02246D01*
X02093D01*
Y02247D01*
X02092D01*
Y02251D01*
X0209D01*
Y02252D01*
X02088D01*
Y02254D01*
X02087D01*
Y02256D01*
X02085D01*
Y02259D01*
X02083D01*
Y02261D01*
X02082D01*
Y02262D01*
X0208D01*
Y02266D01*
X02078D01*
Y02268D01*
X02077D01*
Y02269D01*
X02075D01*
Y02271D01*
X02073D01*
Y02274D01*
X02071D01*
Y02276D01*
X0207D01*
Y02278D01*
X02068D01*
Y02244D01*
X02066D01*
Y02242D01*
X02065D01*
Y0224D01*
X02061D01*
Y02242D01*
X0206D01*
Y02293D01*
X02068D01*
Y0229D01*
X0207D01*
Y02288D01*
X02071D01*
Y02286D01*
X02073D01*
Y02284D01*
X02075D01*
Y02283D01*
Y02281D01*
X02077D01*
Y02279D01*
X02078D01*
Y02278D01*
X0208D01*
Y02274D01*
X02082D01*
Y02273D01*
X02083D01*
Y02271D01*
X02085D01*
Y02269D01*
X02087D01*
Y02266D01*
X02088D01*
Y02264D01*
X0209D01*
Y02262D01*
X02092D01*
Y02259D01*
X02093D01*
Y02257D01*
X02095D01*
Y02256D01*
X02097D01*
Y02293D01*
X02104D01*
Y02242D01*
D02*
G37*
G36*
X01883Y02291D02*
X01885D01*
Y02244D01*
X01883D01*
Y02242D01*
X01882D01*
Y0224D01*
X0188D01*
Y02242D01*
X01877D01*
Y02244D01*
X01875D01*
Y02246D01*
X01873D01*
Y02249D01*
X01872D01*
Y02251D01*
X0187D01*
Y02252D01*
X01868D01*
Y02254D01*
X01867D01*
Y02257D01*
X01865D01*
Y02259D01*
X01863D01*
Y02261D01*
X01861D01*
Y02262D01*
X0186D01*
Y02266D01*
X01858D01*
Y02268D01*
X01856D01*
Y02269D01*
X01855D01*
Y02273D01*
X01853D01*
Y02274D01*
X01851D01*
Y02276D01*
X0185D01*
Y02278D01*
X01848D01*
Y02242D01*
X01846D01*
Y0224D01*
X01841D01*
Y02242D01*
X01839D01*
Y02251D01*
Y02252D01*
Y02293D01*
X01848D01*
Y02291D01*
X0185D01*
Y02288D01*
X01851D01*
Y02286D01*
X01853D01*
Y02284D01*
X01855D01*
Y02281D01*
X01856D01*
Y02279D01*
X01858D01*
Y02278D01*
X0186D01*
Y02276D01*
X01861D01*
Y02273D01*
X01863D01*
Y02271D01*
X01865D01*
Y02269D01*
X01867D01*
Y02266D01*
X01868D01*
Y02264D01*
X0187D01*
Y02262D01*
X01872D01*
Y02261D01*
X01873D01*
Y02257D01*
X01875D01*
Y02256D01*
X01877D01*
Y02293D01*
X01883D01*
Y02291D01*
D02*
G37*
G36*
X02197Y02293D02*
X022D01*
Y02291D01*
X02203D01*
Y0229D01*
X02205D01*
Y02288D01*
X02207D01*
Y02284D01*
X02209D01*
Y02283D01*
X0221D01*
Y02278D01*
X02212D01*
Y02276D01*
Y02256D01*
X0221D01*
Y02251D01*
X02209D01*
Y02249D01*
X02207D01*
Y02246D01*
X02203D01*
Y02244D01*
X02202D01*
Y02242D01*
X02197D01*
Y0224D01*
X02178D01*
Y02242D01*
X02173D01*
Y02244D01*
X02171D01*
Y02247D01*
X0217D01*
Y02251D01*
X02176D01*
Y02249D01*
X02181D01*
Y02247D01*
X02193D01*
Y02249D01*
X02197D01*
Y02251D01*
X02198D01*
Y02252D01*
X022D01*
Y02254D01*
X02202D01*
Y02256D01*
X02203D01*
Y02261D01*
X02205D01*
Y02264D01*
X0217D01*
Y02266D01*
X02168D01*
Y02283D01*
X0217D01*
Y02286D01*
X02171D01*
Y02288D01*
X02173D01*
Y0229D01*
X02175D01*
Y02291D01*
X02176D01*
Y02293D01*
X0218D01*
Y02295D01*
X02197D01*
Y02293D01*
D02*
G37*
G36*
X01978D02*
X01982D01*
Y02291D01*
X01985D01*
Y0229D01*
X01987D01*
Y02288D01*
X01988D01*
Y02286D01*
X0199D01*
Y02283D01*
X01992D01*
Y02279D01*
X01994D01*
Y02273D01*
X01995D01*
Y02261D01*
X01994D01*
Y02254D01*
X01992D01*
Y02251D01*
X0199D01*
Y02247D01*
X01988D01*
Y02246D01*
X01987D01*
Y02244D01*
X01983D01*
Y02242D01*
X0198D01*
Y0224D01*
X0196D01*
Y02242D01*
X01955D01*
Y02244D01*
X01953D01*
Y02247D01*
X01951D01*
Y02251D01*
X0196D01*
Y02249D01*
X01965D01*
Y02247D01*
X01975D01*
Y02249D01*
X01978D01*
Y02251D01*
X01982D01*
Y02252D01*
X01983D01*
Y02254D01*
Y02256D01*
X01985D01*
Y02259D01*
X01987D01*
Y02264D01*
X01951D01*
Y02268D01*
X0195D01*
Y02281D01*
X01951D01*
Y02284D01*
X01953D01*
Y02288D01*
X01955D01*
Y0229D01*
X01956D01*
Y02291D01*
X01958D01*
Y02293D01*
X01963D01*
Y02295D01*
X01978D01*
Y02293D01*
D02*
G37*
G36*
X01814D02*
X01817D01*
Y02291D01*
X01821D01*
Y0229D01*
X01823D01*
Y02288D01*
X01824D01*
Y02286D01*
X01826D01*
Y02283D01*
X01828D01*
Y02279D01*
X01829D01*
Y02273D01*
X01831D01*
Y02261D01*
X01829D01*
Y02254D01*
X01828D01*
Y02251D01*
X01826D01*
Y02247D01*
X01824D01*
Y02246D01*
X01823D01*
Y02244D01*
X01819D01*
Y02242D01*
X01816D01*
Y0224D01*
X01795D01*
Y02242D01*
X0179D01*
Y02244D01*
X01789D01*
Y02251D01*
X01795D01*
Y02249D01*
X01801D01*
Y02247D01*
X01811D01*
Y02249D01*
X01816D01*
Y02251D01*
X01817D01*
Y02252D01*
X01819D01*
Y02256D01*
X01821D01*
Y02259D01*
X01823D01*
Y02264D01*
X01787D01*
Y02268D01*
X01785D01*
Y02281D01*
X01787D01*
Y02284D01*
X01789D01*
Y02288D01*
X0179D01*
Y0229D01*
X01792D01*
Y02291D01*
X01794D01*
Y02293D01*
X01799D01*
Y02295D01*
X01814D01*
Y02293D01*
D02*
G37*
G36*
X02361D02*
X02366D01*
Y02291D01*
X02368D01*
Y0229D01*
X02371D01*
Y02288D01*
X02373D01*
Y02284D01*
X02374D01*
Y02283D01*
X02376D01*
Y02278D01*
X02378D01*
Y02257D01*
X02376D01*
Y02252D01*
X02374D01*
Y02251D01*
X02373D01*
Y02247D01*
X02371D01*
Y02246D01*
X02369D01*
Y02244D01*
X02366D01*
Y02242D01*
X02363D01*
Y0224D01*
X02344D01*
Y02242D01*
X02339D01*
Y02244D01*
X02337D01*
Y02246D01*
X02336D01*
Y02247D01*
X02334D01*
Y02249D01*
X02332D01*
Y02251D01*
X0233D01*
Y02254D01*
X02329D01*
Y02261D01*
X02327D01*
Y02274D01*
X02329D01*
Y02281D01*
X0233D01*
Y02284D01*
X02332D01*
Y02286D01*
X02334D01*
Y02288D01*
X02336D01*
Y0229D01*
X02337D01*
Y02291D01*
X02341D01*
Y02293D01*
X02344D01*
Y02295D01*
X02361D01*
Y02293D01*
D02*
G37*
G36*
X02268Y02291D02*
X0227D01*
Y02288D01*
X02268D01*
Y02286D01*
X02254D01*
Y02242D01*
X02251D01*
Y0224D01*
X02232D01*
Y02242D01*
X02226D01*
Y02244D01*
X02224D01*
Y02246D01*
X02222D01*
Y02247D01*
X0222D01*
Y02249D01*
X02219D01*
Y02252D01*
X02217D01*
Y02266D01*
X02219D01*
Y02269D01*
X0222D01*
Y02271D01*
X02222D01*
Y02273D01*
X02224D01*
Y02274D01*
X02229D01*
Y02276D01*
X02248D01*
Y02293D01*
X02268D01*
Y02291D01*
D02*
G37*
G36*
X02222Y02908D02*
X02227D01*
Y02906D01*
X02231D01*
Y02904D01*
X02234D01*
Y02902D01*
X02236D01*
Y02901D01*
X02239D01*
Y02899D01*
X02241D01*
Y02897D01*
X02242D01*
Y02896D01*
X02244D01*
Y02894D01*
X02246D01*
Y02892D01*
X02248D01*
Y02891D01*
X02249D01*
Y02887D01*
X02251D01*
Y02886D01*
X02253D01*
Y02884D01*
X02254D01*
Y02882D01*
X02256D01*
Y02879D01*
X02258D01*
Y02877D01*
X02259D01*
Y02874D01*
X02261D01*
Y02872D01*
X02263D01*
Y02869D01*
X02264D01*
Y02865D01*
X02266D01*
Y02863D01*
X02268D01*
Y0286D01*
X0227D01*
Y02857D01*
X02271D01*
Y02853D01*
X02273D01*
Y0285D01*
X02275D01*
Y02847D01*
X02276D01*
Y02843D01*
X02278D01*
Y0284D01*
X0228D01*
Y02836D01*
X02281D01*
Y02833D01*
X02283D01*
Y0283D01*
X02285D01*
Y02826D01*
X02286D01*
Y02821D01*
X02288D01*
Y02818D01*
X0229D01*
Y02814D01*
X02292D01*
Y02809D01*
X02293D01*
Y02806D01*
X02295D01*
Y02803D01*
X02297D01*
Y02797D01*
X02298D01*
Y02794D01*
X023D01*
Y02789D01*
X02302D01*
Y02786D01*
X02303D01*
Y02782D01*
X02305D01*
Y02777D01*
X02307D01*
Y02774D01*
X02308D01*
Y02769D01*
X0231D01*
Y02765D01*
X02312D01*
Y0276D01*
X02314D01*
Y02757D01*
X02315D01*
Y02753D01*
X02317D01*
Y02748D01*
X02319D01*
Y02745D01*
X0232D01*
Y0274D01*
X02322D01*
Y02737D01*
X02324D01*
Y02733D01*
X02325D01*
Y0273D01*
X02327D01*
Y02725D01*
X02329D01*
Y02721D01*
X0233D01*
Y02718D01*
X02332D01*
Y02714D01*
X02334D01*
Y02711D01*
X02336D01*
Y02708D01*
X02337D01*
Y02704D01*
X02339D01*
Y02703D01*
X02341D01*
Y02699D01*
X02342D01*
Y02696D01*
X02344D01*
Y02694D01*
X02346D01*
Y02691D01*
X02347D01*
Y02689D01*
X02349D01*
Y02687D01*
X02351D01*
Y02686D01*
X02352D01*
Y02684D01*
X02354D01*
Y02682D01*
X02366D01*
Y02684D01*
X02371D01*
Y02686D01*
X02374D01*
Y02687D01*
X02376D01*
Y02689D01*
X02378D01*
Y02691D01*
X0238D01*
Y02692D01*
X02381D01*
Y02694D01*
X02383D01*
Y02696D01*
X02385D01*
Y02698D01*
X02386D01*
Y02699D01*
X02388D01*
Y02701D01*
X0239D01*
Y02703D01*
X02391D01*
Y02704D01*
X02393D01*
Y02706D01*
X02397D01*
Y02708D01*
X02398D01*
Y02709D01*
X02402D01*
Y02711D01*
X02405D01*
Y02713D01*
X02408D01*
Y02714D01*
X02415D01*
Y02716D01*
X02437D01*
Y02714D01*
X02442D01*
Y02713D01*
X02446D01*
Y02711D01*
X02449D01*
Y02709D01*
X02452D01*
Y02708D01*
X02454D01*
Y02706D01*
X02456D01*
Y02704D01*
X02457D01*
Y02703D01*
X02459D01*
Y02701D01*
X02461D01*
Y02699D01*
X02463D01*
Y02698D01*
X02464D01*
Y02694D01*
X02466D01*
Y02692D01*
X02468D01*
Y02691D01*
X02469D01*
Y02687D01*
X02471D01*
Y02684D01*
X02473D01*
Y02682D01*
X02474D01*
Y02679D01*
X02476D01*
Y02676D01*
X02478D01*
Y02672D01*
X02479D01*
Y02669D01*
X02481D01*
Y02665D01*
X02483D01*
Y02662D01*
X02485D01*
Y02657D01*
X02486D01*
Y02654D01*
X02488D01*
Y0265D01*
X0249D01*
Y02645D01*
X02491D01*
Y02642D01*
X02493D01*
Y02637D01*
X02495D01*
Y02633D01*
X02496D01*
Y02628D01*
X02498D01*
Y02623D01*
X025D01*
Y02618D01*
X02501D01*
Y02613D01*
X02503D01*
Y0261D01*
X02505D01*
Y02604D01*
X02507D01*
Y02598D01*
X02508D01*
Y02593D01*
X0251D01*
Y02588D01*
X02512D01*
Y02582D01*
X02513D01*
Y02577D01*
X02515D01*
Y02571D01*
X02517D01*
Y02566D01*
X02518D01*
Y02559D01*
X0252D01*
Y02554D01*
X02522D01*
Y02549D01*
X02523D01*
Y02542D01*
X02525D01*
Y02535D01*
X02527D01*
Y0253D01*
X02529D01*
Y02523D01*
X0253D01*
Y02516D01*
X02532D01*
Y02511D01*
X02534D01*
Y02505D01*
X02535D01*
Y02498D01*
X02537D01*
Y02491D01*
X02539D01*
Y02484D01*
X0254D01*
Y02477D01*
X02542D01*
Y02471D01*
X02544D01*
Y02464D01*
X02546D01*
Y02457D01*
X02547D01*
Y0245D01*
X02549D01*
Y02444D01*
X02551D01*
Y02437D01*
X02552D01*
Y0243D01*
X02554D01*
Y02423D01*
X02556D01*
Y02417D01*
X02557D01*
Y0241D01*
X02559D01*
Y02403D01*
X02561D01*
Y02396D01*
X02562D01*
Y02389D01*
X02564D01*
Y02383D01*
X02566D01*
Y02376D01*
X02568D01*
Y02369D01*
X02569D01*
Y02361D01*
X02571D01*
Y02354D01*
X02573D01*
Y02347D01*
X02574D01*
Y0234D01*
X02576D01*
Y02335D01*
X02578D01*
Y02328D01*
X02579D01*
Y02322D01*
X02581D01*
Y02315D01*
X02583D01*
Y02308D01*
X02584D01*
Y02301D01*
X02586D01*
Y02296D01*
X02588D01*
Y0229D01*
X0259D01*
Y02283D01*
X02591D01*
Y02278D01*
X02593D01*
Y02271D01*
X02595D01*
Y02264D01*
X02596D01*
Y02259D01*
X02598D01*
Y02252D01*
X026D01*
Y02244D01*
X02598D01*
Y02242D01*
X02596D01*
Y0224D01*
X02595D01*
Y02239D01*
X02583D01*
Y0224D01*
X02581D01*
Y02242D01*
X02579D01*
Y02244D01*
X02578D01*
Y02251D01*
X02576D01*
Y02256D01*
X02574D01*
Y02262D01*
X02573D01*
Y02268D01*
X02571D01*
Y02274D01*
X02569D01*
Y02279D01*
X02568D01*
Y02286D01*
X02566D01*
Y02293D01*
X02564D01*
Y023D01*
X02562D01*
Y02305D01*
X02561D01*
Y02312D01*
X02559D01*
Y02318D01*
X02557D01*
Y02325D01*
X02556D01*
Y02332D01*
X02554D01*
Y02339D01*
X02552D01*
Y02345D01*
X02551D01*
Y02352D01*
X02549D01*
Y02359D01*
X02547D01*
Y02366D01*
X02546D01*
Y02372D01*
X02544D01*
Y02379D01*
X02542D01*
Y02386D01*
X0254D01*
Y02393D01*
X02539D01*
Y024D01*
X02537D01*
Y02406D01*
X02535D01*
Y02413D01*
X02534D01*
Y0242D01*
X02532D01*
Y02428D01*
X0253D01*
Y02435D01*
X02529D01*
Y02442D01*
X02527D01*
Y02449D01*
X02525D01*
Y02455D01*
X02523D01*
Y02462D01*
X02522D01*
Y02469D01*
X0252D01*
Y02476D01*
X02518D01*
Y02483D01*
X02517D01*
Y02489D01*
X02515D01*
Y02496D01*
X02513D01*
Y02503D01*
X02512D01*
Y02508D01*
X0251D01*
Y02515D01*
X02508D01*
Y02521D01*
X02507D01*
Y02528D01*
X02505D01*
Y02535D01*
X02503D01*
Y0254D01*
X02501D01*
Y02547D01*
X025D01*
Y02552D01*
X02498D01*
Y02559D01*
X02496D01*
Y02564D01*
X02495D01*
Y02571D01*
X02493D01*
Y02576D01*
X02491D01*
Y02581D01*
X0249D01*
Y02586D01*
X02488D01*
Y02591D01*
X02486D01*
Y02596D01*
X02485D01*
Y02601D01*
X02483D01*
Y02606D01*
X02481D01*
Y02611D01*
X02479D01*
Y02616D01*
X02478D01*
Y0262D01*
X02476D01*
Y02625D01*
X02474D01*
Y02628D01*
X02473D01*
Y02633D01*
X02471D01*
Y02637D01*
X02469D01*
Y02642D01*
X02468D01*
Y02645D01*
X02466D01*
Y02648D01*
X02464D01*
Y02652D01*
X02463D01*
Y02657D01*
X02461D01*
Y0266D01*
X02459D01*
Y02662D01*
X02457D01*
Y02665D01*
X02456D01*
Y02669D01*
X02454D01*
Y02672D01*
X02452D01*
Y02674D01*
X02451D01*
Y02677D01*
X02449D01*
Y02679D01*
X02447D01*
Y02682D01*
X02446D01*
Y02684D01*
X02444D01*
Y02686D01*
X02442D01*
Y02687D01*
X02441D01*
Y02689D01*
X02439D01*
Y02691D01*
X02437D01*
Y02692D01*
X02435D01*
Y02694D01*
X0243D01*
Y02696D01*
X02427D01*
Y02694D01*
X02419D01*
Y02692D01*
X02413D01*
Y02691D01*
X02412D01*
Y02689D01*
X02408D01*
Y02687D01*
X02407D01*
Y02686D01*
X02405D01*
Y02684D01*
X02403D01*
Y02682D01*
X02402D01*
Y02681D01*
X024D01*
Y02679D01*
X02398D01*
Y02677D01*
X02397D01*
Y02676D01*
X02395D01*
Y02674D01*
X02393D01*
Y02672D01*
X02391D01*
Y0267D01*
X02388D01*
Y02669D01*
X02386D01*
Y02667D01*
X02383D01*
Y02665D01*
X0238D01*
Y02664D01*
X02376D01*
Y02662D01*
X02369D01*
Y0266D01*
X02351D01*
Y02662D01*
X02346D01*
Y02664D01*
X02342D01*
Y02665D01*
X02339D01*
Y02667D01*
X02337D01*
Y02669D01*
X02336D01*
Y0267D01*
X02334D01*
Y02672D01*
X02332D01*
Y02674D01*
X0233D01*
Y02677D01*
X02329D01*
Y02679D01*
X02327D01*
Y02681D01*
X02325D01*
Y02684D01*
X02324D01*
Y02686D01*
X02322D01*
Y02689D01*
X0232D01*
Y02692D01*
X02319D01*
Y02696D01*
X02317D01*
Y02698D01*
X02315D01*
Y02701D01*
X02314D01*
Y02706D01*
X02312D01*
Y02709D01*
X0231D01*
Y02713D01*
X02308D01*
Y02716D01*
X02307D01*
Y02721D01*
X02305D01*
Y02725D01*
X02303D01*
Y02728D01*
X02302D01*
Y02731D01*
X023D01*
Y02737D01*
X02298D01*
Y0274D01*
X02297D01*
Y02745D01*
X02295D01*
Y02748D01*
X02293D01*
Y02753D01*
X02292D01*
Y02757D01*
X0229D01*
Y02762D01*
X02288D01*
Y02765D01*
X02286D01*
Y0277D01*
X02285D01*
Y02774D01*
X02283D01*
Y02779D01*
X02281D01*
Y02782D01*
X0228D01*
Y02787D01*
X02278D01*
Y02791D01*
X02276D01*
Y02796D01*
X02275D01*
Y02799D01*
X02273D01*
Y02803D01*
X02271D01*
Y02808D01*
X0227D01*
Y02811D01*
X02268D01*
Y02814D01*
X02266D01*
Y02818D01*
X02264D01*
Y02821D01*
X02263D01*
Y02826D01*
X02261D01*
Y0283D01*
X02259D01*
Y02833D01*
X02258D01*
Y02836D01*
X02256D01*
Y02838D01*
X02254D01*
Y02841D01*
X02253D01*
Y02845D01*
X02251D01*
Y02848D01*
X02249D01*
Y02852D01*
X02248D01*
Y02853D01*
X02246D01*
Y02857D01*
X02244D01*
Y02858D01*
X02242D01*
Y02862D01*
X02241D01*
Y02865D01*
X02239D01*
Y02867D01*
X02237D01*
Y02869D01*
X02236D01*
Y02872D01*
X02234D01*
Y02874D01*
X02232D01*
Y02875D01*
X02231D01*
Y02877D01*
X02229D01*
Y02879D01*
X02227D01*
Y0288D01*
X02226D01*
Y02882D01*
X02224D01*
Y02884D01*
X0222D01*
Y02886D01*
X02219D01*
Y02887D01*
X02205D01*
Y02886D01*
X022D01*
Y02884D01*
X02197D01*
Y02882D01*
X02193D01*
Y0288D01*
X0219D01*
Y02879D01*
X02188D01*
Y02877D01*
X02185D01*
Y02875D01*
X02183D01*
Y02874D01*
X0218D01*
Y02872D01*
X02178D01*
Y0287D01*
X02176D01*
Y02869D01*
X02175D01*
Y02867D01*
X02171D01*
Y02865D01*
X0217D01*
Y02863D01*
X02168D01*
Y02862D01*
X02166D01*
Y0286D01*
X02165D01*
Y02858D01*
X02163D01*
Y02857D01*
X02161D01*
Y02855D01*
X02159D01*
Y02853D01*
X02158D01*
Y02852D01*
X02154D01*
Y0285D01*
X02153D01*
Y02848D01*
X02151D01*
Y02847D01*
X02149D01*
Y02845D01*
X02148D01*
Y02843D01*
X02146D01*
Y02841D01*
X02144D01*
Y0284D01*
X02143D01*
Y02838D01*
X02141D01*
Y02836D01*
X02139D01*
Y02835D01*
X02137D01*
Y02833D01*
X02136D01*
Y02831D01*
X02134D01*
Y0283D01*
X02132D01*
Y02828D01*
X02131D01*
Y02826D01*
X02129D01*
Y02825D01*
X02127D01*
Y02823D01*
X02126D01*
Y02819D01*
X02124D01*
Y02818D01*
X02122D01*
Y02816D01*
X02121D01*
Y02814D01*
X02119D01*
Y02813D01*
X02117D01*
Y02811D01*
X02115D01*
Y02809D01*
X02114D01*
Y02808D01*
X02112D01*
Y02806D01*
X0211D01*
Y02803D01*
X02109D01*
Y02801D01*
X02107D01*
Y02799D01*
X02105D01*
Y02797D01*
X02104D01*
Y02796D01*
X02102D01*
Y02794D01*
X021D01*
Y02791D01*
X02099D01*
Y02789D01*
X02097D01*
Y02787D01*
X02095D01*
Y02786D01*
X02093D01*
Y02784D01*
X02092D01*
Y02781D01*
X0209D01*
Y02779D01*
X02088D01*
Y02777D01*
X02087D01*
Y02775D01*
X02085D01*
Y02774D01*
X02083D01*
Y0277D01*
X02082D01*
Y02769D01*
X0208D01*
Y02767D01*
X02078D01*
Y02765D01*
X02077D01*
Y02762D01*
X02075D01*
Y0276D01*
X02073D01*
Y02759D01*
X02071D01*
Y02757D01*
X0207D01*
Y02753D01*
X02068D01*
Y02752D01*
X02066D01*
Y0275D01*
X02065D01*
Y02747D01*
X02063D01*
Y02745D01*
X02061D01*
Y02743D01*
X0206D01*
Y0274D01*
X02058D01*
Y02738D01*
X02056D01*
Y02737D01*
X02054D01*
Y02735D01*
X02053D01*
Y02731D01*
X02051D01*
Y0273D01*
X02049D01*
Y02728D01*
X02048D01*
Y02725D01*
X02046D01*
Y02723D01*
X02044D01*
Y02721D01*
X02043D01*
Y02718D01*
X02041D01*
Y02716D01*
X02039D01*
Y02713D01*
X02038D01*
Y02711D01*
X02036D01*
Y02709D01*
X02034D01*
Y02706D01*
X02032D01*
Y02704D01*
X02031D01*
Y02703D01*
X02029D01*
Y02699D01*
X02027D01*
Y02698D01*
X02026D01*
Y02694D01*
X02024D01*
Y02692D01*
X02022D01*
Y02691D01*
X02021D01*
Y02687D01*
X02019D01*
Y02686D01*
X02017D01*
Y02682D01*
X02016D01*
Y02681D01*
X02014D01*
Y02679D01*
X02012D01*
Y02676D01*
X0201D01*
Y02674D01*
X02009D01*
Y0267D01*
X02007D01*
Y02669D01*
X02005D01*
Y02665D01*
X02004D01*
Y02664D01*
X02002D01*
Y0266D01*
X02D01*
Y02659D01*
X01999D01*
Y02655D01*
X01997D01*
Y02654D01*
X01995D01*
Y0265D01*
X01994D01*
Y02648D01*
X01992D01*
Y02645D01*
X0199D01*
Y02643D01*
X01988D01*
Y0264D01*
X01987D01*
Y02638D01*
X01985D01*
Y02635D01*
X01983D01*
Y02633D01*
X01982D01*
Y0263D01*
X0198D01*
Y02628D01*
X01978D01*
Y02625D01*
X01977D01*
Y02623D01*
X01975D01*
Y0262D01*
X01973D01*
Y02618D01*
X01972D01*
Y02615D01*
X0197D01*
Y02611D01*
X01968D01*
Y0261D01*
X01966D01*
Y02606D01*
X01965D01*
Y02604D01*
X01963D01*
Y02601D01*
X01961D01*
Y02599D01*
X0196D01*
Y02598D01*
X01958D01*
Y02596D01*
X01955D01*
Y02594D01*
X01951D01*
Y02596D01*
X01946D01*
Y02598D01*
X01944D01*
Y02599D01*
X01943D01*
Y02601D01*
X01941D01*
Y02611D01*
X01943D01*
Y02613D01*
X01944D01*
Y02616D01*
X01946D01*
Y02618D01*
X01948D01*
Y02621D01*
X0195D01*
Y02625D01*
X01951D01*
Y02626D01*
X01953D01*
Y0263D01*
X01955D01*
Y02632D01*
X01956D01*
Y02635D01*
X01958D01*
Y02637D01*
X0196D01*
Y0264D01*
X01961D01*
Y02643D01*
X01963D01*
Y02645D01*
X01965D01*
Y02648D01*
X01966D01*
Y0265D01*
X01968D01*
Y02654D01*
X0197D01*
Y02655D01*
X01972D01*
Y02659D01*
X01973D01*
Y0266D01*
X01975D01*
Y02664D01*
X01977D01*
Y02665D01*
X01978D01*
Y02669D01*
X0198D01*
Y0267D01*
X01982D01*
Y02674D01*
X01983D01*
Y02676D01*
X01985D01*
Y02679D01*
X01987D01*
Y02681D01*
X01988D01*
Y02684D01*
X0199D01*
Y02686D01*
X01992D01*
Y02687D01*
X01994D01*
Y02691D01*
X01995D01*
Y02692D01*
X01997D01*
Y02696D01*
X01999D01*
Y02698D01*
X02D01*
Y02701D01*
X02002D01*
Y02703D01*
X02004D01*
Y02704D01*
X02005D01*
Y02708D01*
X02007D01*
Y02709D01*
X02009D01*
Y02713D01*
X0201D01*
Y02714D01*
X02012D01*
Y02716D01*
X02014D01*
Y0272D01*
X02016D01*
Y02721D01*
X02017D01*
Y02723D01*
X02019D01*
Y02726D01*
X02021D01*
Y02728D01*
X02022D01*
Y02731D01*
X02024D01*
Y02733D01*
X02026D01*
Y02735D01*
X02027D01*
Y02738D01*
X02029D01*
Y0274D01*
X02031D01*
Y02742D01*
X02032D01*
Y02745D01*
X02034D01*
Y02747D01*
X02036D01*
Y02748D01*
X02038D01*
Y02752D01*
X02039D01*
Y02753D01*
X02041D01*
Y02755D01*
X02043D01*
Y02757D01*
X02044D01*
Y0276D01*
X02046D01*
Y02762D01*
X02048D01*
Y02764D01*
X02049D01*
Y02767D01*
X02051D01*
Y02769D01*
X02053D01*
Y0277D01*
X02054D01*
Y02772D01*
X02056D01*
Y02775D01*
X02058D01*
Y02777D01*
X0206D01*
Y02779D01*
X02061D01*
Y02781D01*
X02063D01*
Y02784D01*
X02065D01*
Y02786D01*
X02066D01*
Y02787D01*
X02068D01*
Y02789D01*
X0207D01*
Y02791D01*
X02071D01*
Y02794D01*
X02073D01*
Y02796D01*
X02075D01*
Y02797D01*
X02077D01*
Y02799D01*
X02078D01*
Y02801D01*
X0208D01*
Y02804D01*
X02082D01*
Y02806D01*
X02083D01*
Y02808D01*
X02085D01*
Y02809D01*
X02087D01*
Y02811D01*
X02088D01*
Y02813D01*
X0209D01*
Y02816D01*
X02092D01*
Y02818D01*
X02093D01*
Y02819D01*
X02095D01*
Y02821D01*
X02097D01*
Y02823D01*
X02099D01*
Y02825D01*
X021D01*
Y02826D01*
X02102D01*
Y0283D01*
X02104D01*
Y02831D01*
X02105D01*
Y02833D01*
X02107D01*
Y02835D01*
X02109D01*
Y02836D01*
X0211D01*
Y02838D01*
X02112D01*
Y0284D01*
X02114D01*
Y02841D01*
X02115D01*
Y02843D01*
X02117D01*
Y02845D01*
X02119D01*
Y02847D01*
X02121D01*
Y02848D01*
X02122D01*
Y0285D01*
X02124D01*
Y02852D01*
X02126D01*
Y02853D01*
X02127D01*
Y02855D01*
X02129D01*
Y02857D01*
X02131D01*
Y02858D01*
X02132D01*
Y0286D01*
X02134D01*
Y02862D01*
X02136D01*
Y02863D01*
X02137D01*
Y02865D01*
X02139D01*
Y02867D01*
X02141D01*
Y02869D01*
X02143D01*
Y0287D01*
X02144D01*
Y02872D01*
X02146D01*
Y02874D01*
X02148D01*
Y02875D01*
X02149D01*
Y02877D01*
X02153D01*
Y02879D01*
X02154D01*
Y0288D01*
X02156D01*
Y02882D01*
X02158D01*
Y02884D01*
X02159D01*
Y02886D01*
X02163D01*
Y02887D01*
X02165D01*
Y02889D01*
X02166D01*
Y02891D01*
X0217D01*
Y02892D01*
X02171D01*
Y02894D01*
X02173D01*
Y02896D01*
X02176D01*
Y02897D01*
X02178D01*
Y02899D01*
X02181D01*
Y02901D01*
X02185D01*
Y02902D01*
X02188D01*
Y02904D01*
X02192D01*
Y02906D01*
X02195D01*
Y02908D01*
X022D01*
Y02909D01*
X02222D01*
Y02908D01*
D02*
G37*
G36*
X02187Y02833D02*
X02197D01*
Y02831D01*
X022D01*
Y0283D01*
X02205D01*
Y02828D01*
X02207D01*
Y02826D01*
X0221D01*
Y02825D01*
X02214D01*
Y02823D01*
X02215D01*
Y02821D01*
X02217D01*
Y02819D01*
X0222D01*
Y02818D01*
X02222D01*
Y02816D01*
X02224D01*
Y02814D01*
X02226D01*
Y02813D01*
X02227D01*
Y02811D01*
X02229D01*
Y02809D01*
X02231D01*
Y02808D01*
X02232D01*
Y02806D01*
X02234D01*
Y02803D01*
X02236D01*
Y02801D01*
X02237D01*
Y02799D01*
X02239D01*
Y02797D01*
X02241D01*
Y02794D01*
X02242D01*
Y02792D01*
X02244D01*
Y02789D01*
X02246D01*
Y02787D01*
X02248D01*
Y02786D01*
X02249D01*
Y02782D01*
X02251D01*
Y02779D01*
X02253D01*
Y02777D01*
X02254D01*
Y02774D01*
X02256D01*
Y0277D01*
X02258D01*
Y02769D01*
X02259D01*
Y02765D01*
X02261D01*
Y02762D01*
X02263D01*
Y02759D01*
X02264D01*
Y02755D01*
X02266D01*
Y02753D01*
X02268D01*
Y0275D01*
X0227D01*
Y02747D01*
X02271D01*
Y02743D01*
X02273D01*
Y0274D01*
X02275D01*
Y02737D01*
X02276D01*
Y02733D01*
X02278D01*
Y0273D01*
X0228D01*
Y02726D01*
X02281D01*
Y02723D01*
X02283D01*
Y0272D01*
X02285D01*
Y02716D01*
X02286D01*
Y02713D01*
X02288D01*
Y02709D01*
X0229D01*
Y02706D01*
X02292D01*
Y02703D01*
X02293D01*
Y02699D01*
X02295D01*
Y02696D01*
X02297D01*
Y02692D01*
X02298D01*
Y02689D01*
X023D01*
Y02686D01*
X02302D01*
Y02682D01*
X02303D01*
Y02679D01*
X02305D01*
Y02676D01*
X02307D01*
Y02672D01*
X02308D01*
Y02669D01*
X0231D01*
Y02665D01*
X02312D01*
Y02662D01*
X02314D01*
Y02659D01*
X02315D01*
Y02657D01*
X02317D01*
Y02654D01*
X02319D01*
Y0265D01*
X0232D01*
Y02648D01*
X02322D01*
Y02645D01*
X02324D01*
Y02643D01*
X02325D01*
Y0264D01*
X02327D01*
Y02638D01*
X02329D01*
Y02637D01*
X0233D01*
Y02635D01*
X02332D01*
Y02633D01*
X02334D01*
Y02632D01*
X02339D01*
Y0263D01*
X02346D01*
Y02632D01*
X02352D01*
Y02633D01*
X02356D01*
Y02635D01*
X02358D01*
Y02637D01*
X02361D01*
Y02638D01*
X02363D01*
Y0264D01*
X02364D01*
Y02642D01*
X02368D01*
Y02643D01*
X02369D01*
Y02645D01*
X02373D01*
Y02647D01*
X02376D01*
Y02648D01*
X0238D01*
Y0265D01*
X02383D01*
Y02652D01*
X02388D01*
Y02654D01*
X02398D01*
Y02655D01*
X02407D01*
Y02654D01*
X02415D01*
Y02652D01*
X02419D01*
Y0265D01*
X02422D01*
Y02648D01*
X02424D01*
Y02647D01*
X02425D01*
Y02645D01*
X02427D01*
Y02643D01*
X02429D01*
Y02642D01*
X0243D01*
Y0264D01*
X02432D01*
Y02638D01*
X02434D01*
Y02637D01*
X02435D01*
Y02635D01*
X02437D01*
Y02633D01*
X02439D01*
Y0263D01*
X02441D01*
Y02628D01*
X02442D01*
Y02625D01*
X02444D01*
Y02623D01*
X02446D01*
Y0262D01*
X02447D01*
Y02616D01*
X02449D01*
Y02613D01*
X02451D01*
Y02611D01*
X02452D01*
Y02608D01*
X02454D01*
Y02604D01*
X02456D01*
Y02599D01*
X02457D01*
Y02596D01*
X02459D01*
Y02593D01*
X02461D01*
Y02589D01*
X02463D01*
Y02584D01*
X02464D01*
Y02581D01*
X02466D01*
Y02576D01*
X02468D01*
Y02571D01*
X02469D01*
Y02566D01*
X02471D01*
Y02562D01*
X02473D01*
Y02557D01*
X02474D01*
Y02552D01*
X02476D01*
Y02547D01*
X02478D01*
Y02542D01*
X02479D01*
Y02537D01*
X02481D01*
Y02532D01*
X02483D01*
Y02527D01*
X02485D01*
Y02521D01*
X02486D01*
Y02515D01*
X02488D01*
Y0251D01*
X0249D01*
Y02505D01*
X02491D01*
Y02498D01*
X02493D01*
Y02493D01*
X02495D01*
Y02486D01*
X02496D01*
Y02481D01*
X02498D01*
Y02474D01*
X025D01*
Y02469D01*
X02501D01*
Y02462D01*
X02503D01*
Y02457D01*
X02505D01*
Y0245D01*
X02507D01*
Y02444D01*
X02508D01*
Y02437D01*
X0251D01*
Y02432D01*
X02512D01*
Y02425D01*
X02513D01*
Y02418D01*
X02515D01*
Y02411D01*
X02517D01*
Y02405D01*
X02518D01*
Y024D01*
X0252D01*
Y02393D01*
X02522D01*
Y02386D01*
X02523D01*
Y02379D01*
X02525D01*
Y02372D01*
X02527D01*
Y02366D01*
X02529D01*
Y02359D01*
X0253D01*
Y02352D01*
X02532D01*
Y02347D01*
X02534D01*
Y0234D01*
X02535D01*
Y02334D01*
X02537D01*
Y02327D01*
X02539D01*
Y0232D01*
X0254D01*
Y02315D01*
X02542D01*
Y02308D01*
X02544D01*
Y02301D01*
X02546D01*
Y02296D01*
X02547D01*
Y0229D01*
X02549D01*
Y02283D01*
X02551D01*
Y02278D01*
X02552D01*
Y02271D01*
X02554D01*
Y02266D01*
X02556D01*
Y02259D01*
X02557D01*
Y02254D01*
X02559D01*
Y02244D01*
X02557D01*
Y02242D01*
X02556D01*
Y0224D01*
X02554D01*
Y02239D01*
X02542D01*
Y0224D01*
X0254D01*
Y02242D01*
X02539D01*
Y02246D01*
X02537D01*
Y02251D01*
X02535D01*
Y02257D01*
X02534D01*
Y02262D01*
X02532D01*
Y02268D01*
X0253D01*
Y02274D01*
X02529D01*
Y02281D01*
X02527D01*
Y02286D01*
X02525D01*
Y02293D01*
X02523D01*
Y02298D01*
X02522D01*
Y02305D01*
X0252D01*
Y02312D01*
X02518D01*
Y02318D01*
X02517D01*
Y02323D01*
X02515D01*
Y0233D01*
X02513D01*
Y02337D01*
X02512D01*
Y02344D01*
X0251D01*
Y0235D01*
X02508D01*
Y02357D01*
X02507D01*
Y02362D01*
X02505D01*
Y02369D01*
X02503D01*
Y02376D01*
X02501D01*
Y02383D01*
X025D01*
Y02389D01*
X02498D01*
Y02396D01*
X02496D01*
Y02403D01*
X02495D01*
Y0241D01*
X02493D01*
Y02415D01*
X02491D01*
Y02422D01*
X0249D01*
Y02428D01*
X02488D01*
Y02435D01*
X02486D01*
Y0244D01*
X02485D01*
Y02447D01*
X02483D01*
Y02454D01*
X02481D01*
Y02459D01*
X02479D01*
Y02466D01*
X02478D01*
Y02472D01*
X02476D01*
Y02477D01*
X02474D01*
Y02484D01*
X02473D01*
Y02489D01*
X02471D01*
Y02494D01*
X02469D01*
Y02501D01*
X02468D01*
Y02506D01*
X02466D01*
Y02511D01*
X02464D01*
Y02518D01*
X02463D01*
Y02523D01*
X02461D01*
Y02528D01*
X02459D01*
Y02533D01*
X02457D01*
Y02538D01*
X02456D01*
Y02543D01*
X02454D01*
Y02549D01*
X02452D01*
Y02554D01*
X02451D01*
Y02557D01*
X02449D01*
Y02562D01*
X02447D01*
Y02567D01*
X02446D01*
Y02571D01*
X02444D01*
Y02576D01*
X02442D01*
Y02579D01*
X02441D01*
Y02584D01*
X02439D01*
Y02588D01*
X02437D01*
Y02591D01*
X02435D01*
Y02594D01*
X02434D01*
Y02598D01*
X02432D01*
Y02601D01*
X0243D01*
Y02604D01*
X02429D01*
Y02608D01*
X02427D01*
Y0261D01*
X02425D01*
Y02613D01*
X02424D01*
Y02616D01*
X02422D01*
Y02618D01*
X0242D01*
Y0262D01*
X02419D01*
Y02623D01*
X02417D01*
Y02625D01*
X02415D01*
Y02626D01*
X02413D01*
Y02628D01*
X02412D01*
Y0263D01*
X02408D01*
Y02632D01*
X02405D01*
Y02633D01*
X02397D01*
Y02632D01*
X02391D01*
Y0263D01*
X02386D01*
Y02628D01*
X02383D01*
Y02626D01*
X02381D01*
Y02625D01*
X02378D01*
Y02623D01*
X02376D01*
Y02621D01*
X02374D01*
Y0262D01*
X02373D01*
Y02618D01*
X02369D01*
Y02616D01*
X02368D01*
Y02615D01*
X02364D01*
Y02613D01*
X02361D01*
Y02611D01*
X02356D01*
Y0261D01*
X02329D01*
Y02611D01*
X02325D01*
Y02613D01*
X02322D01*
Y02615D01*
X0232D01*
Y02616D01*
X02317D01*
Y02618D01*
X02315D01*
Y0262D01*
X02314D01*
Y02621D01*
X02312D01*
Y02623D01*
X0231D01*
Y02625D01*
X02308D01*
Y02628D01*
X02307D01*
Y0263D01*
X02305D01*
Y02632D01*
X02303D01*
Y02635D01*
X02302D01*
Y02637D01*
X023D01*
Y0264D01*
X02298D01*
Y02643D01*
X02297D01*
Y02647D01*
X02295D01*
Y02648D01*
X02293D01*
Y02652D01*
X02292D01*
Y02655D01*
X0229D01*
Y02659D01*
X02288D01*
Y02662D01*
X02286D01*
Y02665D01*
X02285D01*
Y02669D01*
X02283D01*
Y02672D01*
X02281D01*
Y02676D01*
X0228D01*
Y02679D01*
X02278D01*
Y02682D01*
X02276D01*
Y02686D01*
X02275D01*
Y02689D01*
X02273D01*
Y02694D01*
X02271D01*
Y02698D01*
X0227D01*
Y02701D01*
X02268D01*
Y02704D01*
X02266D01*
Y02708D01*
X02264D01*
Y02711D01*
X02263D01*
Y02714D01*
X02261D01*
Y02718D01*
X02259D01*
Y02721D01*
X02258D01*
Y02725D01*
X02256D01*
Y02728D01*
X02254D01*
Y02731D01*
X02253D01*
Y02735D01*
X02251D01*
Y02737D01*
X02249D01*
Y0274D01*
X02248D01*
Y02743D01*
X02246D01*
Y02747D01*
X02244D01*
Y0275D01*
X02242D01*
Y02753D01*
X02241D01*
Y02755D01*
X02239D01*
Y02759D01*
X02237D01*
Y02762D01*
X02236D01*
Y02765D01*
X02234D01*
Y02767D01*
X02232D01*
Y0277D01*
X02231D01*
Y02772D01*
X02229D01*
Y02775D01*
X02227D01*
Y02777D01*
X02226D01*
Y02781D01*
X02224D01*
Y02782D01*
X02222D01*
Y02784D01*
X0222D01*
Y02787D01*
X02219D01*
Y02789D01*
X02217D01*
Y02791D01*
X02215D01*
Y02792D01*
X02214D01*
Y02794D01*
X02212D01*
Y02796D01*
X0221D01*
Y02797D01*
X02209D01*
Y02799D01*
X02207D01*
Y02801D01*
X02205D01*
Y02803D01*
X02203D01*
Y02804D01*
X02202D01*
Y02806D01*
X02198D01*
Y02808D01*
X02195D01*
Y02809D01*
X02192D01*
Y02811D01*
X02187D01*
Y02813D01*
X0218D01*
Y02811D01*
X02175D01*
Y02809D01*
X02171D01*
Y02808D01*
X02168D01*
Y02806D01*
X02166D01*
Y02804D01*
X02163D01*
Y02803D01*
X02161D01*
Y02801D01*
X02158D01*
Y02799D01*
X02156D01*
Y02797D01*
X02154D01*
Y02796D01*
X02153D01*
Y02794D01*
X02149D01*
Y02792D01*
X02148D01*
Y02791D01*
X02146D01*
Y02789D01*
X02144D01*
Y02787D01*
X02143D01*
Y02786D01*
X02141D01*
Y02784D01*
X02139D01*
Y02782D01*
X02137D01*
Y02781D01*
X02136D01*
Y02779D01*
X02134D01*
Y02777D01*
X02132D01*
Y02775D01*
X02131D01*
Y02772D01*
X02129D01*
Y0277D01*
X02127D01*
Y02769D01*
X02126D01*
Y02767D01*
X02124D01*
Y02765D01*
X02122D01*
Y02764D01*
X02121D01*
Y0276D01*
X02119D01*
Y02759D01*
X02117D01*
Y02757D01*
X02115D01*
Y02755D01*
X02114D01*
Y02753D01*
X02112D01*
Y0275D01*
X0211D01*
Y02748D01*
X02109D01*
Y02747D01*
X02107D01*
Y02745D01*
X02105D01*
Y02742D01*
X02104D01*
Y0274D01*
X02102D01*
Y02738D01*
X021D01*
Y02737D01*
X02099D01*
Y02733D01*
X02097D01*
Y02731D01*
X02095D01*
Y0273D01*
X02093D01*
Y02726D01*
X02092D01*
Y02725D01*
X0209D01*
Y02723D01*
X02088D01*
Y0272D01*
X02087D01*
Y02718D01*
X02085D01*
Y02716D01*
X02083D01*
Y02713D01*
X02082D01*
Y02711D01*
X0208D01*
Y02709D01*
X02078D01*
Y02706D01*
X02077D01*
Y02704D01*
X02075D01*
Y02701D01*
X02073D01*
Y02699D01*
X02071D01*
Y02698D01*
X0207D01*
Y02694D01*
X02068D01*
Y02692D01*
X02066D01*
Y02689D01*
X02065D01*
Y02687D01*
X02063D01*
Y02686D01*
X02061D01*
Y02682D01*
X0206D01*
Y02681D01*
X02058D01*
Y02677D01*
X02056D01*
Y02676D01*
X02054D01*
Y02672D01*
X02053D01*
Y0267D01*
X02051D01*
Y02667D01*
X02049D01*
Y02665D01*
X02048D01*
Y02664D01*
X02046D01*
Y0266D01*
X02044D01*
Y02659D01*
X02043D01*
Y02655D01*
X02041D01*
Y02654D01*
X02039D01*
Y0265D01*
X02038D01*
Y02648D01*
X02036D01*
Y02645D01*
X02034D01*
Y02643D01*
X02032D01*
Y0264D01*
X02031D01*
Y02638D01*
X02029D01*
Y02635D01*
X02027D01*
Y02633D01*
X02026D01*
Y0263D01*
X02024D01*
Y02628D01*
X02022D01*
Y02625D01*
X02021D01*
Y02623D01*
X02019D01*
Y0262D01*
X02017D01*
Y02618D01*
X02016D01*
Y02615D01*
X02014D01*
Y02613D01*
X02012D01*
Y0261D01*
X0201D01*
Y02608D01*
X02009D01*
Y02604D01*
X02007D01*
Y02603D01*
X02005D01*
Y02599D01*
X02004D01*
Y02598D01*
X02002D01*
Y02594D01*
X02D01*
Y02593D01*
X01999D01*
Y02589D01*
X01997D01*
Y02588D01*
X01995D01*
Y02584D01*
X01994D01*
Y02582D01*
X01992D01*
Y02581D01*
X0199D01*
Y02577D01*
X01988D01*
Y02576D01*
X01987D01*
Y02572D01*
X01985D01*
Y02571D01*
X01983D01*
Y02569D01*
X01982D01*
Y02567D01*
X0198D01*
Y02566D01*
X0197D01*
Y02567D01*
X01966D01*
Y02569D01*
X01965D01*
Y02571D01*
X01963D01*
Y02581D01*
X01965D01*
Y02582D01*
X01966D01*
Y02586D01*
X01968D01*
Y02588D01*
X0197D01*
Y02589D01*
X01972D01*
Y02593D01*
X01973D01*
Y02594D01*
X01975D01*
Y02598D01*
X01977D01*
Y02599D01*
X01978D01*
Y02603D01*
X0198D01*
Y02604D01*
X01982D01*
Y02606D01*
X01983D01*
Y0261D01*
X01985D01*
Y02611D01*
X01987D01*
Y02615D01*
X01988D01*
Y02616D01*
X0199D01*
Y0262D01*
X01992D01*
Y02621D01*
X01994D01*
Y02625D01*
X01995D01*
Y02626D01*
X01997D01*
Y0263D01*
X01999D01*
Y02632D01*
X02D01*
Y02635D01*
X02002D01*
Y02637D01*
X02004D01*
Y0264D01*
X02005D01*
Y02642D01*
X02007D01*
Y02645D01*
X02009D01*
Y02647D01*
X0201D01*
Y0265D01*
X02012D01*
Y02652D01*
X02014D01*
Y02655D01*
X02016D01*
Y02657D01*
X02017D01*
Y0266D01*
X02019D01*
Y02662D01*
X02021D01*
Y02665D01*
X02022D01*
Y02667D01*
X02024D01*
Y02669D01*
X02026D01*
Y02672D01*
X02027D01*
Y02674D01*
X02029D01*
Y02677D01*
X02031D01*
Y02679D01*
X02032D01*
Y02682D01*
X02034D01*
Y02684D01*
X02036D01*
Y02687D01*
X02038D01*
Y02689D01*
X02039D01*
Y02692D01*
X02041D01*
Y02694D01*
X02043D01*
Y02698D01*
X02044D01*
Y02699D01*
X02046D01*
Y02703D01*
X02048D01*
Y02704D01*
X02049D01*
Y02706D01*
X02051D01*
Y02709D01*
X02053D01*
Y02711D01*
X02054D01*
Y02714D01*
X02056D01*
Y02716D01*
X02058D01*
Y02718D01*
X0206D01*
Y02721D01*
X02061D01*
Y02723D01*
X02063D01*
Y02725D01*
X02065D01*
Y02728D01*
X02066D01*
Y0273D01*
X02068D01*
Y02733D01*
X0207D01*
Y02735D01*
X02071D01*
Y02737D01*
X02073D01*
Y0274D01*
X02075D01*
Y02742D01*
X02077D01*
Y02743D01*
X02078D01*
Y02747D01*
X0208D01*
Y02748D01*
X02082D01*
Y0275D01*
X02083D01*
Y02752D01*
X02085D01*
Y02755D01*
X02087D01*
Y02757D01*
X02088D01*
Y02759D01*
X0209D01*
Y0276D01*
X02092D01*
Y02764D01*
X02093D01*
Y02765D01*
X02095D01*
Y02767D01*
X02097D01*
Y02769D01*
X02099D01*
Y02772D01*
X021D01*
Y02774D01*
X02102D01*
Y02775D01*
X02104D01*
Y02777D01*
X02105D01*
Y02779D01*
X02107D01*
Y02781D01*
X02109D01*
Y02784D01*
X0211D01*
Y02786D01*
X02112D01*
Y02787D01*
X02114D01*
Y02789D01*
X02115D01*
Y02791D01*
X02117D01*
Y02792D01*
X02119D01*
Y02794D01*
X02121D01*
Y02796D01*
X02122D01*
Y02797D01*
X02124D01*
Y02799D01*
X02126D01*
Y02801D01*
X02127D01*
Y02803D01*
X02129D01*
Y02804D01*
X02131D01*
Y02806D01*
X02132D01*
Y02808D01*
X02134D01*
Y02809D01*
X02136D01*
Y02811D01*
X02137D01*
Y02813D01*
X02139D01*
Y02814D01*
X02141D01*
Y02816D01*
X02144D01*
Y02818D01*
X02146D01*
Y02819D01*
X02148D01*
Y02821D01*
X02151D01*
Y02823D01*
X02153D01*
Y02825D01*
X02156D01*
Y02826D01*
X02159D01*
Y02828D01*
X02163D01*
Y0283D01*
X02166D01*
Y02831D01*
X02171D01*
Y02833D01*
X0218D01*
Y02835D01*
X02187D01*
Y02833D01*
D02*
G37*
G36*
X02195Y0276D02*
X02202D01*
Y02759D01*
X02205D01*
Y02757D01*
X02209D01*
Y02755D01*
X02212D01*
Y02753D01*
X02214D01*
Y02752D01*
X02215D01*
Y0275D01*
X02219D01*
Y02748D01*
X0222D01*
Y02747D01*
X02222D01*
Y02745D01*
X02224D01*
Y02743D01*
X02226D01*
Y02742D01*
X02227D01*
Y02738D01*
X02229D01*
Y02737D01*
X02231D01*
Y02735D01*
X02232D01*
Y02731D01*
X02234D01*
Y0273D01*
X02236D01*
Y02726D01*
X02237D01*
Y02725D01*
X02239D01*
Y02721D01*
X02241D01*
Y02718D01*
X02242D01*
Y02714D01*
X02244D01*
Y02713D01*
X02246D01*
Y02709D01*
X02248D01*
Y02706D01*
X02249D01*
Y02703D01*
X02251D01*
Y02699D01*
X02253D01*
Y02696D01*
X02254D01*
Y02692D01*
X02256D01*
Y02689D01*
X02258D01*
Y02686D01*
X02259D01*
Y02682D01*
X02261D01*
Y02679D01*
X02263D01*
Y02674D01*
X02264D01*
Y0267D01*
X02266D01*
Y02667D01*
X02268D01*
Y02664D01*
X0227D01*
Y0266D01*
X02271D01*
Y02655D01*
X02273D01*
Y02652D01*
X02275D01*
Y02648D01*
X02276D01*
Y02643D01*
X02278D01*
Y0264D01*
X0228D01*
Y02637D01*
X02281D01*
Y02633D01*
X02283D01*
Y02628D01*
X02285D01*
Y02625D01*
X02286D01*
Y02621D01*
X02288D01*
Y02618D01*
X0229D01*
Y02615D01*
X02292D01*
Y02611D01*
X02293D01*
Y02608D01*
X02295D01*
Y02604D01*
X02297D01*
Y02601D01*
X02298D01*
Y02598D01*
X023D01*
Y02596D01*
X02302D01*
Y02593D01*
X02303D01*
Y02589D01*
X02305D01*
Y02588D01*
X02307D01*
Y02586D01*
X02308D01*
Y02584D01*
X02312D01*
Y02582D01*
X02322D01*
Y02584D01*
X02325D01*
Y02586D01*
X02327D01*
Y02588D01*
X0233D01*
Y02589D01*
X02332D01*
Y02591D01*
X02336D01*
Y02593D01*
X02337D01*
Y02594D01*
X02339D01*
Y02596D01*
X02342D01*
Y02598D01*
X02344D01*
Y02599D01*
X02347D01*
Y02601D01*
X02349D01*
Y02603D01*
X02352D01*
Y02604D01*
X02356D01*
Y02606D01*
X02359D01*
Y02608D01*
X02364D01*
Y0261D01*
X02383D01*
Y02608D01*
X02388D01*
Y02606D01*
X02391D01*
Y02604D01*
X02393D01*
Y02603D01*
X02397D01*
Y02601D01*
X02398D01*
Y02599D01*
X024D01*
Y02598D01*
X02402D01*
Y02596D01*
X02403D01*
Y02594D01*
X02405D01*
Y02593D01*
X02407D01*
Y02591D01*
X02408D01*
Y02589D01*
X0241D01*
Y02588D01*
X02412D01*
Y02584D01*
X02413D01*
Y02582D01*
X02415D01*
Y02579D01*
X02417D01*
Y02577D01*
X02419D01*
Y02574D01*
X0242D01*
Y02571D01*
X02422D01*
Y02567D01*
X02424D01*
Y02566D01*
X02425D01*
Y02562D01*
X02427D01*
Y02559D01*
X02429D01*
Y02555D01*
X0243D01*
Y02552D01*
X02432D01*
Y02547D01*
X02434D01*
Y02543D01*
X02435D01*
Y0254D01*
X02437D01*
Y02535D01*
X02439D01*
Y02532D01*
X02441D01*
Y02527D01*
X02442D01*
Y02523D01*
X02444D01*
Y02518D01*
X02446D01*
Y02515D01*
X02447D01*
Y0251D01*
X02449D01*
Y02505D01*
X02451D01*
Y02499D01*
X02452D01*
Y02494D01*
X02454D01*
Y02489D01*
X02456D01*
Y02484D01*
X02457D01*
Y02479D01*
X02459D01*
Y02474D01*
X02461D01*
Y02467D01*
X02463D01*
Y02462D01*
X02464D01*
Y02457D01*
X02466D01*
Y02452D01*
X02468D01*
Y02445D01*
X02469D01*
Y0244D01*
X02471D01*
Y02433D01*
X02473D01*
Y02428D01*
X02474D01*
Y02422D01*
X02476D01*
Y02415D01*
X02478D01*
Y0241D01*
X02479D01*
Y02403D01*
X02481D01*
Y02396D01*
X02483D01*
Y02389D01*
X02485D01*
Y02384D01*
X02486D01*
Y02378D01*
X02488D01*
Y02371D01*
X0249D01*
Y02364D01*
X02491D01*
Y02357D01*
X02493D01*
Y0235D01*
X02495D01*
Y02344D01*
X02496D01*
Y02337D01*
X02498D01*
Y0233D01*
X025D01*
Y02323D01*
X02501D01*
Y02317D01*
X02503D01*
Y0231D01*
X02505D01*
Y02303D01*
X02507D01*
Y02296D01*
X02508D01*
Y0229D01*
X0251D01*
Y02283D01*
X02512D01*
Y02276D01*
X02513D01*
Y02269D01*
X02515D01*
Y02262D01*
X02517D01*
Y02256D01*
X02518D01*
Y02244D01*
X02517D01*
Y0224D01*
X02513D01*
Y02239D01*
X02501D01*
Y0224D01*
X025D01*
Y02242D01*
X02498D01*
Y02247D01*
X02496D01*
Y02254D01*
X02495D01*
Y02259D01*
X02493D01*
Y02266D01*
X02491D01*
Y02273D01*
X0249D01*
Y02279D01*
X02488D01*
Y02286D01*
X02486D01*
Y02293D01*
X02485D01*
Y023D01*
X02483D01*
Y02306D01*
X02481D01*
Y02313D01*
X02479D01*
Y0232D01*
X02478D01*
Y02327D01*
X02476D01*
Y02334D01*
X02474D01*
Y0234D01*
X02473D01*
Y02347D01*
X02471D01*
Y02354D01*
X02469D01*
Y02361D01*
X02468D01*
Y02367D01*
X02466D01*
Y02374D01*
X02464D01*
Y02381D01*
X02463D01*
Y02386D01*
X02461D01*
Y02393D01*
X02459D01*
Y024D01*
X02457D01*
Y02406D01*
X02456D01*
Y02411D01*
X02454D01*
Y02418D01*
X02452D01*
Y02425D01*
X02451D01*
Y0243D01*
X02449D01*
Y02437D01*
X02447D01*
Y02442D01*
X02446D01*
Y02449D01*
X02444D01*
Y02454D01*
X02442D01*
Y02459D01*
X02441D01*
Y02464D01*
X02439D01*
Y02471D01*
X02437D01*
Y02476D01*
X02435D01*
Y02481D01*
X02434D01*
Y02486D01*
X02432D01*
Y02491D01*
X0243D01*
Y02496D01*
X02429D01*
Y02501D01*
X02427D01*
Y02505D01*
X02425D01*
Y0251D01*
X02424D01*
Y02515D01*
X02422D01*
Y02518D01*
X0242D01*
Y02523D01*
X02419D01*
Y02527D01*
X02417D01*
Y02532D01*
X02415D01*
Y02535D01*
X02413D01*
Y02538D01*
X02412D01*
Y02543D01*
X0241D01*
Y02547D01*
X02408D01*
Y0255D01*
X02407D01*
Y02554D01*
X02405D01*
Y02557D01*
X02403D01*
Y02559D01*
X02402D01*
Y02562D01*
X024D01*
Y02566D01*
X02398D01*
Y02567D01*
X02397D01*
Y02571D01*
X02395D01*
Y02572D01*
X02393D01*
Y02574D01*
X02391D01*
Y02576D01*
X0239D01*
Y02579D01*
X02388D01*
Y02581D01*
X02386D01*
Y02582D01*
X02385D01*
Y02584D01*
X02381D01*
Y02586D01*
X0238D01*
Y02588D01*
X02374D01*
Y02589D01*
X02373D01*
Y02588D01*
X02368D01*
Y02586D01*
X02364D01*
Y02584D01*
X02361D01*
Y02582D01*
X02359D01*
Y02581D01*
X02356D01*
Y02579D01*
X02354D01*
Y02577D01*
X02351D01*
Y02576D01*
X02349D01*
Y02574D01*
X02347D01*
Y02572D01*
X02344D01*
Y02571D01*
X02342D01*
Y02569D01*
X02339D01*
Y02567D01*
X02337D01*
Y02566D01*
X02334D01*
Y02564D01*
X02329D01*
Y02562D01*
X02324D01*
Y0256D01*
X02307D01*
Y02562D01*
X02302D01*
Y02564D01*
X02298D01*
Y02566D01*
X02297D01*
Y02567D01*
X02295D01*
Y02569D01*
X02292D01*
Y02572D01*
X0229D01*
Y02574D01*
X02288D01*
Y02576D01*
X02286D01*
Y02577D01*
X02285D01*
Y02581D01*
X02283D01*
Y02582D01*
X02281D01*
Y02586D01*
X0228D01*
Y02589D01*
X02278D01*
Y02593D01*
X02276D01*
Y02594D01*
X02275D01*
Y02598D01*
X02273D01*
Y02601D01*
X02271D01*
Y02604D01*
X0227D01*
Y02608D01*
X02268D01*
Y02613D01*
X02266D01*
Y02616D01*
X02264D01*
Y0262D01*
X02263D01*
Y02623D01*
X02261D01*
Y02626D01*
X02259D01*
Y02632D01*
X02258D01*
Y02635D01*
X02256D01*
Y02638D01*
X02254D01*
Y02643D01*
X02253D01*
Y02647D01*
X02251D01*
Y0265D01*
X02249D01*
Y02655D01*
X02248D01*
Y02659D01*
X02246D01*
Y02662D01*
X02244D01*
Y02665D01*
X02242D01*
Y0267D01*
X02241D01*
Y02674D01*
X02239D01*
Y02677D01*
X02237D01*
Y02681D01*
X02236D01*
Y02684D01*
X02234D01*
Y02687D01*
X02232D01*
Y02691D01*
X02231D01*
Y02694D01*
X02229D01*
Y02698D01*
X02227D01*
Y02701D01*
X02226D01*
Y02703D01*
X02224D01*
Y02706D01*
X02222D01*
Y02709D01*
X0222D01*
Y02711D01*
X02219D01*
Y02714D01*
X02217D01*
Y02716D01*
X02215D01*
Y0272D01*
X02214D01*
Y02721D01*
X02212D01*
Y02723D01*
X0221D01*
Y02725D01*
X02209D01*
Y02728D01*
X02207D01*
Y0273D01*
X02205D01*
Y02731D01*
X02203D01*
Y02733D01*
X02202D01*
Y02735D01*
X02198D01*
Y02737D01*
X02197D01*
Y02738D01*
X02193D01*
Y0274D01*
X0218D01*
Y02738D01*
X02175D01*
Y02737D01*
X02171D01*
Y02735D01*
X02168D01*
Y02733D01*
X02165D01*
Y02731D01*
X02161D01*
Y0273D01*
X02159D01*
Y02728D01*
X02156D01*
Y02726D01*
X02154D01*
Y02725D01*
X02151D01*
Y02723D01*
X02149D01*
Y02721D01*
X02148D01*
Y0272D01*
X02144D01*
Y02718D01*
X02143D01*
Y02716D01*
X02141D01*
Y02714D01*
X02139D01*
Y02713D01*
X02137D01*
Y02711D01*
X02136D01*
Y02709D01*
X02134D01*
Y02708D01*
X02132D01*
Y02706D01*
X02131D01*
Y02704D01*
X02129D01*
Y02703D01*
X02127D01*
Y02701D01*
X02126D01*
Y02699D01*
X02124D01*
Y02698D01*
X02122D01*
Y02696D01*
X02121D01*
Y02694D01*
X02119D01*
Y02692D01*
X02117D01*
Y02691D01*
X02115D01*
Y02689D01*
X02114D01*
Y02687D01*
X02112D01*
Y02684D01*
X0211D01*
Y02682D01*
X02109D01*
Y02681D01*
X02107D01*
Y02679D01*
X02105D01*
Y02677D01*
X02104D01*
Y02676D01*
X02102D01*
Y02672D01*
X021D01*
Y0267D01*
X02099D01*
Y02669D01*
X02097D01*
Y02667D01*
X02095D01*
Y02665D01*
X02093D01*
Y02662D01*
X02092D01*
Y0266D01*
X0209D01*
Y02659D01*
X02088D01*
Y02657D01*
X02087D01*
Y02654D01*
X02085D01*
Y02652D01*
X02083D01*
Y0265D01*
X02082D01*
Y02647D01*
X0208D01*
Y02645D01*
X02078D01*
Y02643D01*
X02077D01*
Y0264D01*
X02075D01*
Y02638D01*
X02073D01*
Y02637D01*
X02071D01*
Y02633D01*
X0207D01*
Y02632D01*
X02068D01*
Y0263D01*
X02066D01*
Y02626D01*
X02065D01*
Y02625D01*
X02063D01*
Y02621D01*
X02061D01*
Y0262D01*
X0206D01*
Y02618D01*
X02058D01*
Y02615D01*
X02056D01*
Y02613D01*
X02054D01*
Y0261D01*
X02053D01*
Y02608D01*
X02051D01*
Y02604D01*
X02049D01*
Y02603D01*
X02048D01*
Y02601D01*
X02046D01*
Y02598D01*
X02044D01*
Y02596D01*
X02043D01*
Y02593D01*
X02041D01*
Y02591D01*
X02039D01*
Y02588D01*
X02038D01*
Y02586D01*
X02036D01*
Y02582D01*
X02034D01*
Y02581D01*
X02032D01*
Y02577D01*
X02031D01*
Y02576D01*
X02029D01*
Y02572D01*
X02027D01*
Y02571D01*
X02026D01*
Y02567D01*
X02024D01*
Y02566D01*
X02022D01*
Y02562D01*
X02021D01*
Y0256D01*
X02019D01*
Y02557D01*
X02017D01*
Y02555D01*
X02016D01*
Y02552D01*
X02014D01*
Y0255D01*
X02012D01*
Y02549D01*
X0201D01*
Y02545D01*
X02009D01*
Y02543D01*
X02007D01*
Y0254D01*
X02005D01*
Y02538D01*
X02004D01*
Y02537D01*
X02D01*
Y02535D01*
X01992D01*
Y02537D01*
X01988D01*
Y02538D01*
X01987D01*
Y02542D01*
X01985D01*
Y0255D01*
X01987D01*
Y02552D01*
X01988D01*
Y02555D01*
X0199D01*
Y02557D01*
X01992D01*
Y0256D01*
X01994D01*
Y02562D01*
X01995D01*
Y02566D01*
X01997D01*
Y02567D01*
X01999D01*
Y02569D01*
X02D01*
Y02572D01*
X02002D01*
Y02574D01*
X02004D01*
Y02577D01*
X02005D01*
Y02579D01*
X02007D01*
Y02582D01*
X02009D01*
Y02584D01*
X0201D01*
Y02588D01*
X02012D01*
Y02589D01*
X02014D01*
Y02593D01*
X02016D01*
Y02594D01*
X02017D01*
Y02598D01*
X02019D01*
Y02599D01*
X02021D01*
Y02601D01*
X02022D01*
Y02604D01*
X02024D01*
Y02606D01*
X02026D01*
Y0261D01*
X02027D01*
Y02611D01*
X02029D01*
Y02615D01*
X02031D01*
Y02616D01*
X02032D01*
Y0262D01*
X02034D01*
Y02621D01*
X02036D01*
Y02625D01*
X02038D01*
Y02626D01*
X02039D01*
Y02628D01*
X02041D01*
Y02632D01*
X02043D01*
Y02633D01*
X02044D01*
Y02637D01*
X02046D01*
Y02638D01*
X02048D01*
Y02642D01*
X02049D01*
Y02643D01*
X02051D01*
Y02645D01*
X02053D01*
Y02648D01*
X02054D01*
Y0265D01*
X02056D01*
Y02652D01*
X02058D01*
Y02655D01*
X0206D01*
Y02657D01*
X02061D01*
Y02659D01*
X02063D01*
Y02662D01*
X02065D01*
Y02664D01*
X02066D01*
Y02665D01*
X02068D01*
Y02669D01*
X0207D01*
Y0267D01*
X02071D01*
Y02672D01*
X02073D01*
Y02676D01*
X02075D01*
Y02677D01*
X02077D01*
Y02679D01*
X02078D01*
Y02681D01*
X0208D01*
Y02684D01*
X02082D01*
Y02686D01*
X02083D01*
Y02687D01*
X02085D01*
Y02689D01*
X02087D01*
Y02691D01*
X02088D01*
Y02694D01*
X0209D01*
Y02696D01*
X02092D01*
Y02698D01*
X02093D01*
Y02699D01*
X02095D01*
Y02701D01*
X02097D01*
Y02703D01*
X02099D01*
Y02704D01*
X021D01*
Y02706D01*
X02102D01*
Y02709D01*
X02104D01*
Y02711D01*
X02105D01*
Y02713D01*
X02107D01*
Y02714D01*
X02109D01*
Y02716D01*
X0211D01*
Y02718D01*
X02112D01*
Y0272D01*
X02114D01*
Y02721D01*
X02115D01*
Y02723D01*
X02117D01*
Y02725D01*
X02119D01*
Y02726D01*
X02121D01*
Y02728D01*
X02124D01*
Y0273D01*
X02126D01*
Y02731D01*
X02127D01*
Y02733D01*
X02129D01*
Y02735D01*
X02131D01*
Y02737D01*
X02132D01*
Y02738D01*
X02136D01*
Y0274D01*
X02137D01*
Y02742D01*
X02139D01*
Y02743D01*
X02143D01*
Y02745D01*
X02144D01*
Y02747D01*
X02146D01*
Y02748D01*
X02149D01*
Y0275D01*
X02153D01*
Y02752D01*
X02154D01*
Y02753D01*
X02158D01*
Y02755D01*
X02161D01*
Y02757D01*
X02166D01*
Y02759D01*
X02171D01*
Y0276D01*
X02178D01*
Y02762D01*
X02195D01*
Y0276D01*
D02*
G37*
G36*
X0219Y02698D02*
X02193D01*
Y02696D01*
X02197D01*
Y02694D01*
X022D01*
Y02692D01*
X02202D01*
Y02691D01*
X02203D01*
Y02689D01*
X02205D01*
Y02687D01*
X02207D01*
Y02686D01*
X02209D01*
Y02684D01*
X0221D01*
Y02682D01*
X02212D01*
Y02681D01*
X02214D01*
Y02679D01*
X02215D01*
Y02677D01*
X02217D01*
Y02676D01*
X02219D01*
Y02672D01*
X0222D01*
Y0267D01*
X02222D01*
Y02667D01*
X02224D01*
Y02665D01*
X02226D01*
Y02662D01*
X02227D01*
Y02659D01*
X02229D01*
Y02657D01*
X02231D01*
Y02654D01*
X02232D01*
Y0265D01*
X02234D01*
Y02648D01*
X02236D01*
Y02645D01*
X02237D01*
Y02642D01*
X02239D01*
Y02638D01*
X02241D01*
Y02635D01*
X02242D01*
Y02633D01*
X02244D01*
Y0263D01*
X02246D01*
Y02626D01*
X02248D01*
Y02623D01*
X02249D01*
Y0262D01*
X02251D01*
Y02616D01*
X02253D01*
Y02613D01*
X02254D01*
Y02608D01*
X02256D01*
Y02604D01*
X02258D01*
Y02601D01*
X02259D01*
Y02598D01*
X02261D01*
Y02594D01*
X02263D01*
Y02591D01*
X02264D01*
Y02588D01*
X02266D01*
Y02582D01*
X02268D01*
Y02579D01*
X0227D01*
Y02576D01*
X02271D01*
Y02572D01*
X02273D01*
Y02569D01*
X02275D01*
Y02564D01*
X02276D01*
Y0256D01*
X02278D01*
Y02557D01*
X0228D01*
Y02554D01*
X02281D01*
Y0255D01*
X02283D01*
Y02547D01*
X02285D01*
Y02543D01*
X02286D01*
Y0254D01*
X02288D01*
Y02537D01*
X0229D01*
Y02533D01*
X02292D01*
Y0253D01*
X02293D01*
Y02528D01*
X02295D01*
Y02525D01*
X02297D01*
Y02521D01*
X02298D01*
Y0252D01*
X023D01*
Y02516D01*
X02302D01*
Y02515D01*
X02303D01*
Y02513D01*
X02308D01*
Y02515D01*
X0231D01*
Y02516D01*
X02312D01*
Y0252D01*
X02314D01*
Y02521D01*
X02315D01*
Y02525D01*
X02317D01*
Y02527D01*
X02319D01*
Y0253D01*
X0232D01*
Y02533D01*
X02322D01*
Y02535D01*
X02324D01*
Y02538D01*
X02325D01*
Y0254D01*
X02327D01*
Y02542D01*
X02329D01*
Y02545D01*
X0233D01*
Y02547D01*
X02332D01*
Y02549D01*
X02334D01*
Y0255D01*
X02336D01*
Y02552D01*
X02337D01*
Y02554D01*
X02341D01*
Y02555D01*
X02342D01*
Y02557D01*
X02346D01*
Y02559D01*
X02349D01*
Y0256D01*
X02354D01*
Y02562D01*
X02374D01*
Y0256D01*
X0238D01*
Y02559D01*
X02381D01*
Y02557D01*
X02385D01*
Y02555D01*
X02386D01*
Y02554D01*
X02388D01*
Y02552D01*
X0239D01*
Y0255D01*
X02391D01*
Y02547D01*
X02393D01*
Y02545D01*
X02395D01*
Y02542D01*
X02397D01*
Y0254D01*
X02398D01*
Y02537D01*
X024D01*
Y02533D01*
X02402D01*
Y0253D01*
X02403D01*
Y02527D01*
X02405D01*
Y02521D01*
X02407D01*
Y02518D01*
X02408D01*
Y02513D01*
X0241D01*
Y0251D01*
X02412D01*
Y02505D01*
X02413D01*
Y02499D01*
X02415D01*
Y02496D01*
X02417D01*
Y02491D01*
X02419D01*
Y02486D01*
X0242D01*
Y02481D01*
X02422D01*
Y02474D01*
X02424D01*
Y02469D01*
X02425D01*
Y02464D01*
X02427D01*
Y02457D01*
X02429D01*
Y02452D01*
X0243D01*
Y02445D01*
X02432D01*
Y02439D01*
X02434D01*
Y02432D01*
X02435D01*
Y02427D01*
X02437D01*
Y0242D01*
X02439D01*
Y02413D01*
X02441D01*
Y02406D01*
X02442D01*
Y024D01*
X02444D01*
Y02393D01*
X02446D01*
Y02386D01*
X02447D01*
Y02379D01*
X02449D01*
Y02371D01*
X02451D01*
Y02364D01*
X02452D01*
Y02357D01*
X02454D01*
Y0235D01*
X02456D01*
Y02344D01*
X02457D01*
Y02335D01*
X02459D01*
Y02328D01*
X02461D01*
Y02322D01*
X02463D01*
Y02315D01*
X02464D01*
Y02308D01*
X02466D01*
Y02301D01*
X02468D01*
Y02295D01*
X02469D01*
Y02288D01*
X02471D01*
Y02281D01*
X02473D01*
Y02274D01*
X02474D01*
Y02268D01*
X02476D01*
Y02261D01*
X02478D01*
Y02256D01*
X02479D01*
Y02244D01*
X02478D01*
Y02242D01*
X02476D01*
Y0224D01*
X02473D01*
Y02239D01*
X02464D01*
Y0224D01*
X02461D01*
Y02242D01*
X02459D01*
Y02246D01*
X02457D01*
Y02252D01*
X02456D01*
Y02259D01*
X02454D01*
Y02264D01*
X02452D01*
Y02271D01*
X02451D01*
Y02278D01*
X02449D01*
Y02284D01*
X02447D01*
Y02291D01*
X02446D01*
Y02298D01*
X02444D01*
Y02305D01*
X02442D01*
Y02312D01*
X02441D01*
Y02318D01*
X02439D01*
Y02327D01*
X02437D01*
Y02334D01*
X02435D01*
Y0234D01*
X02434D01*
Y02347D01*
X02432D01*
Y02356D01*
X0243D01*
Y02362D01*
X02429D01*
Y02369D01*
X02427D01*
Y02376D01*
X02425D01*
Y02383D01*
X02424D01*
Y02389D01*
X02422D01*
Y02396D01*
X0242D01*
Y02403D01*
X02419D01*
Y0241D01*
X02417D01*
Y02417D01*
X02415D01*
Y02423D01*
X02413D01*
Y0243D01*
X02412D01*
Y02435D01*
X0241D01*
Y02442D01*
X02408D01*
Y02449D01*
X02407D01*
Y02454D01*
X02405D01*
Y02461D01*
X02403D01*
Y02466D01*
X02402D01*
Y02471D01*
X024D01*
Y02477D01*
X02398D01*
Y02483D01*
X02397D01*
Y02488D01*
X02395D01*
Y02493D01*
X02393D01*
Y02496D01*
X02391D01*
Y02501D01*
X0239D01*
Y02505D01*
X02388D01*
Y0251D01*
X02386D01*
Y02513D01*
X02385D01*
Y02516D01*
X02383D01*
Y0252D01*
X02381D01*
Y02523D01*
X0238D01*
Y02527D01*
X02378D01*
Y0253D01*
X02376D01*
Y02532D01*
X02374D01*
Y02535D01*
X02373D01*
Y02537D01*
X02371D01*
Y02538D01*
X02369D01*
Y0254D01*
X02368D01*
Y02542D01*
X02366D01*
Y0254D01*
X02358D01*
Y02538D01*
X02354D01*
Y02537D01*
X02352D01*
Y02535D01*
X02351D01*
Y02533D01*
X02349D01*
Y02532D01*
X02347D01*
Y0253D01*
X02346D01*
Y02528D01*
X02344D01*
Y02527D01*
X02342D01*
Y02523D01*
X02341D01*
Y02521D01*
X02339D01*
Y02518D01*
X02337D01*
Y02515D01*
X02336D01*
Y02513D01*
X02334D01*
Y0251D01*
X02332D01*
Y02506D01*
X0233D01*
Y02505D01*
X02329D01*
Y02503D01*
X02327D01*
Y02501D01*
X02325D01*
Y02499D01*
X02324D01*
Y02498D01*
X02322D01*
Y02496D01*
X0232D01*
Y02494D01*
X02317D01*
Y02493D01*
X02314D01*
Y02491D01*
X02295D01*
Y02493D01*
X02292D01*
Y02494D01*
X0229D01*
Y02496D01*
X02288D01*
Y02498D01*
X02286D01*
Y02499D01*
X02285D01*
Y02501D01*
X02283D01*
Y02505D01*
X02281D01*
Y02506D01*
X0228D01*
Y0251D01*
X02278D01*
Y02511D01*
X02276D01*
Y02515D01*
X02275D01*
Y02518D01*
X02273D01*
Y02521D01*
X02271D01*
Y02525D01*
X0227D01*
Y02528D01*
X02268D01*
Y02532D01*
X02266D01*
Y02535D01*
X02264D01*
Y02538D01*
X02263D01*
Y02542D01*
X02261D01*
Y02545D01*
X02259D01*
Y02549D01*
X02258D01*
Y02552D01*
X02256D01*
Y02555D01*
X02254D01*
Y0256D01*
X02253D01*
Y02564D01*
X02251D01*
Y02567D01*
X02249D01*
Y02571D01*
X02248D01*
Y02574D01*
X02246D01*
Y02577D01*
X02244D01*
Y02582D01*
X02242D01*
Y02586D01*
X02241D01*
Y02589D01*
X02239D01*
Y02593D01*
X02237D01*
Y02596D01*
X02236D01*
Y02599D01*
X02234D01*
Y02603D01*
X02232D01*
Y02606D01*
X02231D01*
Y0261D01*
X02229D01*
Y02615D01*
X02227D01*
Y02618D01*
X02226D01*
Y02621D01*
X02224D01*
Y02623D01*
X02222D01*
Y02626D01*
X0222D01*
Y0263D01*
X02219D01*
Y02633D01*
X02217D01*
Y02637D01*
X02215D01*
Y0264D01*
X02214D01*
Y02642D01*
X02212D01*
Y02645D01*
X0221D01*
Y02648D01*
X02209D01*
Y0265D01*
X02207D01*
Y02654D01*
X02205D01*
Y02655D01*
X02203D01*
Y02657D01*
X02202D01*
Y0266D01*
X022D01*
Y02662D01*
X02198D01*
Y02664D01*
X02197D01*
Y02665D01*
X02195D01*
Y02667D01*
X02193D01*
Y0267D01*
X0219D01*
Y02672D01*
X02188D01*
Y02674D01*
X02187D01*
Y02676D01*
X02185D01*
Y02677D01*
X02181D01*
Y02679D01*
X02176D01*
Y02677D01*
X02173D01*
Y02676D01*
X0217D01*
Y02674D01*
X02166D01*
Y02672D01*
X02165D01*
Y0267D01*
X02161D01*
Y02669D01*
X02159D01*
Y02667D01*
X02158D01*
Y02665D01*
X02156D01*
Y02664D01*
X02153D01*
Y02662D01*
X02151D01*
Y0266D01*
X02149D01*
Y02659D01*
X02148D01*
Y02657D01*
X02146D01*
Y02655D01*
X02144D01*
Y02654D01*
X02143D01*
Y02652D01*
X02141D01*
Y0265D01*
X02139D01*
Y02648D01*
X02137D01*
Y02647D01*
X02136D01*
Y02645D01*
X02134D01*
Y02643D01*
X02132D01*
Y02642D01*
X02131D01*
Y0264D01*
X02129D01*
Y02638D01*
X02127D01*
Y02635D01*
X02126D01*
Y02633D01*
X02124D01*
Y02632D01*
X02122D01*
Y0263D01*
X02121D01*
Y02628D01*
X02119D01*
Y02626D01*
X02117D01*
Y02625D01*
X02115D01*
Y02623D01*
X02114D01*
Y0262D01*
X02112D01*
Y02618D01*
X0211D01*
Y02616D01*
X02109D01*
Y02615D01*
X02107D01*
Y02613D01*
X02105D01*
Y0261D01*
X02104D01*
Y02608D01*
X02102D01*
Y02606D01*
X021D01*
Y02604D01*
X02099D01*
Y02603D01*
X02097D01*
Y02599D01*
X02095D01*
Y02598D01*
X02093D01*
Y02596D01*
X02092D01*
Y02594D01*
X0209D01*
Y02591D01*
X02088D01*
Y02589D01*
X02087D01*
Y02588D01*
X02085D01*
Y02584D01*
X02083D01*
Y02582D01*
X02082D01*
Y02581D01*
X0208D01*
Y02579D01*
X02078D01*
Y02576D01*
X02077D01*
Y02574D01*
X02075D01*
Y02572D01*
X02073D01*
Y02569D01*
X02071D01*
Y02567D01*
X0207D01*
Y02566D01*
X02068D01*
Y02562D01*
X02066D01*
Y0256D01*
X02065D01*
Y02559D01*
X02063D01*
Y02555D01*
X02061D01*
Y02554D01*
X0206D01*
Y02552D01*
X02058D01*
Y02549D01*
X02056D01*
Y02547D01*
X02054D01*
Y02543D01*
X02053D01*
Y02542D01*
X02051D01*
Y0254D01*
X02049D01*
Y02537D01*
X02048D01*
Y02535D01*
X02046D01*
Y02533D01*
X02044D01*
Y0253D01*
X02043D01*
Y02528D01*
X02041D01*
Y02527D01*
X02039D01*
Y02523D01*
X02038D01*
Y02521D01*
X02036D01*
Y0252D01*
X02034D01*
Y02516D01*
X02032D01*
Y02515D01*
X02031D01*
Y02513D01*
X02029D01*
Y0251D01*
X02027D01*
Y02508D01*
X02026D01*
Y02506D01*
X02012D01*
Y02508D01*
X02009D01*
Y02511D01*
X02007D01*
Y0252D01*
X02009D01*
Y02521D01*
X0201D01*
Y02525D01*
X02012D01*
Y02527D01*
X02014D01*
Y02528D01*
X02016D01*
Y02532D01*
X02017D01*
Y02533D01*
X02019D01*
Y02537D01*
X02021D01*
Y02538D01*
X02022D01*
Y0254D01*
X02024D01*
Y02543D01*
X02026D01*
Y02545D01*
X02027D01*
Y02547D01*
X02029D01*
Y0255D01*
X02031D01*
Y02552D01*
X02032D01*
Y02554D01*
X02034D01*
Y02557D01*
X02036D01*
Y02559D01*
X02038D01*
Y02562D01*
X02039D01*
Y02564D01*
X02041D01*
Y02566D01*
X02043D01*
Y02569D01*
X02044D01*
Y02571D01*
X02046D01*
Y02572D01*
X02048D01*
Y02576D01*
X02049D01*
Y02577D01*
X02051D01*
Y02579D01*
X02053D01*
Y02582D01*
X02054D01*
Y02584D01*
X02056D01*
Y02586D01*
X02058D01*
Y02589D01*
X0206D01*
Y02591D01*
X02061D01*
Y02593D01*
X02063D01*
Y02596D01*
X02065D01*
Y02598D01*
X02066D01*
Y02599D01*
X02068D01*
Y02603D01*
X0207D01*
Y02604D01*
X02071D01*
Y02606D01*
X02073D01*
Y02608D01*
X02075D01*
Y02611D01*
X02077D01*
Y02613D01*
X02078D01*
Y02615D01*
X0208D01*
Y02616D01*
X02082D01*
Y0262D01*
X02083D01*
Y02621D01*
X02085D01*
Y02623D01*
X02087D01*
Y02625D01*
X02088D01*
Y02628D01*
X0209D01*
Y0263D01*
X02092D01*
Y02632D01*
X02093D01*
Y02633D01*
X02095D01*
Y02635D01*
X02097D01*
Y02637D01*
X02099D01*
Y0264D01*
X021D01*
Y02642D01*
X02102D01*
Y02643D01*
X02104D01*
Y02645D01*
X02105D01*
Y02647D01*
X02107D01*
Y02648D01*
X02109D01*
Y0265D01*
X0211D01*
Y02652D01*
X02112D01*
Y02654D01*
X02114D01*
Y02657D01*
X02115D01*
Y02659D01*
X02117D01*
Y0266D01*
X02119D01*
Y02662D01*
X02121D01*
Y02664D01*
X02122D01*
Y02665D01*
X02124D01*
Y02667D01*
X02126D01*
Y02669D01*
X02127D01*
Y0267D01*
X02129D01*
Y02672D01*
X02131D01*
Y02674D01*
X02134D01*
Y02676D01*
X02136D01*
Y02677D01*
X02137D01*
Y02679D01*
X02139D01*
Y02681D01*
X02141D01*
Y02682D01*
X02143D01*
Y02684D01*
X02144D01*
Y02686D01*
X02148D01*
Y02687D01*
X02149D01*
Y02689D01*
X02151D01*
Y02691D01*
X02154D01*
Y02692D01*
X02156D01*
Y02694D01*
X02159D01*
Y02696D01*
X02163D01*
Y02698D01*
X02168D01*
Y02699D01*
X0219D01*
Y02698D01*
D02*
G37*
G36*
X02153Y02273D02*
X02154D01*
Y02261D01*
X02156D01*
Y02256D01*
X02158D01*
Y02251D01*
X02159D01*
Y02249D01*
X02165D01*
Y02247D01*
X02166D01*
Y0223D01*
X02165D01*
Y02229D01*
X02159D01*
Y0224D01*
X02121D01*
Y02232D01*
X02119D01*
Y02229D01*
X02114D01*
Y0223D01*
X02112D01*
Y02247D01*
X02114D01*
Y02249D01*
X02119D01*
Y02291D01*
X02121D01*
Y02293D01*
X02153D01*
Y02273D01*
D02*
G37*
%LPC*%
G36*
X02325Y02435D02*
X02317D01*
Y02433D01*
X02308D01*
Y02432D01*
X02305D01*
Y0243D01*
X02302D01*
Y02428D01*
X023D01*
Y02427D01*
X02298D01*
Y02425D01*
X02297D01*
Y02423D01*
X02295D01*
Y0242D01*
X02293D01*
Y02418D01*
X02292D01*
Y02415D01*
X0229D01*
Y0241D01*
X02288D01*
Y02403D01*
X02286D01*
Y02383D01*
X02288D01*
Y02376D01*
X0229D01*
Y02371D01*
X02292D01*
Y02367D01*
X02293D01*
Y02364D01*
X02295D01*
Y02362D01*
X02297D01*
Y02361D01*
X02298D01*
Y02359D01*
X023D01*
Y02357D01*
X02302D01*
Y02356D01*
X02303D01*
Y02354D01*
X02307D01*
Y02352D01*
X02312D01*
Y0235D01*
X0233D01*
Y02352D01*
X02334D01*
Y02354D01*
X02337D01*
Y02356D01*
X02341D01*
Y02357D01*
X02342D01*
Y02359D01*
X02344D01*
Y02361D01*
X02346D01*
Y02362D01*
X02347D01*
Y02366D01*
X02349D01*
Y02369D01*
X02351D01*
Y02372D01*
X02352D01*
Y02378D01*
X02354D01*
Y02389D01*
X02356D01*
Y02396D01*
X02354D01*
Y02406D01*
X02352D01*
Y02413D01*
X02351D01*
Y02417D01*
X02349D01*
Y0242D01*
X02347D01*
Y02422D01*
X02346D01*
Y02423D01*
X02344D01*
Y02425D01*
X02342D01*
Y02427D01*
X02341D01*
Y02428D01*
X02339D01*
Y0243D01*
X02336D01*
Y02432D01*
X02332D01*
Y02433D01*
X02325D01*
Y02435D01*
D02*
G37*
G36*
X023Y02284D02*
X0229D01*
Y02283D01*
X02286D01*
Y02281D01*
X02285D01*
Y02279D01*
X02283D01*
Y02278D01*
X02281D01*
Y02276D01*
X0228D01*
Y02271D01*
X02278D01*
Y02261D01*
X0228D01*
Y02256D01*
X02281D01*
Y02254D01*
X02283D01*
Y02252D01*
X02285D01*
Y02251D01*
X02286D01*
Y02249D01*
X0229D01*
Y02247D01*
X023D01*
Y02249D01*
X02305D01*
Y02251D01*
X02307D01*
Y02252D01*
X02308D01*
Y02254D01*
X0231D01*
Y02259D01*
X02312D01*
Y02273D01*
X0231D01*
Y02276D01*
X02308D01*
Y02278D01*
X02307D01*
Y02279D01*
X02305D01*
Y02281D01*
X02303D01*
Y02283D01*
X023D01*
Y02284D01*
D02*
G37*
G36*
X02193Y02288D02*
X02185D01*
Y02286D01*
X0218D01*
Y02284D01*
X02178D01*
Y02283D01*
X02176D01*
Y02278D01*
X02175D01*
Y02271D01*
X02205D01*
Y02274D01*
X02203D01*
Y02278D01*
X02202D01*
Y02281D01*
X022D01*
Y02283D01*
X02198D01*
Y02284D01*
X02197D01*
Y02286D01*
X02193D01*
Y02288D01*
D02*
G37*
G36*
X01975D02*
X01966D01*
Y02286D01*
X01963D01*
Y02284D01*
X01961D01*
Y02283D01*
X0196D01*
Y02281D01*
X01958D01*
Y02276D01*
X01956D01*
Y02274D01*
Y02271D01*
X01987D01*
Y02276D01*
X01985D01*
Y02279D01*
X01983D01*
Y02283D01*
X01982D01*
Y02284D01*
X01978D01*
Y02286D01*
X01975D01*
Y02288D01*
D02*
G37*
G36*
X01811D02*
X01802D01*
Y02286D01*
X01799D01*
Y02284D01*
X01797D01*
Y02283D01*
X01795D01*
Y02281D01*
X01794D01*
Y02276D01*
X01792D01*
Y02271D01*
X01823D01*
Y02276D01*
X01821D01*
Y02278D01*
Y02279D01*
X01819D01*
Y02283D01*
X01817D01*
Y02284D01*
X01814D01*
Y02286D01*
X01811D01*
Y02288D01*
D02*
G37*
G36*
X02358D02*
X02349D01*
Y02286D01*
X02344D01*
Y02284D01*
X02342D01*
Y02283D01*
X02341D01*
Y02281D01*
X02339D01*
Y02279D01*
X02337D01*
Y02276D01*
X02336D01*
Y02259D01*
X02337D01*
Y02256D01*
X02339D01*
Y02254D01*
X02341D01*
Y02251D01*
X02344D01*
Y02249D01*
X02347D01*
Y02247D01*
X02358D01*
Y02249D01*
X02363D01*
Y02251D01*
X02364D01*
Y02252D01*
X02366D01*
Y02254D01*
X02368D01*
Y02257D01*
X02369D01*
Y02262D01*
X02371D01*
Y02271D01*
X02369D01*
Y02278D01*
X02368D01*
Y02281D01*
X02366D01*
Y02283D01*
X02364D01*
Y02284D01*
X02361D01*
Y02286D01*
X02358D01*
Y02288D01*
D02*
G37*
G36*
X02248Y02269D02*
X02232D01*
Y02268D01*
X02229D01*
Y02266D01*
X02227D01*
Y02264D01*
X02226D01*
Y02252D01*
X02227D01*
Y02251D01*
X02231D01*
Y02249D01*
X02236D01*
Y02247D01*
X02246D01*
Y02249D01*
X02248D01*
Y02259D01*
Y02261D01*
Y02269D01*
D02*
G37*
G36*
X02146Y02286D02*
X02127D01*
Y02249D01*
X02151D01*
Y02251D01*
X02149D01*
Y02257D01*
X02148D01*
Y02268D01*
X02146D01*
Y02286D01*
D02*
G37*
%LPD*%
D10*
X025Y01749D02*
X0248D01*
X02473Y01756D01*
X0248Y01763D01*
X02493D01*
X025Y01769D01*
X02493Y01776D01*
X02473D01*
X0246Y01789D02*
Y01749D01*
Y01769D01*
X02453Y01776D01*
X0244D01*
X02433Y01769D01*
Y01749D01*
X02413D02*
X024D01*
X02393Y01756D01*
Y01769D01*
X024Y01776D01*
X02413D01*
X0242Y01769D01*
Y01756D01*
X02413Y01749D01*
X0238Y01776D02*
Y01749D01*
Y01763D01*
X02373Y01769D01*
X02367Y01776D01*
X0236D01*
X02333Y01783D02*
Y01776D01*
X0234D01*
X02327D01*
X02333D01*
Y01756D01*
X02327Y01749D01*
X02307Y01776D02*
Y01756D01*
X023Y01749D01*
X0228D01*
Y01776D01*
X02267D02*
Y01749D01*
Y01763D01*
X0226Y01769D01*
X02253Y01776D01*
X02247D01*
X02227Y01749D02*
X02213D01*
X0222D01*
Y01789D01*
X02227D01*
X02193Y01749D02*
Y01756D01*
X02187D01*
Y01749D01*
X02193D01*
X02153Y01776D02*
X0214D01*
X02133Y01769D01*
Y01749D01*
X02153D01*
X0216Y01756D01*
X02153Y01763D01*
X02133D01*
X02113Y01783D02*
Y01776D01*
X0212D01*
X02107D01*
X02113D01*
Y01756D01*
X02107Y01749D01*
X02087D02*
X0206Y01776D01*
X02033Y01736D02*
X02027D01*
X0202Y01743D01*
Y01776D01*
X0204D01*
X02047Y01769D01*
Y01756D01*
X0204Y01749D01*
X0202D01*
X0198Y01736D02*
Y01776D01*
X02D01*
X02007Y01769D01*
Y01756D01*
X02Y01749D01*
X0198D01*
X01967Y01789D02*
Y01749D01*
X01947D01*
X0194Y01756D01*
Y01783D01*
X01947Y01789D01*
X01967D01*
X019D02*
X01927D01*
Y01749D01*
X019D01*
X01927Y01769D02*
X01913D01*
X0186Y01756D02*
Y01783D01*
X01867Y01789D01*
X0188D01*
X01887Y01783D01*
Y01756D01*
X0188Y01749D01*
X01867D01*
X01873Y01763D02*
X0186Y01749D01*
X01867D02*
X0186Y01756D01*
X01417Y01628D02*
X01424Y01635D01*
X01437D01*
X01444Y01628D01*
Y01602D01*
X01437Y01595D01*
X01424D01*
X01417Y01602D01*
X01404Y01595D02*
Y01622D01*
X01391Y01635D01*
X01377Y01622D01*
Y01595D01*
Y01615D01*
X01404D01*
X01364Y01595D02*
Y01635D01*
X01337Y01595D01*
Y01635D01*
X01324D02*
Y01595D01*
X01297D01*
X01377Y01838D02*
X01384Y01845D01*
X01397D01*
X01404Y01838D01*
Y01812D01*
X01397Y01805D01*
X01384D01*
X01377Y01812D01*
Y01825D01*
X01391D01*
X01364Y01805D02*
Y01845D01*
X01337Y01805D01*
Y01845D01*
X01324D02*
Y01805D01*
X01304D01*
X01297Y01812D01*
Y01838D01*
X01304Y01845D01*
X01324D01*
X01364Y0152D02*
X01337D01*
X01351Y01533D02*
Y01507D01*
X01297Y0154D02*
X01324D01*
Y0152D01*
X01311Y01527D01*
X01304D01*
X01297Y0152D01*
Y01507D01*
X01304Y015D01*
X01317D01*
X01324Y01507D01*
X01417Y01728D02*
X01424Y01735D01*
X01437D01*
X01444Y01728D01*
Y01702D01*
X01437Y01695D01*
X01424D01*
X01417Y01702D01*
X01404Y01695D02*
Y01722D01*
X01391Y01735D01*
X01377Y01722D01*
Y01695D01*
Y01715D01*
X01404D01*
X01364Y01695D02*
Y01735D01*
X01337Y01695D01*
Y01735D01*
X01324D02*
Y01695D01*
Y01715D01*
X01297D01*
Y01735D01*
Y01695D01*
X01407Y02734D02*
X01414Y02741D01*
X01427D01*
X01434Y02734D01*
Y02708D01*
X01427Y02701D01*
X01414D01*
X01407Y02708D01*
X01394Y02701D02*
Y02728D01*
X01381Y02741D01*
X01367Y02728D01*
Y02701D01*
Y02721D01*
X01394D01*
X01354Y02701D02*
Y02741D01*
X01327Y02701D01*
Y02741D01*
X01314D02*
Y02701D01*
Y02721D01*
X01287D01*
Y02741D01*
Y02701D01*
X01407Y02634D02*
X01414Y02641D01*
X01427D01*
X01434Y02634D01*
Y02608D01*
X01427Y02601D01*
X01414D01*
X01407Y02608D01*
X01394Y02601D02*
Y02628D01*
X01381Y02641D01*
X01367Y02628D01*
Y02601D01*
Y02621D01*
X01394D01*
X01354Y02601D02*
Y02641D01*
X01327Y02601D01*
Y02641D01*
X01314D02*
Y02601D01*
X01287D01*
X01367Y02834D02*
X01374Y02841D01*
X01387D01*
X01394Y02834D01*
Y02808D01*
X01387Y02801D01*
X01374D01*
X01367Y02808D01*
Y02821D01*
X01381D01*
X01354Y02801D02*
Y02841D01*
X01327Y02801D01*
Y02841D01*
X01314D02*
Y02801D01*
X01294D01*
X01287Y02808D01*
Y02834D01*
X01294Y02841D01*
X01314D01*
X01354Y02526D02*
X01327D01*
X01341Y02539D02*
Y02513D01*
X01287Y02546D02*
X01314D01*
Y02526D01*
X01301Y02533D01*
X01294D01*
X01287Y02526D01*
Y02513D01*
X01294Y02506D01*
X01307D01*
X01314Y02513D01*
X03145Y02808D02*
Y02835D01*
X03132Y02848D01*
X03119Y02835D01*
Y02808D01*
Y02828D01*
X03145D01*
X03105Y02808D02*
X03092D01*
X03099D01*
Y02848D01*
X03105Y02841D01*
X03045Y02808D02*
X03072D01*
X03045Y02835D01*
Y02841D01*
X03052Y02848D01*
X03065D01*
X03072Y02841D01*
X03145Y02608D02*
Y02635D01*
X03132Y02648D01*
X03119Y02635D01*
Y02608D01*
Y02628D01*
X03145D01*
X03105Y02608D02*
X03092D01*
X03099D01*
Y02648D01*
X03105Y02641D01*
X03072D02*
X03065Y02648D01*
X03052D01*
X03045Y02641D01*
Y02615D01*
X03052Y02608D01*
X03065D01*
X03072Y02615D01*
Y02641D01*
X03145Y02708D02*
Y02735D01*
X03132Y02748D01*
X03119Y02735D01*
Y02708D01*
Y02728D01*
X03145D01*
X03105Y02708D02*
X03092D01*
X03099D01*
Y02748D01*
X03105Y02741D01*
X03072Y02708D02*
X03059D01*
X03065D01*
Y02748D01*
X03072Y02741D01*
X03145Y02408D02*
Y02435D01*
X03132Y02448D01*
X03119Y02435D01*
Y02408D01*
Y02428D01*
X03145D01*
X03105Y02441D02*
X03099Y02448D01*
X03085D01*
X03079Y02441D01*
Y02435D01*
X03085Y02428D01*
X03079Y02421D01*
Y02415D01*
X03085Y02408D01*
X03099D01*
X03105Y02415D01*
Y02421D01*
X03099Y02428D01*
X03105Y02435D01*
Y02441D01*
X03099Y02428D02*
X03085D01*
X03145Y02508D02*
Y02535D01*
X03132Y02548D01*
X03119Y02535D01*
Y02508D01*
Y02528D01*
X03145D01*
X03105Y02515D02*
X03099Y02508D01*
X03085D01*
X03079Y02515D01*
Y02541D01*
X03085Y02548D01*
X03099D01*
X03105Y02541D01*
Y02535D01*
X03099Y02528D01*
X03079D01*
X03145Y02348D02*
Y02308D01*
X03125D01*
X03119Y02315D01*
Y02321D01*
X03125Y02328D01*
X03145D01*
X03125D01*
X03119Y02335D01*
Y02341D01*
X03125Y02348D01*
X03145D01*
X03105Y02308D02*
X03092D01*
X03099D01*
Y02348D01*
X03105Y02341D01*
X03045Y02348D02*
X03072D01*
Y02328D01*
X03059Y02335D01*
X03052D01*
X03045Y02328D01*
Y02315D01*
X03052Y02308D01*
X03065D01*
X03072Y02315D01*
X03145Y02248D02*
Y02208D01*
X03125D01*
X03119Y02215D01*
Y02221D01*
X03125Y02228D01*
X03145D01*
X03125D01*
X03119Y02235D01*
Y02241D01*
X03125Y02248D01*
X03145D01*
X03105Y02208D02*
X03092D01*
X03099D01*
Y02248D01*
X03105Y02241D01*
X03052Y02208D02*
Y02248D01*
X03072Y02228D01*
X03045D01*
X01459Y01276D02*
X01432D01*
X01419Y01263D01*
X01432Y01249D01*
X01459D01*
X01439D01*
Y01276D01*
X01426Y01236D02*
X01419Y01229D01*
Y01216D01*
X01426Y01209D01*
X01452D01*
X01459Y01216D01*
Y01229D01*
X01452Y01236D01*
X01426D01*
X02218Y01276D02*
X02258D01*
Y01256D01*
X02251Y01249D01*
X02245D01*
X02238Y01256D01*
Y01276D01*
Y01256D01*
X02231Y01249D01*
X02225D01*
X02218Y01256D01*
Y01276D01*
X02225Y01236D02*
X02218Y01229D01*
Y01216D01*
X02225Y01209D01*
X02251D01*
X02258Y01216D01*
Y01229D01*
X02251Y01236D01*
X02225D01*
X02058Y01276D02*
X02031D01*
X02018Y01263D01*
X02031Y01249D01*
X02058D01*
X02038D01*
Y01276D01*
X02018Y01209D02*
X02025Y01223D01*
X02038Y01236D01*
X02051D01*
X02058Y01229D01*
Y01216D01*
X02051Y01209D01*
X02045D01*
X02038Y01216D01*
Y01236D01*
X02318Y01263D02*
X02358D01*
Y01243D01*
X02351Y01236D01*
X02345D01*
X02338Y01243D01*
Y01263D01*
Y01243D01*
X02331Y01236D01*
X02325D01*
X02318Y01243D01*
Y01263D01*
X02358Y01223D02*
Y01209D01*
Y01216D01*
X02318D01*
X02325Y01223D01*
X02158Y01276D02*
X02131D01*
X02118Y01263D01*
X02131Y01249D01*
X02158D01*
X02138D01*
Y01276D01*
X02118Y01236D02*
Y01209D01*
X02125D01*
X02151Y01236D01*
X02158D01*
X01558Y01263D02*
X01531D01*
X01518Y01249D01*
X01531Y01236D01*
X01558D01*
X01538D01*
Y01263D01*
X01558Y01223D02*
Y01209D01*
Y01216D01*
X01518D01*
X01525Y01223D01*
X01658Y01276D02*
X01631D01*
X01618Y01263D01*
X01631Y01249D01*
X01658D01*
X01638D01*
Y01276D01*
X01658Y01209D02*
Y01236D01*
X01631Y01209D01*
X01625D01*
X01618Y01216D01*
Y01229D01*
X01625Y01236D01*
X01758Y01276D02*
X01731D01*
X01718Y01263D01*
X01731Y01249D01*
X01758D01*
X01738D01*
Y01276D01*
X01725Y01236D02*
X01718Y01229D01*
Y01216D01*
X01725Y01209D01*
X01731D01*
X01738Y01216D01*
Y01223D01*
Y01216D01*
X01745Y01209D01*
X01751D01*
X01758Y01216D01*
Y01229D01*
X01751Y01236D01*
X01858Y01276D02*
X01831D01*
X01818Y01263D01*
X01831Y01249D01*
X01858D01*
X01838D01*
Y01276D01*
X01858Y01216D02*
X01818D01*
X01838Y01236D01*
Y01209D01*
X01958Y01276D02*
X01931D01*
X01918Y01263D01*
X01931Y01249D01*
X01958D01*
X01938D01*
Y01276D01*
X01918Y01209D02*
Y01236D01*
X01938D01*
X01931Y01223D01*
Y01216D01*
X01938Y01209D01*
X01951D01*
X01958Y01216D01*
Y01229D01*
X01951Y01236D01*
X02626Y03005D02*
Y03031D01*
X02639Y03018D02*
X02612D01*
X02639Y03045D02*
X02646Y03051D01*
Y03065D01*
X02639Y03071D01*
X02632D01*
X02626Y03065D01*
Y03058D01*
Y03065D01*
X02619Y03071D01*
X02612D01*
X02606Y03065D01*
Y03051D01*
X02612Y03045D01*
X02606Y03085D02*
X02612D01*
Y03091D01*
X02606D01*
Y03085D01*
X02639Y03118D02*
X02646Y03125D01*
Y03138D01*
X02639Y03145D01*
X02632D01*
X02626Y03138D01*
Y03131D01*
Y03138D01*
X02619Y03145D01*
X02612D01*
X02606Y03138D01*
Y03125D01*
X02612Y03118D01*
X02939Y02991D02*
X02946Y02985D01*
Y02971D01*
X02939Y02965D01*
X02932D01*
X02926Y02971D01*
Y02985D01*
X02919Y02991D01*
X02912D01*
X02906Y02985D01*
Y02971D01*
X02912Y02965D01*
X02946Y03005D02*
X02906D01*
X02919Y03018D01*
X02906Y03031D01*
X02946D01*
Y03045D02*
X02906D01*
Y03065D01*
X02912Y03071D01*
X02939D01*
X02946Y03065D01*
Y03045D01*
Y03085D02*
Y03098D01*
Y03091D01*
X02906D01*
Y03085D01*
Y03098D01*
X02946Y03138D02*
Y03125D01*
X02939Y03118D01*
X02912D01*
X02906Y03125D01*
Y03138D01*
X02912Y03145D01*
X02939D01*
X02946Y03138D01*
X02839Y03065D02*
X02846Y03058D01*
Y03045D01*
X02839Y03038D01*
X02812D01*
X02806Y03045D01*
Y03058D01*
X02812Y03065D01*
X02826D01*
Y03051D01*
X02806Y03078D02*
X02846D01*
X02806Y03105D01*
X02846D01*
Y03118D02*
X02806D01*
Y03138D01*
X02812Y03145D01*
X02839D01*
X02846Y03138D01*
Y03118D01*
X02739Y02985D02*
X02746Y02978D01*
Y02965D01*
X02739Y02958D01*
X02732D01*
X02726Y02965D01*
Y02978D01*
X02719Y02985D01*
X02712D01*
X02706Y02978D01*
Y02965D01*
X02712Y02958D01*
X02746Y02998D02*
X02706D01*
X02719Y03011D01*
X02706Y03025D01*
X02746D01*
X02739Y03065D02*
X02746Y03058D01*
Y03045D01*
X02739Y03038D01*
X02712D01*
X02706Y03045D01*
Y03058D01*
X02712Y03065D01*
X02746Y03078D02*
X02706D01*
Y03105D01*
X02746Y03118D02*
X02706D01*
X02719D01*
X02746Y03145D01*
X02726Y03125D01*
X02706Y03145D01*
X02526Y03078D02*
Y03105D01*
X02539Y03091D02*
X02512D01*
X02546Y03145D02*
Y03118D01*
X02526D01*
X02532Y03131D01*
Y03138D01*
X02526Y03145D01*
X02512D01*
X02506Y03138D01*
Y03125D01*
X02512Y03118D01*
X01721Y02931D02*
X01761D01*
X01748Y02944D01*
X01761Y02957D01*
X01721D01*
X01761Y02991D02*
Y02977D01*
X01754Y02971D01*
X01728D01*
X01721Y02977D01*
Y02991D01*
X01728Y02997D01*
X01754D01*
X01761Y02991D01*
X01754Y03037D02*
X01761Y03031D01*
Y03017D01*
X01754Y03011D01*
X01748D01*
X01741Y03017D01*
Y03031D01*
X01734Y03037D01*
X01728D01*
X01721Y03031D01*
Y03017D01*
X01728Y03011D01*
X01761Y03051D02*
Y03064D01*
Y03057D01*
X01721D01*
Y03051D01*
Y03064D01*
X01659Y02984D02*
X01666Y02977D01*
Y02964D01*
X01659Y02957D01*
X01633D01*
X01626Y02964D01*
Y02977D01*
X01633Y02984D01*
X01659Y03024D02*
X01666Y03017D01*
Y03004D01*
X01659Y02997D01*
X01653D01*
X01646Y03004D01*
Y03017D01*
X01639Y03024D01*
X01633D01*
X01626Y03017D01*
Y03004D01*
X01633Y02997D01*
X01626Y03064D02*
Y03037D01*
X01653Y03064D01*
X01659D01*
X01666Y03057D01*
Y03044D01*
X01659Y03037D01*
X02259Y02984D02*
X02266Y02977D01*
Y02964D01*
X02259Y02957D01*
X02233D01*
X02226Y02964D01*
Y02977D01*
X02233Y02984D01*
X02246D01*
Y02971D01*
X02226Y02997D02*
X02266D01*
X02226Y03024D01*
X02266D01*
Y03037D02*
X02226D01*
Y03057D01*
X02233Y03064D01*
X02259D01*
X02266Y03057D01*
Y03037D01*
X02141Y02997D02*
Y03024D01*
X02154Y03011D02*
X02128D01*
X02161Y03064D02*
Y03037D01*
X02141D01*
X02148Y03051D01*
Y03057D01*
X02141Y03064D01*
X02128D01*
X02121Y03057D01*
Y03044D01*
X02128Y03037D01*
X01964Y02984D02*
X01971Y02977D01*
Y02964D01*
X01964Y02957D01*
X01958D01*
X01951Y02964D01*
Y02977D01*
X01944Y02984D01*
X01938D01*
X01931Y02977D01*
Y02964D01*
X01938Y02957D01*
X01964Y03024D02*
X01971Y03017D01*
Y03004D01*
X01964Y02997D01*
X01938D01*
X01931Y03004D01*
Y03017D01*
X01938Y03024D01*
X01971Y03037D02*
X01931D01*
X01944D01*
X01971Y03064D01*
X01951Y03044D01*
X01931Y03064D01*
X02064Y02997D02*
X02071Y02991D01*
Y02977D01*
X02064Y02971D01*
X02038D01*
X02031Y02977D01*
Y02991D01*
X02038Y02997D01*
X02064Y03037D02*
X02071Y03031D01*
Y03017D01*
X02064Y03011D01*
X02058D01*
X02051Y03017D01*
Y03031D01*
X02044Y03037D01*
X02038D01*
X02031Y03031D01*
Y03017D01*
X02038Y03011D01*
X02031Y03051D02*
Y03064D01*
Y03057D01*
X02071D01*
X02064Y03051D01*
X01826Y02924D02*
X01866D01*
X01853Y02937D01*
X01866Y02951D01*
X01826D01*
X01866Y02964D02*
Y02977D01*
Y02971D01*
X01826D01*
Y02964D01*
Y02977D01*
X01859Y03024D02*
X01866Y03017D01*
Y03004D01*
X01859Y02997D01*
X01853D01*
X01846Y03004D01*
Y03017D01*
X01839Y03024D01*
X01833D01*
X01826Y03017D01*
Y03004D01*
X01833Y02997D01*
X01866Y03057D02*
Y03044D01*
X01859Y03037D01*
X01833D01*
X01826Y03044D01*
Y03057D01*
X01833Y03064D01*
X01859D01*
X01866Y03057D01*
X01554Y02984D02*
X01561Y02977D01*
Y02964D01*
X01554Y02957D01*
X01528D01*
X01521Y02964D01*
Y02977D01*
X01528Y02984D01*
X01554Y03024D02*
X01561Y03017D01*
Y03004D01*
X01554Y02997D01*
X01548D01*
X01541Y03004D01*
Y03017D01*
X01534Y03024D01*
X01528D01*
X01521Y03017D01*
Y03004D01*
X01528Y02997D01*
X01554Y03037D02*
X01561Y03044D01*
Y03057D01*
X01554Y03064D01*
X01548D01*
X01541Y03057D01*
Y03051D01*
Y03057D01*
X01534Y03064D01*
X01528D01*
X01521Y03057D01*
Y03044D01*
X01528Y03037D01*
X03064Y01876D02*
X03037D01*
X03051Y01889D02*
Y01863D01*
X03024Y01889D02*
X03017Y01896D01*
X03004D01*
X02997Y01889D01*
Y01883D01*
X03004Y01876D01*
X03011D01*
X03004D01*
X02997Y01869D01*
Y01863D01*
X03004Y01856D01*
X03017D01*
X03024Y01863D01*
X02984Y01856D02*
Y01863D01*
X02977D01*
Y01856D01*
X02984D01*
X02951Y01889D02*
X02944Y01896D01*
X02931D01*
X02924Y01889D01*
Y01883D01*
X02931Y01876D01*
X02937D01*
X02931D01*
X02924Y01869D01*
Y01863D01*
X02931Y01856D01*
X02944D01*
X02951Y01863D01*
X03037Y01989D02*
X03044Y01996D01*
X03057D01*
X03064Y01989D01*
Y01963D01*
X03057Y01956D01*
X03044D01*
X03037Y01963D01*
Y01976D01*
X03051D01*
X03024Y01956D02*
Y01996D01*
X02997Y01956D01*
Y01996D01*
X02984D02*
Y01956D01*
X02964D01*
X02957Y01963D01*
Y01989D01*
X02964Y01996D01*
X02984D01*
X02473Y01874D02*
Y01834D01*
Y01854D01*
X02447D01*
Y01874D01*
Y01834D01*
X02433Y01874D02*
Y0184D01*
X02427Y01834D01*
X02413D01*
X02407Y0184D01*
Y01874D01*
X02393D02*
Y01867D01*
X0238Y01854D01*
X02367Y01867D01*
Y01874D01*
X0238Y01854D02*
Y01834D01*
X02353D02*
Y01874D01*
X02327Y01834D01*
Y01874D01*
X02313D02*
Y01834D01*
Y01854D01*
X02287D01*
Y01874D01*
Y01834D01*
X02233Y01874D02*
X02207D01*
X0222D01*
Y01834D01*
X02193D02*
Y0186D01*
X0218Y01874D01*
X02167Y0186D01*
Y01834D01*
Y01854D01*
X02193D01*
X02153Y01834D02*
Y01874D01*
X02127Y01834D01*
Y01874D01*
X02047Y01867D02*
X02053Y01874D01*
X02067D01*
X02073Y01867D01*
Y0184D01*
X02067Y01834D01*
X02053D01*
X02047Y0184D01*
X02033Y01874D02*
Y0184D01*
X02027Y01834D01*
X02013D01*
X02007Y0184D01*
Y01874D01*
X01973D02*
X01987D01*
X01993Y01867D01*
Y0184D01*
X01987Y01834D01*
X01973D01*
X01967Y0184D01*
Y01867D01*
X01973Y01874D01*
X01953Y01834D02*
Y01874D01*
X01927Y01834D01*
Y01874D01*
X01887Y01867D02*
X01893Y01874D01*
X01907D01*
X01913Y01867D01*
Y0184D01*
X01907Y01834D01*
X01893D01*
X01887Y0184D01*
Y01854D01*
X019D01*
X02313Y01924D02*
Y01964D01*
X023Y01951D01*
X02287Y01964D01*
Y01924D01*
X02267Y01951D02*
X02253D01*
X02247Y01944D01*
Y01924D01*
X02267D01*
X02273Y01931D01*
X02267Y01937D01*
X02247D01*
X02207Y01964D02*
Y01924D01*
X02227D01*
X02233Y01931D01*
Y01944D01*
X02227Y01951D01*
X02207D01*
X02173Y01924D02*
X02187D01*
X02193Y01931D01*
Y01944D01*
X02187Y01951D01*
X02173D01*
X02167Y01944D01*
Y01937D01*
X02193D01*
X02113Y01964D02*
Y01924D01*
X02093D01*
X02087Y01931D01*
Y01937D01*
Y01944D01*
X02093Y01951D01*
X02113D01*
X02073D02*
Y01931D01*
X02067Y01924D01*
X02047D01*
Y01917D01*
X02053Y01911D01*
X0206D01*
X02047Y01924D02*
Y01951D01*
X02383Y02068D02*
Y02041D01*
X0237Y02028D01*
X02357Y02041D01*
Y02068D01*
X02323Y02028D02*
X02337D01*
X02343Y02034D01*
Y02048D01*
X02337Y02054D01*
X02323D01*
X02317Y02048D01*
Y02041D01*
X02343D01*
X02303Y02054D02*
Y02028D01*
Y02041D01*
X02297Y02048D01*
X0229Y02054D01*
X02283D01*
X02263Y02028D02*
X02243D01*
X02237Y02034D01*
X02243Y02041D01*
X02257D01*
X02263Y02048D01*
X02257Y02054D01*
X02237D01*
X02223Y02028D02*
X0221D01*
X02217D01*
Y02054D01*
X02223D01*
X02183Y02028D02*
X0217D01*
X02163Y02034D01*
Y02048D01*
X0217Y02054D01*
X02183D01*
X0219Y02048D01*
Y02034D01*
X02183Y02028D01*
X0215D02*
Y02054D01*
X0213D01*
X02123Y02048D01*
Y02028D01*
X0207D02*
X02057D01*
X02063D01*
Y02068D01*
X0207Y02061D01*
X02037Y02028D02*
Y02034D01*
X0203D01*
Y02028D01*
X02037D01*
X02003Y02061D02*
X01997Y02068D01*
X01983D01*
X01977Y02061D01*
Y02034D01*
X01983Y02028D01*
X01997D01*
X02003Y02034D01*
Y02061D01*
X02571Y01385D02*
X02565Y01392D01*
Y01405D01*
X02571Y01412D01*
X02578D01*
X02585Y01405D01*
Y01392D01*
X02591Y01385D01*
X02598D01*
X02604Y01392D01*
Y01405D01*
X02598Y01412D01*
X02571Y01345D02*
X02565Y01352D01*
Y01365D01*
X02571Y01372D01*
X02598D01*
X02604Y01365D01*
Y01352D01*
X02598Y01345D01*
X02565Y01332D02*
X02604D01*
Y01305D01*
X02671Y01385D02*
X02665Y01392D01*
Y01405D01*
X02671Y01412D01*
X02678D01*
X02685Y01405D01*
Y01392D01*
X02691Y01385D01*
X02698D01*
X02704Y01392D01*
Y01405D01*
X02698Y01412D01*
X02665Y01372D02*
X02704D01*
Y01352D01*
X02698Y01345D01*
X02671D01*
X02665Y01352D01*
Y01372D01*
X02704Y01332D02*
X02678D01*
X02665Y01319D01*
X02678Y01305D01*
X02704D01*
X02685D01*
Y01332D01*
X02871Y01385D02*
X02865Y01392D01*
Y01405D01*
X02871Y01412D01*
X02898D01*
X02904Y01405D01*
Y01392D01*
X02898Y01385D01*
X02885D01*
Y01399D01*
X02904Y01372D02*
X02865D01*
X02904Y01345D01*
X02865D01*
Y01332D02*
X02904D01*
Y01312D01*
X02898Y01305D01*
X02871D01*
X02865Y01312D01*
Y01332D01*
X02785Y01377D02*
Y0135D01*
X02771Y01364D02*
X02798D01*
X02765Y0131D02*
Y01337D01*
X02785D01*
X02778Y01324D01*
Y01317D01*
X02785Y0131D01*
X02798D01*
X02804Y01317D01*
Y0133D01*
X02798Y01337D01*
X03059Y01696D02*
X03032D01*
Y01689D01*
X03059Y01663D01*
Y01656D01*
X03032D01*
X03019Y01676D02*
X02992D01*
X02952Y01689D02*
X02959Y01696D01*
X02972D01*
X02979Y01689D01*
Y01663D01*
X02972Y01656D01*
X02959D01*
X02952Y01663D01*
X03059Y01791D02*
Y01751D01*
X03039D01*
X03032Y01758D01*
Y01784D01*
X03039Y01791D01*
X03059D01*
X03019D02*
X03006D01*
X03012D01*
Y01751D01*
X03019D01*
X03006D01*
X02986D02*
Y01791D01*
X02972Y01778D01*
X02959Y01791D01*
Y01751D01*
D18*
X02488Y0216D02*
X02497Y02168D01*
X02513D01*
X02522Y0216D01*
Y02151D01*
X02513Y02143D01*
X02497D01*
X02488Y02135D01*
Y02126D01*
X02497Y02118D01*
X02513D01*
X02522Y02126D01*
X02472Y02168D02*
X02438D01*
X02455D01*
Y02118D01*
X02422D02*
Y02168D01*
X02405Y02151D01*
X02388Y02168D01*
Y02118D01*
X02372Y0216D02*
X02363Y02168D01*
X02347D01*
X02338Y0216D01*
Y02151D01*
X02347Y02143D01*
X02355D01*
X02347D01*
X02338Y02135D01*
Y02126D01*
X02347Y02118D01*
X02363D01*
X02372Y02126D01*
X02288Y02118D02*
X02322D01*
X02288Y02151D01*
Y0216D01*
X02297Y02168D01*
X02313D01*
X02322Y0216D01*
X02188D02*
X02197Y02168D01*
X02213D01*
X02222Y0216D01*
Y02126D01*
X02213Y02118D01*
X02197D01*
X02188Y02126D01*
X02172Y02118D02*
Y02151D01*
X02155Y02168D01*
X02138Y02151D01*
Y02118D01*
Y02143D01*
X02172D01*
X02122Y02118D02*
Y02168D01*
X02088Y02118D01*
Y02168D01*
X02022Y02118D02*
Y02168D01*
X01988Y02118D01*
Y02168D01*
X01963Y02118D02*
X01947D01*
X01938Y02126D01*
Y02143D01*
X01947Y02151D01*
X01963D01*
X01972Y02143D01*
Y02126D01*
X01963Y02118D01*
X01888Y02168D02*
Y02118D01*
X01913D01*
X01922Y02126D01*
Y02143D01*
X01913Y02151D01*
X01888D01*
X01847Y02118D02*
X01863D01*
X01872Y02126D01*
Y02143D01*
X01863Y02151D01*
X01847D01*
X01838Y02143D01*
Y02135D01*
X01872D01*
M02*
