G04*
G04 #@! TF.GenerationSoftware,Altium Limited,Altium Designer,21.6.1 (37)*
G04*
G04 Layer_Color=2752767*
%FSTAX23Y23*%
%MOIN*%
G70*
G04*
G04 #@! TF.SameCoordinates,3554761A-FA29-429D-AE60-9F5F3CB02BB6*
G04*
G04*
G04 #@! TF.FilePolarity,Positive*
G04*
G01*
G75*
%ADD50C,0.002*%
%ADD51C,0.003*%
D50*
X01353Y02036D02*
Y02053D01*
X01369D01*
Y02036D01*
X01353D01*
X01165Y02307D02*
Y02323D01*
X01181D01*
Y02307D01*
X01165D01*
X01353D02*
Y02323D01*
X01369D01*
Y02307D01*
X01353D01*
X01165Y02036D02*
Y02053D01*
X01181D01*
Y02036D01*
X01165D01*
X01125Y01617D02*
X01117Y01633D01*
X01133D01*
X01125Y01617D01*
Y01817D02*
X01117Y01833D01*
X01133D01*
X01125Y01817D01*
Y01717D02*
X01117Y01733D01*
X01133D01*
X01125Y01717D01*
Y01517D02*
X01117Y01533D01*
X01133D01*
X01125Y01517D01*
X012Y01192D02*
X01204Y01196D01*
X01208D01*
X01204Y012D01*
X01208Y01204D01*
X01204D01*
X012Y01208D01*
X01196Y01204D01*
X01192D01*
X01196Y012D01*
X01192Y01196D01*
X01196D01*
X012Y01192D01*
X0315D02*
X03154Y01196D01*
X03158D01*
X03154Y012D01*
X03158Y01204D01*
X03154D01*
X0315Y01208D01*
X03146Y01204D01*
X03142D01*
X03146Y012D01*
X03142Y01196D01*
X03146D01*
X0315Y01192D01*
Y03142D02*
X03154Y03146D01*
X03158D01*
X03154Y0315D01*
X03158Y03154D01*
X03154D01*
X0315Y03158D01*
X03146Y03154D01*
X03142D01*
X03146Y0315D01*
X03142Y03146D01*
X03146D01*
X0315Y03142D01*
X012D02*
X01204Y03146D01*
X01208D01*
X01204Y0315D01*
X01208Y03154D01*
X01204D01*
X012Y03158D01*
X01196Y03154D01*
X01192D01*
X01196Y0315D01*
X01192Y03146D01*
X01196D01*
X012Y03142D01*
X01125Y02517D02*
X01117Y02533D01*
X01133D01*
X01125Y02517D01*
Y02717D02*
X01117Y02733D01*
X01133D01*
X01125Y02717D01*
Y02817D02*
X01117Y02833D01*
X01133D01*
X01125Y02817D01*
Y02617D02*
X01117Y02633D01*
X01133D01*
X01125Y02617D01*
X01642Y01617D02*
Y01633D01*
X01658D01*
Y01617D01*
X01642D01*
X0183Y01346D02*
Y01362D01*
X01846D01*
Y01346D01*
X0183D01*
X01642D02*
Y01362D01*
X01658D01*
Y01346D01*
X01642D01*
X0183Y01617D02*
Y01633D01*
X01846D01*
Y01617D01*
X0183D01*
X0161Y01892D02*
X01602Y01908D01*
X01618D01*
X0161Y01892D01*
Y02084D02*
X01602Y021D01*
X01618D01*
X0161Y02084D01*
X0174Y03212D02*
X01732Y03228D01*
X01748D01*
X0174Y03212D01*
X0184D02*
X01832Y03228D01*
X01848D01*
X0184Y03212D01*
X0194D02*
X01932Y03228D01*
X01948D01*
X0194Y03212D01*
X0214D02*
X02132Y03228D01*
X02148D01*
X0214Y03212D01*
X0224D02*
X02232Y03228D01*
X02248D01*
X0224Y03212D01*
X0204D02*
X02032Y03228D01*
X02048D01*
X0204Y03212D01*
X0164D02*
X01632Y03228D01*
X01648D01*
X0164Y03212D01*
X0154D02*
X01532Y03228D01*
X01548D01*
X0154Y03212D01*
X0288Y01132D02*
X02872Y01148D01*
X02888D01*
X0288Y01132D01*
X0268D02*
X02672Y01148D01*
X02688D01*
X0268Y01132D01*
X0258D02*
X02572Y01148D01*
X02588D01*
X0258Y01132D01*
X0278D02*
X02772Y01148D01*
X02788D01*
X0278Y01132D01*
X03225Y01967D02*
X03217Y01983D01*
X03233D01*
X03225Y01967D01*
Y01767D02*
X03217Y01783D01*
X03233D01*
X03225Y01767D01*
Y01667D02*
X03217Y01683D01*
X03233D01*
X03225Y01667D01*
Y01867D02*
X03217Y01883D01*
X03233D01*
X03225Y01867D01*
X02459Y02705D02*
X02463Y02713D01*
X02459Y02721D01*
X02467Y02717D01*
X02475Y02721D01*
X02471Y02713D01*
X02475Y02705D01*
X02467Y02709D01*
X02459Y02705D01*
X02552Y02142D02*
X02556Y0215D01*
X02552Y02158D01*
X0256Y02154D01*
X02568Y02158D01*
X02564Y0215D01*
X02568Y02142D01*
X0256Y02146D01*
X02552Y02142D01*
X01932Y02872D02*
X01936Y0288D01*
X01932Y02888D01*
X0194Y02884D01*
X01948Y02888D01*
X01944Y0288D01*
X01948Y02872D01*
X0194Y02876D01*
X01932Y02872D01*
X02218Y01557D02*
X02222Y01565D01*
X02218Y01573D01*
X02226Y01569D01*
X02234Y01573D01*
X0223Y01565D01*
X02234Y01557D01*
X02226Y01561D01*
X02218Y01557D01*
X02192Y02562D02*
X02196Y0257D01*
X02192Y02578D01*
X022Y02574D01*
X02208Y02578D01*
X02204Y0257D01*
X02208Y02562D01*
X022Y02566D01*
X02192Y02562D01*
X02227Y02347D02*
X02231Y02355D01*
X02227Y02363D01*
X02235Y02359D01*
X02243Y02363D01*
X02239Y02355D01*
X02243Y02347D01*
X02235Y02351D01*
X02227Y02347D01*
D51*
X02528Y0322D02*
X02522Y03228D01*
X02514Y03225D01*
Y03215D01*
X02522Y03212D01*
X02528Y0322D01*
X02628D02*
X02622Y03228D01*
X02614Y03225D01*
Y03215D01*
X02622Y03212D01*
X02628Y0322D01*
X02728D02*
X02722Y03228D01*
X02714Y03225D01*
Y03215D01*
X02722Y03212D01*
X02728Y0322D01*
X02828D02*
X02822Y03228D01*
X02814Y03225D01*
Y03215D01*
X02822Y03212D01*
X02828Y0322D01*
X02928D02*
X02922Y03228D01*
X02914Y03225D01*
Y03215D01*
X02922Y03212D01*
X02928Y0322D01*
X02778Y0192D02*
X02772Y01928D01*
X02764Y01925D01*
Y01915D01*
X02772Y01912D01*
X02778Y0192D01*
Y0182D02*
X02772Y01828D01*
X02764Y01825D01*
Y01815D01*
X02772Y01812D01*
X02778Y0182D01*
Y0172D02*
X02772Y01728D01*
X02764Y01725D01*
Y01715D01*
X02772Y01712D01*
X02778Y0172D01*
X02678Y0192D02*
X02672Y01928D01*
X02664Y01925D01*
Y01915D01*
X02672Y01912D01*
X02678Y0192D01*
Y0182D02*
X02672Y01828D01*
X02664Y01825D01*
Y01815D01*
X02672Y01812D01*
X02678Y0182D01*
Y0172D02*
X02672Y01728D01*
X02664Y01725D01*
Y01715D01*
X02672Y01712D01*
X02678Y0172D01*
X01648Y029D02*
X01642Y02908D01*
X01634Y02905D01*
Y02895D01*
X01642Y02892D01*
X01648Y029D01*
Y028D02*
X01642Y02808D01*
X01634Y02805D01*
Y02795D01*
X01642Y02792D01*
X01648Y028D01*
X02148Y0114D02*
X02142Y01148D01*
X02134Y01145D01*
Y01135D01*
X02142Y01132D01*
X02148Y0114D01*
X01448D02*
X01442Y01148D01*
X01434Y01145D01*
Y01135D01*
X01442Y01132D01*
X01448Y0114D01*
X01548D02*
X01542Y01148D01*
X01534Y01145D01*
Y01135D01*
X01542Y01132D01*
X01548Y0114D01*
X01648D02*
X01642Y01148D01*
X01634Y01145D01*
Y01135D01*
X01642Y01132D01*
X01648Y0114D01*
X01748D02*
X01742Y01148D01*
X01734Y01145D01*
Y01135D01*
X01742Y01132D01*
X01748Y0114D01*
X01848D02*
X01842Y01148D01*
X01834Y01145D01*
Y01135D01*
X01842Y01132D01*
X01848Y0114D01*
X01948D02*
X01942Y01148D01*
X01934Y01145D01*
Y01135D01*
X01942Y01132D01*
X01948Y0114D01*
X02048D02*
X02042Y01148D01*
X02034Y01145D01*
Y01135D01*
X02042Y01132D01*
X02048Y0114D01*
X02248D02*
X02242Y01148D01*
X02234Y01145D01*
Y01135D01*
X02242Y01132D01*
X02248Y0114D01*
X02348D02*
X02342Y01148D01*
X02334Y01145D01*
Y01135D01*
X02342Y01132D01*
X02348Y0114D01*
X03233Y02625D02*
X03227Y02633D01*
X03219Y0263D01*
Y0262D01*
X03227Y02617D01*
X03233Y02625D01*
Y02825D02*
X03227Y02833D01*
X03219Y0283D01*
Y0282D01*
X03227Y02817D01*
X03233Y02825D01*
Y02725D02*
X03227Y02733D01*
X03219Y0273D01*
Y0272D01*
X03227Y02717D01*
X03233Y02725D01*
Y02525D02*
X03227Y02533D01*
X03219Y0253D01*
Y0252D01*
X03227Y02517D01*
X03233Y02525D01*
Y02425D02*
X03227Y02433D01*
X03219Y0243D01*
Y0242D01*
X03227Y02417D01*
X03233Y02425D01*
Y02325D02*
X03227Y02333D01*
X03219Y0233D01*
Y0232D01*
X03227Y02317D01*
X03233Y02325D01*
Y02225D02*
X03227Y02233D01*
X03219Y0223D01*
Y0222D01*
X03227Y02217D01*
X03233Y02225D01*
M02*
