G04*
G04 #@! TF.GenerationSoftware,Altium Limited,Altium Designer,21.6.1 (37)*
G04*
G04 Layer_Physical_Order=2*
G04 Layer_Color=16711680*
%FSTAX23Y23*%
%MOIN*%
G70*
G04*
G04 #@! TF.SameCoordinates,3554761A-FA29-429D-AE60-9F5F3CB02BB6*
G04*
G04*
G04 #@! TF.FilePolarity,Positive*
G04*
G01*
G75*
%ADD15C,0.025*%
%ADD17C,0.010*%
%ADD41C,0.020*%
%ADD42C,0.075*%
%ADD43C,0.063*%
%ADD44R,0.063X0.063*%
%ADD45R,0.063X0.063*%
%ADD46C,0.157*%
%ADD47C,0.024*%
G36*
X0324Y03348D02*
X0326Y03344D01*
X03279Y03336D01*
X03296Y03325D01*
X03312Y03312D01*
X03325Y03296D01*
X03336Y03279D01*
X03344Y0326D01*
X03348Y0324D01*
X0335Y0322D01*
X0335Y0322D01*
Y0114D01*
X0335Y0114D01*
X03348Y0112D01*
X03344Y011D01*
X03336Y01081D01*
X03325Y01064D01*
X03312Y01048D01*
X03296Y01035D01*
X03279Y01024D01*
X0326Y01016D01*
X0324Y01012D01*
X0322Y0101D01*
X0322Y0101D01*
X01145D01*
X01145Y0101D01*
X0114Y0101D01*
X01135Y0101D01*
X0112Y01012D01*
X011Y01016D01*
X01081Y01024D01*
X01064Y01035D01*
X01048Y01048D01*
X01035Y01064D01*
X01024Y01081D01*
X01016Y011D01*
X01012Y0112D01*
X0101Y0114D01*
X0101Y0114D01*
Y0322D01*
X0101Y0322D01*
X01012Y0324D01*
X01016Y0326D01*
X01024Y03279D01*
X01035Y03296D01*
X01048Y03312D01*
X01064Y03325D01*
X01081Y03336D01*
X011Y03344D01*
X0112Y03348D01*
X0114Y0335D01*
X0114Y0335D01*
X0322D01*
X0322Y0335D01*
X0324Y03348D01*
D02*
G37*
%LPC*%
G36*
X02825Y03256D02*
X02822D01*
Y03223D01*
X02856D01*
Y03225D01*
X02854Y03234D01*
X02849Y03242D01*
X02842Y03249D01*
X02834Y03254D01*
X02825Y03256D01*
D02*
G37*
G36*
X02276D02*
X02243D01*
Y03223D01*
X02276D01*
Y03256D01*
D02*
G37*
G36*
X02818D02*
X02815D01*
X02806Y03254D01*
X02798Y03249D01*
X02791Y03242D01*
X02786Y03234D01*
X02784Y03225D01*
Y03223D01*
X02818D01*
Y03256D01*
D02*
G37*
G36*
X02237D02*
X02204D01*
Y03223D01*
X02237D01*
Y03256D01*
D02*
G37*
G36*
X02956D02*
X02884D01*
Y03184D01*
X02956D01*
Y03256D01*
D02*
G37*
G36*
X02856Y03217D02*
X02822D01*
Y03184D01*
X02825D01*
X02834Y03186D01*
X02842Y03191D01*
X02849Y03198D01*
X02854Y03206D01*
X02856Y03215D01*
Y03217D01*
D02*
G37*
G36*
X02818D02*
X02784D01*
Y03215D01*
X02786Y03206D01*
X02791Y03198D01*
X02798Y03191D01*
X02806Y03186D01*
X02815Y03184D01*
X02818D01*
Y03217D01*
D02*
G37*
G36*
X02725Y03256D02*
X02715D01*
X02706Y03254D01*
X02698Y03249D01*
X02691Y03242D01*
X02686Y03234D01*
X02684Y03225D01*
Y03215D01*
X02686Y03206D01*
X02691Y03198D01*
X02698Y03191D01*
X02706Y03186D01*
X02715Y03184D01*
X02725D01*
X02734Y03186D01*
X02742Y03191D01*
X02749Y03198D01*
X02754Y03206D01*
X02756Y03215D01*
Y03225D01*
X02754Y03234D01*
X02749Y03242D01*
X02742Y03249D01*
X02734Y03254D01*
X02725Y03256D01*
D02*
G37*
G36*
X02574Y03282D02*
X02501D01*
X02495Y03281D01*
X0249Y03277D01*
X02189Y02977D01*
X02186Y02972D01*
X02185Y02966D01*
Y02577D01*
X02183Y02573D01*
Y02567D01*
X02186Y0256D01*
X0219Y02556D01*
X02194Y02554D01*
X02655Y02094D01*
Y01972D01*
X02655Y01972D01*
X02654Y01968D01*
X02654Y01965D01*
X02654Y01962D01*
X02653Y0196D01*
X02653Y01959D01*
X02652Y01958D01*
X02652Y01957D01*
X02651Y01957D01*
X02651Y01957D01*
X02649Y01957D01*
X02649Y01956D01*
X02634D01*
Y01884D01*
X02706D01*
Y01956D01*
X02691D01*
X02691Y01957D01*
X02689Y01957D01*
X02689Y01957D01*
X02688Y01957D01*
X02688Y01958D01*
X02687Y01959D01*
X02687Y0196D01*
X02686Y01962D01*
X02686Y01965D01*
X02686Y01968D01*
X02685Y01972D01*
X02685Y01972D01*
Y021D01*
X02684Y02106D01*
X02681Y02111D01*
X02216Y02576D01*
X02215Y02577D01*
Y02959D01*
X02478Y03222D01*
X02483Y03221D01*
X02483Y0322D01*
X02483Y03217D01*
X02483Y03215D01*
X02482Y03213D01*
X02482Y03211D01*
X02481Y03209D01*
X0248Y03207D01*
X02479Y03205D01*
X02477Y03203D01*
X02475Y03201D01*
X02473Y03199D01*
X02473Y03199D01*
X02452Y03178D01*
X02449Y03172D01*
X02447Y03165D01*
Y02715D01*
X02449Y02708D01*
X0245Y02707D01*
Y02393D01*
X02451Y02386D01*
X02455Y0238D01*
X02947Y01888D01*
Y01332D01*
X02801Y01187D01*
X02801Y01187D01*
X02799Y01185D01*
X02797Y01183D01*
X02795Y01181D01*
X02793Y0118D01*
X02791Y01179D01*
X02789Y01178D01*
X02787Y01178D01*
X02785Y01177D01*
X02783Y01177D01*
X0278Y01177D01*
X02779Y01176D01*
X02775D01*
X02766Y01174D01*
X02758Y01169D01*
X02751Y01162D01*
X02746Y01154D01*
X02744Y01145D01*
Y01135D01*
X02746Y01126D01*
X02751Y01118D01*
X02758Y01111D01*
X02766Y01106D01*
X02775Y01104D01*
X02785D01*
X02794Y01106D01*
X02802Y01111D01*
X02809Y01118D01*
X02814Y01126D01*
X02816Y01135D01*
Y01139D01*
X02817Y0114D01*
X02817Y01143D01*
X02817Y01145D01*
X02818Y01147D01*
X02818Y01149D01*
X02819Y01151D01*
X0282Y01153D01*
X02821Y01155D01*
X02823Y01157D01*
X02825Y01159D01*
X02827Y01161D01*
X02827Y01161D01*
X02978Y01312D01*
X02981Y01318D01*
X02983Y01325D01*
Y01895D01*
X02983Y01895D01*
X02981Y01902D01*
X02978Y01908D01*
X02978Y01908D01*
X02485Y024D01*
Y02713D01*
X02484Y02719D01*
X02483Y02721D01*
Y03158D01*
X02499Y03173D01*
X02499Y03173D01*
X02501Y03175D01*
X02503Y03177D01*
X02505Y03179D01*
X02507Y0318D01*
X02509Y03181D01*
X02511Y03182D01*
X02513Y03182D01*
X02515Y03183D01*
X02517Y03183D01*
X0252Y03183D01*
X02521Y03184D01*
X02525D01*
X02534Y03186D01*
X02542Y03191D01*
X02549Y03198D01*
X02554Y03206D01*
X02556Y03215D01*
Y03225D01*
X02554Y03234D01*
X02549Y03242D01*
X02545Y03246D01*
X02547Y03251D01*
X02567D01*
X02574Y03244D01*
X02574Y03244D01*
X02576Y03242D01*
X02578Y0324D01*
X02579Y03238D01*
X0258Y03236D01*
X02581Y03234D01*
X02582Y03231D01*
X02582Y03229D01*
X02583Y03226D01*
X02583Y03223D01*
X02583Y0322D01*
X02584Y03219D01*
Y03215D01*
X02586Y03206D01*
X02591Y03198D01*
X02598Y03191D01*
X02606Y03186D01*
X02615Y03184D01*
X02625D01*
X02634Y03186D01*
X02642Y03191D01*
X02649Y03198D01*
X02654Y03206D01*
X02656Y03215D01*
Y03225D01*
X02654Y03234D01*
X02649Y03242D01*
X02642Y03249D01*
X02634Y03254D01*
X02625Y03256D01*
X02621D01*
X0262Y03257D01*
X02617Y03257D01*
X02614Y03257D01*
X02611Y03258D01*
X02609Y03258D01*
X02606Y03259D01*
X02604Y0326D01*
X02602Y03261D01*
X026Y03262D01*
X02598Y03264D01*
X02596Y03266D01*
X02596Y03266D01*
X02584Y03277D01*
X02579Y03281D01*
X02574Y03282D01*
D02*
G37*
G36*
X02276Y03217D02*
X02243D01*
Y03184D01*
X02276D01*
Y03217D01*
D02*
G37*
G36*
X02237D02*
X02204D01*
Y03184D01*
X02237D01*
Y03217D01*
D02*
G37*
G36*
X02045Y03256D02*
X02035D01*
X02026Y03254D01*
X02018Y03249D01*
X02011Y03242D01*
X02006Y03234D01*
X02004Y03225D01*
Y03215D01*
X02006Y03206D01*
X02011Y03198D01*
X02018Y03191D01*
X02026Y03186D01*
X02035Y03184D01*
X02045D01*
X02054Y03186D01*
X02062Y03191D01*
X02069Y03198D01*
X02074Y03206D01*
X02076Y03215D01*
Y03225D01*
X02074Y03234D01*
X02069Y03242D01*
X02062Y03249D01*
X02054Y03254D01*
X02045Y03256D01*
D02*
G37*
G36*
X01945D02*
X01935D01*
X01926Y03254D01*
X01918Y03249D01*
X01911Y03242D01*
X01906Y03234D01*
X01904Y03225D01*
Y03215D01*
X01906Y03206D01*
X01911Y03198D01*
X01918Y03191D01*
X01926Y03186D01*
X01935Y03184D01*
X01945D01*
X01954Y03186D01*
X01962Y03191D01*
X01969Y03198D01*
X01974Y03206D01*
X01976Y03215D01*
Y03225D01*
X01974Y03234D01*
X01969Y03242D01*
X01962Y03249D01*
X01954Y03254D01*
X01945Y03256D01*
D02*
G37*
G36*
X01845D02*
X01835D01*
X01826Y03254D01*
X01818Y03249D01*
X01811Y03242D01*
X01806Y03234D01*
X01804Y03225D01*
Y03215D01*
X01806Y03206D01*
X01811Y03198D01*
X01818Y03191D01*
X01826Y03186D01*
X01835Y03184D01*
X01845D01*
X01854Y03186D01*
X01862Y03191D01*
X01869Y03198D01*
X01874Y03206D01*
X01876Y03215D01*
Y03225D01*
X01874Y03234D01*
X01869Y03242D01*
X01862Y03249D01*
X01854Y03254D01*
X01845Y03256D01*
D02*
G37*
G36*
X01745D02*
X01735D01*
X01726Y03254D01*
X01718Y03249D01*
X01711Y03242D01*
X01706Y03234D01*
X01704Y03225D01*
Y03215D01*
X01706Y03206D01*
X01711Y03198D01*
X01718Y03191D01*
X01726Y03186D01*
X01735Y03184D01*
X01745D01*
X01754Y03186D01*
X01762Y03191D01*
X01769Y03198D01*
X01774Y03206D01*
X01776Y03215D01*
Y03225D01*
X01774Y03234D01*
X01769Y03242D01*
X01762Y03249D01*
X01754Y03254D01*
X01745Y03256D01*
D02*
G37*
G36*
X01645D02*
X01635D01*
X01626Y03254D01*
X01618Y03249D01*
X01611Y03242D01*
X01606Y03234D01*
X01604Y03225D01*
Y03215D01*
X01606Y03206D01*
X01611Y03198D01*
X01618Y03191D01*
X01626Y03186D01*
X01635Y03184D01*
X01645D01*
X01654Y03186D01*
X01662Y03191D01*
X01669Y03198D01*
X01674Y03206D01*
X01676Y03215D01*
Y03225D01*
X01674Y03234D01*
X01669Y03242D01*
X01662Y03249D01*
X01654Y03254D01*
X01645Y03256D01*
D02*
G37*
G36*
X01545D02*
X01535D01*
X01526Y03254D01*
X01518Y03249D01*
X01511Y03242D01*
X01506Y03234D01*
X01504Y03225D01*
Y03215D01*
X01506Y03206D01*
X01511Y03198D01*
X01518Y03191D01*
X01526Y03186D01*
X01535Y03184D01*
X01545D01*
X01554Y03186D01*
X01562Y03191D01*
X01569Y03198D01*
X01574Y03206D01*
X01576Y03215D01*
Y03225D01*
X01574Y03234D01*
X01569Y03242D01*
X01562Y03249D01*
X01554Y03254D01*
X01545Y03256D01*
D02*
G37*
G36*
X03158Y03234D02*
X03152D01*
Y03152D01*
X03234D01*
Y03158D01*
X03231Y03174D01*
X03224Y0319D01*
X03215Y03203D01*
X03203Y03215D01*
X0319Y03224D01*
X03174Y03231D01*
X03158Y03234D01*
D02*
G37*
G36*
X03148D02*
X03142D01*
X03126Y03231D01*
X0311Y03224D01*
X03097Y03215D01*
X03085Y03203D01*
X03076Y0319D01*
X03069Y03174D01*
X03066Y03158D01*
Y03152D01*
X03148D01*
Y03234D01*
D02*
G37*
G36*
X01208D02*
X01202D01*
Y03152D01*
X01284D01*
Y03158D01*
X01281Y03174D01*
X01274Y0319D01*
X01265Y03203D01*
X01253Y03215D01*
X0124Y03224D01*
X01224Y03231D01*
X01208Y03234D01*
D02*
G37*
G36*
X01197D02*
X01192D01*
X01176Y03231D01*
X0116Y03224D01*
X01147Y03215D01*
X01135Y03203D01*
X01126Y0319D01*
X01119Y03174D01*
X01116Y03158D01*
Y03152D01*
X01197D01*
Y03234D01*
D02*
G37*
G36*
X03234Y03148D02*
X03152D01*
Y03066D01*
X03158D01*
X03174Y03069D01*
X0319Y03076D01*
X03203Y03085D01*
X03215Y03097D01*
X03224Y0311D01*
X03231Y03126D01*
X03234Y03142D01*
Y03148D01*
D02*
G37*
G36*
X03148D02*
X03066D01*
Y03142D01*
X03069Y03126D01*
X03076Y0311D01*
X03085Y03097D01*
X03097Y03085D01*
X0311Y03076D01*
X03126Y03069D01*
X03142Y03066D01*
X03148D01*
Y03148D01*
D02*
G37*
G36*
X01284D02*
X01202D01*
Y03066D01*
X01208D01*
X01224Y03069D01*
X0124Y03076D01*
X01253Y03085D01*
X01265Y03097D01*
X01274Y0311D01*
X01281Y03126D01*
X01284Y03142D01*
Y03148D01*
D02*
G37*
G36*
X01197D02*
X01116D01*
Y03142D01*
X01119Y03126D01*
X01126Y0311D01*
X01135Y03097D01*
X01147Y03085D01*
X0116Y03076D01*
X01176Y03069D01*
X01192Y03066D01*
X01197D01*
Y03148D01*
D02*
G37*
G36*
X01645Y02936D02*
X01635D01*
X01626Y02934D01*
X01618Y02929D01*
X01611Y02922D01*
X01606Y02914D01*
X01604Y02905D01*
Y02895D01*
X01606Y02886D01*
X01611Y02878D01*
X01618Y02871D01*
X01626Y02866D01*
X01635Y02864D01*
X01645D01*
X01654Y02866D01*
X01662Y02871D01*
X01669Y02878D01*
X01674Y02886D01*
X01676Y02895D01*
Y02905D01*
X01674Y02914D01*
X01669Y02922D01*
X01662Y02929D01*
X01654Y02934D01*
X01645Y02936D01*
D02*
G37*
G36*
X02145Y03256D02*
X02135D01*
X02126Y03254D01*
X02118Y03249D01*
X02111Y03242D01*
X02106Y03234D01*
X02104Y03225D01*
Y03215D01*
X02106Y03206D01*
X02111Y03198D01*
X02114Y03195D01*
X02114Y03194D01*
X02116Y03192D01*
X02117Y0319D01*
X02118Y03189D01*
X02119Y03187D01*
X0212Y03185D01*
X02121Y03182D01*
X02121Y0318D01*
X02122Y03178D01*
X02122Y03175D01*
X02122Y03172D01*
X02122Y03172D01*
Y03087D01*
X01927Y02893D01*
X01924Y02887D01*
X01922Y0288D01*
X01924Y02873D01*
X01927Y02867D01*
X01933Y02864D01*
X0194Y02862D01*
X01947Y02864D01*
X01953Y02867D01*
X02153Y03067D01*
X02156Y03073D01*
X02158Y0308D01*
Y03172D01*
X02158Y03172D01*
X02158Y03175D01*
X02158Y03178D01*
X02159Y0318D01*
X02159Y03182D01*
X0216Y03185D01*
X02161Y03187D01*
X02162Y03189D01*
X02163Y0319D01*
X02164Y03192D01*
X02166Y03194D01*
X02166Y03195D01*
X02169Y03198D01*
X02174Y03206D01*
X02176Y03215D01*
Y03225D01*
X02174Y03234D01*
X02169Y03242D01*
X02162Y03249D01*
X02154Y03254D01*
X02145Y03256D01*
D02*
G37*
G36*
X01161Y02861D02*
X01128D01*
Y02828D01*
X01161D01*
Y02861D01*
D02*
G37*
G36*
X01122D02*
X01089D01*
Y02828D01*
X01122D01*
Y02861D01*
D02*
G37*
G36*
X03261D02*
X03189D01*
Y02789D01*
X03261D01*
Y02861D01*
D02*
G37*
G36*
X01161Y02822D02*
X01128D01*
Y02789D01*
X01161D01*
Y02822D01*
D02*
G37*
G36*
X01122D02*
X01089D01*
Y02789D01*
X01122D01*
Y02822D01*
D02*
G37*
G36*
X01676Y02836D02*
X01604D01*
Y02764D01*
X01676D01*
Y02836D01*
D02*
G37*
G36*
X0323Y02761D02*
X0322D01*
X03211Y02759D01*
X03203Y02754D01*
X03196Y02747D01*
X03191Y02739D01*
X03189Y0273D01*
Y0272D01*
X03191Y02711D01*
X03196Y02703D01*
X03203Y02696D01*
X03211Y02691D01*
X0322Y02689D01*
X0323D01*
X03239Y02691D01*
X03247Y02696D01*
X03254Y02703D01*
X03259Y02711D01*
X03261Y0272D01*
Y0273D01*
X03259Y02739D01*
X03254Y02747D01*
X03247Y02754D01*
X03239Y02759D01*
X0323Y02761D01*
D02*
G37*
G36*
Y02661D02*
X0322D01*
X03211Y02659D01*
X03203Y02654D01*
X03196Y02647D01*
X03191Y02639D01*
X03189Y0263D01*
Y0262D01*
X03191Y02611D01*
X03196Y02603D01*
X03203Y02596D01*
X03211Y02591D01*
X0322Y02589D01*
X0323D01*
X03239Y02591D01*
X03247Y02596D01*
X03254Y02603D01*
X03259Y02611D01*
X03261Y0262D01*
Y0263D01*
X03259Y02639D01*
X03254Y02647D01*
X03247Y02654D01*
X03239Y02659D01*
X0323Y02661D01*
D02*
G37*
G36*
X0113Y02761D02*
X0112D01*
X01111Y02759D01*
X01103Y02754D01*
X01096Y02747D01*
X01091Y02739D01*
X01089Y0273D01*
Y02726D01*
X01088Y02725D01*
X01088Y02722D01*
X01088Y0272D01*
X01087Y02718D01*
X01087Y02716D01*
X01086Y02714D01*
X01085Y02712D01*
X01084Y0271D01*
X01082Y02708D01*
X0108Y02706D01*
X01078Y02704D01*
X01078Y02704D01*
X01063Y02689D01*
X0106Y02683D01*
X01058Y02676D01*
Y01774D01*
X0106Y01767D01*
X01063Y01761D01*
X01078Y01746D01*
X01078Y01746D01*
X0108Y01744D01*
X01082Y01742D01*
X01084Y0174D01*
X01085Y01738D01*
X01086Y01736D01*
X01087Y01734D01*
X01087Y01732D01*
X01088Y0173D01*
X01088Y01728D01*
X01088Y01725D01*
X01089Y01724D01*
Y0172D01*
X01091Y01711D01*
X01096Y01703D01*
X01103Y01696D01*
X01111Y01691D01*
X0112Y01689D01*
X0113D01*
X01139Y01691D01*
X01147Y01696D01*
X01154Y01703D01*
X01159Y01711D01*
X01161Y0172D01*
Y0173D01*
X01159Y01739D01*
X01154Y01747D01*
X01147Y01754D01*
X01139Y01759D01*
X0113Y01761D01*
X01126D01*
X01125Y01762D01*
X01122Y01762D01*
X0112Y01762D01*
X01118Y01763D01*
X01116Y01763D01*
X01114Y01764D01*
X01112Y01765D01*
X0111Y01766D01*
X01108Y01768D01*
X01106Y0177D01*
X01104Y01772D01*
X01104Y01772D01*
X01094Y01781D01*
Y01789D01*
X01122D01*
Y01825D01*
Y01861D01*
X01094D01*
Y02497D01*
X01099Y025D01*
X01103Y02496D01*
X01111Y02491D01*
X0112Y02489D01*
X0113D01*
X01139Y02491D01*
X01147Y02496D01*
X01154Y02503D01*
X01159Y02511D01*
X01161Y0252D01*
Y0253D01*
X01159Y02539D01*
X01154Y02547D01*
X01147Y02554D01*
X01139Y02559D01*
X0113Y02561D01*
X0112D01*
X01111Y02559D01*
X01103Y02554D01*
X01099Y0255D01*
X01094Y02553D01*
Y02597D01*
X01099Y026D01*
X01103Y02596D01*
X01111Y02591D01*
X0112Y02589D01*
X0113D01*
X01139Y02591D01*
X01147Y02596D01*
X01154Y02603D01*
X01159Y02611D01*
X01161Y0262D01*
Y0263D01*
X01159Y02639D01*
X01154Y02647D01*
X01147Y02654D01*
X01139Y02659D01*
X0113Y02661D01*
X0112D01*
X01111Y02659D01*
X01103Y02654D01*
X01099Y0265D01*
X01094Y02653D01*
Y02669D01*
X01104Y02678D01*
X01104Y02678D01*
X01106Y0268D01*
X01108Y02682D01*
X0111Y02684D01*
X01112Y02685D01*
X01114Y02686D01*
X01116Y02687D01*
X01118Y02687D01*
X0112Y02688D01*
X01122Y02688D01*
X01125Y02688D01*
X01126Y02689D01*
X0113D01*
X01139Y02691D01*
X01147Y02696D01*
X01154Y02703D01*
X01159Y02711D01*
X01161Y0272D01*
Y0273D01*
X01159Y02739D01*
X01154Y02747D01*
X01147Y02754D01*
X01139Y02759D01*
X0113Y02761D01*
D02*
G37*
G36*
X0323Y02561D02*
X0322D01*
X03211Y02559D01*
X03203Y02554D01*
X03196Y02547D01*
X03191Y02539D01*
X03189Y0253D01*
Y0252D01*
X03191Y02511D01*
X03196Y02503D01*
X03203Y02496D01*
X03211Y02491D01*
X0322Y02489D01*
X0323D01*
X03239Y02491D01*
X03247Y02496D01*
X03254Y02503D01*
X03259Y02511D01*
X03261Y0252D01*
Y0253D01*
X03259Y02539D01*
X03254Y02547D01*
X03247Y02554D01*
X03239Y02559D01*
X0323Y02561D01*
D02*
G37*
G36*
Y02461D02*
X0322D01*
X03211Y02459D01*
X03203Y02454D01*
X03196Y02447D01*
X03191Y02439D01*
X03189Y0243D01*
Y0242D01*
X03191Y02411D01*
X03196Y02403D01*
X03203Y02396D01*
X03211Y02391D01*
X0322Y02389D01*
X0323D01*
X03239Y02391D01*
X03247Y02396D01*
X03254Y02403D01*
X03259Y02411D01*
X03261Y0242D01*
Y0243D01*
X03259Y02439D01*
X03254Y02447D01*
X03247Y02454D01*
X03239Y02459D01*
X0323Y02461D01*
D02*
G37*
G36*
X01179Y02358D02*
X01176D01*
Y02318D01*
X01215D01*
Y02321D01*
X01213Y02332D01*
X01207Y02342D01*
X01199Y0235D01*
X01189Y02355D01*
X01179Y02358D01*
D02*
G37*
G36*
X01171D02*
X01167D01*
X01157Y02355D01*
X01147Y0235D01*
X01139Y02342D01*
X01133Y02332D01*
X0113Y02321D01*
Y02318D01*
X01171D01*
Y02358D01*
D02*
G37*
G36*
X0323Y02361D02*
X0322D01*
X03211Y02359D01*
X03203Y02354D01*
X03196Y02347D01*
X03191Y02339D01*
X03189Y0233D01*
Y0232D01*
X03191Y02311D01*
X03196Y02303D01*
X03203Y02296D01*
X03211Y02291D01*
X0322Y02289D01*
X0323D01*
X03239Y02291D01*
X03247Y02296D01*
X03254Y02303D01*
X03259Y02311D01*
X03261Y0232D01*
Y0233D01*
X03259Y02339D01*
X03254Y02347D01*
X03247Y02354D01*
X03239Y02359D01*
X0323Y02361D01*
D02*
G37*
G36*
X01367Y02358D02*
X01355D01*
X01345Y02355D01*
X01335Y0235D01*
X01327Y02342D01*
X01321Y02332D01*
X01319Y02321D01*
Y0231D01*
X01321Y02299D01*
X01327Y02289D01*
X01335Y02281D01*
X01345Y02276D01*
X01355Y02273D01*
X01367D01*
X01377Y02276D01*
X01387Y02281D01*
X01395Y02289D01*
X01401Y02299D01*
X01403Y0231D01*
Y02321D01*
X01401Y02332D01*
X01395Y02342D01*
X01387Y0235D01*
X01377Y02355D01*
X01367Y02358D01*
D02*
G37*
G36*
X01215Y02313D02*
X01176D01*
Y02273D01*
X01179D01*
X01189Y02276D01*
X01199Y02281D01*
X01207Y02289D01*
X01213Y02299D01*
X01215Y0231D01*
Y02313D01*
D02*
G37*
G36*
X01171D02*
X0113D01*
Y0231D01*
X01133Y02299D01*
X01139Y02289D01*
X01147Y02281D01*
X01157Y02276D01*
X01167Y02273D01*
X01171D01*
Y02313D01*
D02*
G37*
G36*
X0323Y02261D02*
X0322D01*
X03211Y02259D01*
X03203Y02254D01*
X03196Y02247D01*
X03191Y02239D01*
X03189Y0223D01*
Y0222D01*
X03191Y02211D01*
X03196Y02203D01*
X03203Y02196D01*
X03211Y02191D01*
X0322Y02189D01*
X0323D01*
X03239Y02191D01*
X03247Y02196D01*
X03254Y02203D01*
X03259Y02211D01*
X03261Y0222D01*
Y0223D01*
X03259Y02239D01*
X03254Y02247D01*
X03247Y02254D01*
X03239Y02259D01*
X0323Y02261D01*
D02*
G37*
G36*
X01616Y02135D02*
X01604D01*
X01594Y02132D01*
X01584Y02126D01*
X01576Y02119D01*
X0157Y02109D01*
X01567Y02098D01*
Y02087D01*
X0157Y02076D01*
X01576Y02066D01*
X01584Y02058D01*
X01594Y02053D01*
X01604Y0205D01*
X01616D01*
X01626Y02053D01*
X01636Y02058D01*
X01644Y02066D01*
X0165Y02076D01*
X01653Y02087D01*
Y02098D01*
X0165Y02109D01*
X01644Y02119D01*
X01636Y02126D01*
X01626Y02132D01*
X01616Y02135D01*
D02*
G37*
G36*
X01179Y02087D02*
X01176D01*
Y02047D01*
X01215D01*
Y0205D01*
X01213Y02061D01*
X01207Y02071D01*
X01199Y02079D01*
X01189Y02084D01*
X01179Y02087D01*
D02*
G37*
G36*
X01171D02*
X01167D01*
X01157Y02084D01*
X01147Y02079D01*
X01139Y02071D01*
X01133Y02061D01*
X0113Y0205D01*
Y02047D01*
X01171D01*
Y02087D01*
D02*
G37*
G36*
X01367D02*
X01355D01*
X01345Y02084D01*
X01335Y02079D01*
X01327Y02071D01*
X01321Y02061D01*
X01319Y0205D01*
Y02039D01*
X01321Y02028D01*
X01327Y02018D01*
X01335Y0201D01*
X01345Y02005D01*
X01355Y02002D01*
X01367D01*
X01377Y02005D01*
X01387Y0201D01*
X01395Y02018D01*
X01401Y02028D01*
X01403Y02039D01*
Y0205D01*
X01401Y02061D01*
X01395Y02071D01*
X01387Y02079D01*
X01377Y02084D01*
X01367Y02087D01*
D02*
G37*
G36*
X01215Y02042D02*
X01176D01*
Y02002D01*
X01179D01*
X01189Y02005D01*
X01199Y0201D01*
X01207Y02018D01*
X01213Y02028D01*
X01215Y02039D01*
Y02042D01*
D02*
G37*
G36*
X01171D02*
X0113D01*
Y02039D01*
X01133Y02028D01*
X01139Y02018D01*
X01147Y0201D01*
X01157Y02005D01*
X01167Y02002D01*
X01171D01*
Y02042D01*
D02*
G37*
G36*
X0323Y02011D02*
X03227D01*
Y01977D01*
X03261D01*
Y0198D01*
X03259Y01989D01*
X03254Y01997D01*
X03247Y02004D01*
X03239Y02009D01*
X0323Y02011D01*
D02*
G37*
G36*
X03223D02*
X0322D01*
X03211Y02009D01*
X03203Y02004D01*
X03196Y01997D01*
X03191Y01989D01*
X03189Y0198D01*
Y01977D01*
X03223D01*
Y02011D01*
D02*
G37*
G36*
X03261Y01972D02*
X03227D01*
Y01939D01*
X0323D01*
X03239Y01941D01*
X03247Y01946D01*
X03254Y01953D01*
X03259Y01961D01*
X03261Y0197D01*
Y01972D01*
D02*
G37*
G36*
X03223D02*
X03189D01*
Y0197D01*
X03191Y01961D01*
X03196Y01953D01*
X03203Y01946D01*
X03211Y01941D01*
X0322Y01939D01*
X03223D01*
Y01972D01*
D02*
G37*
G36*
X02775Y01956D02*
X02765D01*
X02756Y01954D01*
X02748Y01949D01*
X02741Y01942D01*
X02736Y01934D01*
X02734Y01925D01*
Y01915D01*
X02736Y01906D01*
X02741Y01898D01*
X02748Y01891D01*
X02756Y01886D01*
X02765Y01884D01*
X02775D01*
X02784Y01886D01*
X02792Y01891D01*
X02799Y01898D01*
X02804Y01906D01*
X02806Y01915D01*
Y01925D01*
X02804Y01934D01*
X02799Y01942D01*
X02792Y01949D01*
X02784Y01954D01*
X02775Y01956D01*
D02*
G37*
G36*
X01616Y01942D02*
X01604D01*
X01594Y01939D01*
X01584Y01934D01*
X01576Y01926D01*
X0157Y01916D01*
X01567Y01905D01*
Y01894D01*
X0157Y01883D01*
X01576Y01873D01*
X01584Y01866D01*
X01594Y0186D01*
X01604Y01857D01*
X01616D01*
X01626Y0186D01*
X01636Y01866D01*
X01644Y01873D01*
X0165Y01883D01*
X01653Y01894D01*
Y01905D01*
X0165Y01916D01*
X01644Y01926D01*
X01636Y01934D01*
X01626Y01939D01*
X01616Y01942D01*
D02*
G37*
G36*
X0323Y01911D02*
X0322D01*
X03211Y01909D01*
X03203Y01904D01*
X03196Y01897D01*
X03191Y01889D01*
X03189Y0188D01*
Y0187D01*
X03191Y01861D01*
X03196Y01853D01*
X03203Y01846D01*
X03211Y01841D01*
X0322Y01839D01*
X0323D01*
X03239Y01841D01*
X03247Y01846D01*
X03254Y01853D01*
X03259Y01861D01*
X03261Y0187D01*
Y0188D01*
X03259Y01889D01*
X03254Y01897D01*
X03247Y01904D01*
X03239Y01909D01*
X0323Y01911D01*
D02*
G37*
G36*
X01161Y01861D02*
X01128D01*
Y01827D01*
X01161D01*
Y01861D01*
D02*
G37*
G36*
Y01822D02*
X01128D01*
Y01789D01*
X01161D01*
Y01822D01*
D02*
G37*
G36*
X02238Y02372D02*
X02232D01*
X02225Y02369D01*
X02221Y02365D01*
X02218Y02358D01*
Y02352D01*
X02221Y02345D01*
X02222Y02344D01*
X02223Y02343D01*
X02223Y02342D01*
X02223Y02342D01*
X02224Y02342D01*
X02224Y02341D01*
X02224Y02341D01*
X02224Y0234D01*
X02224Y0234D01*
X02224Y02339D01*
X02225Y02338D01*
X02225Y02337D01*
X02225Y02337D01*
Y02315D01*
X02226Y02311D01*
X02228Y02308D01*
X0259Y01946D01*
Y0185D01*
X02591Y01846D01*
X02593Y01843D01*
X02616Y01819D01*
X0262Y01817D01*
X02622Y01817D01*
X02623Y01816D01*
X02625Y01816D01*
X02626Y01816D01*
X02628Y01815D01*
X02629Y01815D01*
X0263Y01814D01*
X02631Y01813D01*
X02633Y01811D01*
X02634Y0181D01*
X02635Y01808D01*
X02636Y01805D01*
X02637Y01805D01*
X02637Y01804D01*
X02637Y01804D01*
X02641Y01798D01*
X02648Y01791D01*
X02656Y01786D01*
X02665Y01784D01*
X02675D01*
X02684Y01786D01*
X02692Y01791D01*
X02699Y01798D01*
X02704Y01806D01*
X02706Y01815D01*
Y01825D01*
X02704Y01834D01*
X02699Y01842D01*
X02692Y01849D01*
X02684Y01854D01*
X02675Y01856D01*
X02665D01*
X02656Y01854D01*
X02648Y01849D01*
X02646Y01848D01*
X02646Y01848D01*
X02645Y01847D01*
X02645Y01847D01*
X02643Y01845D01*
X0264Y01843D01*
X02638Y01842D01*
X02636Y0184D01*
X02634Y01839D01*
X02632Y01838D01*
X0263Y01838D01*
X02628Y01837D01*
X02627Y01837D01*
X0261Y01854D01*
Y0195D01*
X02609Y01954D01*
X02607Y01957D01*
X02245Y02319D01*
Y02337D01*
X02245Y02337D01*
X02245Y02338D01*
X02246Y02339D01*
X02246Y0234D01*
X02246Y0234D01*
X02246Y02341D01*
X02246Y02341D01*
X02246Y02342D01*
X02247Y02342D01*
X02247Y02342D01*
X02247Y02343D01*
X02248Y02344D01*
X02249Y02345D01*
X02252Y02352D01*
Y02358D01*
X02249Y02365D01*
X02245Y02369D01*
X02238Y02372D01*
D02*
G37*
G36*
X0323Y01811D02*
X0322D01*
X03211Y01809D01*
X03203Y01804D01*
X03196Y01797D01*
X03191Y01789D01*
X03189Y0178D01*
Y0177D01*
X03191Y01761D01*
X03196Y01753D01*
X03203Y01746D01*
X03211Y01741D01*
X0322Y01739D01*
X0323D01*
X03239Y01741D01*
X03247Y01746D01*
X03254Y01753D01*
X03259Y01761D01*
X03261Y0177D01*
Y0178D01*
X03259Y01789D01*
X03254Y01797D01*
X03247Y01804D01*
X03239Y01809D01*
X0323Y01811D01*
D02*
G37*
G36*
X02775Y01756D02*
X02773D01*
Y01722D01*
X02806D01*
Y01725D01*
X02804Y01734D01*
X02799Y01742D01*
X02792Y01749D01*
X02784Y01754D01*
X02775Y01756D01*
D02*
G37*
G36*
X02675D02*
X02672D01*
Y01722D01*
X02706D01*
Y01725D01*
X02704Y01734D01*
X02699Y01742D01*
X02692Y01749D01*
X02684Y01754D01*
X02675Y01756D01*
D02*
G37*
G36*
X02767D02*
X02765D01*
X02756Y01754D01*
X02748Y01749D01*
X02741Y01742D01*
X02736Y01734D01*
X02734Y01725D01*
Y01722D01*
X02767D01*
Y01756D01*
D02*
G37*
G36*
X02668D02*
X02665D01*
X02656Y01754D01*
X02648Y01749D01*
X02641Y01742D01*
X02636Y01734D01*
X02634Y01725D01*
Y01722D01*
X02668D01*
Y01756D01*
D02*
G37*
G36*
X02806Y01717D02*
X02773D01*
Y01684D01*
X02775D01*
X02784Y01686D01*
X02792Y01691D01*
X02799Y01698D01*
X02804Y01706D01*
X02806Y01715D01*
Y01717D01*
D02*
G37*
G36*
X02767D02*
X02734D01*
Y01715D01*
X02736Y01706D01*
X02741Y01698D01*
X02748Y01691D01*
X02756Y01686D01*
X02765Y01684D01*
X02767D01*
Y01717D01*
D02*
G37*
G36*
X02706D02*
X02672D01*
Y01684D01*
X02675D01*
X02684Y01686D01*
X02692Y01691D01*
X02699Y01698D01*
X02704Y01706D01*
X02706Y01715D01*
Y01717D01*
D02*
G37*
G36*
X02668D02*
X02634D01*
Y01715D01*
X02636Y01706D01*
X02641Y01698D01*
X02648Y01691D01*
X02656Y01686D01*
X02665Y01684D01*
X02668D01*
Y01717D01*
D02*
G37*
G36*
X03261Y01711D02*
X03189D01*
Y01639D01*
X03261D01*
Y01711D01*
D02*
G37*
G36*
X01656Y01668D02*
X01653D01*
Y01628D01*
X01692D01*
Y01631D01*
X0169Y01641D01*
X01684Y01651D01*
X01676Y01659D01*
X01666Y01665D01*
X01656Y01668D01*
D02*
G37*
G36*
X01648D02*
X01644D01*
X01634Y01665D01*
X01624Y01659D01*
X01616Y01651D01*
X0161Y01641D01*
X01607Y01631D01*
Y01628D01*
X01648D01*
Y01668D01*
D02*
G37*
G36*
X0113Y01661D02*
X0112D01*
X01111Y01659D01*
X01103Y01654D01*
X01096Y01647D01*
X01091Y01639D01*
X01089Y0163D01*
Y0162D01*
X01091Y01611D01*
X01096Y01603D01*
X01103Y01596D01*
X01111Y01591D01*
X0112Y01589D01*
X0113D01*
X01139Y01591D01*
X01147Y01596D01*
X01154Y01603D01*
X01159Y01611D01*
X01161Y0162D01*
Y0163D01*
X01159Y01639D01*
X01154Y01647D01*
X01147Y01654D01*
X01139Y01659D01*
X0113Y01661D01*
D02*
G37*
G36*
X01844Y01668D02*
X01832D01*
X01822Y01665D01*
X01812Y01659D01*
X01804Y01651D01*
X01798Y01641D01*
X01796Y01631D01*
Y01619D01*
X01798Y01609D01*
X01804Y01599D01*
X01812Y01591D01*
X01822Y01585D01*
X01832Y01582D01*
X01844D01*
X01854Y01585D01*
X01864Y01591D01*
X01872Y01599D01*
X01878Y01609D01*
X0188Y01619D01*
Y01631D01*
X01878Y01641D01*
X01872Y01651D01*
X01864Y01659D01*
X01854Y01665D01*
X01844Y01668D01*
D02*
G37*
G36*
X01692Y01622D02*
X01653D01*
Y01582D01*
X01656D01*
X01666Y01585D01*
X01676Y01591D01*
X01684Y01599D01*
X0169Y01609D01*
X01692Y01619D01*
Y01622D01*
D02*
G37*
G36*
X01648D02*
X01607D01*
Y01619D01*
X0161Y01609D01*
X01616Y01599D01*
X01624Y01591D01*
X01634Y01585D01*
X01644Y01582D01*
X01648D01*
Y01622D01*
D02*
G37*
G36*
X02775Y01856D02*
X02765D01*
X02756Y01854D01*
X02748Y01849D01*
X02741Y01842D01*
X02736Y01834D01*
X02734Y01825D01*
Y01815D01*
X02736Y01806D01*
X02741Y01798D01*
X02748Y01791D01*
X02756Y01786D01*
X02765Y01784D01*
X02775D01*
X02784Y01786D01*
X02792Y01791D01*
X02795Y01794D01*
X02796Y01794D01*
X02799Y01797D01*
X02805Y01802D01*
X02808Y01804D01*
X02811Y01806D01*
X02813Y01807D01*
X02815Y01808D01*
X02817Y01809D01*
X02819Y01809D01*
X0282Y0181D01*
X02821Y0181D01*
X02856D01*
X0287Y01796D01*
Y01639D01*
X02806Y01575D01*
X02244D01*
X02244Y01575D01*
X02243Y01575D01*
X02242Y01576D01*
X02241Y01576D01*
X02241Y01576D01*
X0224Y01576D01*
X0224Y01576D01*
X02239Y01576D01*
X02239Y01577D01*
X02239Y01577D01*
X02238Y01577D01*
X02237Y01578D01*
X02236Y01579D01*
X02229Y01582D01*
X02223D01*
X02216Y01579D01*
X02212Y01575D01*
X02209Y01568D01*
Y01562D01*
X02212Y01555D01*
X02216Y01551D01*
X02223Y01548D01*
X02229D01*
X02236Y01551D01*
X02237Y01552D01*
X02238Y01553D01*
X02239Y01553D01*
X02239Y01553D01*
X02239Y01554D01*
X0224Y01554D01*
X0224Y01554D01*
X02241Y01554D01*
X02241Y01554D01*
X02242Y01554D01*
X02243Y01555D01*
X02244Y01555D01*
X02244Y01555D01*
X0281D01*
X02814Y01556D01*
X02817Y01558D01*
X02887Y01628D01*
X02889Y01631D01*
X0289Y01635D01*
Y018D01*
X02889Y01804D01*
X02887Y01807D01*
X02867Y01827D01*
X02864Y01829D01*
X0286Y0183D01*
X02821D01*
X0282Y0183D01*
X02819Y01831D01*
X02817Y01831D01*
X02815Y01832D01*
X02813Y01833D01*
X02811Y01834D01*
X02808Y01836D01*
X02805Y01838D01*
X02799Y01843D01*
X02796Y01846D01*
X02795Y01846D01*
X02792Y01849D01*
X02784Y01854D01*
X02775Y01856D01*
D02*
G37*
G36*
X0113Y01561D02*
X0112D01*
X01111Y01559D01*
X01103Y01554D01*
X01096Y01547D01*
X01091Y01539D01*
X01089Y0153D01*
Y0152D01*
X01091Y01511D01*
X01096Y01503D01*
X01103Y01496D01*
X01111Y01491D01*
X0112Y01489D01*
X0113D01*
X01139Y01491D01*
X01147Y01496D01*
X01154Y01503D01*
X01159Y01511D01*
X01161Y0152D01*
Y0153D01*
X01159Y01539D01*
X01154Y01547D01*
X01147Y01554D01*
X01139Y01559D01*
X0113Y01561D01*
D02*
G37*
G36*
X01656Y01396D02*
X01653D01*
Y01357D01*
X01692D01*
Y0136D01*
X0169Y0137D01*
X01684Y0138D01*
X01676Y01388D01*
X01666Y01394D01*
X01656Y01396D01*
D02*
G37*
G36*
X01648D02*
X01644D01*
X01634Y01394D01*
X01624Y01388D01*
X01616Y0138D01*
X0161Y0137D01*
X01607Y0136D01*
Y01357D01*
X01648D01*
Y01396D01*
D02*
G37*
G36*
X01844D02*
X01832D01*
X01822Y01394D01*
X01812Y01388D01*
X01804Y0138D01*
X01798Y0137D01*
X01796Y0136D01*
Y01348D01*
X01798Y01338D01*
X01804Y01328D01*
X01812Y0132D01*
X01822Y01314D01*
X01832Y01311D01*
X01844D01*
X01854Y01314D01*
X01864Y0132D01*
X01872Y01328D01*
X01878Y01338D01*
X0188Y01348D01*
Y0136D01*
X01878Y0137D01*
X01872Y0138D01*
X01864Y01388D01*
X01854Y01394D01*
X01844Y01396D01*
D02*
G37*
G36*
X01692Y01352D02*
X01653D01*
Y01311D01*
X01656D01*
X01666Y01314D01*
X01676Y0132D01*
X01684Y01328D01*
X0169Y01338D01*
X01692Y01348D01*
Y01352D01*
D02*
G37*
G36*
X01648D02*
X01607D01*
Y01348D01*
X0161Y01338D01*
X01616Y01328D01*
X01624Y0132D01*
X01634Y01314D01*
X01644Y01311D01*
X01648D01*
Y01352D01*
D02*
G37*
G36*
X03158Y01284D02*
X03152D01*
Y01202D01*
X03234D01*
Y01208D01*
X03231Y01224D01*
X03224Y0124D01*
X03215Y01253D01*
X03203Y01265D01*
X0319Y01274D01*
X03174Y01281D01*
X03158Y01284D01*
D02*
G37*
G36*
X03148D02*
X03142D01*
X03126Y01281D01*
X0311Y01274D01*
X03097Y01265D01*
X03085Y01253D01*
X03076Y0124D01*
X03069Y01224D01*
X03066Y01208D01*
Y01202D01*
X03148D01*
Y01284D01*
D02*
G37*
G36*
X01208D02*
X01202D01*
Y01202D01*
X01284D01*
Y01208D01*
X01281Y01224D01*
X01274Y0124D01*
X01265Y01253D01*
X01253Y01265D01*
X0124Y01274D01*
X01224Y01281D01*
X01208Y01284D01*
D02*
G37*
G36*
X01197D02*
X01192D01*
X01176Y01281D01*
X0116Y01274D01*
X01147Y01265D01*
X01135Y01253D01*
X01126Y0124D01*
X01119Y01224D01*
X01116Y01208D01*
Y01202D01*
X01197D01*
Y01284D01*
D02*
G37*
G36*
X02885Y01176D02*
X02882D01*
Y01143D01*
X02916D01*
Y01145D01*
X02914Y01154D01*
X02909Y01162D01*
X02902Y01169D01*
X02894Y01174D01*
X02885Y01176D01*
D02*
G37*
G36*
X02878D02*
X02875D01*
X02866Y01174D01*
X02858Y01169D01*
X02851Y01162D01*
X02846Y01154D01*
X02844Y01145D01*
Y01143D01*
X02878D01*
Y01176D01*
D02*
G37*
G36*
X03234Y01197D02*
X03152D01*
Y01116D01*
X03158D01*
X03174Y01119D01*
X0319Y01126D01*
X03203Y01135D01*
X03215Y01147D01*
X03224Y0116D01*
X03231Y01176D01*
X03234Y01192D01*
Y01197D01*
D02*
G37*
G36*
X03148D02*
X03066D01*
Y01192D01*
X03069Y01176D01*
X03076Y0116D01*
X03085Y01147D01*
X03097Y01135D01*
X0311Y01126D01*
X03126Y01119D01*
X03142Y01116D01*
X03148D01*
Y01197D01*
D02*
G37*
G36*
X01284D02*
X01202D01*
Y01116D01*
X01208D01*
X01224Y01119D01*
X0124Y01126D01*
X01253Y01135D01*
X01265Y01147D01*
X01274Y0116D01*
X01281Y01176D01*
X01284Y01192D01*
Y01197D01*
D02*
G37*
G36*
X01197D02*
X01116D01*
Y01192D01*
X01119Y01176D01*
X01126Y0116D01*
X01135Y01147D01*
X01147Y01135D01*
X0116Y01126D01*
X01176Y01119D01*
X01192Y01116D01*
X01197D01*
Y01197D01*
D02*
G37*
G36*
X02916Y01138D02*
X02882D01*
Y01104D01*
X02885D01*
X02894Y01106D01*
X02902Y01111D01*
X02909Y01118D01*
X02914Y01126D01*
X02916Y01135D01*
Y01138D01*
D02*
G37*
G36*
X02878D02*
X02844D01*
Y01135D01*
X02846Y01126D01*
X02851Y01118D01*
X02858Y01111D01*
X02866Y01106D01*
X02875Y01104D01*
X02878D01*
Y01138D01*
D02*
G37*
G36*
X02685Y01176D02*
X02675D01*
X02666Y01174D01*
X02658Y01169D01*
X02651Y01162D01*
X02646Y01154D01*
X02644Y01145D01*
Y01135D01*
X02646Y01126D01*
X02651Y01118D01*
X02658Y01111D01*
X02666Y01106D01*
X02675Y01104D01*
X02685D01*
X02694Y01106D01*
X02702Y01111D01*
X02709Y01118D01*
X02714Y01126D01*
X02716Y01135D01*
Y01145D01*
X02714Y01154D01*
X02709Y01162D01*
X02702Y01169D01*
X02694Y01174D01*
X02685Y01176D01*
D02*
G37*
G36*
X02616D02*
X02544D01*
Y01104D01*
X02616D01*
Y01176D01*
D02*
G37*
G36*
X02376D02*
X02304D01*
Y01104D01*
X02376D01*
Y01176D01*
D02*
G37*
G36*
X02245D02*
X02235D01*
X02226Y01174D01*
X02218Y01169D01*
X02211Y01162D01*
X02206Y01154D01*
X02204Y01145D01*
Y01135D01*
X02206Y01126D01*
X02211Y01118D01*
X02218Y01111D01*
X02226Y01106D01*
X02235Y01104D01*
X02245D01*
X02254Y01106D01*
X02262Y01111D01*
X02269Y01118D01*
X02274Y01126D01*
X02276Y01135D01*
Y01145D01*
X02274Y01154D01*
X02269Y01162D01*
X02262Y01169D01*
X02254Y01174D01*
X02245Y01176D01*
D02*
G37*
G36*
X02145D02*
X02135D01*
X02126Y01174D01*
X02118Y01169D01*
X02111Y01162D01*
X02106Y01154D01*
X02104Y01145D01*
Y01135D01*
X02106Y01126D01*
X02111Y01118D01*
X02118Y01111D01*
X02126Y01106D01*
X02135Y01104D01*
X02145D01*
X02154Y01106D01*
X02162Y01111D01*
X02169Y01118D01*
X02174Y01126D01*
X02176Y01135D01*
Y01145D01*
X02174Y01154D01*
X02169Y01162D01*
X02162Y01169D01*
X02154Y01174D01*
X02145Y01176D01*
D02*
G37*
G36*
X02045D02*
X02035D01*
X02026Y01174D01*
X02018Y01169D01*
X02011Y01162D01*
X02006Y01154D01*
X02004Y01145D01*
Y01135D01*
X02006Y01126D01*
X02011Y01118D01*
X02018Y01111D01*
X02026Y01106D01*
X02035Y01104D01*
X02045D01*
X02054Y01106D01*
X02062Y01111D01*
X02069Y01118D01*
X02074Y01126D01*
X02076Y01135D01*
Y01145D01*
X02074Y01154D01*
X02069Y01162D01*
X02062Y01169D01*
X02054Y01174D01*
X02045Y01176D01*
D02*
G37*
G36*
X01945D02*
X01935D01*
X01926Y01174D01*
X01918Y01169D01*
X01911Y01162D01*
X01906Y01154D01*
X01904Y01145D01*
Y01135D01*
X01906Y01126D01*
X01911Y01118D01*
X01918Y01111D01*
X01926Y01106D01*
X01935Y01104D01*
X01945D01*
X01954Y01106D01*
X01962Y01111D01*
X01969Y01118D01*
X01974Y01126D01*
X01976Y01135D01*
Y01145D01*
X01974Y01154D01*
X01969Y01162D01*
X01962Y01169D01*
X01954Y01174D01*
X01945Y01176D01*
D02*
G37*
G36*
X01845D02*
X01835D01*
X01826Y01174D01*
X01818Y01169D01*
X01811Y01162D01*
X01806Y01154D01*
X01804Y01145D01*
Y01135D01*
X01806Y01126D01*
X01811Y01118D01*
X01818Y01111D01*
X01826Y01106D01*
X01835Y01104D01*
X01845D01*
X01854Y01106D01*
X01862Y01111D01*
X01869Y01118D01*
X01874Y01126D01*
X01876Y01135D01*
Y01145D01*
X01874Y01154D01*
X01869Y01162D01*
X01862Y01169D01*
X01854Y01174D01*
X01845Y01176D01*
D02*
G37*
G36*
X01745D02*
X01735D01*
X01726Y01174D01*
X01718Y01169D01*
X01711Y01162D01*
X01706Y01154D01*
X01704Y01145D01*
Y01135D01*
X01706Y01126D01*
X01711Y01118D01*
X01718Y01111D01*
X01726Y01106D01*
X01735Y01104D01*
X01745D01*
X01754Y01106D01*
X01762Y01111D01*
X01769Y01118D01*
X01774Y01126D01*
X01776Y01135D01*
Y01145D01*
X01774Y01154D01*
X01769Y01162D01*
X01762Y01169D01*
X01754Y01174D01*
X01745Y01176D01*
D02*
G37*
G36*
X01645D02*
X01635D01*
X01626Y01174D01*
X01618Y01169D01*
X01611Y01162D01*
X01606Y01154D01*
X01604Y01145D01*
Y01135D01*
X01606Y01126D01*
X01611Y01118D01*
X01618Y01111D01*
X01626Y01106D01*
X01635Y01104D01*
X01645D01*
X01654Y01106D01*
X01662Y01111D01*
X01669Y01118D01*
X01674Y01126D01*
X01676Y01135D01*
Y01145D01*
X01674Y01154D01*
X01669Y01162D01*
X01662Y01169D01*
X01654Y01174D01*
X01645Y01176D01*
D02*
G37*
G36*
X01545D02*
X01535D01*
X01526Y01174D01*
X01518Y01169D01*
X01511Y01162D01*
X01506Y01154D01*
X01504Y01145D01*
Y01135D01*
X01506Y01126D01*
X01511Y01118D01*
X01518Y01111D01*
X01526Y01106D01*
X01535Y01104D01*
X01545D01*
X01554Y01106D01*
X01562Y01111D01*
X01569Y01118D01*
X01574Y01126D01*
X01576Y01135D01*
Y01145D01*
X01574Y01154D01*
X01569Y01162D01*
X01562Y01169D01*
X01554Y01174D01*
X01545Y01176D01*
D02*
G37*
G36*
X01445D02*
X01435D01*
X01426Y01174D01*
X01418Y01169D01*
X01411Y01162D01*
X01406Y01154D01*
X01404Y01145D01*
Y01135D01*
X01406Y01126D01*
X01411Y01118D01*
X01418Y01111D01*
X01426Y01106D01*
X01435Y01104D01*
X01445D01*
X01454Y01106D01*
X01462Y01111D01*
X01469Y01118D01*
X01474Y01126D01*
X01476Y01135D01*
Y01145D01*
X01474Y01154D01*
X01469Y01162D01*
X01462Y01169D01*
X01454Y01174D01*
X01445Y01176D01*
D02*
G37*
%LPD*%
G36*
X02595Y0326D02*
X02597Y03258D01*
X02599Y03256D01*
X02602Y03255D01*
X02604Y03254D01*
X02607Y03253D01*
X0261Y03252D01*
X02613Y03252D01*
X02616Y03252D01*
X0262Y03251D01*
X02589Y0322D01*
X02588Y03224D01*
X02588Y03227D01*
X02588Y0323D01*
X02587Y03233D01*
X02586Y03236D01*
X02585Y03238D01*
X02584Y03241D01*
X02582Y03243D01*
X0258Y03245D01*
X02578Y03247D01*
X02593Y03262D01*
X02595Y0326D01*
D02*
G37*
G36*
X0252Y03189D02*
X02517Y03188D01*
X02514Y03188D01*
X02512Y03188D01*
X02509Y03187D01*
X02507Y03186D01*
X02504Y03185D01*
X02502Y03183D01*
X025Y03181D01*
X02497Y03179D01*
X02495Y03177D01*
X02477Y03195D01*
X02479Y03197D01*
X02481Y032D01*
X02483Y03202D01*
X02485Y03204D01*
X02486Y03207D01*
X02487Y03209D01*
X02488Y03212D01*
X02488Y03214D01*
X02488Y03217D01*
X02489Y0322D01*
X0252Y03189D01*
D02*
G37*
G36*
X0268Y01968D02*
X0268Y01964D01*
X02681Y01961D01*
X02682Y01958D01*
X02682Y01956D01*
X02684Y01954D01*
X02685Y01953D01*
X02686Y01952D01*
X02688Y01951D01*
X0269Y01951D01*
X0265D01*
X02652Y01951D01*
X02654Y01952D01*
X02655Y01953D01*
X02656Y01954D01*
X02658Y01956D01*
X02658Y01958D01*
X02659Y01961D01*
X0266Y01964D01*
X0266Y01968D01*
X0266Y01971D01*
X0268D01*
X0268Y01968D01*
D02*
G37*
G36*
X02823Y01165D02*
X02821Y01163D01*
X02819Y0116D01*
X02817Y01158D01*
X02815Y01156D01*
X02814Y01153D01*
X02813Y01151D01*
X02812Y01148D01*
X02812Y01146D01*
X02812Y01143D01*
X02811Y0114D01*
X0278Y01171D01*
X02783Y01172D01*
X02786Y01172D01*
X02788Y01172D01*
X02791Y01173D01*
X02793Y01174D01*
X02796Y01175D01*
X02798Y01177D01*
X028Y01179D01*
X02803Y01181D01*
X02805Y01183D01*
X02823Y01165D01*
D02*
G37*
G36*
X0216Y03196D02*
X02159Y03194D01*
X02157Y03191D01*
X02156Y03189D01*
X02155Y03187D01*
X02154Y03184D01*
X02153Y03181D01*
X02153Y03178D01*
X02153Y03175D01*
X02152Y03172D01*
X02128D01*
X02127Y03175D01*
X02127Y03178D01*
X02127Y03181D01*
X02126Y03184D01*
X02125Y03187D01*
X02124Y03189D01*
X02123Y03191D01*
X02121Y03194D01*
X0212Y03196D01*
X02118Y03198D01*
X02162D01*
X0216Y03196D01*
D02*
G37*
G36*
X01125Y02694D02*
X01122Y02693D01*
X01119Y02693D01*
X01117Y02693D01*
X01114Y02692D01*
X01112Y02691D01*
X01109Y0269D01*
X01107Y02688D01*
X01105Y02686D01*
X01102Y02684D01*
X011Y02682D01*
X01082Y027D01*
X01084Y02702D01*
X01086Y02705D01*
X01088Y02707D01*
X0109Y02709D01*
X01091Y02712D01*
X01092Y02714D01*
X01093Y02717D01*
X01093Y02719D01*
X01093Y02722D01*
X01094Y02725D01*
X01125Y02694D01*
D02*
G37*
G36*
X01102Y01766D02*
X01105Y01764D01*
X01107Y01762D01*
X01109Y0176D01*
X01112Y01759D01*
X01114Y01758D01*
X01117Y01757D01*
X01119Y01757D01*
X01122Y01757D01*
X01125Y01756D01*
X01094Y01725D01*
X01093Y01728D01*
X01093Y01731D01*
X01093Y01733D01*
X01092Y01736D01*
X01091Y01738D01*
X0109Y01741D01*
X01088Y01743D01*
X01086Y01745D01*
X01084Y01748D01*
X01082Y0175D01*
X011Y01768D01*
X01102Y01766D01*
D02*
G37*
G36*
X02243Y02346D02*
X02242Y02345D01*
X02242Y02344D01*
X02241Y02344D01*
X02241Y02343D01*
X02241Y02342D01*
X0224Y02341D01*
X0224Y0234D01*
X0224Y02338D01*
X0224Y02337D01*
X0223D01*
X0223Y02338D01*
X0223Y0234D01*
X0223Y02341D01*
X02229Y02342D01*
X02229Y02343D01*
X02229Y02344D01*
X02228Y02344D01*
X02228Y02345D01*
X02227Y02346D01*
X02227Y02347D01*
X02243D01*
X02243Y02346D01*
D02*
G37*
G36*
X02641Y01807D02*
X0264Y0181D01*
X02638Y01812D01*
X02637Y01815D01*
X02635Y01816D01*
X02634Y01818D01*
X02632Y01819D01*
X0263Y0182D01*
X02628Y01821D01*
X02626Y01821D01*
X02624Y01821D01*
Y01831D01*
X02626Y01832D01*
X02628Y01832D01*
X02631Y01833D01*
X02634Y01833D01*
X02636Y01834D01*
X02639Y01836D01*
X02641Y01837D01*
X02644Y01839D01*
X02646Y01841D01*
X02649Y01843D01*
X02641Y01807D01*
D02*
G37*
G36*
X02796Y01839D02*
X02802Y01833D01*
X02805Y01831D01*
X02808Y01829D01*
X0281Y01828D01*
X02813Y01827D01*
X02815Y01826D01*
X02818Y01825D01*
X0282Y01825D01*
Y01815D01*
X02818Y01815D01*
X02815Y01814D01*
X02813Y01813D01*
X0281Y01812D01*
X02808Y01811D01*
X02805Y01809D01*
X02802Y01807D01*
X02796Y01801D01*
X02792Y01798D01*
Y01842D01*
X02796Y01839D01*
D02*
G37*
G36*
X02235Y01573D02*
X02236Y01572D01*
X02237Y01572D01*
X02237Y01571D01*
X02238Y01571D01*
X02239Y01571D01*
X0224Y0157D01*
X02241Y0157D01*
X02243Y0157D01*
X02244Y0157D01*
Y0156D01*
X02243Y0156D01*
X02241Y0156D01*
X0224Y0156D01*
X02239Y01559D01*
X02238Y01559D01*
X02237Y01559D01*
X02237Y01558D01*
X02236Y01558D01*
X02235Y01557D01*
X02234Y01557D01*
Y01573D01*
X02235Y01573D01*
D02*
G37*
D15*
X02467Y02393D02*
X02965Y01895D01*
X02467Y02393D02*
Y02713D01*
X02465Y02715D02*
X02467Y02713D01*
X02965Y01325D02*
Y01895D01*
X02465Y03165D02*
X0252Y0322D01*
X02465Y02715D02*
Y03165D01*
X01076Y01774D02*
X01125Y01725D01*
X01076Y01774D02*
Y02676D01*
X01125Y02725D01*
X0194Y0288D02*
X0214Y0308D01*
Y0322D01*
X0278Y0114D02*
X02965Y01325D01*
D17*
X02235Y02315D02*
X026Y0195D01*
Y0185D02*
Y0195D01*
X02235Y02315D02*
Y02355D01*
X0222Y01565D02*
X0281D01*
X0277Y0182D02*
X0286D01*
X02624Y01826D02*
X02664D01*
X026Y0185D02*
X02624Y01826D01*
X02664D02*
X0267Y0182D01*
X0288Y01635D02*
Y018D01*
X0286Y0182D02*
X0288Y018D01*
X0281Y01565D02*
X0288Y01635D01*
D41*
X022Y0257D02*
X0267Y021D01*
Y0192D02*
Y021D01*
X02501Y03266D02*
X02574D01*
X022Y0257D02*
Y02966D01*
X02574Y03266D02*
X0262Y0322D01*
X022Y02966D02*
X02501Y03266D01*
D42*
X01361Y02045D02*
D03*
X01173Y02316D02*
D03*
X01361D02*
D03*
X01173Y02045D02*
D03*
X0165Y01625D02*
D03*
X01838Y01354D02*
D03*
X0165D02*
D03*
X01838Y01625D02*
D03*
X0161Y019D02*
D03*
Y02092D02*
D03*
D43*
X0252Y0322D02*
D03*
X0262D02*
D03*
X0272D02*
D03*
X0282D02*
D03*
X01125Y01625D02*
D03*
Y01725D02*
D03*
Y01525D02*
D03*
Y02525D02*
D03*
Y02725D02*
D03*
Y02625D02*
D03*
X0277Y0192D02*
D03*
Y0182D02*
D03*
Y0172D02*
D03*
X0267Y0182D02*
D03*
Y0172D02*
D03*
X0164Y029D02*
D03*
X0174Y0322D02*
D03*
X0184D02*
D03*
X0194D02*
D03*
X0214D02*
D03*
X0204D02*
D03*
X0164D02*
D03*
X0154D02*
D03*
X0214Y0114D02*
D03*
X0144D02*
D03*
X0154D02*
D03*
X0164D02*
D03*
X0174D02*
D03*
X0184D02*
D03*
X0194D02*
D03*
X0204D02*
D03*
X0224D02*
D03*
X0288D02*
D03*
X0268D02*
D03*
X0278D02*
D03*
X03225Y02625D02*
D03*
Y02725D02*
D03*
Y02525D02*
D03*
Y02425D02*
D03*
Y02325D02*
D03*
Y02225D02*
D03*
Y01975D02*
D03*
Y01775D02*
D03*
Y01875D02*
D03*
D44*
X0292Y0322D02*
D03*
X0224D02*
D03*
X0234Y0114D02*
D03*
X0258D02*
D03*
D45*
X01125Y01825D02*
D03*
Y02825D02*
D03*
X0267Y0192D02*
D03*
X0164Y028D02*
D03*
X03225Y02825D02*
D03*
Y01675D02*
D03*
D46*
X012Y012D02*
D03*
X0315D02*
D03*
Y0315D02*
D03*
X012D02*
D03*
D47*
X02467Y02713D02*
D03*
X0256Y0215D02*
D03*
X0194Y0288D02*
D03*
X02226Y01565D02*
D03*
X022Y0257D02*
D03*
X02235Y02355D02*
D03*
M02*
