G04*
G04 #@! TF.GenerationSoftware,Altium Limited,Altium Designer,21.6.1 (37)*
G04*
G04 Layer_Color=32768*
%FSTAX23Y23*%
%MOIN*%
G70*
G04*
G04 #@! TF.SameCoordinates,3554761A-FA29-429D-AE60-9F5F3CB02BB6*
G04*
G04*
G04 #@! TF.FilePolarity,Positive*
G04*
G01*
G75*
%ADD18C,0.008*%
%ADD48C,0.004*%
%ADD49C,0.002*%
D18*
X01416Y02569D02*
X01455D01*
X01435Y02549D02*
Y02589D01*
X01612Y02549D02*
Y02589D01*
Y02459D02*
Y02499D01*
X01435Y02459D02*
Y02499D01*
X01416Y02479D02*
X01455D01*
X01416Y02389D02*
X01455D01*
X01435Y02369D02*
Y02409D01*
X01612Y02369D02*
Y02409D01*
X01416Y02299D02*
X01455D01*
X01435Y02279D02*
Y02319D01*
X01612Y02279D02*
Y02319D01*
D48*
X02212Y01976D02*
Y02016D01*
X02192Y01996D02*
X02232D01*
X0201Y02685D02*
X0205D01*
X0203Y02665D02*
Y02705D01*
X01888Y02514D02*
Y02856D01*
X02172Y02514D02*
Y02856D01*
X01888Y02514D02*
X02172D01*
X01888Y02856D02*
X02172D01*
D49*
X02007Y01791D02*
X02417D01*
X02007Y02201D02*
X02417D01*
Y01791D02*
Y02201D01*
X02007Y01791D02*
Y02201D01*
X02308Y02579D02*
X02601D01*
X02308D02*
Y02796D01*
X02601D01*
Y02579D02*
Y02796D01*
M02*
