G04*
G04 #@! TF.GenerationSoftware,Altium Limited,Altium Designer,21.6.1 (37)*
G04*
G04 Layer_Color=16711935*
%FSTAX24Y24*%
%MOIN*%
G70*
G04*
G04 #@! TF.SameCoordinates,EF07AD57-FAF1-4C8D-99CD-AC66FC3846F0*
G04*
G04*
G04 #@! TF.FilePolarity,Negative*
G04*
G01*
G75*
%ADD21C,0.0039*%
%ADD22C,0.0020*%
%ADD23C,0.0080*%
%ADD44C,0.0830*%
%ADD45C,0.0710*%
%ADD46R,0.0710X0.0710*%
%ADD47R,0.0710X0.0710*%
%ADD48C,0.1655*%
%ADD49C,0.0380*%
D21*
X02145Y023047D02*
G03*
X02145Y023047I-000197J0D01*
G01*
X020899Y020645D02*
Y023401D01*
X023655D02*
X023655Y020645D01*
X020899Y023401D02*
X023655D01*
X020899Y020645D02*
X023655D01*
X024985Y027843D02*
Y028157D01*
X025615Y027843D02*
Y028157D01*
X024985D02*
X025615D01*
X024985Y027843D02*
X025615D01*
X024985Y028757D02*
X025615D01*
X024985Y028443D02*
X025615D01*
X024985D02*
Y028757D01*
X025615Y028443D02*
Y028757D01*
X020259Y027585D02*
Y028215D01*
X019941Y027585D02*
X020259D01*
X019941D02*
Y028215D01*
X020259D01*
X021509Y028865D02*
X023045D01*
Y026935D02*
Y028865D01*
X021509Y026935D02*
X023045D01*
X021509D02*
Y028865D01*
Y028365D02*
X022009Y028865D01*
X018328Y028184D02*
X018446Y028066D01*
X018367Y028263D02*
X018485Y028144D01*
X018689Y027985D02*
Y0283D01*
X018532Y028064D02*
X018846D01*
X018689D02*
X018846Y028221D01*
X018532D02*
X018689Y028064D01*
X018532Y028221D02*
X018846D01*
X017428Y028184D02*
X017546Y028066D01*
X017467Y028263D02*
X017585Y028144D01*
X017789Y027985D02*
Y0283D01*
X017631Y028064D02*
X017946D01*
X017789D02*
X017946Y028221D01*
X017631D02*
X017789Y028064D01*
X017631Y028221D02*
X017946D01*
X016731Y028221D02*
X017046D01*
X016731D02*
X016889Y028064D01*
X017046Y028221D01*
X016731Y028064D02*
X017046D01*
X016889Y027985D02*
Y0283D01*
X016567Y028263D02*
X016685Y028144D01*
X016528Y028184D02*
X016646Y028066D01*
X015832Y028221D02*
X016146D01*
X015832D02*
X015989Y028064D01*
X016146Y028221D01*
X015832Y028064D02*
X016146D01*
X015989Y027985D02*
Y0283D01*
X015667Y028263D02*
X015785Y028144D01*
X015628Y028184D02*
X015746Y028066D01*
X017046Y026268D02*
Y026897D01*
X016731Y026268D02*
Y026897D01*
X017046D01*
X016731Y026268D02*
X017046D01*
X016157Y02629D02*
Y02692D01*
X015843Y02629D02*
Y02692D01*
X016157D01*
X015843Y02629D02*
X016157D01*
X018372Y014074D02*
Y016712D01*
X019828Y014074D02*
Y016712D01*
X018372D02*
X019828D01*
X018372Y014074D02*
X019828D01*
X017946Y026268D02*
Y026897D01*
X017631Y026268D02*
Y026897D01*
X017946D01*
X017631Y026268D02*
X017946D01*
X018846D02*
Y026897D01*
X018532Y026268D02*
Y026897D01*
X018846D01*
X018532Y026268D02*
X018846D01*
X022757Y018785D02*
Y019415D01*
X022443Y018785D02*
Y019415D01*
X022757D01*
X022443Y018785D02*
X022757D01*
X021843Y024585D02*
X022157D01*
X021843Y025215D02*
X022157D01*
X021843Y024585D02*
Y025215D01*
X022157Y024585D02*
Y025215D01*
X024785Y022943D02*
Y023257D01*
X025415Y022943D02*
Y023257D01*
X024785D02*
X025415D01*
X024785Y022943D02*
X025415D01*
X019655Y021383D02*
Y021697D01*
X019025Y021383D02*
Y021697D01*
Y021383D02*
X019655D01*
X019025Y021697D02*
X019655D01*
X021457Y024585D02*
Y025215D01*
X021143Y024585D02*
Y025215D01*
X021457D01*
X021143Y024585D02*
X021457D01*
X023215Y019425D02*
X02353D01*
X023215Y018795D02*
X02353D01*
Y019425D01*
X023215Y018795D02*
Y019425D01*
X019655Y022783D02*
Y023097D01*
X019025Y022783D02*
Y023097D01*
Y022783D02*
X019655D01*
X019025Y023097D02*
X019655D01*
X019655Y020683D02*
Y020997D01*
X019025Y020683D02*
Y020997D01*
Y020683D02*
X019655D01*
X019025Y020997D02*
X019655D01*
X019655Y022083D02*
Y022397D01*
X019025Y022083D02*
Y022397D01*
Y022083D02*
X019655D01*
X019025Y022397D02*
X019655D01*
X016085Y015243D02*
X016715D01*
X016085Y015557D02*
X016715D01*
Y015243D02*
Y015557D01*
X016085Y015243D02*
Y015557D01*
X025615Y027243D02*
Y027557D01*
X024985Y027243D02*
Y027557D01*
Y027243D02*
X025615D01*
X024985Y027557D02*
X025615D01*
X01608Y014343D02*
X01671D01*
X01608Y014657D02*
X01671D01*
Y014343D02*
Y014657D01*
X01608Y014343D02*
Y014657D01*
X02208Y022023D02*
X022474D01*
X022277Y021826D02*
Y02222D01*
X017387Y013976D02*
Y016811D01*
X020813Y013976D02*
Y016811D01*
X017387D02*
X020813D01*
X017387Y013976D02*
X020813D01*
X018903Y015393D02*
X019297D01*
X0191Y015196D02*
Y01559D01*
D22*
X02023Y019976D02*
Y02407D01*
X024324Y019976D02*
Y02407D01*
X02023D02*
X024324D01*
X02023Y019976D02*
X024324D01*
X020356Y027412D02*
Y028388D01*
X019844Y027412D02*
X020356D01*
X019844D02*
Y028388D01*
X020356D01*
X02081Y028983D02*
X023743D01*
Y026817D02*
Y028983D01*
X02081Y026817D02*
X023743D01*
X02081D02*
Y028983D01*
D23*
X018492Y027276D02*
X018886D01*
X018492Y029048D02*
X018886D01*
X018689Y028851D02*
Y029245D01*
X017592Y027276D02*
X017986D01*
X017592Y029048D02*
X017986D01*
X017789Y028851D02*
Y029245D01*
X016889Y028851D02*
Y029245D01*
X016692Y029048D02*
X017086D01*
X016692Y027276D02*
X017086D01*
X015989Y028851D02*
Y029245D01*
X015792Y029048D02*
X016186D01*
X015792Y027276D02*
X016186D01*
D44*
X02721Y01445D02*
D03*
X0245Y01633D02*
D03*
Y01445D02*
D03*
X02721Y01633D02*
D03*
X0168Y021035D02*
D03*
Y022965D02*
D03*
D45*
X012Y0286D02*
D03*
Y0266D02*
D03*
Y0276D02*
D03*
X0253Y0262D02*
D03*
X032448Y0221D02*
D03*
Y0201D02*
D03*
Y0191D02*
D03*
Y0181D02*
D03*
Y0171D02*
D03*
Y0161D02*
D03*
Y0151D02*
D03*
Y0141D02*
D03*
Y0211D02*
D03*
X0239Y0324D02*
D03*
X0249D02*
D03*
X0259D02*
D03*
X0175Y0315D02*
D03*
X0165D02*
D03*
X0185D02*
D03*
X0195D02*
D03*
X0205D02*
D03*
X0285Y0259D02*
D03*
Y0279D02*
D03*
Y0269D02*
D03*
X0297Y0223D02*
D03*
Y0213D02*
D03*
Y0203D02*
D03*
X0287Y0213D02*
D03*
Y0203D02*
D03*
X0253Y0111D02*
D03*
X0233D02*
D03*
X0223D02*
D03*
X0213D02*
D03*
X0203D02*
D03*
X0193D02*
D03*
X0183D02*
D03*
X0173D02*
D03*
X0243D02*
D03*
X012Y0183D02*
D03*
Y0163D02*
D03*
Y0173D02*
D03*
X0315Y0269D02*
D03*
Y0279D02*
D03*
Y0259D02*
D03*
D46*
X012Y0256D02*
D03*
X032448Y0231D02*
D03*
X0285Y0289D02*
D03*
X0287Y0223D02*
D03*
X012Y0153D02*
D03*
X0315Y0289D02*
D03*
D47*
X0243Y0262D02*
D03*
X0269Y0324D02*
D03*
X0155Y0315D02*
D03*
X0263Y0111D02*
D03*
D48*
X032Y0119D02*
D03*
X012D02*
D03*
X032Y032D02*
D03*
X012D02*
D03*
D49*
X0228Y02865D02*
D03*
M02*
